<?xml version="1.0" encoding="UTF-8" standalone="no"?>
<svg
   xmlns:dc="http://purl.org/dc/elements/1.1/"
   xmlns:cc="http://creativecommons.org/ns#"
   xmlns:rdf="http://www.w3.org/1999/02/22-rdf-syntax-ns#"
   xmlns:svg="http://www.w3.org/2000/svg"
   xmlns="http://www.w3.org/2000/svg"
   xmlns:sodipodi="http://sodipodi.sourceforge.net/DTD/sodipodi-0.dtd"
   xmlns:inkscape="http://www.inkscape.org/namespaces/inkscape"
   version="1.1"
   x="0px"
   y="0px"
   viewBox="0 0 100 100"
   enable-background="new 0 0 100 100"
   xml:space="preserve"
   id="svg26"
   sodipodi:docname="amoule.svg"
   inkscape:version="0.92.4 (5da689c313, 2019-01-14)"><metadata
     id="metadata32"><rdf:RDF><cc:Work
         rdf:about=""><dc:format>image/svg+xml</dc:format><dc:type
           rdf:resource="http://purl.org/dc/dcmitype/StillImage" /><dc:title></dc:title></cc:Work></rdf:RDF></metadata><defs
     id="defs30" /><sodipodi:namedview
     pagecolor="#ffffff"
     bordercolor="#666666"
     borderopacity="1"
     objecttolerance="10"
     gridtolerance="10"
     guidetolerance="10"
     inkscape:pageopacity="0"
     inkscape:pageshadow="2"
     inkscape:window-width="919"
     inkscape:window-height="480"
     id="namedview28"
     showgrid="false"
     inkscape:zoom="2.36"
     inkscape:cx="9.3220339"
     inkscape:cy="50"
     inkscape:window-x="0"
     inkscape:window-y="27"
     inkscape:window-maximized="0"
     inkscape:current-layer="svg26" /><g
     id="g1235"><path
       style="fill:#125e6b;fill-opacity:1"
       id="path2"
       d="m 34.093,61.451 c 2.719,4.471 5.286,8.694 5.286,14.424 0,0.978 0.793,1.771 1.771,1.771 h 17.7 c 0.978,0 1.771,-0.792 1.771,-1.771 0,-5.729 2.567,-9.953 5.286,-14.424 2.622,-4.313 5.333,-8.772 5.333,-14.487 0,-11.711 -9.528,-21.24 -21.24,-21.24 -11.712,0 -21.24,9.529 -21.24,21.24 0,5.715 2.711,10.175 5.333,14.487 z M 50,29.264 c 9.76,0 17.7,7.94 17.7,17.7 0,4.723 -2.34,8.572 -4.818,12.647 -2.596,4.27 -5.271,8.67 -5.732,14.493 H 42.851 C 42.39,68.281 39.714,63.88 37.119,59.611 34.64,55.537 32.3,51.688 32.3,46.964 c 0,-9.759 7.94,-17.7 17.7,-17.7 z"
       inkscape:connector-curvature="0" /><path
       style="fill:#125e6b;fill-opacity:1"
       id="path4"
       d="m 41.15,83.037 h 17.7 c 0.978,0 1.771,-0.792 1.771,-1.771 0,-0.978 -0.793,-1.77 -1.771,-1.77 h -17.7 c -0.978,0 -1.771,0.792 -1.771,1.77 0,0.979 0.793,1.771 1.771,1.771 z"
       inkscape:connector-curvature="0" /><path
       style="fill:#125e6b;fill-opacity:1"
       id="path6"
       d="m 41.15,88.429 h 17.7 c 0.978,0 1.771,-0.792 1.771,-1.771 0,-0.978 -0.793,-1.77 -1.771,-1.77 h -17.7 c -0.978,0 -1.771,0.792 -1.771,1.77 0,0.978 0.793,1.771 1.771,1.771 z"
       inkscape:connector-curvature="0" /><path
       style="fill:#125e6b;fill-opacity:1"
       id="path8"
       d="m 54.325,94.778 2.964,-3.388 c 0.536,-0.613 0.311,-1.11 -0.504,-1.11 h -13.57 c -0.814,0 -1.04,0.497 -0.504,1.11 l 2.964,3.388 C 45.783,94.901 46.002,95 46.165,95 h 7.67 c 0.163,0 0.382,-0.099 0.49,-0.222 z"
       inkscape:connector-curvature="0" /><path
       style="fill:#125e6b;fill-opacity:1"
       id="path10"
       d="M 9.511,48.44 H 20.869 V 45.49 H 9.511 c -0.815,0 -1.475,0.661 -1.475,1.475 0,0.814 0.66,1.475 1.475,1.475 z"
       inkscape:connector-curvature="0" /><path
       style="fill:#125e6b;fill-opacity:1"
       id="path12"
       d="m 79.131,48.44 h 11.358 c 0.815,0 1.475,-0.661 1.475,-1.476 0,-0.814 -0.66,-1.475 -1.475,-1.475 H 79.131 Z"
       inkscape:connector-curvature="0" /><path
       style="fill:#125e6b;fill-opacity:1"
       id="path14"
       d="m 22.413,76.638 8.031,-8.031 -2.086,-2.086 -8.031,8.031 c -0.576,0.576 -0.576,1.51 0,2.086 0.576,0.576 1.51,0.576 2.086,0 z"
       inkscape:connector-curvature="0" /><path
       style="fill:#125e6b;fill-opacity:1"
       id="path16"
       d="m 79.673,19.377 c 0.576,-0.576 0.576,-1.51 0,-2.086 -0.576,-0.576 -1.51,-0.576 -2.086,0 l -8.031,8.031 2.086,2.086 z"
       inkscape:connector-curvature="0" /><path
       style="fill:#125e6b;fill-opacity:1"
       id="path18"
       d="M 51.475,6.475 C 51.475,5.661 50.814,5 50,5 49.186,5 48.525,5.661 48.525,6.475 v 11.358 h 2.949 V 6.475 Z"
       inkscape:connector-curvature="0" /><path
       style="fill:#125e6b;fill-opacity:1"
       id="path20"
       d="m 28.357,27.409 2.086,-2.086 -8.031,-8.031 c -0.576,-0.576 -1.51,-0.576 -2.086,0 -0.576,0.576 -0.576,1.51 0,2.086 z"
       inkscape:connector-curvature="0" /><path
       style="fill:#125e6b;fill-opacity:1"
       id="path22"
       d="m 71.643,66.521 -2.086,2.086 8.031,8.031 c 0.576,0.576 1.51,0.576 2.086,0 0.576,-0.576 0.576,-1.51 0,-2.086 z"
       inkscape:connector-curvature="0" /><path
       style="fill:#125e6b;fill-opacity:1"
       id="path24"
       d="m 52.625,35.457 c 4.398,0.999 7.885,4.486 8.883,8.884 0.155,0.684 0.764,1.148 1.437,1.148 0.108,0 0.218,-0.012 0.328,-0.037 0.794,-0.18 1.292,-0.97 1.112,-1.765 -1.249,-5.5 -5.608,-9.86 -11.107,-11.108 -0.795,-0.18 -1.584,0.317 -1.765,1.112 -0.181,0.795 0.317,1.585 1.112,1.766 z"
       inkscape:connector-curvature="0" /></g></svg>