<?xml version="1.0" encoding="UTF-8" standalone="no"?>
<svg
   xmlns:dc="http://purl.org/dc/elements/1.1/"
   xmlns:cc="http://creativecommons.org/ns#"
   xmlns:rdf="http://www.w3.org/1999/02/22-rdf-syntax-ns#"
   xmlns:svg="http://www.w3.org/2000/svg"
   xmlns="http://www.w3.org/2000/svg"
   xmlns:sodipodi="http://sodipodi.sourceforge.net/DTD/sodipodi-0.dtd"
   xmlns:inkscape="http://www.inkscape.org/namespaces/inkscape"
   viewBox="0 0 100 100"
   x="0px"
   y="0px"
   version="1.1"
   id="svg54"
   sodipodi:docname="collectif.svg"
   inkscape:version="0.92.4 (5da689c313, 2019-01-14)">
  <metadata
     id="metadata60">
    <rdf:RDF>
      <cc:Work
         rdf:about="">
        <dc:format>image/svg+xml</dc:format>
        <dc:type
           rdf:resource="http://purl.org/dc/dcmitype/StillImage" />
        <dc:title></dc:title>
      </cc:Work>
    </rdf:RDF>
  </metadata>
  <defs
     id="defs58" />
  <sodipodi:namedview
     pagecolor="#ffffff"
     bordercolor="#666666"
     borderopacity="1"
     objecttolerance="10"
     gridtolerance="10"
     guidetolerance="10"
     inkscape:pageopacity="0"
     inkscape:pageshadow="2"
     inkscape:window-width="919"
     inkscape:window-height="480"
     id="namedview56"
     showgrid="false"
     inkscape:zoom="2.36"
     inkscape:cx="2.7542373"
     inkscape:cy="50"
     inkscape:window-x="0"
     inkscape:window-y="27"
     inkscape:window-maximized="0"
     inkscape:current-layer="svg54" />
  <g
     id="g893">
    <path
       style="fill:#125e6b;fill-opacity:1"
       id="path2"
       d="m 18.440752,51.843473 c 0.972639,0 1.872619,0.88146 1.871922,1.854093 -6.96e-4,0.971669 -0.900253,1.854095 -1.871922,1.854095 -0.971662,0 -1.853398,-0.882426 -1.854091,-1.854095 -6.92e-4,-0.972633 0.881459,-1.854093 1.854091,-1.854093 z"
       inkscape:connector-curvature="0" />
    <path
       style="fill:#125e6b;fill-opacity:1"
       id="path4"
       d="m 16.051831,56.139978 h 4.795681 l 3.369453,6.667602 -1.657986,0.837907 -1.711467,-3.422941 v 12.836033 h -2.192825 v -8.040344 h -0.410038 v 8.040344 H 16.051831 V 60.222546 L 14.322525,63.645487 12.68237,62.80758 Z"
       inkscape:connector-curvature="0" />
    <path
       style="fill:#125e6b;fill-opacity:1"
       id="path6"
       d="m 66.994428,25.003388 c 0.612142,0 1.178604,0.554757 1.17812,1.166898 -4.83e-4,0.61153 -0.566587,1.166898 -1.17812,1.166898 -0.611529,0 -1.166418,-0.555368 -1.166897,-1.166898 -4.85e-4,-0.612141 0.554759,-1.166898 1.166897,-1.166898 z"
       inkscape:connector-curvature="0" />
    <path
       style="fill:#125e6b;fill-opacity:1"
       id="path8"
       d="m 65.490927,27.70745 h 3.018226 l 2.120613,4.196344 -1.043476,0.527348 -1.077137,-2.154273 v 8.078523 h -1.380081 v -5.060297 h -0.258064 v 5.060297 h -1.380081 v -8.078523 l -1.088358,2.154273 -1.032256,-0.527348 z"
       inkscape:connector-curvature="0" />
    <path
       style="fill:#125e6b;fill-opacity:1"
       id="path10"
       d="m 46.908591,57.041787 c 1.182711,0 2.277073,1.071844 2.276229,2.254552 -8.61e-4,1.181533 -1.094699,2.254551 -2.276229,2.254551 -1.18153,0 -2.253709,-1.073018 -2.254553,-2.254551 -8.61e-4,-1.182708 1.071842,-2.254552 2.254553,-2.254552 z"
       inkscape:connector-curvature="0" />
    <path
       style="fill:#125e6b;fill-opacity:1"
       id="path12"
       d="m 44.00369,62.266277 h 5.831481 l 4.097213,8.107708 -2.01609,1.018882 -2.081123,-4.162248 v 15.608435 h -2.66644 V 73.06211 h -0.498604 v 9.776944 H 44.00369 V 67.230619 l -2.102804,4.162248 -1.994411,-1.018882 z"
       inkscape:connector-curvature="0" />
    <path
       style="fill:#125e6b;fill-opacity:1"
       id="path14"
       d="m 66.795702,50.523751 c 1.120136,0 2.156648,1.015135 2.155797,2.135266 -8.62e-4,1.11902 -1.036778,2.135267 -2.155797,2.135267 -1.119017,0 -2.134415,-1.016247 -2.135267,-2.135267 -8.62e-4,-1.120131 1.015131,-2.135266 2.135267,-2.135266 z"
       inkscape:connector-curvature="0" />
    <path
       style="fill:#125e6b;fill-opacity:1"
       id="path16"
       d="m 64.044496,55.47182 h 5.522945 l 3.880435,7.678741 -1.909421,0.964975 -1.971014,-3.94203 V 74.956119 H 67.042079 V 65.69646 h -0.472222 v 9.259659 H 64.044496 V 60.173506 l -1.991547,3.94203 -1.888891,-0.964975 z"
       inkscape:connector-curvature="0" />
    <path
       style="fill:#125e6b;fill-opacity:1"
       id="path18"
       d="m 33.243693,43.28141 c 0.887274,0 1.708288,0.8041 1.707633,1.69137 -6.55e-4,0.886389 -0.821245,1.69137 -1.707633,1.69137 -0.886385,0 -1.690715,-0.804981 -1.69137,-1.69137 -6.56e-4,-0.88727 0.804098,-1.69137 1.69137,-1.69137 z"
       inkscape:connector-curvature="0" />
    <path
       style="fill:#125e6b;fill-opacity:1"
       id="path20"
       d="m 31.064431,47.200835 h 4.374791 l 3.073738,6.082422 -1.512475,0.764368 -1.561263,-3.122529 v 11.709483 h -2.000371 v -7.334686 h -0.374053 v 7.334686 H 31.064431 V 50.925096 l -1.577529,3.122529 -1.496211,-0.764368 z"
       inkscape:connector-curvature="0" />
    <path
       style="fill:#125e6b;fill-opacity:1"
       id="path22"
       d="m 55.402454,36.168742 c 0.814525,0 1.568233,0.738171 1.567623,1.552693 -6.09e-4,0.813713 -0.75391,1.552694 -1.567623,1.552694 -0.813711,0 -1.552084,-0.738981 -1.552693,-1.552694 -6.09e-4,-0.814522 0.738168,-1.552693 1.552693,-1.552693 z"
       inkscape:connector-curvature="0" />
    <path
       style="fill:#125e6b;fill-opacity:1"
       id="path24"
       d="m 53.401871,39.76681 h 4.016099 l 2.821721,5.583723 -1.388466,0.701696 -1.433255,-2.866511 v 10.749417 h -1.836358 v -6.733311 h -0.343385 v 6.733311 H 53.401871 V 43.185718 l -1.448187,2.866511 -1.373536,-0.701696 z"
       inkscape:connector-curvature="0" />
    <path
       style="fill:#125e6b;fill-opacity:1"
       id="path26"
       d="m 42.489733,26.618181 c 0.757296,0 1.458048,0.686306 1.457482,1.443601 -5.67e-4,0.756542 -0.700942,1.4436 -1.457482,1.4436 -0.75654,0 -1.443035,-0.687058 -1.443601,-1.4436 -5.66e-4,-0.757295 0.686305,-1.443601 1.443601,-1.443601 z"
       inkscape:connector-curvature="0" />
    <path
       style="fill:#125e6b;fill-opacity:1"
       id="path28"
       d="m 40.62971,29.963447 h 3.733927 l 2.623467,5.191411 -1.290911,0.652394 -1.332556,-2.665109 v 9.994163 h -1.707335 v -6.260228 h -0.319258 v 6.260228 H 40.62971 v -9.994163 l -1.346437,2.665109 -1.277031,-0.652394 z"
       inkscape:connector-curvature="0" />
    <path
       style="fill:#125e6b;fill-opacity:1"
       id="path30"
       d="m 25.215891,24.629857 c 0.697065,0 1.342113,0.63172 1.341562,1.328785 -5.5e-4,0.696368 -0.64519,1.328783 -1.341562,1.328783 -0.696369,0 -1.328237,-0.632415 -1.328786,-1.328783 -5.5e-4,-0.697065 0.631724,-1.328785 1.328786,-1.328785 z"
       inkscape:connector-curvature="0" />
    <path
       style="fill:#125e6b;fill-opacity:1"
       id="path32"
       d="m 23.503803,27.70906 h 3.436953 l 2.414812,4.778515 -1.18824,0.600509 -1.226572,-2.453142 v 9.19928 h -1.571543 v -5.762325 h -0.293867 v 5.762325 h -1.571543 v -9.19928 l -1.239349,2.453142 -1.175462,-0.600509 z"
       inkscape:connector-curvature="0" />
    <path
       style="fill:#125e6b;fill-opacity:1"
       id="path34"
       d="m 53.205661,17.321287 c 0.529932,0 1.020319,0.480254 1.019901,1.010186 -4.19e-4,0.529402 -0.490497,1.010186 -1.019901,1.010186 -0.529403,0 -1.009771,-0.480784 -1.010186,-1.010186 -4.21e-4,-0.529932 0.480256,-1.010186 1.010186,-1.010186 z"
       inkscape:connector-curvature="0" />
    <path
       style="fill:#125e6b;fill-opacity:1"
       id="path36"
       d="m 51.904076,19.6622 h 2.612884 l 1.835821,3.632785 -0.903341,0.456525 -0.93248,-1.864959 v 6.993597 h -1.194738 v -4.38071 h -0.223406 v 4.38071 h -1.19474 v -6.993597 l -0.942194,1.864959 -0.893625,-0.456525 z"
       inkscape:connector-curvature="0" />
    <path
       style="fill:#125e6b;fill-opacity:1"
       id="path38"
       d="m 9.6150869,33.522281 c 0.7795271,0 1.5008791,0.706449 1.5002611,1.485973 -6.1e-4,0.778745 -0.72151,1.485973 -1.5002611,1.485973 -0.778744,0 -1.4853629,-0.707228 -1.4859731,-1.485973 -6.176e-4,-0.779524 0.7064536,-1.485973 1.4859731,-1.485973 z"
       inkscape:connector-curvature="0" />
    <path
       style="fill:#125e6b;fill-opacity:1"
       id="path40"
       d="M 7.7004696,36.965737 H 11.544 l 2.700462,5.343787 -1.328798,0.671545 L 11.544,40.237734 V 50.525238 H 9.7865502 V 44.08126 h -0.328631 v 6.443978 H 7.7004696 V 40.237734 L 6.3145169,42.981069 5,42.309524 Z"
       inkscape:connector-curvature="0" />
    <path
       style="fill:#125e6b;fill-opacity:1"
       id="path42"
       d="m 87.233731,59.475756 c 1.307735,0 2.517785,1.185147 2.516846,2.492877 -7.33e-4,1.30643 -1.210416,2.492875 -2.516846,2.492875 -1.306423,0 -2.491942,-1.186445 -2.492872,-2.492875 -7.35e-4,-1.30773 1.185144,-2.492877 2.492872,-2.492877 z"
       inkscape:connector-curvature="0" />
    <path
       style="fill:#125e6b;fill-opacity:1"
       id="path44"
       d="m 84.021761,65.252515 h 6.447914 L 95,74.217275 92.770791,75.34386 90.469675,70.741629 V 88 H 87.521376 V 77.189555 H 86.97006 V 88 H 84.021761 V 70.741629 l -2.325083,4.602231 -2.20524,-1.126585 z"
       inkscape:connector-curvature="0" />
    <path
       style="fill:#125e6b;fill-opacity:1"
       id="path46"
       d="m 75.883929,13.819009 c 0.488858,0 0.941238,0.443031 0.940852,0.93189 -3.86e-4,0.488371 -0.45248,0.931891 -0.940852,0.931891 -0.488371,0 -0.931508,-0.44352 -0.931891,-0.931891 -3.87e-4,-0.488859 0.443033,-0.93189 0.931891,-0.93189 z"
       inkscape:connector-curvature="0" />
    <path
       style="fill:#125e6b;fill-opacity:1"
       id="path48"
       d="m 74.683225,15.978487 h 2.41037 l 1.693533,3.351222 -0.833327,0.421142 -0.860206,-1.720413 v 6.45155 H 75.991456 V 20.44081 h -0.206091 v 4.041178 h -1.10214 v -6.45155 l -0.869169,1.720413 -0.824364,-0.421142 z"
       inkscape:connector-curvature="0" />
    <path
       style="fill:#125e6b;fill-opacity:1"
       id="path50"
       d="m 87.680401,10.987358 c 0.413315,0 0.795789,0.374569 0.795461,0.787884 -3.26e-4,0.412902 -0.382558,0.787885 -0.795461,0.787885 -0.412902,0 -0.787561,-0.374983 -0.787885,-0.787885 -3.28e-4,-0.413315 0.374571,-0.787884 0.787885,-0.787884 z"
       inkscape:connector-curvature="0" />
    <path
       style="fill:#125e6b;fill-opacity:1"
       id="path52"
       d="m 86.665243,12.81313 h 2.037893 l 1.43183,2.833355 -0.704552,0.356062 -0.727278,-1.454555 v 5.454586 h -0.931825 v -3.416692 h -0.174243 v 3.416692 h -0.931825 v -5.454586 l -0.734856,1.454555 -0.696974,-0.356062 z"
       inkscape:connector-curvature="0" />
  </g>
</svg>
