<?xml version="1.0" encoding="UTF-8" standalone="no"?>
<svg
   xmlns:dc="http://purl.org/dc/elements/1.1/"
   xmlns:cc="http://creativecommons.org/ns#"
   xmlns:rdf="http://www.w3.org/1999/02/22-rdf-syntax-ns#"
   xmlns:svg="http://www.w3.org/2000/svg"
   xmlns="http://www.w3.org/2000/svg"
   xmlns:sodipodi="http://sodipodi.sourceforge.net/DTD/sodipodi-0.dtd"
   xmlns:inkscape="http://www.inkscape.org/namespaces/inkscape"
   version="1.1"
   x="0px"
   y="0px"
   viewBox="0 0 128 128"
   style="enable-background:new 0 0 128 128;"
   xml:space="preserve"
   id="svg10"
   sodipodi:docname="contact.svg"
   inkscape:version="0.92.4 (5da689c313, 2019-01-14)"><metadata
     id="metadata16"><rdf:RDF><cc:Work
         rdf:about=""><dc:format>image/svg+xml</dc:format><dc:type
           rdf:resource="http://purl.org/dc/dcmitype/StillImage" /><dc:title></dc:title></cc:Work></rdf:RDF></metadata><defs
     id="defs14" /><sodipodi:namedview
     pagecolor="#ffffff"
     bordercolor="#666666"
     borderopacity="1"
     objecttolerance="10"
     gridtolerance="10"
     guidetolerance="10"
     inkscape:pageopacity="0"
     inkscape:pageshadow="2"
     inkscape:window-width="1600"
     inkscape:window-height="836"
     id="namedview12"
     showgrid="false"
     inkscape:zoom="1.84375"
     inkscape:cx="3.5254237"
     inkscape:cy="64"
     inkscape:window-x="0"
     inkscape:window-y="27"
     inkscape:window-maximized="1"
     inkscape:current-layer="svg10" /><g
     id="g8"
     style="fill:#125e6b;fill-opacity:1"><path
       d="m 98.7,69.1 c 3.6,-10.8 5.1,-21.4 5.8,-28.5 0.7,-7.1 0.8,-10.7 0.6,-12.7 0,-0.6 -0.1,-1.2 -0.4,-1.7 -0.2,-0.4 -0.4,-0.6 -0.6,-0.8 v 0 c -0.1,-0.1 -0.3,-0.2 -0.4,-0.3 -1.2,-0.8 -2.8,-0.5 -3.8,0.5 -0.8,0.6 -4.4,2.2 -7.4,3.3 -2.4,0.6 -4.9,1.3 -7.4,2.1 -0.1,0 -0.1,0 -0.2,0 -19.5,6.1 -44.6,19.2 -53.2,47 -0.6,2 -1.1,4 -1.5,5.9 0,0.1 -0.1,0.3 -0.1,0.4 -0.1,0.4 -0.2,0.9 -0.2,1.3 0,0.2 -0.1,0.4 -0.1,0.7 -0.1,0.6 -0.2,1.2 -0.3,1.8 0,0.3 -0.1,0.7 -0.1,1 0,0.3 -0.1,0.6 -0.1,0.8 -0.1,0.5 -0.1,0.9 -0.2,1.4 0,0.2 0,0.5 0,0.6 0,0.5 -0.1,1 -0.1,1.4 0,0.1 0,0.3 0,0.4 0,0.6 -0.1,1.2 -0.1,1.7 v 0 c 0,0.6 0,1.2 0,1.7 0,0.1 0,0.1 0,0.2 0,4.1 0.4,7.4 0.7,9.4 -3,4.9 -5.8,10.3 -8.2,16.2 -0.6,1.5 0.1,3.3 1.6,3.9 0.4,0.2 0.8,0.2 1.1,0.2 1.2,0 2.3,-0.7 2.8,-1.9 2,-5 4.3,-9.5 6.8,-13.7 3.8,0.5 7.4,0.8 10.9,0.8 20,0 35.5,-8.6 46.1,-25.8 0.9,-1.4 0.4,-3.3 -1,-4.1 -1.4,-0.9 -3.3,-0.4 -4.1,1 C 75.5,99.5 60.5,107.2 40.7,106.1 39.1,106 38.3,104.2 39.2,102.9 47.1,92.1 56.5,83.2 66.1,74 76.2,64.2 86.7,54.3 96.5,41.2 c 0.6,-0.8 1.9,-0.3 1.8,0.7 -0.7,6.5 -2,14.5 -4.4,22.6 -0.3,0.9 -0.9,1.6 -1.8,1.9 l -9.3,3.8 c -1.5,0.6 -2.3,2.4 -1.6,3.9 0.5,1.2 1.6,1.9 2.8,1.9 0.4,0 0.8,-0.1 1.1,-0.2 L 97,70.9 c 0.8,-0.3 1.4,-1 1.7,-1.8 z m 1.1,-43.4 -0.1,0.1 v 0 c 0.1,-0.1 0.1,-0.1 0.1,-0.1 z"
       id="path2"
       inkscape:connector-curvature="0"
       style="fill:#125e6b;fill-opacity:1" /><path
       d="m 49,121 c -1.7,0 -3,1.3 -3,3 0,1.7 1.3,3 3,3 h 40 c 1.7,0 3,-1.3 3,-3 0,-1.7 -1.3,-3 -3,-3 z"
       id="path4"
       inkscape:connector-curvature="0"
       style="fill:#125e6b;fill-opacity:1" /><path
       d="m 104,127 c 0.8,0 1.6,-0.3 2.1,-0.9 0.6,-0.6 0.9,-1.3 0.9,-2.1 0,-0.2 0,-0.4 -0.1,-0.6 0,-0.2 -0.1,-0.4 -0.2,-0.6 -0.1,-0.2 -0.2,-0.3 -0.3,-0.5 -0.1,-0.2 -0.2,-0.3 -0.4,-0.5 -1.1,-1.1 -3.1,-1.1 -4.2,0 -0.6,0.6 -0.9,1.3 -0.9,2.1 0,0.8 0.3,1.6 0.9,2.1 0.6,0.7 1.4,1 2.2,1 z"
       id="path6"
       inkscape:connector-curvature="0"
       style="fill:#125e6b;fill-opacity:1" /></g></svg>