<?xml version="1.0" encoding="UTF-8" standalone="no"?>
<svg
   xmlns:dc="http://purl.org/dc/elements/1.1/"
   xmlns:cc="http://creativecommons.org/ns#"
   xmlns:rdf="http://www.w3.org/1999/02/22-rdf-syntax-ns#"
   xmlns:svg="http://www.w3.org/2000/svg"
   xmlns="http://www.w3.org/2000/svg"
   xmlns:sodipodi="http://sodipodi.sourceforge.net/DTD/sodipodi-0.dtd"
   xmlns:inkscape="http://www.inkscape.org/namespaces/inkscape"
   version="1.1"
   x="0px"
   y="0px"
   viewBox="0 0 100 100"
   enable-background="new 0 0 100 100"
   xml:space="preserve"
   id="svg38"
   sodipodi:docname="cookie.svg"
   inkscape:version="0.92.4 (5da689c313, 2019-01-14)"><metadata
     id="metadata44"><rdf:RDF><cc:Work
         rdf:about=""><dc:format>image/svg+xml</dc:format><dc:type
           rdf:resource="http://purl.org/dc/dcmitype/StillImage" /><dc:title></dc:title></cc:Work></rdf:RDF></metadata><defs
     id="defs42" /><sodipodi:namedview
     pagecolor="#ffffff"
     bordercolor="#666666"
     borderopacity="1"
     objecttolerance="10"
     gridtolerance="10"
     guidetolerance="10"
     inkscape:pageopacity="0"
     inkscape:pageshadow="2"
     inkscape:window-width="919"
     inkscape:window-height="480"
     id="namedview40"
     showgrid="false"
     inkscape:zoom="2.36"
     inkscape:cx="2.7542373"
     inkscape:cy="50"
     inkscape:window-x="0"
     inkscape:window-y="27"
     inkscape:window-maximized="0"
     inkscape:current-layer="svg38" /><g
     id="g869"
     style="fill:#ffffff"><g
       id="g4"
       style="fill:#ffffff"><path
         style="fill:#ffffff"
         inkscape:connector-curvature="0"
         id="path2"
         d="m 49.666,92.435 c -22.656,0 -41.091,-18.43 -41.091,-41.086 0,-22.648 18.435,-41.082 41.091,-41.088 1.594,0 3.274,0.119 5.283,0.373 l 3.085,0.391 -0.45,3.078 c -0.087,0.586 -0.157,0.994 -0.157,1.422 0,5.27 4.288,9.557 9.558,9.557 0.879,0 1.819,-0.164 2.879,-0.504 l 3.144,-1.012 0.756,3.217 c 0.619,2.629 2.365,4.879 4.795,6.182 l 1.845,0.988 -0.309,2.457 c -0.034,0.26 -0.08,0.516 -0.08,0.779 0,4.711 3.394,8.66 8.071,9.398 l 2.459,0.391 0.148,3.053 c 0.029,0.438 0.058,0.873 0.058,1.318 C 90.75,74.005 72.319,92.435 49.666,92.435 Z m 0,-76.073 c -19.293,0.004 -34.989,15.699 -34.989,34.986 0,19.291 15.694,34.986 34.989,34.986 19.069,0 34.624,-15.336 34.979,-34.32 -6.329,-2.074 -10.706,-7.932 -10.731,-14.773 -2.219,-1.594 -3.977,-3.729 -5.101,-6.186 -0.618,0.084 -1.226,0.127 -1.828,0.127 -8.336,0 -15.17,-6.549 -15.631,-14.77 -0.592,-0.034 -1.149,-0.05 -1.688,-0.05 z" /></g><g
       id="g8"
       style="fill:#ffffff"><path
         style="fill:#ffffff"
         inkscape:connector-curvature="0"
         id="path6"
         d="m 51.13,66.601 c 1.867,2.66 4.42,4.695 7.478,5.805 1.082,0.395 2.739,-0.016 3.47,-0.92 1.51,-1.85 2.766,-3.754 3.014,-6.186 0.229,-2.26 -1.121,-4.457 -3.123,-5.459 -1.27,-0.631 -2.566,-0.836 -3.971,-0.953 -1.454,-0.121 -2.483,0.338 -3.601,1.227 -0.904,0.725 -1.808,1.441 -2.712,2.168 -1.521,1.221 -1.263,3.783 0,5.043 1.486,1.49 3.527,1.215 5.043,0 0.996,-0.787 1.978,-1.584 2.971,-2.379 -0.84,0.354 -1.681,0.697 -2.521,1.047 0.401,0.006 0.799,0.021 1.201,0.055 -0.694,-0.055 0.442,0.162 0.596,0.207 -0.889,-0.293 0.244,0.383 -0.555,-0.307 0.253,0.279 0.189,0.189 -0.189,-0.25 -0.206,-0.559 -0.261,-0.658 -0.16,-0.299 -0.246,-0.986 -0.185,0.117 -0.025,-0.82 -0.036,0.217 -0.454,1.178 -0.084,0.383 -0.128,0.275 -0.292,0.531 -0.45,0.799 -0.116,0.188 -0.244,0.369 -0.369,0.551 0.205,-0.252 0.173,-0.209 -0.105,0.133 1.157,-0.309 2.309,-0.613 3.466,-0.916 -0.973,-0.354 0.614,0.328 -0.401,-0.201 -0.464,-0.238 -0.894,-0.539 -1.315,-0.836 0.181,0.152 0.104,0.082 -0.237,-0.201 -0.201,-0.174 -0.396,-0.354 -0.594,-0.551 -0.121,-0.113 -0.918,-1.086 -0.664,-0.732 -1.121,-1.592 -3.099,-2.326 -4.882,-1.281 -1.576,0.919 -2.407,3.281 -1.281,4.873 z" /></g><g
       id="g12"
       style="fill:#ffffff"><path
         style="fill:#ffffff"
         inkscape:connector-curvature="0"
         id="path10"
         d="m 60.814,42.579 c 2.252,1.762 3.706,4.143 5.387,6.412 1.623,-1.625 3.251,-3.258 4.874,-4.877 -2.194,-1.553 -4.763,-1.863 -7.13,-2.973 0.548,1.342 1.094,2.682 1.644,4.02 0.393,-1.381 0.788,-2.766 1.183,-4.158 1.27,-4.43 -5.614,-6.312 -6.877,-1.896 -0.397,1.387 -0.792,2.775 -1.189,4.166 -0.404,1.428 0.222,3.355 1.64,4.021 2.347,1.102 5.005,1.469 7.137,2.973 2.852,2.01 6.993,-2.027 4.873,-4.879 -2.005,-2.715 -3.798,-5.746 -6.494,-7.855 -1.529,-1.195 -3.55,-1.498 -5.041,0 -1.253,1.251 -1.545,3.843 -0.007,5.046 z" /></g><g
       id="g16"
       style="fill:#ffffff"><path
         style="fill:#ffffff"
         inkscape:connector-curvature="0"
         id="path14"
         d="m 36.346,68.124 c 0,0.654 -0.007,1.307 -0.046,1.963 -0.038,0.439 -0.038,0.455 -0.002,0.037 -0.022,0.111 -0.37,1.039 -0.06,0.367 1.025,-0.594 2.053,-1.18 3.083,-1.771 -0.293,-0.004 -0.576,-0.014 -0.87,-0.037 0.981,0.078 -0.032,-0.049 -0.271,-0.121 0.867,0.266 0.321,0.148 0.062,-0.004 -0.311,-0.213 -0.233,-0.158 0.229,0.176 -0.252,-0.271 -0.201,-0.186 0.148,0.254 -0.126,-0.168 -0.227,-0.363 -0.327,-0.555 0.471,0.912 0.037,-0.016 -0.039,-0.289 -0.036,-0.18 -0.072,-0.354 -0.1,-0.527 0.059,0.471 0.065,0.492 0.022,0.062 -0.043,-0.443 -0.043,-0.893 -0.048,-1.332 -1.505,1.146 -3.01,2.289 -4.512,3.438 1.781,0.592 3.564,1.189 5.348,1.781 1.847,0.617 3.893,-0.693 4.386,-2.49 0.536,-1.945 -0.644,-3.77 -2.489,-4.383 -1.78,-0.596 -3.563,-1.189 -5.347,-1.785 -2.208,-0.732 -4.532,1.209 -4.514,3.439 0.021,2.143 0.232,4.643 1.594,6.412 1.691,2.197 3.983,3.057 6.729,3.098 1.155,0.016 2.575,-0.67 3.073,-1.771 0.895,-1.938 1.082,-3.842 1.086,-5.957 -0.001,-4.603 -7.13,-4.603 -7.135,-0.005 z" /></g><g
       id="g20"
       style="fill:#ffffff"><path
         style="fill:#ffffff"
         inkscape:connector-curvature="0"
         id="path18"
         d="m 33.688,45.544 c -0.082,0.621 0.913,-1.98 0.678,-1.309 0.247,-0.703 0.309,-1.4 0.409,-2.135 0.212,-1.607 -1.259,-2.984 -2.619,-3.441 -0.78,-0.26 -1.607,-0.287 -2.391,-0.545 -1.434,-0.479 -3.343,0.277 -4.025,1.639 -2.009,3.99 -5.591,10.154 -3.214,14.711 1.872,3.584 6.42,2.516 9.18,0.867 2.631,-1.564 5.982,-4.395 4.279,-7.799 -2.292,-4.588 -9.107,0.172 -11.713,1.734 1.783,1.025 3.575,2.053 5.361,3.078 0.038,-1.158 0.483,-2.227 0.621,-3.395 0.228,-1.953 -1.549,-3.803 -2.665,-5.154 0.35,0.838 0.699,1.682 1.046,2.52 -0.096,0.209 -0.188,0.416 -0.283,0.621 -0.712,0.545 -1.42,1.088 -2.13,1.639 -0.722,0.297 -0.176,0.016 0.253,-0.002 0.938,-0.043 1.706,-0.328 2.532,-0.766 -0.918,0.121 -1.833,0.244 -2.749,0.361 0.973,0.271 1.943,0.543 2.918,0.814 4.437,1.24 6.317,-5.639 1.893,-6.877 -0.973,-0.271 -1.945,-0.543 -2.918,-0.814 -0.632,-0.172 -1.263,-0.172 -1.895,0 -2.772,0.76 0.904,0.174 -0.466,0.16 -1.519,-0.02 -2.706,0.689 -3.597,1.879 -0.634,0.85 -0.741,1.963 -0.693,2.984 0.075,1.525 1.004,2.326 1.787,3.504 -0.396,-0.6 0.097,-2.1 -0.354,-0.709 -0.338,1.027 -0.402,2.168 -0.438,3.234 -0.089,2.705 3.096,4.447 5.361,3.084 1.463,-0.871 2.929,-1.732 4.466,-2.463 0.855,-0.4 -0.544,0.145 0.589,-0.217 0.35,-0.111 1.002,-0.137 -0.399,0.018 -1.402,0.143 -3.08,-1.68 -3.167,-3.346 -0.019,-0.363 0.345,-1.414 0.388,-1.506 -0.134,0.264 -0.552,0.725 0.295,-0.342 -0.212,0.268 -0.454,0.5 -0.705,0.732 -0.11,0.102 -0.222,0.197 -0.338,0.291 -0.667,0.561 0.582,-0.436 0.094,-0.066 -0.359,0.266 -0.738,0.508 -1.124,0.744 -0.333,0.193 -0.678,0.369 -1.029,0.531 1.189,-0.543 -0.048,-0.02 -0.427,0.055 1.148,-0.229 0.765,-0.082 0.434,-0.07 -0.765,0.025 0.87,0.18 0.372,0.049 1.027,0.277 1.347,0.848 1.582,1.533 -0.096,-0.275 -0.107,-0.848 0.016,0.338 -0.027,-0.26 -0.011,-0.518 0.005,-0.773 0.037,-0.533 -0.155,0.773 0.064,-0.273 0.084,-0.4 0.193,-0.797 0.314,-1.195 0.626,-2.131 1.614,-4.133 2.607,-6.109 -1.343,0.551 -2.685,1.094 -4.027,1.639 0.783,0.262 1.607,0.285 2.389,0.547 -0.873,-1.146 -1.747,-2.293 -2.617,-3.439 0.082,-0.621 -0.911,1.982 -0.673,1.311 -0.249,0.703 -0.315,1.4 -0.409,2.137 -0.254,1.93 1.817,3.564 3.564,3.564 2.139,-0.005 3.313,-1.647 3.568,-3.573 z" /></g><g
       id="g24"
       style="fill:#ffffff"><path
         style="fill:#ffffff"
         inkscape:connector-curvature="0"
         id="path22"
         d="m 41.796,45.931 c 1.58,1.523 3.648,2.682 5.911,2.586 2.055,-0.092 4.189,-1.162 5.137,-3.064 1.087,-2.174 0.69,-4.488 -0.936,-6.27 -1.703,-1.875 -4.621,-2.283 -6.993,-2.311 -1.5,-0.021 -3.135,1.092 -3.443,2.615 -0.196,0.99 -0.395,1.98 -0.596,2.971 -0.379,1.906 0.521,3.844 2.495,4.389 1.77,0.486 4.003,-0.582 4.386,-2.492 0.197,-0.99 0.397,-1.98 0.597,-2.973 -1.151,0.873 -2.293,1.748 -3.438,2.615 0.338,0.006 0.664,0.02 1.004,0.039 0.43,0.047 0.407,0.035 -0.07,-0.023 0.176,0.025 0.35,0.059 0.519,0.102 0.248,0.053 1.273,0.434 0.224,-0.012 0.224,0.096 0.436,0.229 0.639,0.367 -0.84,-0.572 -0.477,-0.377 -0.265,-0.139 -0.397,-0.555 -0.505,-0.684 -0.328,-0.389 -0.247,-0.662 -0.322,-0.828 -0.211,-0.5 0.167,0.508 -0.031,-1.107 -0.07,-0.361 0.128,-0.746 0.15,-0.949 0.055,-0.605 -0.112,0.33 -0.036,0.158 0.227,-0.52 -0.138,0.268 -0.507,0.578 0.273,-0.326 -0.5,0.58 0.674,-0.445 0.222,-0.148 -0.669,0.438 0.753,-0.252 0.219,-0.08 -0.808,0.256 0.8,-0.045 0.203,-0.016 -0.29,0.012 -0.876,-0.117 0.288,0.066 -0.271,-0.047 -1.082,-0.361 -0.036,0.078 -0.259,-0.113 -0.503,-0.262 -0.74,-0.414 -0.306,-0.219 -0.253,-0.18 0.155,0.117 -0.128,-0.113 -0.256,-0.229 -0.384,-0.352 -1.395,-1.348 -3.648,-1.395 -5.041,0 -1.361,1.362 -1.401,3.702 -0.003,5.05 z" /></g><g
       id="g28"
       style="fill:#ffffff"><path
         style="fill:#ffffff"
         inkscape:connector-curvature="0"
         id="path26"
         d="m 76.012,14.702 c 4.601,0 4.601,-7.137 0,-7.137 -4.599,0 -4.599,7.137 0,7.137 z" /></g><g
       id="g32"
       style="fill:#ffffff"><path
         style="fill:#ffffff"
         inkscape:connector-curvature="0"
         id="path30"
         d="m 84.334,24.999 c 4.599,0 4.599,-7.131 0,-7.131 -4.601,0 -4.601,7.131 0,7.131 z" /></g><g
       id="g36"
       style="fill:#ffffff"><path
         style="fill:#ffffff"
         inkscape:connector-curvature="0"
         id="path34"
         d="m 89.487,42.456 c 2.584,0 2.584,-4.004 0,-4.004 -2.585,0 -2.585,4.004 0,4.004 z" /></g></g></svg>