<?xml version="1.0" encoding="UTF-8" standalone="no"?>
<svg
   xmlns:dc="http://purl.org/dc/elements/1.1/"
   xmlns:cc="http://creativecommons.org/ns#"
   xmlns:rdf="http://www.w3.org/1999/02/22-rdf-syntax-ns#"
   xmlns:svg="http://www.w3.org/2000/svg"
   xmlns="http://www.w3.org/2000/svg"
   xmlns:sodipodi="http://sodipodi.sourceforge.net/DTD/sodipodi-0.dtd"
   xmlns:inkscape="http://www.inkscape.org/namespaces/inkscape"
   viewBox="0 0 61.17 54.72"
   x="0px"
   y="0px"
   version="1.1"
   id="svg16"
   sodipodi:docname="legal.svg"
   inkscape:version="0.92.4 (5da689c313, 2019-01-14)">
  <metadata
     id="metadata22">
    <rdf:RDF>
      <cc:Work
         rdf:about="">
        <dc:format>image/svg+xml</dc:format>
        <dc:type
           rdf:resource="http://purl.org/dc/dcmitype/StillImage" />
        <dc:title>Law</dc:title>
      </cc:Work>
    </rdf:RDF>
  </metadata>
  <defs
     id="defs20" />
  <sodipodi:namedview
     pagecolor="#ffffff"
     bordercolor="#666666"
     borderopacity="1"
     objecttolerance="10"
     gridtolerance="10"
     guidetolerance="10"
     inkscape:pageopacity="0"
     inkscape:pageshadow="2"
     inkscape:window-width="1600"
     inkscape:window-height="836"
     id="namedview18"
     showgrid="false"
     inkscape:zoom="4.3128654"
     inkscape:cx="5.195846"
     inkscape:cy="26.316611"
     inkscape:window-x="0"
     inkscape:window-y="27"
     inkscape:window-maximized="1"
     inkscape:current-layer="svg16" />
  <title
     id="title2">Law</title>
  <g
     data-name="Layer 2"
     id="g14"
     transform="matrix(-1,0,0,1,61.1806,0)"
     style="fill:#125e6b;fill-opacity:1">
    <g
       id="g12"
       style="fill:#125e6b;fill-opacity:1">
      <g
         data-name="Layer 17"
         id="g10"
         style="fill:#125e6b;fill-opacity:1">
        <path
           d="m 26.3,46.62 a 1,1 0 0 0 -1.1,-1.2 H 4.3 a 1.22,1.22 0 0 0 -1.2,1.2 v 4.3 h 23.2 z"
           id="path4"
           inkscape:connector-curvature="0"
           style="fill:#125e6b;fill-opacity:1" />
        <path
           d="M 28.5,52.72 H 1 a 1,1 0 0 0 0,2 h 27.5 a 1,1 0 0 0 0,-2 z"
           id="path6"
           inkscape:connector-curvature="0"
           style="fill:#125e6b;fill-opacity:1" />
        <path
           d="M 59.37,42.48 36.42,21.59 a 2.49,2.49 0 0 0 -0.71,-2.08 l -1,-1 a 43.56,43.56 0 0 0 2.52,-4.36 2.4,2.4 0 0 0 2.31,-0.67 l 0.3,-0.3 v 0 a 2.58,2.58 0 0 0 0,-3.61 L 31,0.69 A 2.56,2.56 0 0 0 27.4,0.74 L 27,1.1 A 2.61,2.61 0 0 0 26.47,3.71 C 19.68,7.25 16.53,10.4 13,17.22 a 2.51,2.51 0 0 0 -2.62,0.59 l -0.35,0.36 a 2.57,2.57 0 0 0 0.05,3.56 l 8.85,8.85 a 2.76,2.76 0 0 0 1.79,0.69 2.48,2.48 0 0 0 1.77,-0.74 l 0.3,-0.3 0.06,-0.07 a 2.74,2.74 0 0 0 0.56,-2.23 45.8,45.8 0 0 0 4.49,-2.61 l 1,1 a 2.49,2.49 0 0 0 1.75,0.73 h 0.14 L 51.67,50.2 A 4.65,4.65 0 0 0 54.92,52 H 55 c 1.53,0 2.73,-1.07 3.92,-2.26 1.19,-1.19 2.29,-2.42 2.26,-4 a 4.69,4.69 0 0 0 -1.81,-3.26 z m -30.86,-40 0.3,-0.31 A 0.53,0.53 0 0 1 29.17,2 0.77,0.77 0 0 1 29.6,2.16 l 8.74,8.74 a 0.6,0.6 0 0 1 0.06,0.84 l -0.3,0.3 a 0.58,0.58 0 0 1 -0.79,0 l -8.8,-8.8 a 0.59,0.59 0 0 1 0,-0.78 z m -0.74,2.87 7.76,7.76 c -2.44,4.76 -4.69,7.67 -8.18,10.19 h -0.06 v 0 a 39.46,39.46 0 0 1 -4.89,2.92 l -7.79,-7.79 c 3.45,-6.69 6.46,-9.65 13.16,-13.1 z m -6.44,23.5 -0.26,0.26 a 0.58,0.58 0 0 1 -0.79,0 l -8.8,-8.8 a 0.59,0.59 0 0 1 0,-0.78 l 0.3,-0.3 a 0.5,0.5 0 0 1 0.36,-0.16 0.74,0.74 0 0 1 0.43,0.16 L 21.31,28 a 0.82,0.82 0 0 1 0.02,0.85 z m 12.17,-8.72 0.79,0.8 a 0.5,0.5 0 0 1 0.12,0.57 0.52,0.52 0 0 0 -0.06,0.13 0.32,0.32 0 0 1 -0.06,0.08 l -3.14,3.15 a 0.6,0.6 0 0 1 -0.84,0.05 l -0.79,-0.78 a 23.18,23.18 0 0 0 3.98,-4 z m 24,28.18 C 56.61,49.19 55.76,50 55,50 v 0 A 2.91,2.91 0 0 1 53.18,48.86 L 32.67,26.16 35.44,23.4 58,44 a 2.93,2.93 0 0 1 1.15,1.83 c 0.03,0.73 -0.77,1.59 -1.66,2.48 z"
           id="path8"
           inkscape:connector-curvature="0"
           style="fill:#125e6b;fill-opacity:1" />
      </g>
    </g>
  </g>
</svg>
