<?xml version="1.0" encoding="UTF-8" standalone="no"?>
<svg
   xmlns:ns="http://ns.adobe.com/SaveForWeb/1.0/"
   xmlns:dc="http://purl.org/dc/elements/1.1/"
   xmlns:cc="http://creativecommons.org/ns#"
   xmlns:rdf="http://www.w3.org/1999/02/22-rdf-syntax-ns#"
   xmlns:svg="http://www.w3.org/2000/svg"
   xmlns="http://www.w3.org/2000/svg"
   xmlns:sodipodi="http://sodipodi.sourceforge.net/DTD/sodipodi-0.dtd"
   xmlns:inkscape="http://www.inkscape.org/namespaces/inkscape"
   version="1.1"
   x="0px"
   y="0px"
   viewBox="0 0 100 100"
   enable-background="new 0 0 100 100"
   xml:space="preserve"
   id="svg6"
   sodipodi:docname="rgpd.svg"
   inkscape:version="0.92.4 (5da689c313, 2019-01-14)"><defs
     id="defs10" /><sodipodi:namedview
     pagecolor="#ffffff"
     bordercolor="#666666"
     borderopacity="1"
     objecttolerance="10"
     gridtolerance="10"
     guidetolerance="10"
     inkscape:pageopacity="0"
     inkscape:pageshadow="2"
     inkscape:window-width="919"
     inkscape:window-height="480"
     id="namedview8"
     showgrid="false"
     inkscape:zoom="2.36"
     inkscape:cx="2.7542373"
     inkscape:cy="50"
     inkscape:window-x="0"
     inkscape:window-y="27"
     inkscape:window-maximized="0"
     inkscape:current-layer="svg6" /><metadata
     id="metadata2"><ns:sfw><ns:slices /><ns:sliceSourceBounds
         width="1448.6"
         height="1442.5"
         x="0.7"
         y="-1444.9"
         bottomLeftOrigin="true" /></ns:sfw><rdf:RDF><cc:Work
         rdf:about=""><dc:format>image/svg+xml</dc:format><dc:type
           rdf:resource="http://purl.org/dc/dcmitype/StillImage" /><dc:title></dc:title></cc:Work></rdf:RDF></metadata><path
     d="M67.8,45.5c1.3-0.4,2.5-0.7,3.8-0.7c0.5,0,0.9-0.1,1.4-0.1c0.4,0,0.7,0,1,0.1V18.6c0-1.5-0.9-2.9-2.3-3.5L41,1.6  c-1-0.4-2.1-0.4-3.1,0L7.2,15.1c-1.4,0.6-2.3,2-2.3,3.5v28.1c0,19.1,15.5,34.6,34.6,34.6c6.7,0,13-1.9,18.3-5.3  c-0.1-0.2-0.1-0.4-0.2-0.6c-1.4-1.8-2-3.9-2.2-4.9c-0.1-0.4-0.3-1.1-0.4-1.9c-3.3,2.3-7.2,4-11.4,4.6l-0.1-62.1l22.9,10v24.9  C66.8,45.8,67.3,45.6,67.8,45.5z M35.7,11l0,6.3l-4.3-4.4L35.7,11z M25.8,15.4l9.9,10.1l0,7.9L20.4,17.7L25.8,15.4z M12.6,21.1  l2.2-1l21,21.4l0,7.9L12.6,25.9V21.1z M12.8,50.4l22.4,22.8C23.6,71.3,14.5,62.1,12.8,50.4z M12.6,42v-7.9l23.2,23.7l0,7.9L12.6,42z   M49.8,97.3v-3.5c0-2.3,1.1-4.6,2.9-6c5.4-4.2,10.8-6.9,12-7.5c0.1-0.1,0.2-0.2,0.2-0.4l0-3.3c-0.9-1.5-1.3-3.1-1.5-4.5  c-0.5,0-1.2-0.8-1.9-3.3c-1-3.5,0.1-4,0.9-3.9c-0.7-1.8-0.7-3.6-0.2-5.3c0.5-2,1.5-3.5,2.7-4.7c0.8-0.8,1.6-1.5,2.5-2.1  c0.7-0.5,1.5-0.9,2.4-1.2l0,0c0.7-0.2,1.4-0.4,2.2-0.4c2.4-0.2,4.2,0.4,5.5,1.2c2,1.1,2.7,2.5,2.7,2.5s4.9,0.3,2.8,10.7  c0.7,0.2,1.1,1.1,0.4,3.9c-0.9,3.3-1.8,3.5-2.3,3.2c-0.2,1.2-0.5,2.4-1.1,3.6c0,1.7,0,3.3,0,3.9c0,0.2,0.1,0.3,0.2,0.4  c1.2,0.6,6.6,3.3,12,7.5c1.8,1.4,2.9,3.7,2.9,6v3.5c0,0.8-0.6,1.4-1.4,1.4H51.2C50.4,98.7,49.8,98.1,49.8,97.3z"
     id="path4"
     style="fill:#ffffff" /></svg>