<?xml version="1.0" encoding="UTF-8" standalone="no"?>
<svg
   xmlns:dc="http://purl.org/dc/elements/1.1/"
   xmlns:cc="http://creativecommons.org/ns#"
   xmlns:rdf="http://www.w3.org/1999/02/22-rdf-syntax-ns#"
   xmlns:svg="http://www.w3.org/2000/svg"
   xmlns="http://www.w3.org/2000/svg"
   xmlns:sodipodi="http://sodipodi.sourceforge.net/DTD/sodipodi-0.dtd"
   xmlns:inkscape="http://www.inkscape.org/namespaces/inkscape"
   data-name="Layer 1"
   viewBox="0 0 64 64"
   x="0px"
   y="0px"
   version="1.1"
   id="svg14"
   sodipodi:docname="speak.svg"
   inkscape:version="0.92.4 (5da689c313, 2019-01-14)">
  <metadata
     id="metadata20">
    <rdf:RDF>
      <cc:Work
         rdf:about="">
        <dc:format>image/svg+xml</dc:format>
        <dc:type
           rdf:resource="http://purl.org/dc/dcmitype/StillImage" />
        <dc:title>Artboard 24</dc:title>
      </cc:Work>
    </rdf:RDF>
  </metadata>
  <defs
     id="defs18" />
  <sodipodi:namedview
     pagecolor="#ffffff"
     bordercolor="#666666"
     borderopacity="1"
     objecttolerance="10"
     gridtolerance="10"
     guidetolerance="10"
     inkscape:pageopacity="0"
     inkscape:pageshadow="2"
     inkscape:window-width="1600"
     inkscape:window-height="836"
     id="namedview16"
     showgrid="false"
     inkscape:zoom="3.6875"
     inkscape:cx="2.3050847"
     inkscape:cy="30.779661"
     inkscape:window-x="0"
     inkscape:window-y="27"
     inkscape:window-maximized="1"
     inkscape:current-layer="svg14" />
  <title
     id="title2">Artboard 24</title>
  <path
     d="M9.56,53a6.51,6.51,0,0,1-1-.06c-1-.17-1.14-.83-1.15-1.1,0-.94,1-1.17,1.33-1.24,1.91-.44,4.05-3.4,5.12-5.18C9.48,42.27,7,37.88,7,33.22c0-5.82,3.81-11.1,10.18-14.14a26.08,26.08,0,0,1,11.19-2.46c11.78,0,21.37,7.44,21.37,16.6a14.06,14.06,0,0,1-3.68,9.33c-4,4.56-10.59,7.28-17.69,7.28A26.6,26.6,0,0,1,20,48.52C17.88,52.16,12.15,53,9.56,53ZM28.37,18.63A24.08,24.08,0,0,0,18,20.89c-5.66,2.7-9,7.31-9,12.33,0,4.24,2.45,8.26,6.71,11l.77.5-.43.81a21.78,21.78,0,0,1-3.86,5.18c2.48-.44,5.52-1.54,6.41-3.83l.35-.92.92.34a24.78,24.78,0,0,0,8.5,1.48c6.53,0,12.58-2.47,16.19-6.6a12.1,12.1,0,0,0,3.18-8C47.75,25.18,39.05,18.63,28.37,18.63Z"
     id="path4"
     style="fill:#125e6b;fill-opacity:1" />
  <path
     d="M41.68,44.53l2.89-3.29a12.1,12.1,0,0,0,3.18-8c0-8-8.69-14.6-19.37-14.6A24.08,24.08,0,0,0,18,20.89L14.4,22.63l2.41-3.24c3.85-5.18,11-8.39,18.63-8.39C47.33,11,57,18.59,57,27.92c0,6.22-4.33,11.93-11.29,14.89Zm-13.3-27.9c11.78,0,21.37,7.44,21.37,16.6a13.39,13.39,0,0,1-1.37,5.89C52.53,36.3,55,32.24,55,27.92,55,19.69,46.22,13,35.43,13a22.93,22.93,0,0,0-14,4.53A27,27,0,0,1,28.37,16.63Z"
     id="path6"
     style="fill:#125e6b;fill-opacity:1" />
  <circle
     cx="19.2"
     cy="34"
     r="2"
     id="circle8"
     style="fill:#125e6b;fill-opacity:1" />
  <circle
     cx="28.71"
     cy="34"
     r="2"
     id="circle10"
     style="fill:#125e6b;fill-opacity:1" />
  <circle
     cx="37.54"
     cy="34"
     r="2"
     id="circle12"
     style="fill:#125e6b;fill-opacity:1" />
</svg>
