<?xml version="1.0" encoding="UTF-8" standalone="no"?>
<svg
   xmlns:dc="http://purl.org/dc/elements/1.1/"
   xmlns:cc="http://creativecommons.org/ns#"
   xmlns:rdf="http://www.w3.org/1999/02/22-rdf-syntax-ns#"
   xmlns:svg="http://www.w3.org/2000/svg"
   xmlns="http://www.w3.org/2000/svg"
   xmlns:sodipodi="http://sodipodi.sourceforge.net/DTD/sodipodi-0.dtd"
   xmlns:inkscape="http://www.inkscape.org/namespaces/inkscape"
   version="1.1"
   x="0px"
   y="0px"
   viewBox="0 0 100 100"
   enable-background="new 0 0 100 100"
   xml:space="preserve"
   id="svg16"
   sodipodi:docname="instructions.svg"
   inkscape:version="0.92.3 (2405546, 2018-03-11)"><metadata
     id="metadata22"><rdf:RDF><cc:Work
         rdf:about=""><dc:format>image/svg+xml</dc:format><dc:type
           rdf:resource="http://purl.org/dc/dcmitype/StillImage" /><dc:title /></cc:Work></rdf:RDF></metadata><defs
     id="defs20" /><sodipodi:namedview
     pagecolor="#ffffff"
     bordercolor="#666666"
     borderopacity="1"
     objecttolerance="10"
     gridtolerance="10"
     guidetolerance="10"
     inkscape:pageopacity="0"
     inkscape:pageshadow="2"
     inkscape:window-width="1600"
     inkscape:window-height="836"
     id="namedview18"
     showgrid="false"
     inkscape:zoom="2.36"
     inkscape:cx="-102.9661"
     inkscape:cy="50"
     inkscape:window-x="0"
     inkscape:window-y="27"
     inkscape:window-maximized="1"
     inkscape:current-layer="svg16" /><g
     id="g14"
     style="fill:#125e6b;fill-opacity:1"><circle
       cx="31.857"
       cy="29.097"
       r="9.9890003"
       id="circle2"
       style="fill:#125e6b;fill-opacity:1" /><path
       d="m 65.465,54.441 c -0.687,0 -1.34,0.126 -1.945,0.354 v 0 c -0.517,0.194 -0.986,0.457 -1.461,0.773 L 51.256,61.647 41.203,45.117 c -0.515,-0.851 -0.961,-1.312 -1.509,-1.872 v 0 0 c -1.002,-1.024 -2.398,-1.661 -3.945,-1.661 -0.001,0 -0.002,0 -0.003,0 H 22.727 c -0.001,0 -0.002,0 -0.004,0 -2.322,0 -4.206,1.883 -4.206,4.206 v 24.289 c 0,0 9.367,14.323 23.833,16.517 0,-2.875 0,-15.675 0,-15.675 l -7.697,-11.402 1.095,-0.651 8.868,12.929 c 0.986,1.503 2.686,2.497 4.618,2.497 0.914,0 1.775,-0.224 2.536,-0.616 h 0.002 l 0.057,-0.031 c 0.027,-0.015 0.05,-0.029 0.077,-0.042 l 15.707,-8.554 c 0.333,-0.144 0.651,-0.316 0.95,-0.517 v 0 c 1.459,-0.994 2.42,-2.671 2.42,-4.569 0,-3.054 -2.471,-5.524 -5.518,-5.524 z"
       id="path4"
       inkscape:connector-curvature="0"
       style="fill:#125e6b;fill-opacity:1" /><polygon
       points="56.725,52.188 50.075,44.492 43.557,46.346 48.287,54.508 "
       id="polygon6"
       style="fill:#125e6b;fill-opacity:1" /><polygon
       points="55.425,48.942 50.006,37.368 64.702,28.54 63.123,26.036 45.318,36.979 "
       id="polygon8"
       style="fill:#125e6b;fill-opacity:1" /><polygon
       points="57.284,50.706 72.027,40.874 66.743,28.447 51.602,37.542 "
       id="polygon10"
       style="fill:#125e6b;fill-opacity:1" /><path
       d="m 58.025,51.726 4.898,2.283 c 0,0 3.177,-1.466 5.916,-0.042 2.816,1.562 3.081,3.901 3.081,3.901 l 2.796,1.37 13.447,-11.5 -15.022,-6.154 z"
       id="path12"
       inkscape:connector-curvature="0"
       style="fill:#125e6b;fill-opacity:1" /></g></svg>