<?xml version="1.0" encoding="UTF-8" standalone="no"?>
<!-- Created with Inkscape (http://www.inkscape.org/) -->

<svg
   xmlns:dc="http://purl.org/dc/elements/1.1/"
   xmlns:cc="http://creativecommons.org/ns#"
   xmlns:rdf="http://www.w3.org/1999/02/22-rdf-syntax-ns#"
   xmlns:svg="http://www.w3.org/2000/svg"
   xmlns="http://www.w3.org/2000/svg"
   xmlns:sodipodi="http://sodipodi.sourceforge.net/DTD/sodipodi-0.dtd"
   xmlns:inkscape="http://www.inkscape.org/namespaces/inkscape"
   width="100"
   height="100"
   viewBox="0 0 26.458333 26.458334"
   version="1.1"
   id="svg826"
   inkscape:version="0.92.3 (2405546, 2018-03-11)"
   sodipodi:docname="OL.svg">
  <defs
     id="defs820" />
  <sodipodi:namedview
     id="base"
     pagecolor="#ffffff"
     bordercolor="#666666"
     borderopacity="1.0"
     inkscape:pageopacity="0.0"
     inkscape:pageshadow="2"
     inkscape:zoom="5.6"
     inkscape:cx="-14.090107"
     inkscape:cy="60.485566"
     inkscape:document-units="mm"
     inkscape:current-layer="layer1"
     showgrid="false"
     units="px"
     inkscape:window-width="1600"
     inkscape:window-height="836"
     inkscape:window-x="0"
     inkscape:window-y="27"
     inkscape:window-maximized="1"
     showguides="true"
     inkscape:guide-bbox="true">
    <sodipodi:guide
       position="3.4962797,5.3861608"
       orientation="1,0"
       id="guide845"
       inkscape:locked="false" />
    <sodipodi:guide
       position="-8.9769344,23.954242"
       orientation="0,1"
       id="guide847"
       inkscape:locked="false" />
  </sodipodi:namedview>
  <metadata
     id="metadata823">
    <rdf:RDF>
      <cc:Work
         rdf:about="">
        <dc:format>image/svg+xml</dc:format>
        <dc:type
           rdf:resource="http://purl.org/dc/dcmitype/StillImage" />
        <dc:title />
      </cc:Work>
    </rdf:RDF>
  </metadata>
  <g
     inkscape:label="Calque 1"
     inkscape:groupmode="layer"
     id="layer1"
     transform="translate(0,-270.54165)">
    <rect
       style="opacity:0.57399998;fill:#cccccc;fill-opacity:1;stroke:none;stroke-width:0.73526651;stroke-linejoin:round;stroke-miterlimit:4;stroke-dasharray:none;stroke-dashoffset:0;stroke-opacity:1"
       id="rect4491"
       width="30.572033"
       height="31.36882"
       x="-1.6629407"
       y="269.02118" />
    <path
       style="fill:#ff8080;stroke-width:0.09035086"
       id="path2-9"
       d="m 22.816773,288.13594 c 0.822192,-0.6957 1.337192,-1.80702 1.337192,-2.99965 0,-0.0632 -0.05422,-0.10836 -0.108419,-0.10836 h -6.333595 c -0.06324,0 -0.108418,0.0542 -0.108418,0.10836 0,1.1836 0.496929,2.30395 1.337192,3.00868 l -0.469824,1.29202 c -0.09035,0.24395 0.03614,0.515 0.280088,0.60535 0.11746,0.0451 0.243947,0.0361 0.361404,-0.0181 0.117461,-0.0542 0.198771,-0.14456 0.243947,-0.27106 l 0.05422,-0.13553 v 0.19878 c 0,0.26201 0.216842,0.46982 0.469824,0.46982 0.252982,0 0.469824,-0.21684 0.469824,-0.46982 v -1.00291 c 0.171668,0.0271 0.343334,0.0451 0.524036,0.0451 0.171666,0 0.352367,-0.0181 0.524035,-0.0451 v 1.00291 c 0,0.26201 0.216842,0.46982 0.469824,0.46982 0.252982,0 0.469824,-0.21684 0.469824,-0.46982 v -0.19878 l 0.05421,0.13553 c 0.04517,0.11739 0.126491,0.21684 0.243948,0.27106 0.06325,0.0271 0.135526,0.0452 0.198772,0.0452 0.05422,0 0.108419,-0.009 0.162632,-0.0271 0.243947,-0.0903 0.370438,-0.3614 0.280087,-0.60535 z"
       inkscape:connector-curvature="0" />
    <path
       style="fill:#0000ff;stroke-width:0.09035086"
       id="path4-1"
       d="m 20.783878,290.41278 c -0.03614,0.0451 -0.930613,1.21974 -0.930613,2.53886 0,0.515 0.388508,0.83123 1.011929,0.83123 0.623421,0 1.011929,-0.31623 1.011929,-0.83123 0,-1.31912 -0.885438,-2.49369 -0.930613,-2.53886 -0.0271,-0.0632 -0.117461,-0.0632 -0.162632,0 z"
       inkscape:connector-curvature="0" />
    <g
       id="g830"
       transform="translate(0.52916667)">
      <path
         sodipodi:nodetypes="ccsscccsccccccccscccccccsccccscccccccsccsccccccccccccccscccccccscccsccccc"
         style="color:#000000;font-style:normal;font-variant:normal;font-weight:normal;font-stretch:normal;font-size:medium;line-height:normal;font-family:sans-serif;font-variant-ligatures:normal;font-variant-position:normal;font-variant-caps:normal;font-variant-numeric:normal;font-variant-alternates:normal;font-feature-settings:normal;text-indent:0;text-align:start;text-decoration:none;text-decoration-line:none;text-decoration-style:solid;text-decoration-color:#000000;letter-spacing:normal;word-spacing:normal;text-transform:none;writing-mode:lr-tb;direction:ltr;text-orientation:mixed;dominant-baseline:auto;baseline-shift:baseline;text-anchor:start;white-space:normal;shape-padding:0;clip-rule:nonzero;display:inline;overflow:visible;visibility:visible;opacity:1;isolation:auto;mix-blend-mode:normal;color-interpolation:sRGB;color-interpolation-filters:linearRGB;solid-color:#000000;solid-opacity:1;vector-effect:none;fill:#241c1c;fill-opacity:1;fill-rule:nonzero;stroke:#000000;stroke-width:0.16999909;stroke-linecap:butt;stroke-linejoin:miter;stroke-miterlimit:4;stroke-dasharray:none;stroke-dashoffset:0;stroke-opacity:1;color-rendering:auto;image-rendering:auto;shape-rendering:auto;text-rendering:auto;enable-background:accumulate"
         d="m 11.309333,272.55214 c -1.075749,0 -2.076952,0.54276 -2.6854536,1.43105 -0.05417,-0.006 -0.1081058,-0.0113 -0.1636921,-0.0113 -0.7831637,0 -1.5364153,0.52737 -2.1193433,1.07511 -0.5829283,0.54774 -0.9956151,1.12215 -1.0817522,1.24611 l -3.4e-4,6.6e-4 -6.63e-4,6.6e-4 c -1.5634937,2.34048 -2.2093172,4.10885 -2.2093172,6.07016 0,0.12193 0.052397,0.23488 0.1391203,0.31577 l 6.63e-4,3.3e-4 3.399e-4,3.4e-4 c 0.089968,0.0814 0.2106417,0.11941 0.3293733,0.10658 1.2355832,-0.12821 2.3077168,-1.01564 3.0719367,-1.97656 -3.911e-4,0.0193 -9.351e-4,0.0385 -0.00133,0.0577 -0.054399,2.66287 -0.1233848,5.43932 1.4004995,6.99387 h 3.4e-4 c 0.7777339,0.79235 1.8712786,1.17671 3.3196307,1.17671 1.447678,0 2.54221,-0.3844 3.319962,-1.17539 1.522288,-1.55572 1.454234,-4.32918 1.399836,-6.99253 v -6.6e-4 c -3.4e-4,-0.0203 -6.8e-4,-0.0397 -0.001,-0.0597 0.7636,0.96124 1.836177,1.85034 3.071274,1.97757 0.121871,0.0151 0.242139,-0.0251 0.330369,-0.10658 l 3.39e-4,-3.4e-4 c 0.08631,-0.0805 0.139786,-0.19293 0.139786,-0.31575 0,-1.96333 -0.645072,-3.73155 -2.212646,-6.07814 l -6.79e-4,-9.4e-4 -3.4e-4,-6.7e-4 c -0.08426,-0.1201 -0.496768,-0.69351 -1.079428,-1.24045 -0.582661,-0.54696 -1.33617,-1.07445 -2.119012,-1.07445 -0.05367,0 -0.107884,0.006 -0.163028,0.0113 -0.608509,-0.88621 -1.609717,-1.43038 -2.685453,-1.43038 z m 0,0.17 c 1.035963,0 2.004505,0.52884 2.578541,1.39485 l 0.02889,0.0432 0.05179,-0.006 c 0.06914,-0.008 0.130161,-0.013 0.189257,-0.013 0.70499,0 1.433896,0.49456 2.002471,1.0283 0.567507,0.53273 0.97414,1.09661 1.055521,1.21257 1.557689,2.33179 2.18409,4.05757 2.18409,5.98384 0,0.0742 -0.03042,0.13954 -0.08533,0.19091 -8.2e-5,8e-5 -1.7e-4,-7e-5 -3.4e-4,0 -0.05291,0.0487 -0.122452,0.0725 -0.194569,0.0634 l -0.001,-3.4e-4 h -10e-4 c -1.240827,-0.12738 -2.359863,-1.08637 -3.110785,-2.09478 l -0.156717,-0.2105 0.0037,0.26264 c 0.0013,0.10007 0.004,0.19733 0.0053,0.2965 v 3.4e-4 3.4e-4 c 0.0544,2.66333 0.09781,5.38927 -1.351027,6.87035 -6.1e-5,7e-5 -3.41e-4,-6e-5 -3.41e-4,0 -6.1e-5,7e-5 6.1e-5,2.7e-4 0,3.4e-4 -0.741338,0.75375 -1.780823,1.12425 -3.198439,1.12425 -1.4185131,0 -2.4570614,-0.3706 -3.1984393,-1.12591 -1.4504195,-1.4796 -1.4064245,-4.20847 -1.3520245,-6.87134 0.00204,-0.0986 0.00394,-0.19624 0.00597,-0.29485 0.013478,-0.29677 0.018561,-0.28294 -0.1530657,-0.0528 -0.7515978,1.00841 -1.8697742,1.96539 -3.1114484,2.09412 h -3.4e-4 c -0.070058,0.008 -0.1434373,-0.0156 -0.1962294,-0.0631 -0.054499,-0.051 -0.084999,-0.11716 -0.084999,-0.19092 0,-1.92376 0.6269027,-3.6493 2.1797737,-5.9742 l 0.00101,-9.5e-4 c 0.081975,-0.1179 0.4898576,-0.68418 1.0578458,-1.21787 0.5688158,-0.53449 1.2974537,-1.0293 2.0028004,-1.0293 0.065313,0 0.1264197,0.004 0.1879288,0.013 l 0.053125,0.008 0.029882,-0.0451 c 0.5740326,-0.868 1.5421756,-1.39518 2.5782086,-1.39518 z"
         id="path2"
         inkscape:connector-curvature="0" />
      <path
         id="path4"
         d="m 9.5022629,280.43284 c -0.1995112,0 -0.3614333,-0.1612 -0.3614333,-0.36143 v -1.44574 c 0,-0.19878 0.1619221,-0.36143 0.3614333,-0.36143 0.1987883,0 0.3614333,0.16265 0.3614333,0.36143 v 1.44574 c 0,0.20023 -0.162645,0.36143 -0.3614333,0.36143 z"
         style="fill:#241c1c;stroke-width:0.18071663"
         inkscape:connector-curvature="0" />
      <path
         id="path6"
         d="m 13.116596,280.43284 c -0.198789,0 -0.361434,-0.1612 -0.361434,-0.36143 v -1.44574 c 0,-0.19878 0.162645,-0.36143 0.361434,-0.36143 0.198788,0 0.361433,0.16265 0.361433,0.36143 v 1.44574 c 0,0.20023 -0.162645,0.36143 -0.361433,0.36143 z"
         style="fill:#241c1c;stroke-width:0.18071663"
         inkscape:connector-curvature="0" />
      <path
         sodipodi:nodetypes="scccccccccs"
         id="path8"
         d="m 11.309429,287.95788 c -0.09253,0 -0.185054,-0.0354 -0.255894,-0.10554 l -1.5136831,-1.51223 c -0.1416818,-0.13952 -0.1416818,-0.36939 -7.228e-4,-0.51107 0.1409589,-0.14096 0.3235835,0.048 0.4638199,0.18899 l 1.330104,1.32721 1.23561,-1.23272 c 0.139513,-0.14096 0.370108,-0.42444 0.511066,-0.28348 0.140959,0.14096 0.140959,0.37011 -7.22e-4,0.51107 l -1.515129,1.51223 c -0.0694,0.0701 -0.161922,0.10554 -0.254449,0.10554 z"
         style="fill:#241c1c;stroke:none;stroke-width:0.18071663;stroke-opacity:1"
         inkscape:connector-curvature="0" />
    </g>
  </g>
</svg>
