<?xml version="1.0" encoding="UTF-8" standalone="no"?>
<svg
   xmlns:dc="http://purl.org/dc/elements/1.1/"
   xmlns:cc="http://creativecommons.org/ns#"
   xmlns:rdf="http://www.w3.org/1999/02/22-rdf-syntax-ns#"
   xmlns:svg="http://www.w3.org/2000/svg"
   xmlns="http://www.w3.org/2000/svg"
   xmlns:sodipodi="http://sodipodi.sourceforge.net/DTD/sodipodi-0.dtd"
   xmlns:inkscape="http://www.inkscape.org/namespaces/inkscape"
   version="1.1"
   x="0px"
   y="0px"
   viewBox="0 0 100 100"
   enable-background="new 0 0 100 100"
   xml:space="preserve"
   id="svg38"
   sodipodi:docname="alertes.svg"
   inkscape:version="0.92.4 (5da689c313, 2019-01-14)"><metadata
     id="metadata44"><rdf:RDF><cc:Work
         rdf:about=""><dc:format>image/svg+xml</dc:format><dc:type
           rdf:resource="http://purl.org/dc/dcmitype/StillImage" /><dc:title></dc:title></cc:Work></rdf:RDF></metadata><defs
     id="defs42" /><sodipodi:namedview
     pagecolor="#ffffff"
     bordercolor="#666666"
     borderopacity="1"
     objecttolerance="10"
     gridtolerance="10"
     guidetolerance="10"
     inkscape:pageopacity="0"
     inkscape:pageshadow="2"
     inkscape:window-width="1600"
     inkscape:window-height="836"
     id="namedview40"
     showgrid="false"
     inkscape:zoom="2.36"
     inkscape:cx="2.7542373"
     inkscape:cy="50"
     inkscape:window-x="0"
     inkscape:window-y="27"
     inkscape:window-maximized="1"
     inkscape:current-layer="svg38" /><g
     id="g36"
     style="fill:#125e6b;fill-opacity:1"><path
       d="m 22.523,28.263 v -7.794 c 0,-0.552 -0.448,-1 -1,-1 -0.552,0 -1,0.448 -1,1 v 7.794 c -2.073,0.034 -3.751,1.725 -3.751,3.807 v 10.547 c 0,2.081 1.678,3.772 3.751,3.807 v 33.107 c 0,0.553 0.448,1 1,1 0.552,0 1,-0.447 1,-1 V 46.424 c 2.073,-0.035 3.75,-1.726 3.75,-3.807 V 32.07 c 0,-2.081 -1.677,-3.772 -3.75,-3.807 z m 1.75,14.354 c 0,1 -0.813,1.813 -1.813,1.813 h -0.932 c -0.002,0 -0.003,-10e-4 -0.005,-10e-4 -0.002,0 -0.003,10e-4 -0.005,10e-4 h -0.933 c -1,0 -1.813,-0.813 -1.813,-1.813 V 32.07 c 0,-1 0.813,-1.813 1.813,-1.813 h 1.875 c 1,0 1.813,0.813 1.813,1.813 z"
       id="path2"
       inkscape:connector-curvature="0"
       style="fill:#125e6b;fill-opacity:1" /><path
       d="m 19.883,33.609 c -0.552,0 -1,0.448 -1,1 0,0.552 0.448,1 1,1 h 3.281 c 0.552,0 1,-0.448 1,-1 0,-0.552 -0.448,-1 -1,-1 z"
       id="path4"
       inkscape:connector-curvature="0"
       style="fill:#125e6b;fill-opacity:1" /><path
       d="m 23.164,36.305 h -3.281 c -0.552,0 -1,0.448 -1,1 0,0.552 0.448,1 1,1 h 3.281 c 0.552,0 1,-0.448 1,-1 0,-0.552 -0.448,-1 -1,-1 z"
       id="path6"
       inkscape:connector-curvature="0"
       style="fill:#125e6b;fill-opacity:1" /><path
       d="m 23.164,39 h -3.281 c -0.552,0 -1,0.448 -1,1 0,0.552 0.448,1 1,1 h 3.281 c 0.552,0 1,-0.448 1,-1 0,-0.552 -0.448,-1 -1,-1 z"
       id="path8"
       inkscape:connector-curvature="0"
       style="fill:#125e6b;fill-opacity:1" /><path
       d="M 41.508,49.006 V 20.469 c 0,-0.552 -0.448,-1 -1,-1 -0.552,0 -1,0.448 -1,1 v 28.538 c -2.073,0.034 -3.751,1.725 -3.751,3.806 V 63.36 c 0,2.081 1.678,3.772 3.751,3.807 v 12.365 c 0,0.553 0.448,1 1,1 0.552,0 1,-0.447 1,-1 V 67.166 c 2.073,-0.035 3.75,-1.726 3.75,-3.807 V 52.813 c 0,-2.082 -1.677,-3.772 -3.75,-3.807 z m 1.75,14.353 c 0,0.999 -0.813,1.813 -1.813,1.813 H 39.57 c -1,0 -1.813,-0.813 -1.813,-1.813 V 52.813 C 37.757,51.814 38.57,51 39.57,51 h 1.875 c 1,0 1.813,0.813 1.813,1.813 z"
       id="path10"
       inkscape:connector-curvature="0"
       style="fill:#125e6b;fill-opacity:1" /><path
       d="m 38.867,54.352 c -0.552,0 -1,0.447 -1,1 0,0.553 0.448,1 1,1 h 3.281 c 0.552,0 1,-0.447 1,-1 0,-0.553 -0.448,-1 -1,-1 z"
       id="path12"
       inkscape:connector-curvature="0"
       style="fill:#125e6b;fill-opacity:1" /><path
       d="m 42.148,57.047 h -3.281 c -0.552,0 -1,0.447 -1,1 0,0.553 0.448,1 1,1 h 3.281 c 0.552,0 1,-0.447 1,-1 0,-0.553 -0.448,-1 -1,-1 z"
       id="path14"
       inkscape:connector-curvature="0"
       style="fill:#125e6b;fill-opacity:1" /><path
       d="m 42.148,59.743 h -3.281 c -0.552,0 -1,0.447 -1,1 0,0.553 0.448,1 1,1 h 3.281 c 0.552,0 1,-0.447 1,-1 0,-0.553 -0.448,-1 -1,-1 z"
       id="path16"
       inkscape:connector-curvature="0"
       style="fill:#125e6b;fill-opacity:1" /><path
       d="M 60.492,39.631 V 20.469 c 0,-0.552 -0.447,-1 -1,-1 -0.553,0 -1,0.448 -1,1 v 19.163 c -2.073,0.034 -3.751,1.726 -3.751,3.807 v 10.546 c 0,2.081 1.678,3.771 3.751,3.807 v 21.74 c 0,0.553 0.447,1 1,1 0.553,0 1,-0.447 1,-1 v -21.74 c 2.073,-0.035 3.75,-1.726 3.75,-3.807 V 43.438 c 0,-2.081 -1.677,-3.772 -3.75,-3.807 z m 1.75,14.353 c 0,0.999 -0.813,1.813 -1.813,1.813 h -1.875 c -1,0 -1.813,-0.813 -1.813,-1.813 V 43.438 c 0,-1 0.813,-1.813 1.813,-1.813 h 1.875 c 0.999,0 1.813,0.813 1.813,1.813 z"
       id="path18"
       inkscape:connector-curvature="0"
       style="fill:#125e6b;fill-opacity:1" /><path
       d="m 57.852,44.976 c -0.553,0 -1,0.448 -1,1 0,0.552 0.447,1 1,1 h 3.281 c 0.553,0 1,-0.448 1,-1 0,-0.552 -0.447,-1 -1,-1 z"
       id="path20"
       inkscape:connector-curvature="0"
       style="fill:#125e6b;fill-opacity:1" /><path
       d="m 61.133,47.672 h -3.281 c -0.553,0 -1,0.448 -1,1 0,0.552 0.447,1 1,1 h 3.281 c 0.553,0 1,-0.448 1,-1 0,-0.552 -0.447,-1 -1,-1 z"
       id="path22"
       inkscape:connector-curvature="0"
       style="fill:#125e6b;fill-opacity:1" /><path
       d="m 61.133,50.368 h -3.281 c -0.553,0 -1,0.447 -1,1 0,0.553 0.447,1 1,1 h 3.281 c 0.553,0 1,-0.447 1,-1 0,-0.553 -0.447,-1 -1,-1 z"
       id="path24"
       inkscape:connector-curvature="0"
       style="fill:#125e6b;fill-opacity:1" /><path
       d="M 79.477,31.545 V 20.469 c 0,-0.552 -0.447,-1 -1,-1 -0.553,0 -1,0.448 -1,1 v 11.077 c -2.073,0.034 -3.75,1.726 -3.75,3.807 v 10.546 c 0,2.081 1.677,3.772 3.75,3.807 v 29.827 c 0,0.553 0.447,1 1,1 0.553,0 1,-0.447 1,-1 V 49.705 c 2.073,-0.034 3.75,-1.726 3.75,-3.807 V 35.352 c 0,-2.081 -1.677,-3.772 -3.75,-3.807 z m 1.75,14.353 c 0,1 -0.813,1.813 -1.813,1.813 h -1.875 c -0.999,0 -1.813,-0.813 -1.813,-1.813 V 35.352 c 0,-1 0.813,-1.813 1.813,-1.813 h 1.875 c 0.999,0 1.813,0.813 1.813,1.813 z"
       id="path26"
       inkscape:connector-curvature="0"
       style="fill:#125e6b;fill-opacity:1" /><path
       d="m 76.836,36.89 c -0.553,0 -1,0.448 -1,1 0,0.552 0.447,1 1,1 h 3.281 c 0.553,0 1,-0.448 1,-1 0,-0.552 -0.447,-1 -1,-1 z"
       id="path28"
       inkscape:connector-curvature="0"
       style="fill:#125e6b;fill-opacity:1" /><path
       d="m 80.117,39.586 h -3.281 c -0.553,0 -1,0.448 -1,1 0,0.552 0.447,1 1,1 h 3.281 c 0.553,0 1,-0.448 1,-1 0,-0.552 -0.447,-1 -1,-1 z"
       id="path30"
       inkscape:connector-curvature="0"
       style="fill:#125e6b;fill-opacity:1" /><path
       d="m 80.117,42.282 h -3.281 c -0.553,0 -1,0.448 -1,1 0,0.552 0.447,1 1,1 h 3.281 c 0.553,0 1,-0.448 1,-1 0,-0.552 -0.447,-1 -1,-1 z"
       id="path32"
       inkscape:connector-curvature="0"
       style="fill:#125e6b;fill-opacity:1" /><path
       d="M 82.813,11.5 H 17.188 c -3.136,0 -5.688,2.552 -5.688,5.688 v 65.625 c 0,3.137 2.552,5.688 5.688,5.688 h 65.625 c 3.136,0 5.688,-2.552 5.688,-5.688 V 17.188 c 0,-3.136 -2.552,-5.688 -5.688,-5.688 z M 86.5,82.813 c 0,2.034 -1.654,3.688 -3.688,3.688 H 17.188 c -2.034,0 -3.688,-1.654 -3.688,-3.688 V 17.188 c 0,-2.034 1.654,-3.688 3.688,-3.688 h 65.625 c 2.034,0 3.688,1.654 3.688,3.688 z"
       id="path34"
       inkscape:connector-curvature="0"
       style="fill:#125e6b;fill-opacity:1" /></g></svg>