<?xml version="1.0" encoding="UTF-8" standalone="no"?>
<svg
   xmlns:dc="http://purl.org/dc/elements/1.1/"
   xmlns:cc="http://creativecommons.org/ns#"
   xmlns:rdf="http://www.w3.org/1999/02/22-rdf-syntax-ns#"
   xmlns:svg="http://www.w3.org/2000/svg"
   xmlns="http://www.w3.org/2000/svg"
   xmlns:sodipodi="http://sodipodi.sourceforge.net/DTD/sodipodi-0.dtd"
   xmlns:inkscape="http://www.inkscape.org/namespaces/inkscape"
   version="1.1"
   x="0px"
   y="0px"
   viewBox="0 0 90.001445 71.723959"
   enable-background="new 0 0 100 100"
   xml:space="preserve"
   id="svg4"
   sodipodi:docname="analyse.svg"
   inkscape:version="0.92.3 (2405546, 2018-03-11)"
   width="90.001442"
   height="71.723961"><metadata
     id="metadata10"><rdf:RDF><cc:Work
         rdf:about=""><dc:format>image/svg+xml</dc:format><dc:type
           rdf:resource="http://purl.org/dc/dcmitype/StillImage" /><dc:title /></cc:Work></rdf:RDF></metadata><defs
     id="defs8" /><sodipodi:namedview
     pagecolor="#ffffff"
     bordercolor="#666666"
     borderopacity="1"
     objecttolerance="10"
     gridtolerance="10"
     guidetolerance="10"
     inkscape:pageopacity="0"
     inkscape:pageshadow="2"
     inkscape:window-width="1600"
     inkscape:window-height="836"
     id="namedview6"
     showgrid="false"
     inkscape:zoom="2.36"
     inkscape:cx="-54.424116"
     inkscape:cy="11.778924"
     inkscape:window-x="0"
     inkscape:window-y="27"
     inkscape:window-maximized="1"
     inkscape:current-layer="svg4"
     fit-margin-top="0"
     fit-margin-left="0"
     fit-margin-right="0"
     fit-margin-bottom="0" /><path
     d="m 60.111098,51.879817 c -0.199,0.166 -0.493,0.533 -0.809,0.973 0.221,-0.036 0.438,-0.063 0.687,-0.072 0.158,0.002 0.291,-0.007 0.519,0.028 0.224,-0.192 0.468,-0.373 0.754,-0.52 1.521,-0.779 2.374,-0.52 2.931,-1.262 0.557,-0.742 1.93,-1.076 2.857,-1.781 0.927,-0.705 1.743,-1.113 2.522,-1.076 -2.301,0.928 -3.005,1.744 -3.896,2.227 -0.891,0.483 -1.075,0.779 -1.854,1.225 -0.779,0.444 -1.04,0.334 -1.633,0.779 -0.235,0.176 -0.604,0.416 -0.973,0.655 0.096,0.055 0.191,0.122 0.334,0.262 0.06,0.054 0.119,0.132 0.177,0.218 0.56,-0.288 1.188,-0.543 1.723,-0.802 1.225,-0.594 2.598,-0.779 3.674,-1.521 0.955,-0.659 1.935,-1.161 2.818,-1.502 -0.068,-0.186 -0.114,-0.412 -0.114,-0.579 0,-0.397 0.944,-1.789 0.895,-2.137 0.003,-0.196 -0.01,-0.372 -0.032,-0.536 -0.873,0.356 -1.705,0.552 -2.514,0.753 -1.025,0.254 -2.1,0.396 -2.779,0.696 -0.713,0.27 -1.225,0.354 -1.771,0.471 l -1.566,0.291 c -0.843,0.138 -1.667,0.275 -2.474,0.43 -0.24,0.147 -0.497,0.308 -0.774,0.481 -2.052,1.287 -2.275,3.628 -2.295,4.285 0.109,-0.054 0.218,-0.107 0.33,-0.161 0.392,-0.932 1.232,-2.177 2.076,-2.862 1.188,-0.965 2.338,-0.965 3.006,-1.262 0.668,-0.297 1.632,-0.854 3.71,-1.596 -1.41,0.594 -2.968,1.93 -3.97,2.041 -1.002,0.111 -1.633,0.631 -2.486,1.41 -0.489,0.446 -1.219,1.293 -1.775,2.012 0.343,-0.149 0.714,-0.286 1.116,-0.406 0.103,-0.151 0.209,-0.304 0.325,-0.456 1.076,-1.41 2.078,-1.558 3.228,-1.929 1.151,-0.371 1.967,-1.262 4.008,-2.189 -0.52,0.297 -2.561,2.004 -3.154,2.264 -0.594,0.258 -2.153,0.592 -2.821,1.148 z m 5.736,-28.497 c 0.003,0.007 0,0.019 0,0.03 l 10e-4,0.017 0.001,0.008 0.001,0.004 c -0.001,-0.036 0.003,0.087 -0.001,-0.081 v -0.006 c -0.001,0.007 -0.003,0.016 -0.002,0.028 z m -13.075,26.985 c -0.056,-0.007 -0.115,-0.012 -0.171,-0.019 -0.031,-0.004 -0.06,-0.01 -0.091,-0.014 -0.323,0.227 -0.85,0.476 -1.279,1.405 0.207,-0.183 0.414,-0.358 0.614,-0.544 0.313,-0.275 0.624,-0.547 0.927,-0.828 z m 16.861,-20.964 c 0.551,-0.331 1.165,-0.498 1.621,-0.706 0.019,-0.422 0.053,-0.848 0.134,-1.275 0.032,-0.187 0.064,-0.322 0.097,-0.461 0.018,-0.097 0.036,-0.123 0.044,-0.2 0.021,-0.133 0.025,-0.298 -0.021,-0.488 -0.05,-0.233 -0.147,-0.485 -0.265,-0.744 l -0.612,-0.662 -1.185,-1.272 c -0.189,-0.203 -0.367,-0.412 -0.54,-0.624 -0.006,0.013 -0.017,0.027 -0.021,0.04 -0.053,0.121 -0.083,0.228 -0.088,0.276 v 0.029 l 10e-4,0.022 v 0.153 c -10e-4,0.068 -0.002,0.137 -0.011,0.199 -0.013,0.117 -0.031,0.232 -0.058,0.338 0.39,0.825 0.829,1.771 0.85,2.348 -0.381,-0.3 -0.762,-0.998 -1.09,-1.685 -0.263,0.546 -0.606,0.888 -0.906,1.203 -0.418,0.408 -0.837,0.729 -1.257,1.019 -0.423,0.286 -0.846,0.539 -1.265,0.775 l -0.62,0.342 -0.291,0.158 c -0.081,0.043 -0.259,0.131 -0.398,0.188 -0.435,0.265 -0.9,0.201 -1.243,0.422 -0.548,0.352 -1.485,1.367 -1.837,2.148 -0.352,0.781 -0.391,1.719 -0.469,2.188 -0.078,0.469 0.547,1.367 1.016,1.641 0.47,0.274 1.328,0.547 2.11,-0.469 0.781,-1.016 0.82,-0.313 0.781,0.039 -0.039,0.352 -1.446,1.367 -1.758,1.758 -0.313,0.391 -1.406,-0.274 -1.837,-0.742 -0.43,-0.469 -1.055,-0.665 -1.836,-0.196 -0.781,0.469 -1.797,0.391 -2.891,0.664 -1.094,0.273 -2.031,0.04 -2.031,0.04 0,0 0.625,1.055 1.367,1.641 0.742,0.586 3.047,2.93 3.906,3.203 0.859,0.273 2.188,0.195 4.923,-0.313 2.734,-0.509 3.32,-0.742 4.258,0 -1.211,-0.157 -3.75,-0.039 -4.531,0.547 0.742,-0.273 1.055,0.898 1.875,0.859 0.82,-0.039 1.341,0.517 1.888,0.814 0.547,0.299 0.646,1.193 0.845,1.641 0.01,0.021 0.031,0.029 0.045,0.046 0.175,-0.033 0.343,-0.07 0.511,-0.107 0.15,-0.127 0.308,-0.262 0.487,-0.381 0.138,-0.096 0.3,-0.182 0.461,-0.258 0.015,-0.032 0.027,-0.064 0.036,-0.096 0.051,-0.186 0.23,-0.18 0.46,-0.087 0.179,-0.039 0.37,-0.055 0.55,-0.026 0.025,0.004 0.046,0.013 0.07,0.018 l 0.137,-0.111 c 0.161,-0.122 0.337,-0.231 0.521,-0.318 0.554,-0.271 1.106,-0.361 1.602,-0.381 0.01,-0.1 0.003,-0.197 0.019,-0.297 0.021,-0.152 0.062,-0.331 0.106,-0.48 l 0.06,-0.209 c 0,-0.029 -0.011,-0.044 -0.028,-0.022 -0.04,0.057 0.007,0.171 -0.047,0.142 -0.046,-0.011 -0.147,-0.052 -0.263,-0.089 -0.194,-0.071 -0.42,-0.152 -0.655,-0.244 -1.144,0.312 -1.157,0.315 -1.157,0.315 l -0.831,-0.139 c 0.161,-0.671 0.181,-1.011 0.169,-1.271 -0.299,-0.281 -0.571,-0.603 -0.788,-0.96 -0.096,-0.154 -0.189,-0.336 -0.279,-0.529 l -0.093,-0.205 -0.022,-0.05 -0.035,-0.093 -0.046,-0.122 c -0.117,-0.326 -0.219,-0.678 -0.273,-1.092 -0.052,-0.41 -0.059,-0.909 0.118,-1.428 0.166,-0.521 0.498,-0.96 0.774,-1.251 0.571,-0.573 0.9,-0.81 1.068,-1.086 0.177,-0.231 0.302,-0.573 0.366,-0.941 0.151,-0.696 -0.063,-1.81 -0.093,-3.108 -10e-4,-0.036 0.003,-0.073 0.003,-0.109 -0.188,0.046 -0.41,0.158 -0.685,0.391 -0.922,0.784 -2.168,0.969 -2.813,1.522 0.552,-0.926 0.967,-1.249 1.89,-1.802 z m -1.846,3.367 c 0.461,-0.415 2.537,-1.061 3.183,-1.707 -0.138,0.784 -0.83,1.062 -1.938,1.799 -1.108,0.737 -1.614,4.06 -3.645,4.613 2.122,-1.477 2.308,-3.783 1.477,-4.291 -0.83,-0.507 -3.367,-1.568 -3.921,-1.707 -0.554,-0.139 -0.139,-0.6 0.322,-0.6 0.462,0 0.462,-0.092 1.015,-1.338 -0.046,0.6 -0.414,1.246 0.416,1.661 0.83,0.416 2.63,1.985 3.091,1.57 z m -9.395,16.566 c -0.243,0.056 -0.482,0.114 -0.712,0.178 -0.795,0.981 -1.45,2.339 -1.649,4.146 -0.183,-0.546 -0.121,-2.311 1.082,-3.971 -0.236,0.08 -0.458,0.163 -0.644,0.253 -0.161,0.081 -0.195,0.1 -0.294,0.143 -0.744,0.957 -1.376,2.396 -1.814,4.614 0.028,-1.81 0.547,-3.389 1.124,-4.375 -0.029,0.007 -0.062,0.017 -0.09,0.023 -0.149,0.032 -0.293,0.052 -0.436,0.069 -0.703,0.692 -1.569,1.881 -1.955,3.823 0.355,-2.041 0.913,-3.057 1.479,-3.781 -0.04,0.002 -0.083,0.007 -0.122,0.008 -0.154,0.003 -0.293,-0.01 -0.439,-0.015 -0.313,0.239 -0.617,0.524 -0.902,0.85 -0.103,0.2 -0.207,0.399 -0.316,0.591 -0.249,0.454 -0.529,0.916 -0.743,1.336 -0.099,0.356 -0.146,0.75 -0.159,1.167 0.002,0.002 0.004,0.003 0.006,0.006 0.115,0.118 0.379,0.285 0.7,0.454 0.442,0.195 0.978,0.231 1.622,0.049 0.617,-0.178 1.304,-0.502 2.043,-0.87 -0.01,-2.12 1.019,-3.647 2.219,-4.698 z m -3.343,10.509 c -0.012,-0.032 -0.022,-0.058 -0.018,-0.036 -0.02,-0.026 -0.009,-0.004 0.018,0.036 z m -3.911,-8.02 c 0.231,-0.533 0.564,-1.128 0.912,-1.559 -0.275,-0.041 -0.554,-0.08 -0.817,-0.123 -0.267,-0.015 -0.539,-0.025 -0.796,-0.045 -0.224,-0.015 -0.427,-0.034 -0.605,-0.018 -0.376,0.01 -0.583,-0.071 -0.793,-0.104 -0.397,-0.081 -0.729,-0.066 -1.096,0.051 l -0.457,0.172 c 0.008,0.019 0.013,0.029 0.021,0.05 0.163,0.434 1.408,0.951 1.31,2.098 -0.098,1.146 0.59,1.474 -0.098,1.769 -0.688,0.295 -1.475,0.196 -1.376,-0.295 0.099,-0.491 0.853,-0.917 0.655,-1.572 -0.119,-0.398 -0.443,-1.494 -0.577,-2.024 l -0.106,0.04 c -0.06,0.021 -0.118,0.035 -0.179,0.055 -0.042,0.026 -0.087,0.056 -0.164,0.114 -0.099,0.075 -0.264,0.196 -0.388,0.273 -0.271,0.175 -0.576,0.331 -0.903,0.44 -0.211,0.072 -0.418,0.112 -0.621,0.141 -0.136,0.058 -0.271,0.108 -0.403,0.15 -1.001,0.672 -3.08,1.662 -3.08,1.662 0,0 0.392,-0.4 0.891,-0.808 -0.231,0.057 -0.452,0.111 -0.659,0.193 -0.047,0.046 -0.095,0.091 -0.143,0.138 -0.23,0.23 -0.445,0.486 -0.663,0.736 0.289,0.456 1.352,2.076 2.278,2.722 1.08,0.753 3.832,1.965 4.192,1.801 0.36,-0.163 1.475,-1.179 1.507,-1.703 0.024,-0.388 0.193,-1.672 0.692,-1.914 0.024,-0.329 0.105,-0.63 0.218,-0.87 0.088,-0.17 0.181,-0.321 0.275,-0.465 -0.118,-0.321 -0.251,-0.634 -0.331,-0.754 -0.148,-0.224 -0.074,-0.631 -0.334,-0.816 -0.153,-0.11 -0.449,-0.518 -0.666,-0.833 0.397,0.534 0.985,0.974 1.668,-0.392 0,0.816 -0.482,1.596 -0.482,1.596 0,0 0.631,-0.668 1.336,-1.188 -0.305,0.36 -0.691,1.215 -0.791,1.857 0.186,-0.214 0.378,-0.4 0.573,-0.575 z m -5.237,4.78 c -0.131,-0.032 -1.408,-0.688 -1.408,-0.688 0,0 -0.001,-0.032 0.065,-0.524 0.065,-0.491 0.032,-0.753 -0.196,-0.949 -0.229,-0.197 -0.263,-0.295 -0.524,-0.295 -0.263,0 -0.197,0.163 -0.721,0.163 -0.524,0 -1.998,-0.655 -0.721,-0.655 1.277,0 1.474,-0.59 1.834,-0.164 0.36,0.427 0.459,0.426 0.558,0.688 0.098,0.263 0.295,0.721 0.295,0.721 0,0 -0.197,-1.506 -0.197,-1.638 0,-0.132 0.36,-0.983 1.081,-1.311 0.307,-0.14 -0.589,0.229 -0.72,0.917 -0.132,0.688 -0.197,1.311 0.098,1.966 0.295,0.655 0.884,1.311 0.884,1.539 0,0.23 -0.198,0.263 -0.328,0.23 z m 42.822,-23.238 c -0.899,-0.547 -0.352,-0.664 -0.548,-1.406 -0.195,-0.743 -0.155,-2.5 -0.547,-3.086 -0.391,-0.586 -1.68,-2.031 -2.07,-2.969 -0.391,-0.938 -2.813,-4.571 -2.813,-4.571 0,0 0.977,-1.563 -1.211,-3.985 -1.176,-1.301 -2.906,-3.079 -4.262,-4.45 0.04,0.545 0.016,1.107 -0.108,1.687 -0.238,1.033 -0.839,1.992 -1.584,2.731 -0.409,0.412 -0.862,0.751 -1.329,1.051 0.294,0.59 0.779,1.33 1.228,1.872 0.742,0.898 1.953,0.898 3.634,1.641 -0.392,0.078 -1.642,-0.117 -2.54,-0.234 -0.772,-0.101 -1.976,-1.673 -2.845,-2.958 -0.216,0.124 -0.434,0.24 -0.649,0.353 -1.294,0.676 -2.478,1.675 -3.391,2.78 0.461,0.232 0.914,0.489 1.357,0.772 0.993,0.708 2.02,1.489 2.678,2.889 0.158,0.349 0.272,0.76 0.313,1.203 0.028,0.212 0.007,0.473 -0.006,0.664 -0.01,0.108 -0.017,0.212 -0.021,0.302 0.002,-0.001 0.004,-0.002 0.006,-0.003 0.369,-0.185 2.076,-0.6 2.122,-1.707 0.046,-1.107 0.692,-1.845 1.107,-1.845 0.415,0 1.292,0.231 1.476,-1.015 0.231,0.785 -0.876,1.153 -0.461,1.707 0.415,0.554 1.43,3.091 2.445,3.875 1.015,0.784 1.338,1.338 1.338,1.338 -1.199,-1.153 -2.491,-1.292 -2.814,-0.415 -0.322,0.876 -0.738,1.338 -1.153,1.338 1.568,-1.753 1.292,-2.26 1.245,-2.722 -0.045,-0.462 -1.245,-2.999 -1.476,-3.229 -0.231,-0.23 -0.554,-0.369 -0.692,0.461 -0.138,0.83 -0.276,2.076 -0.738,2.398 -0.37,0.26 -1.652,0.434 -2.386,0.849 0.011,0.181 0.021,0.362 0.043,0.545 0.082,1 0.452,2.187 0.213,3.792 -0.068,0.387 -0.184,0.773 -0.334,1.135 l -0.113,0.253 -0.161,0.309 c -0.108,0.183 -0.224,0.362 -0.354,0.525 -0.523,0.66 -1.165,1.085 -1.422,1.312 -0.005,0.004 -0.005,0.004 -0.01,0.008 0.1,0.521 0.137,1.1 0.004,1.466 -0.018,0.048 -0.041,0.094 -0.061,0.141 0.006,0.02 0.008,0.032 0.016,0.054 0.262,0.778 0.864,1.377 1.917,2.112 0.133,0.111 0.276,0.228 0.438,0.418 0.056,0.058 0.113,0.151 0.165,0.255 0.589,-0.078 1.123,-0.359 1.262,-0.811 0.185,-0.601 1.062,-1.246 1.708,-1.522 0.646,-0.277 1.799,0.461 2.675,0 0.877,-0.462 1.384,-0.415 1.384,-1.015 0,-0.601 -0.646,-2.583 0.923,-4.014 -0.691,1.522 -0.322,3.69 0,4.197 0.323,0.508 1.71,-0.411 1.754,-0.968 0.045,-1.107 0.23,-1.799 0.23,-1.799 0,0 0.461,0.969 0.876,1.938 0.415,0.968 0.738,1.982 0.462,2.537 -0.277,0.554 -0.323,1.061 -0.093,1.199 0.23,0.138 1.062,0.507 1.153,0.185 0.093,-0.323 0.6,-0.692 0.415,-1.292 -0.185,-0.6 -0.276,-1.891 -0.185,-2.49 0.23,0.829 0.323,1.891 0.508,2.214 0.185,0.323 0.554,0.6 0.554,0.6 0,0 -0.692,0.554 -0.738,1.061 -0.046,0.508 -0.139,1.292 -0.139,1.292 0,0 -0.738,-0.23 -1.062,-0.554 -0.322,-0.322 -0.553,-1.153 -1.152,-0.415 -0.49,0.604 -1.295,2.516 -2.501,3.628 0.129,0.131 0.259,0.26 0.381,0.392 l 0.607,0.683 c 0.111,0.004 0.215,0.012 0.332,0.012 1.406,0 1.953,-0.899 2.578,-1.485 0.625,-0.586 2.188,-1.797 3.243,-4.531 1.054,-2.738 0.076,-6.136 -0.821,-6.683 z m -7.712,-15.677 c 0.187,0.748 1.047,3.253 1.047,3.365 0,0.112 1.122,1.421 1.122,1.533 0,0.112 1.421,2.505 1.384,2.991 -0.037,0.486 -0.674,1.01 -0.897,0.523 -0.225,-0.486 -1.047,-3.178 -1.795,-4.524 -0.748,-1.346 -1.496,-4.674 -2.468,-6.356 -0.001,0 1.42,1.721 1.607,2.468 z m -3.701,2.58 c 0,0.598 -0.897,0.411 -0.748,-0.299 0.149,-0.71 2.094,-0.822 2.355,-0.374 0,0 -1.607,0.075 -1.607,0.673 z m 7.869,13.007 c -0.507,-0.461 -3.69,-0.646 -4.844,-0.046 -1.153,0.599 -3.783,0.6 -5.536,2.537 0.692,-1.015 0.83,-1.938 0.554,-3.321 0,0 1.753,1.107 2.906,1.015 1.153,-0.092 2.722,-1.061 3.968,-1.983 -0.092,0.184 -0.646,1.061 -0.646,1.061 0,0 1.2,0.093 1.2,-0.461 0,-0.554 0.461,-2.999 0.368,-3.691 -0.092,-0.692 -2.629,-3.967 -2.998,-4.475 -0.369,-0.508 -0.23,-1.292 -0.185,-3.275 0.046,-1.984 -0.737,-3.967 -1.938,-5.767 0,0 1.938,2.768 2.215,3.875 0.276,1.107 0.092,3.737 0.138,4.198 0.046,0.461 0.738,1.338 1.384,2.353 0.646,1.015 2.076,2.814 2.076,2.814 0,0 1.384,0 2.63,0.23 -2.398,0.508 -2.906,1.476 -2.999,1.799 -0.092,0.323 -0.092,1.015 0,1.476 0.093,0.461 1.2,0.738 1.522,0.922 0.323,0.185 1.199,0.785 1.477,1.107 0.276,0.323 1.061,1.661 1.338,2.122 0.276,0.461 1.106,1.062 1.106,2.676 -0.737,-1.752 -3.228,-4.704 -3.736,-5.166 z m -11.45,17.081 c 0.372,-0.014 0.729,-0.05 1.074,-0.06 -0.648,-0.924 -1.47,-2.002 -1.745,-2.063 -0.447,-0.1 -2.484,1.441 -2.733,1.739 -0.136,0.164 -0.271,0.01 -0.366,-0.226 -0.749,0.413 -1.791,1.096 -2.5,1.611 -0.817,0.594 -2.338,1.076 -3.303,1.298 -0.518,0.119 -1.47,0.583 -2.308,1.083 0.063,0.128 0.115,0.263 0.138,0.389 0.028,0.141 0.039,0.308 0.03,0.433 -0.005,0.067 -0.02,0.134 -0.032,0.2 0.392,-0.268 1.918,-1.029 2.469,-1.14 0.557,-0.111 1.41,-0.297 2.004,-0.816 0.594,-0.519 2.782,-1.595 3.562,-2.114 -1.78,1.298 -3.005,2.448 -3.673,2.856 -0.668,0.408 -1.596,0.631 -2.597,0.854 -0.882,0.195 -1.497,0.59 -1.987,0.961 -0.028,0.048 -0.055,0.091 -0.079,0.128 -0.084,0.123 -0.153,0.205 -0.223,0.285 -0.096,0.105 -0.178,0.182 -0.261,0.26 0.386,-0.129 0.659,-0.102 0.991,-0.149 0.519,-0.074 1.521,-0.557 2.151,-0.742 0.63,-0.185 1.67,-0.482 2.412,-1.002 0.741,-0.519 1.076,-0.705 1.669,-1.41 0.594,-0.705 1.967,-1.521 2.598,-1.892 0.631,-0.371 2.968,-1.373 3.19,-0.965 -1.335,0 -4.155,1.744 -4.563,2.151 -0.408,0.408 -1.78,1.855 -2.152,2.189 -0.37,0.334 -2.151,0.965 -2.56,1.113 -0.409,0.148 -1.817,0.408 -2.709,1.112 0,0 1.522,0.037 2.227,-0.074 0.705,-0.11 1.447,-0.073 2.078,-0.444 0.631,-0.371 1.262,-1.039 1.521,-1.336 0.26,-0.297 1.114,-1.002 1.484,-1.188 0.371,-0.186 1.299,-0.482 1.893,-0.705 0.594,-0.223 0.779,-0.37 0.965,-0.705 -0.223,0 -0.631,0.074 -0.631,-0.333 -0.001,-0.407 1,-1.261 1.966,-1.298 z m 8.774,-12.007 c -0.83,0.093 -1.061,0.185 -1.43,0.6 -0.369,0.416 -1.892,0.231 -2.676,0.508 -0.784,0.277 -1.799,-0.185 -2.906,1.753 0.033,0.667 0.468,1.071 0.327,1.609 0.335,0.049 0.665,0.097 0.992,0.13 0.498,0.054 0.933,0.081 1.445,0.069 0.642,-0.022 1.282,0.093 1.847,0.322 0.74,0.313 1.343,0.756 1.878,1.239 0.021,-0.018 0.04,-0.028 0.062,-0.048 0.646,-0.601 1.892,-2.398 2.261,-2.906 0.369,-0.508 0.646,-1.8 0.738,-2.63 0.092,-0.831 -0.646,-2.675 -0.646,-2.675 0.138,1.477 -0.785,1.706 -1.892,2.029 z m -0.819,3.866 c -0.336,0 -0.784,0.3 -1.832,0.374 -1.047,0.075 -3.028,-0.374 -3.028,-0.374 0,0 1.607,0.225 1.758,0.188 0.149,-0.037 1.532,-0.449 2.205,-0.86 0.674,-0.411 0.599,-0.486 1.159,-0.897 0.562,-0.411 0.038,-1.271 0.038,-1.383 0,0 0.673,0.075 0.673,0.598 0,0.523 -0.562,1.646 -0.562,1.646 l 1.122,0.636 c 0,-0.003 -1.196,0.072 -1.533,0.072 z m -29.085,-42.02600067 c -0.015,-0.001 -0.031,-0.003 -0.045,-0.004 0.022,0.019 0.048,0.036 0.071,0.055 -0.01,-0.017 -0.018,-0.034 -0.026,-0.051 z m -11.561,51.87900067 c -0.645,0.328 -1.128,0.645 -1.23,0.899 -0.196,0.492 -1.475,0.786 -1.475,0.786 0,-0.459 0.688,-0.786 0.885,-1.146 0.196,-0.361 1.081,-0.394 1.769,-0.982 0.227,-0.194 0.465,-0.328 0.704,-0.433 0.119,-0.138 0.231,-0.277 0.369,-0.407 0.419,-0.411 1.045,-0.759 1.658,-0.89 1.294,-0.217 1.438,-0.311 2.344,-1.22 0.03,-0.024 0.063,-0.043 0.095,-0.067 -0.6,-0.278 -1.403,-0.43 -1.673,-0.666 -0.506,-0.442 -1.896,0.316 -2.719,1.074 -0.821,0.759 -4.298,0.695 -5.12,0.506 -0.821,-0.189 -1.454,0.189 -2.149,1.896 -0.695,1.707 -3.54,3.414 -4.678,3.414 0,0 1.96,-1.581 2.339,-1.896 0.38,-0.316 2.149,-2.972 2.718,-3.414 0.569,-0.441 1.896,-0.632 2.782,-0.632 0.885,0 3.603,-0.316 4.552,-0.822 0.947,-0.505 1.2,-0.821 0.505,-2.022 0.695,0.126 1.265,1.011 2.149,1.454 0.479,0.24 1.041,0.494 1.658,0.854 1.007,-0.614 2.157,-0.742 3.128,-0.775 1.152,-0.036 2.224,0.083 3.21,0.151 0.991,0.063 1.872,0.038 2.233,-0.273 0.29,-0.16 0.57,-0.292 0.846,-0.407 -0.154,-0.123 -0.278,-0.25 -0.327,-0.347 -0.172,-0.344 -2.365,-1.85 -2.796,-2.409 -0.43,-0.56 -3.399,1.162 -4.389,2.366 -0.043,-0.517 0.087,-1.204 1.42,-1.764 1.334,-0.56 1.937,-0.903 2.108,-1.592 0.171,-0.689 -1.506,-1.765 -2.065,-2.323 -0.559,-0.558 -0.817,-2.366 -0.817,-3.184 0,-0.818 -1.678,0.989 -2.237,1.463 -0.559,0.474 -1.29,0.86 -2.15,1.204 -0.86,0.345 -1.979,0.086 -2.495,-0.172 -0.517,-0.258 -1.722,0.344 -2.324,0.946 -0.602,0.602 -1.893,-0.473 -2.925,-0.817 -1.032,-0.344 -2.495,-0.215 -3.141,0.086 -0.646,0.302 -5.206,4.518 -5.722,5.378 -0.517,0.86 -2.797,3.527 -3.614,4.303 -0.817,0.774 -2.237,0.688 -2.193,-0.56 0.043,-1.248 0.645,-0.431 1.979,-0.86 1.334,-0.429 2.452,-2.453 2.926,-3.098 0.473,-0.646 0.774,-1.334 1.118,-2.151 0.345,-0.817 1.032,-1.204 1.549,-1.42 0.517,-0.215 1.032,-0.387 1.979,-1.118 0.945,-0.731 0.86,-1.076 0.86,-1.076 0,0 1.033,0.215 1.463,0.215 0.43,0 1.119,-0.646 1.248,-1.807 0.129,-1.162 -0.731,-1.936 -0.302,-2.538 0.429,-0.602 0.774,-1.678 0.903,-2.151 0.129,-0.473 0.688,-0.301 0.774,-0.043 0.087,0.258 -0.387,1.033 -0.473,1.506 -0.086,0.473 0.086,2.925 0.646,3.657 0.56,0.731 1.764,1.505 2.71,1.721 0.946,0.215 1.162,-0.818 2.022,-0.861 0.86,-0.043 3.656,-0.603 4.087,-0.816 0.429,-0.215 1.677,-0.861 2.667,-1.851 0.989,-0.989 -0.345,-2.366 -0.903,-2.538 -0.559,-0.172 0.043,-1.205 0.301,-0.688 0.259,0.516 1.377,1.721 3.012,1.592 1.635,-0.129 2.496,-1.033 3.355,-1.205 0.86,-0.172 1.291,0.603 2.582,0.731 1.29,0.129 1.549,-0.129 2.538,-2.667 0.696,-1.787 1.791,-2.756 2.548,-3.389 -0.533,0.033 -1.05,0.004 -1.584,-0.059 -0.544,-0.077 -1.087,-0.202 -1.619,-0.4 -0.266,-0.106 -0.52,-0.207 -0.815,-0.375 -0.328,-0.173 -0.401,-0.252 -0.649,-0.409 -0.463,-0.336 -1.192,-0.56 -2.018,-0.696 -0.416,-0.069 -0.854,-0.12 -1.331,-0.184 -0.239,-0.034 -0.488,-0.07 -0.765,-0.13 -0.171,-0.043 -0.329,-0.081 -0.52,-0.154 -0.154,0.241 -0.262,0.572 -0.475,1.021 -0.43,0.901 -1.327,-0.463 -1.503,-1.367 -0.152,0.017 -0.304,0.034 -0.457,0.055 -0.861,0.107 -1.725,0.313 -2.571,0.57 -0.523,0.174 -1.053,0.366 -1.541,0.634 -0.018,0.011 -0.034,0.024 -0.052,0.035 -0.002,0.001 -0.004,0.002 -0.006,0.003 -0.066,0.804 -0.309,1.574 -0.637,2.23 -0.449,0.884 -1.037,1.614 -1.592,2.242 l -0.39,0.438 -0.145,0.171 c -0.028,0.035 -0.013,0.017 -0.01,0.006 -0.042,0.06 10e-4,0.01 -0.165,0.238 -0.235,0.312 -0.593,0.527 -0.893,0.628 -0.951,1.548 -2.343,3.71 -2.343,3.71 0,0 0.086,-0.903 0.388,-1.592 0.207,-0.474 0.351,-1.333 0.379,-2.119 -0.081,-0.021 -0.167,-0.042 -0.242,-0.064 -0.973,-0.323 -1.664,-0.709 -2.391,-1.067 -1.068,-0.486 -0.411,-0.417 -1.232,-0.3 -1.239,0.328 -2.673,1.068 -4.003,1.797 -1.345,0.757 -2.688,1.559 -4.016,2.389 -0.785,0.49 -1.559,1.002 -2.328,1.52 0,0 0,0.001 -0.001,0.001 -0.042,0.058 -0.083,0.118 -0.124,0.182 l -0.049,0.074 -0.019,0.025 -0.044,0.054 c -0.07,0.081 -0.115,0.113 -0.172,0.157 -0.306,0.197 -0.558,0.264 -0.789,0.319 -0.129,0.088 -0.26,0.176 -0.389,0.264 l -0.486,0.34 c -0.131,0.093 -0.272,0.197 -0.404,0.31 -0.266,0.222 -0.522,0.473 -0.766,0.744 -0.183,0.202 -0.353,0.424 -0.523,0.644 -0.055,0.093 -0.11,0.185 -0.154,0.286 -0.122,0.303 -0.271,0.623 -0.408,0.92 l -0.833,1.81 c -0.266,0.605 -0.545,1.208 -0.771,1.822 -0.056,0.153 -0.107,0.308 -0.145,0.461 -0.043,0.147 -0.025,0.303 -0.078,0.494 -0.079,0.313 -0.299,0.571 -0.578,0.712 -0.12,0.583 -0.351,1.722 -0.379,2.066 -0.039,0.469 0.742,1.601 1.406,1.914 0.664,0.313 1.602,1.406 2.148,1.68 0.548,0.273 1.719,0.977 3.36,1.133 1.641,0.156 2.07,0.586 2.813,1.211 0.743,0.625 1.68,1.094 2.734,1.523 1.054,0.429 3.086,0.313 4.142,-0.156 1.055,-0.469 1.133,-0.703 1.719,-1.602 0.586,-0.899 1.875,-0.664 2.344,-0.977 0.096,-0.064 0.183,-0.127 0.267,-0.188 0.25,-0.563 0.524,-1.118 0.854,-1.657 0.01,-0.016 0.021,-0.028 0.029,-0.042 z m -3.193,-10.384 c -0.632,0.821 -1.201,2.148 2.149,5.057 -1.896,-0.315 -3.729,-2.086 -3.667,-2.845 0.064,-0.759 0.633,-1.833 1.518,-2.212 z m 11.849,-11.444 c 0.859,0.82 4.258,1.172 4.923,0.469 0.664,-0.703 0.976,-2.344 0.976,-2.344 0.703,0.352 0.548,1.641 0.509,2.617 -0.04,0.977 -0.86,1.016 -1.836,1.016 -0.978,0 -1.837,-0.469 -2.149,-0.273 -0.312,0.195 -0.938,0.547 -1.132,0.273 -0.196,-0.273 -0.313,-0.586 -1.251,-0.508 -0.938,0.078 -1.25,-0.703 -1.25,-1.172 -0.001,-0.469 0.351,-0.898 1.21,-0.078 z m 4.919,-28.5410007 c 0.082,0.06 0.165,0.117 0.247,0.178 0.013,0.009 0.024,0.019 0.036,0.027 0.266,0.053 0.591,0.057 0.975,-0.066 -0.088,0.254 -0.16,0.535 -0.172,0.818 0.008,0.017 0.016,0.034 0.021,0.049 0.029,0.077 0.044,0.152 0.055,0.222 0.012,0.12 0.011,0.217 0.009,0.306 0.043,0.085 0.093,0.162 0.132,0.254 l 0.025,0.065 c 0.148,0.218 0.371,0.421 0.708,0.589 1.172,0.586 0.781,0.781 0.977,1.25 0.196,0.469 2.422,0.508 2.539,1.328 0.117,0.82 -0.155,1.758 -0.703,1.172 -0.547,-0.586 -0.703,-1.914 -1.719,-1.953 -0.408,-0.016 -0.799,-0.197 -1.129,-0.432 0.027,0.183 0.036,0.393 -0.026,0.65 -0.098,0.409 -0.429,0.724 -0.679,0.875 -0.507,0.303 -0.95,0.389 -1.347,0.495 -0.343,0.087 -0.674,0.204 -1.018,0.344 -0.682,0.281 -1.356,0.629 -2.003,1.013 -0.277,0.168 -0.551,0.342 -0.82,0.519 0.173,0.138001 0.31,0.350001 0.424,0.5960007 0.459,0.432 0.799,0.434 0.854,-0.1539997 0.034,0.9779997 0.128,1.4289997 0.956,0.5799997 0.154,-0.184 0.315,-0.355 0.45,-0.5019997 -0.171,0.2029997 -0.318,0.3669997 -0.45,0.5019997 -0.378,0.45 -0.709,0.979 -0.487,1.451 0.313,0.664 1.251,2.422 1.72,2.461 0.469,0.039 2.07,0.43 2.539,0 -0.781,0.82 -2.227,0.234 -2.422,0.469 -0.195,0.235 -0.117,1.445 0,1.523 -0.742,-0.742 -0.586,-1.68 -1.094,-2.266 -0.509,-0.586 -1.212,-1.797 -1.485,-2.383 -0.174,-0.374 -0.317,-1.114 -0.581,-1.6819997 -0.149,-0.141 -0.313,-0.333 -0.481,-0.559001 -0.334,0.221001 -0.658,0.450001 -0.964,0.6920007 -0.283,0.225 -0.551,0.46 -0.785,0.7 -0.227,0.225 -0.453,0.521 -0.529,0.669 -0.016,0.022 -0.098,0.188 -0.107,0.212 -0.055,0.116 -0.114,0.228 -0.176,0.338 -0.125,0.219 -0.261,0.424 -0.398,0.613 -0.276,0.38 -0.547,0.691 -0.775,0.982 -0.465,0.568 -0.781,1.075 -1.019,1.687 -0.236,0.601 -0.386,1.289 -0.475,1.984 -0.093,0.74 -0.137,1.478 -0.16,2.233 -0.049,1.505 0.055,2.909 0.33,4.44 0.123,0.75 0.257,1.509 0.338,2.376 0.6,-0.492 1.611,-0.852 2.033,-1.209 0.297,-0.251 0.924,-0.34 1.466,-0.373 0.109,-0.043 0.214,-0.095 0.324,-0.137 0.376,-0.134 0.766,-0.243 1.173,-0.333 0.058,-0.091 0.112,-0.189 0.163,-0.291 0.194,-0.391 -0.196,-1.211 -0.431,-1.484 -0.234,-0.274 -1.211,-0.313 -1.445,-0.938 -0.234,-0.625 -1.094,-1.172 -1.094,-1.172 l 0.391,-0.195 c 0,0 0.469,-0.469 0.742,-0.039 0.273,0.43 1.68,1.602 2.227,2.227 0.547,0.625 1.289,1.25 2.109,0.703 0.82,-0.547 1.368,-1.211 2.032,-2.696 0.116,2.469 -1.862,3.298 -3.229,3.77 0.055,0.008 0.105,0.013 0.166,0.027 0.123,0.037 0.23,0.062 0.397,0.162 l 0.031,0.02 c 1.137,0.175 2.344,-0.447 2.868,-0.97 0.625,-0.625 1.016,-2.032 0.938,-2.891 -0.078,-0.859 -0.43,-3.008 -1.133,-4.063 0.664,0.117 1.133,0.898 1.133,0.898 0,0 1.172,-0.664 1.328,-1.211 0.156,-0.547 0.43,-1.406 1.016,-2.617 0.586,-1.211 0.273,-1.758 -1.406,-2.813 1.523,0 2.305,0.977 2.656,1.719 0.352,0.742 -0.43,0.821 -0.586,1.29 -0.156,0.469 -0.117,1.406 -0.234,1.953 -0.117,0.547 -1.094,1.133 -1.406,1.719 -0.313,0.586 -0.195,1.875 -0.039,2.773 0.156,0.898 0.078,2.11 -0.234,2.735 -0.312,0.625 -1.914,1.172 -2.657,1.523 -0.034,0.016 -0.08,0.033 -0.118,0.049 0.091,0.002 0.18,0.001 0.272,0.005 0.971,0.04 2.087,0.147 3.183,0.775 0.144,0.072 0.444,0.257 0.531,0.27 0.106,0.043 0.279,0.103 0.439,0.155 0.327,0.098 0.681,0.155 1.039,0.181 0.692,0.055 1.527,-0.031 1.982,-0.231 0.074,-0.032 0.029,-0.017 0.134,-0.069 l 0.306,-0.171 0.57,-0.324 c 0.369,-0.215 0.724,-0.435 1.051,-0.663 0.33,-0.223 0.636,-0.457 0.871,-0.681 0.236,-0.208 0.37,-0.458 0.348,-0.412 l 0.007,-0.201 c 0.01,-0.134 0.031,-0.308 0.052,-0.388 0.082,-0.402 0.213,-0.714 0.35,-0.998 0.281,-0.557 0.6,-1 0.943,-1.405 0.129,-0.151 0.272,-0.275 0.405,-0.417 -0.174,-0.453 -0.453,-1.031 -0.84,-1.806 -0.82,-1.641 -1.797,-1.133 -2.266,-2.188 -0.469,-1.055 -0.391,-1.68 -0.43,-1.836 -0.04,-0.156 -0.625,-0.664 -0.977,-1.016 -0.352,-0.352 -0.859,-0.782 -1.055,-1.407 -0.196,-0.625 -0.469,-1.7969997 -0.977,-2.1089997 -0.509,-0.313001 -0.899,-0.859001 -0.586,-1.289001 0.312,-0.43 0.586,-0.665 1.172,-1.368 0.586,-0.703 2.227,-0.273 2.227,-0.273 0,0 -0.156,-0.156 0.117,-0.859 0.273,-0.703 0.977,-1.055 0.977,-1.055 0,0 0.938,0.117 0.703,0.508 -0.235,0.391 -1.328,0.703 -1.328,0.703 0,0 0.078,0.703 1.055,0.977 0.977,0.274 1.563,1.289 1.563,1.289 l -1.68,-0.742 c 0,0 -1.055,0.039 -1.484,-0.078 -0.429,-0.117 -1.68,-0.273 -1.914,0 -0.234,0.273 -0.234,0.625 -0.04,0.899 0.195,0.273 0.586,0.625 0.743,1.289001 0.156,0.6639997 0,1.2499997 0,1.6019997 0,0.352 0.313,0.313 0.938,0.234 0.625,-0.079 1.367,-0.781 2.383,-1.5229997 1.016,-0.742001 1.602,-1.289001 1.602,-1.289001 0,0 -0.273,1.172001 -0.898,1.7580007 -0.625,0.586 -2.188,1.25 -2.695,1.25 -0.507,0 -0.703,0.234 -0.703,0.508 0,0.274 0.625,0.664 1.016,1.016 0.391,0.352 0.352,1.094 0.352,1.485 0,0.391 0.43,0.742 0.586,0.938 0.156,0.196 1.055,1.016 1.523,1.797 0.468,0.781 1.25,1.954 1.602,0.977 0.352,-0.977 0.43,-2.422 0.508,-3.477 0.078,-1.055 0.078,-1.992 0.938,-2.618 0.859,-0.625 1.601,-0.82 1.445,-1.836 -0.156,-1.0160007 -1.211,-1.1330007 -2.11,-1.6020007 -0.898,-0.469 -0.82,-0.469 -0.664,-0.82 0.156,-0.351 0.117,-0.352 0.625,-2.188 0.742,0.625 0.391,2.032 0.391,2.344 0,0.313 0.391,0.508 0.703,0.43 0.313,-0.078 1.134,-0.156 1.876,0.117 0.742,0.273 1.016,1.055001 1.016,1.055001 0,0 -0.078,0.195 -0.352,0.4689997 -0.273,0.273 -0.508,0.508 -0.156,0.742 0.352,0.234 -0.195,0.469 -0.391,0.938 -0.196,0.469 -0.196,0.743 -0.156,1.172 0.039,0.429 0.742,1.289 1.094,2.891 -0.547,-0.742 -1.055,-1.211 -1.368,-2.07 -0.313,-0.86 -0.82,-1.133 -1.132,-0.859 -0.313,0.273 -0.978,1.836 -1.172,3.047 -0.157,0.969 -0.339,1.794 -0.524,2.723 0.2,-0.16 0.392,-0.332 0.602,-0.479 0.806,-0.578 1.741,-1.085 2.679,-1.407 1.565,-0.572 2.984,-1.354 3.625,-2.773 0.007,-0.013 0.01,-0.028 0.017,-0.042 0.006,-0.02 0.016,-0.04 0.021,-0.06 0.157,-0.508 -0.018,-1.084 -0.166,-1.68 l -0.417,-1.502 c -0.003,-0.003 -0.015,-0.015 -0.015,-0.015 0,0 -0.82,-0.82 -1.133,-1.3669997 -0.313,-0.547001 -1.368,-0.977001 -2.892,-2.422001 -1.523,-1.445 -3.672,-2.696 -4.141,-2.696 -0.469,0 -0.586,0 -1.406,-0.586 -0.82,-0.586 -2.892,-0.742 -5.313,-1.992 -1.536,-0.79299997 -4.851,-1.26899997 -7.16,-1.51299997 0.45,0.5 0.948,0.96999997 1.447,1.45699997 z m -3.942,18.5790007 c 1.603,-1.68 1.094,-2.891 -0.039,-3.32 -1.133,-0.43 -2.734,-0.352 -3.203,0.391 -0.469,0.743 -1.562,1.797 -1.562,1.797 0.507,-1.836 2.382,-3.477 2.929,-3.711 0.234,0.625 0.898,1.25 1.719,0.664 0.821,-0.586 1.876,-0.898 1.876,-0.898 -0.782,1.016 -1.172,1.329 -1.172,1.329 0.507,0.428 2.695,2.029 -0.548,3.748 z m 5.352,-9.688 c -0.586,-0.586 0.078,-1.1720007 -0.273,-1.8360007 -0.352,-0.665 -0.664,-1.211 -0.664,-1.211 0,0 1.758,1.407 1.758,1.993001 0,0.5859997 -0.235,1.6399997 -0.821,1.0539997 z m 5.469,9.454 c 0.859,-0.586 0.431,-1.953 -0.546,-3.204 2.031,1.641 1.758,2.071 0.82,3.086 1.484,-0.273 3.242,0.117 4.844,1.211 -1.25,-0.469 -4.102,-0.781 -4.805,-0.664 0,0 -0.117,1.446 -0.234,2.227 -0.117,0.781 -0.039,1.836 0.313,3.008 -0.548,-0.469 -2.306,-1.914 -1.72,-1.875 0.586,0.039 0.938,-0.273 1.094,-1.836 0.103,-1.023 -0.813,-1.525 -1.46,-1.751 -0.356,-0.068 -0.61,-0.164 -0.61,-0.164 0,0 0.269,0.044 0.61,0.164 0.497,0.096 1.194,0.139 1.694,-0.202 z m -1.252,-16.3690007 c 0.349,0.186 0.93,0.512 0.93,0.791 0,0.208 0.297,0.505 0.447,0.644 -0.697,-0.606 -2.446,-1.736 -2.446,-1.736 0,0 0.721,0.115 1.069,0.301 z m 0.979,62.7020007 c 0,0 -0.002,-0.005 -0.169,-0.509 -0.194,-0.069 -0.391,-0.132 -0.584,-0.204 0.13,0.13 0.232,0.272 0.274,0.441 0.196,0.786 -0.917,0.491 -0.099,1.113 0.819,0.622 3.637,3.374 3.637,3.374 0,0 -2.654,-1.835 -3.538,-2.752 -0.885,-0.917 -0.852,-0.688 -1.408,-1.179 -0.558,-0.491 -1.049,-0.918 -1.114,-1.409 -0.035,-0.266 -0.261,-0.509 -0.461,-0.679 -0.07,-0.031 -0.143,-0.057 -0.213,-0.088 -0.825,-0.374 -1.653,-0.756 -2.463,-1.23 -0.407,-0.236 -0.813,-0.485 -1.228,-0.784 -0.206,-0.152 -0.413,-0.316 -0.629,-0.517 -0.215,-0.21 -0.443,-0.419 -0.69,-0.86 -0.038,-0.033 -0.189,-0.451 -0.17,-0.411 l -0.007,-0.02 -0.031,-0.125 c -0.013,-0.068 -0.022,-0.137 -0.028,-0.206 -0.016,-0.147 -0.006,-0.251 0.005,-0.371 0.062,-0.442 0.198,-0.673 0.307,-0.871 0.049,-0.081 0.097,-0.151 0.144,-0.22 0.007,-0.144 0.013,-0.322 0.013,-0.575 0,-0.289 -0.004,-0.553 0.01,-0.797 -0.166,-0.031 -0.329,-0.077 -0.493,-0.128 -0.192,0.317 -0.619,0.65 -0.556,0.109 0.011,-0.092 0.034,-0.19 0.063,-0.289 -0.119,-0.055 -0.232,-0.124 -0.347,-0.191 -0.037,0.387 -0.018,0.746 -0.273,0.555 -0.297,-0.224 -0.557,0 -0.557,-0.631 0,-0.178 0.015,-0.358 0.029,-0.519 -0.062,-0.059 -0.122,-0.123 -0.182,-0.188 -0.286,0.506 -0.588,0.748 -0.553,0.076 0.026,-0.499 -0.037,-0.555 0.066,-0.728 -0.002,-0.004 -0.005,-0.007 -0.008,-0.012 -0.062,-0.108 -0.107,-0.238 -0.155,-0.364 -0.153,0.148 -0.286,0.312 -0.308,0.497 -0.065,0.557 0,0.688 -0.426,1.113 -0.426,0.425 -1.179,1.409 -1.703,1.409 -0.524,0 -1.999,-0.688 -2.981,-1.146 -0.982,-0.458 -1.77,-1.18 -2.359,-1.9 -0.469,-0.574 -0.892,-1.45 -1.047,-1.787 -0.061,0.07 -0.124,0.135 -0.184,0.205 0.124,0.293 0.391,0.824 0.922,1.507 0.82,1.055 3.711,3.242 4.725,3.594 1.017,0.352 1.798,0.469 2.345,0.743 0.547,0.273 3.516,4.297 4.609,4.844 1.095,0.547 1.212,0.898 1.953,1.992 0.743,1.094 3.946,3.79 4.923,4.728 0.977,0.938 3.556,0.781 4.259,0.586 0.703,-0.196 1.094,-0.469 0.82,-1.055 -0.273,-0.587 -4.14,-4.141 -4.14,-4.141 z m -7.292,-2.369 c -0.197,-0.295 -1.146,-1.277 -1.802,-2.194 -0.656,-0.918 -1.54,-2.326 -1.54,-2.326 0,0 2.522,3.21 2.85,3.637 0.328,0.426 0.721,0.295 0.918,0.721 0.196,0.424 -0.23,0.456 -0.426,0.162 z m 8.025,6.487 c -0.426,-0.36 -4.685,-3.997 -5.176,-4.357 -0.492,-0.36 -0.197,0.164 0.033,0.524 0.229,0.36 0.917,1.048 0.917,1.048 0,0 -1.376,-0.688 -1.638,-1.376 -0.263,-0.688 -0.591,-1.834 0.098,-1.638 l 6.29,5.995 c 10e-4,0 -0.098,0.164 -0.524,-0.196 z m -41.974,-24.091 c 0.028,-0.133 -0.002,-0.317 0.029,-0.495 0.025,-0.174 0.064,-0.34 0.106,-0.504 0.148,-0.559 0.331,-1.102 0.525,-1.64 -0.506,0.978 -0.952,1.997 -1.373,3.033 0.253,0.008 0.409,0.012 0.409,0.012 0,0 -0.017,0.077 -0.042,0.202 0.186,-0.154 0.312,-0.377 0.346,-0.608 z m 61.43,0.686 c -0.445,0.297 -2.969,0.742 -3.525,0.705 -0.556,-0.037 -2.856,0.148 -3.599,0.779 1.076,-1.039 2.264,-0.815 4.081,-1.15 1.818,-0.334 1.818,-0.668 2.152,-1.373 -0.668,0.372 -0.742,0.816 -2.004,0.854 -1.262,0.038 -3.673,-0.333 -5.008,0.557 1.521,-1.483 3.969,-1.113 4.712,-1.188 0.666,-0.066 1.061,-0.196 1.107,-0.68 -0.242,-0.03 -0.486,-0.058 -0.729,-0.089 -0.229,-0.026 -0.469,-0.06 -0.702,-0.088 -0.081,0.023 -0.169,0.049 -0.271,0.078 -1.039,0.297 -2.301,-0.297 -3.34,0.26 0.693,-0.456 1.576,-0.551 2.249,-0.541 l -0.626,-0.14 c -0.431,-0.091 -0.862,-0.158 -1.285,-0.188 -0.178,-0.014 -0.354,-0.014 -0.525,-0.008 -0.062,0 -0.121,0.002 -0.18,0.004 -0.083,0.006 -0.164,0.012 -0.246,0.018 0.035,0.181 0.05,0.356 -0.017,0.401 -0.119,0.08 -0.681,0.216 -1.105,0.017 l -0.163,0.155 c -0.254,0.22 -0.466,0.359 -0.679,0.485 0.339,0.325 0.827,0.625 0.953,0.783 0.199,0.248 0.895,1.044 1.043,1.292 0.098,0.161 1.092,1.306 1.644,2.28 0.355,0.035 0.704,0.127 1.052,0.339 -0.271,0 -0.572,-0.004 -0.88,-0.008 0.182,0.39 0.26,0.726 0.123,0.917 -0.076,-0.137 -0.307,-0.493 -0.601,-0.923 -0.958,-0.011 -1.855,-0.012 -1.98,0.088 -0.186,0.148 -0.668,0.742 -0.668,0.965 0,0.222 1.336,0.37 2.077,0.074 0.742,-0.297 1.893,0.073 3.674,-0.223 -0.854,0.557 -2.672,0.407 -3.08,0.37 -0.408,-0.037 -1.596,0.298 -2.114,0.557 -0.52,0.26 -2.078,0.854 -2.857,1.447 -0.779,0.593 -2.411,1.521 -2.746,1.707 -0.333,0.185 -1.038,0.778 -1.669,0.928 -0.631,0.148 -2.189,0.223 -3.228,0.408 -0.933,0.166 -1.415,-0.009 -1.88,-0.393 -0.021,0.018 -0.045,0.036 -0.066,0.053 -0.471,0.359 -0.928,0.676 -1.382,0.982 1.155,1.15 3.375,2.479 6.656,1.57 -0.493,0.576 -3.858,1.483 -7.26,-1.166 -0.085,0.057 -0.172,0.115 -0.257,0.172 -0.069,0.047 -0.137,0.092 -0.206,0.139 1.431,1.247 4.222,2.753 7.632,2.425 -2.333,0.376 -5.315,-0.103 -7.983,-2.188 -0.207,0.139 -0.414,0.278 -0.616,0.417 0.805,0.782 2.16,1.606 4.435,2.499 -1.546,-0.235 -3.246,-1.159 -4.639,-2.356 -0.072,0.05 -0.143,0.1 -0.214,0.149 1.05,1.159 2.814,2.354 4.466,3.231 -2.19,-0.912 -3.677,-2.012 -4.706,-3.063 -0.093,0.065 -0.19,0.131 -0.281,0.196 -0.055,0.04 -0.097,0.079 -0.149,0.119 1.34,1.603 3.316,2.851 5.068,3.839 -2.738,-1.156 -4.394,-2.508 -5.387,-3.585 -0.086,0.071 -0.188,0.144 -0.266,0.212 0.042,0.039 0.074,0.074 0.12,0.113 0.281,0.245 0.607,0.492 0.944,0.729 0.682,0.472 1.397,0.949 2.134,1.398 1.503,0.91 3.042,1.788 4.598,2.665 0.86,0.017 2.007,0.017 2.697,-0.072 1.211,-0.157 1.328,-0.039 2.07,-0.352 0.742,-0.313 1.759,-0.742 2.656,-1.172 0.898,-0.431 1.798,-0.703 2.305,-1.328 0.509,-0.625 1.251,-0.742 2.071,-1.445 0.82,-0.703 1.367,-1.289 2.305,-2.618 0.938,-1.328 2.422,-2.852 2.422,-3.477 0,-0.625 0.313,-0.664 0.82,-1.406 0.508,-0.742 1.329,-1.212 1.251,-2.735 -0.047,-0.906 -0.217,-2.403 -0.348,-3.471 -0.017,0.019 -0.029,0.036 -0.05,0.05 z m -17.589,10.981 c -0.622,0.208 -2.47,0.079 -2.985,-0.538 -0.415,-0.498 1.12,-0.042 1.948,-0.042 0.83,0 1.286,0.415 1.907,0 0.622,-0.415 2.446,-0.456 2.902,-0.954 0.456,-0.497 2.073,-0.663 4.727,-0.289 0,0 -2.695,0.082 -3.192,0.207 -0.497,0.124 -1.907,0.622 -2.238,0.704 -0.332,0.083 -2.447,0.705 -3.069,0.912 z m 14.546,-2.409 c -0.444,0.334 -1.669,0.037 -1.817,0.297 -0.149,0.26 -0.111,0.928 -0.111,0.928 0,0 -0.891,-0.779 -1.15,-0.594 -0.167,0.119 -0.487,0.178 -0.872,0.282 0.944,0.292 2.157,1.927 1.51,2.476 0.06,-1.399 -1.4,-2.126 -1.932,-2.344 -0.088,0.031 -0.176,0.065 -0.264,0.105 -0.4,0.178 -0.903,0.289 -1.277,0.421 1.386,0.223 3.028,1.501 2.496,2.965 -0.195,-1.831 -1.929,-2.782 -3.223,-2.416 l 0.038,-0.07 c -0.182,0.099 -0.457,0.173 -0.731,0.247 1.125,0.044 3.06,0.385 2.891,3.069 -0.095,-2.723 -2.254,-2.872 -3.698,-2.634 -0.038,0.075 -0.061,0.146 -0.088,0.216 0.907,0.17 3.396,0.887 2.248,3.565 0.457,-2.218 -1.504,-2.979 -3.118,-3.007 -0.064,0.023 -0.123,0.045 -0.178,0.063 1.229,0.871 2.103,2.391 1.173,3.797 0.227,-0.96 -0.312,-2.615 -1.295,-3.482 0.288,1.075 -0.5,3.071 -2.245,3.142 1.722,-0.414 2.177,-2.711 1.769,-3.478 -0.097,-0.051 -0.196,-0.095 -0.299,-0.13 -0.043,0.019 -0.089,0.039 -0.14,0.068 -0.444,0.26 -1.038,0.187 -1.558,0.631 -0.52,0.445 -1.113,0.111 -1.113,0.111 0,0 0.779,-0.668 1.188,-0.816 0.409,-0.148 1.149,-0.742 1.558,-0.668 0.409,0.074 0.966,0.371 1.373,0 0.408,-0.37 1.113,-0.778 1.559,-1.112 0.446,-0.334 1.818,-0.557 2.188,-0.854 0.371,-0.297 1.114,-0.371 1.707,-0.371 0.594,0 0.816,-0.371 0.928,-0.816 0.112,-0.445 1.372,0.372 2.151,0.037 0.779,-0.334 1.707,-0.964 1.707,-0.964 -0.299,0.594 -0.929,1.002 -1.375,1.336 z m -1.261,-1.67 c -1.929,0.335 -2.671,0.186 -2.856,0 -0.185,-0.186 -0.593,-0.037 -0.593,-0.037 -0.335,-1.817 5.156,-0.037 5.824,-2.634 0.111,2.003 -4.007,1.633 -5.046,2.338 1.41,0.37 4.786,0.408 5.603,-1.744 0.593,0.927 -1.003,1.743 -2.932,2.077 z m -56.501,-13.136 c -0.279,-0.11 -0.682,-0.077 -1.302,0.168 1.205,-1.162 3.613,-3.227 3.872,-4.388 0.258,-1.162 -1.764,-0.818 -1.764,-0.818 0,0 1.032,-0.516 1.678,-1.075 0.646,-0.559 1.247,-2.539 0.774,-5.249 -0.474,-2.71 -0.259,-3.786 -0.043,-6.195 0.215,-2.409 -2.022,-2.237 -1.291,-2.71 0.731,-0.473 2.753,1.032 2.28,2.409 -0.474,1.377 -0.172,2.625 -0.129,3.872 0.043,1.247 0.774,1.291 1.635,-0.56 0.861,-1.851 1.032,-5.249 1.161,-7.271 0.129,-2.022 -2.237,-2.625 -3.398,-2.625 2.28,-0.774 3.313,0 3.699,0.56 0.388,0.559 0.517,4.862 -0.344,7.959 -0.861,3.097 -1.592,7.271 -1.894,8.604 -0.218,0.967 -0.382,1.634 0.081,1.865 0.572,-0.441 1.147,-0.875 1.729,-1.308 1.117,-0.825 2.263,-1.616 3.449,-2.364 -0.219,-0.066 -0.474,-0.088 -0.74,-0.044 -1.033,0.172 -1.033,-1.033 0,-1.506 1.032,-0.473 1.247,-1.119 2.193,-2.366 0.947,-1.248 1.205,-1.635 2.366,-2.625 1.162,-0.989 1.592,-1.033 1.162,-2.539 -0.43,-1.506 -0.646,-2.581 0.946,-3.657 1.592,-1.076 2.323,-1.635 2.624,-4.13 0.297,-2.456 2.759,-4.283 4.395,-4.175 -0.487,-0.355 -0.76,-0.7949997 -1.078,-1.2119997 -0.546,-0.717001 -0.955,-0.546001 -1.502,-0.341001 -0.546,0.205 -1.536,0.136 -2.185,0.614001 -0.649,0.4779997 -3.755,1.9459997 -2.15,5.1889997 -1.229,0.341 -2.901,1.365 -3.789,1.468 -0.888,0.103 -2.458,-1.126 -3.448,-0.478 -0.99,0.648 -1.365,1.058 -1.365,1.058 0.956,-1.195 1.878,-1.57 1.399,-2.355 -0.478,-0.785 -2.458,-2.868 -3.346,-3.106 -0.888,-0.238 -1.092,-0.034 -1.536,-0.683 -1.399,0.034 -2.696,-0.82 -3.141,-1.2289997 -0.58,0.205 -1.161,-0.034 -2.116,0.9559997 0.888,-1.2290007 0.922,-2.5260007 0.068,-2.4920007 0.171,-0.444 0.683,-0.239 0.888,-0.717 -0.068,0.648 0.272,1.638 0.854,1.126 0.58,-0.512 1.297,-1.911 2.15,-2.252 -0.58,0.683 -1.843,1.979 -1.263,2.833 0.58,0.854001 1.706,1.2970007 2.355,1.2290007 -1.118,-1.0850007 -0.082,-2.9590007 1.064,-3.6140007 0.064,-0.765 -0.268,-1.281 -1.577,-0.79 0.683,-0.921 1.946,-1.399 2.253,-1.741 -0.067,0.921 0.035,1.639 2.355,0.921 -0.647,0.511 -1.702,0.411 -3.03,1.7 -0.57,0.765 -1.28,2.334 -0.52,3.7280007 0.478,0.716 1.024,0.478 1.468,0.136 0.444,-0.342 2.116,-1.6720007 1.707,-3.3110007 0.546,0.444 0.409,0.956 2.253,0.683 -1.775,0.444 -3.277,1.775001 -2.867,2.9010007 0.409,1.126 2.389,3.55 3.208,4.335 0.819,0.785 3.619,0.171 4.131,-0.136 0.512,-0.308 0.683,-0.888 0.683,-0.888 0,0 -0.205,-1.912 0.376,-2.833 0.58,-0.921 1.706,-1.8439997 2.696,-2.0830007 -0.239,-0.819 -0.034,-1.912 0.614,-2.663 0.649,-0.751 1.503,-1.946 1.536,-2.355 0.034,-0.41 -0.136,-1.161 -1.229,-1.195 2.22,-0.035 2.731,-1.502 4.916,-1.468 -1.843,0.478 -3.584,1.672 -3.038,2.355 0.888,-0.239 1.093,-0.205 1.093,-0.205 0,0 -1.365,0.648 -2.151,1.843 -0.784,1.195 -0.921,2.526 -0.989,3.38 0.239,0.41 1.468,0 1.809,-0.273 0.342,-0.273 0.751,-1.604 1.775,-1.946 1.024,-0.341 3.14,-3.072 7.919,-2.867 0,0 -0.068,-1.297 -0.103,-1.57 -0.035,-0.273 -0.819,-1.058 -1.911,-0.99 0.955,-0.81899997 2.149,-0.58099997 3.037,0.307 0.888,0.887 1.673,0.171 2.561,1.639 -0.922,-0.717 -2.662,-0.751 -2.97,-0.308 -0.308,0.444 0.308,1.297 1.4,1.332 -2.322,-0.034 -5.189,-0.034 -8.056,1.672 -2.868,1.707 -1.639,4.2330007 0.272,5.2910007 -0.653,-0.125 -1.106,-0.33 -1.453,-0.576 -4.247,1.381 -4.079,3.948 -4.122,5.875 -0.043,1.937 -2.667,2.625 -3.012,3.27 -0.344,0.646 0.172,3.141 0.172,4.044 0,0.903 -1.592,1.592 -2.108,2.237 -0.516,0.646 -3.184,3.829 -3.313,4.13 -0.078,0.182 -0.183,0.662 -0.029,1.099 1.414,-0.839 2.767,-1.677 4.572,-2.262 0.484,-0.119 0.966,-0.295 1.825,-0.167 0.093,0.01 0.245,0.062 0.362,0.102 0.131,0.045 0.261,0.104 0.275,0.113 l 0.273,0.132 0.538,0.264 c 0.647,0.316 1.312,0.639 1.837,0.814 l 0.052,-0.064 0.394,-0.457 c 0.486,-0.563 0.882,-1.097 1.144,-1.634 0.265,-0.532 0.395,-1.035 0.363,-1.527 -0.046,-0.665 -0.168,-1.445 -0.287,-2.228 -0.258,-1.595 -0.402,-3.372 -0.272,-5.037 0.061,-0.828 0.151,-1.672 0.293,-2.501 0.153,-0.871 0.375,-1.737 0.757,-2.6 0.066,-0.151 0.145,-0.3 0.222,-0.449 0.013,-0.425 0.073,-0.803 0.244,-1.065 0.069,0.123 0.139,0.213 0.211,0.289 0.266,-0.397 0.559,-0.765 0.854,-1.079 0.287,-0.312 0.556,-0.583 0.765,-0.831 0.105,-0.125 0.198,-0.244 0.28,-0.364 l 0.113,-0.181 0.184,-0.307 c 0.347,-0.5239997 0.659,-0.8179997 1.011,-1.1350007 0.329,-0.29 0.666,-0.542 1.007,-0.776 -0.598,-0.631 -2.414,-1.467 -2.791,-1.296 1.049,-0.381 2.897,0.342 3.249,0.733 0.068,0.076 0.131,0.122 0.193,0.155 0.523,-0.319 1.053,-0.616 1.602,-0.867 0.759,-0.35 1.534,-0.656 2.35,-0.898 0.405,-0.119 0.838,-0.224 1.274,-0.288 0.137,-0.017 0.265,-0.039 0.388,-0.062 l 0.273,-0.191 c 0.116,-0.084 0.249,-0.172 0.348,-0.244 -0.04,-0.306 -0.143,-0.684 -0.234,-1.057 l -0.143,-0.572 c -0.042,-0.151 -0.1,-0.313 -0.171,-0.474 -0.147,-0.318 -0.337,-0.636 -0.557,-0.949 -0.241,-0.343 -0.507,-0.688 -0.771,-1.039 -0.21,-0.2 -0.419,-0.40099997 -0.62,-0.61299997 -0.178,-0.194 -0.361,-0.387 -0.521,-0.602 -0.86,-0.079 -1.453,-0.115 -1.543,-0.115 -0.325,0 -2.017,-0.195 -2.862,0.325 -0.845,0.52 -1.691,0.585 -2.276,0.065 -0.586,-0.521 -2.212,0.065 -2.667,0.26 -0.456,0.195 -1.302,-0.065 -1.691,-0.065 -0.391,0 -2.017,-0.455 -2.732,-0.39 -0.715,0.065 -1.756,-0.13 -2.211,0.325 -0.456,0.45599997 -2.277,0.78099997 -3.122,0.58599997 -0.847,-0.19499997 -3.318,0.78 -3.773,2.341 0,0 -3.708,-0.195 -4.293,0.13 -0.586,0.325 -2.732,0.585 -3.383,1.171 -0.65,0.585 -3.772,1.366 -4.618,2.082 -0.846,0.715 -1.106,0.39 -1.561,0.39 -0.456,0 -2.082,0.585 -2.732,1.171 -0.65,0.585 -2.7970001,1.561001 -3.2520001,1.8210007 -0.456,0.26 -1.562,1.106 -1.626,1.561 -0.064,0.455 -0.585,1.431 -1.431,2.082 -0.845,0.651 -1.041,2.602 -1.041,2.602 0,0 -1.562,0.39 -1.821,0.911 -0.26,0.52 -2.602,2.082 -2.212,3.837 -0.45499996,1.041 -1.75599996,2.277 -1.30099996,3.318 0.456,1.041 0.325,1.171 0.13,1.561 -0.195,0.39 0.456,0.976 0.261,2.277 -0.195,1.301 -0.456,2.862 0.195,3.447 0.64999996,0.585 0.195,0.911 0.13,1.301 -0.065,0.391 0.13,1.301 0.45499996,1.887 0.325,0.586 0.65,1.756 0.716,2.081 0.065,0.326 1.236,1.236 2.276,2.276 1.041,1.041 2.992,3.969 5.464,4.944 1.9510001,2.342 3.5770001,2.211 4.3580001,2.276 0.539,0.045 3,0.121 4.473,0.164 0.441,-1.932 1.061,-3.834 1.919,-5.681 0.041,-0.073 0.09,-0.152 0.131,-0.233 z m 11.605,-20.225 c 0,1.119 0.301,1.807 2.064,1.936 -1.592,-0.086 -2.107,-0.129 -1.247,1.248 -1.204,-0.989 -1.678,-1.85 -1.678,-3.012 0,-1.161 -0.129,-1.291 -1.592,-2.624 0.775,0.387 2.453,1.334 2.453,2.452 z m 8.482,7.773 c -0.469,0.762 -0.879,0.176 -0.703,-0.527 0.176,-0.703 0.645,-0.645 0.293,-1.231 -0.352,-0.586 -0.879,-1.23 -1.582,-1.406 -0.703,-0.176 -1.113,0.117 -1.113,-0.996 0.996,0.41 2.109,1.699 2.227,0.352 0.118,-1.347 0.117,-1.406 0.703,-1.875 0.409,-0.328 -0.527,2.637 -0.176,3.223 0.351,0.586 0.586,0.997 0.586,1.172 0,0.175 1.406,-1.055 1.406,-1.055 -0.762,1.054 -1.172,1.581 -1.641,2.343 z m -5.566,-26.5750007 c 0.542,-0.031 1.012,-0.267 2.075,-0.817 -0.816,1.205 -0.301,1.377 0.603,1.592 -0.603,0 -1.979,0.603 -1.979,0.603 0,0 0.345,-0.258 0.259,-0.86 -0.06,-0.407 -0.608,-0.5 -0.958,-0.518 -0.094,0.006 -0.189,0.007 -0.291,0 0,10e-4 0.123,-0.008 0.291,0 z m -0.034,4.863 c 1.075,-1.377 2.797,-1.592 3.872,-3.012 -0.387,1.248 -1.85,2.022 -2.581,2.667 -0.731,0.645 -1.033,0.989 -1.291,2.237 -0.258,1.248001 -2.366,3.5710007 -3.355,4.0010007 1.161,-1.807 3.527,-4.4310007 0.258,-3.8290007 1.85,-0.817 2.022,-0.687 3.097,-2.064 z m -4.406,-1.787 c 1.058,0 1.877,1.639 1.877,1.639 -1.263,-1.229 -2.935,-1.639 -1.877,-1.639 z m -4.456,12.2840007 c -3.485,0.301 -5.292,0.516 -6.884,2.667 -1.592,2.151 -1.204,3.313 -0.989,4.259 0.215,0.947 0.688,1.42 0.646,2.108 -0.043,0.688 -0.774,-0.129 -0.774,-0.129 0,0 -0.129,-1.248 -0.774,-0.817 -0.645,0.431 -0.345,-0.215 -0.172,-0.774 0.172,-0.559 -0.13,-2.151 -1.42,-2.151 -1.291,0 -2.796,0.215 -2.796,0.215 0,0 1.979,-0.989 1.807,-2.538 -0.172,-1.549 -1.549,-2.065 -2.151,-1.936 -0.603,0.129 -1.635,0.086 -1.635,0.086 0,0 0.903,-1.118 0.903,-2.108 0,-0.99 -0.817,-1.635 -0.817,-1.635 0,0 1.119,0.387 1.936,-0.603 0.817,-0.989 1.591,-1.505 2.452,-1.549 0.86,-0.043 1.462,-0.042 2.194,-0.602 -0.646,0.947 -2.28,1.334 -2.882,1.721 -0.602,0.387 -1.807,0.99 -1.936,1.85 -0.129,0.86 -0.172,1.764 0.473,2.108 0.646,0.344 2.065,1.549 2.151,3.055 0.086,1.506 1.677,1.979 1.936,1.506 0.258,-0.474 0.903,-2.28 2.107,-3.356 1.204,-1.076 2.839,-1.807 6.625,-1.377 z m -5.249,-3.012 c -0.258,-0.947 -0.387,-2.969 0.646,-4.001 -0.474,1.076 -0.431,1.333 -0.474,2.581 -0.043,1.248 0.517,1.419 0.774,1.291 -0.645,0.646 -1.075,0.688 -1.204,1.162 -0.817,-0.731 -1.592,-1.119 -2.194,-0.388 -0.603,0.731 -1.85,2.152 -1.635,3.012 0.215,0.86 0.129,1.678 0.129,1.678 0,0 -0.387,-1.979 -0.645,-2.925 -0.258,-0.946 -1.162,-1.162 -1.506,-1.807 1.033,1.162 1.807,1.635 2.41,0.861 0.602,-0.774 0.774,-1.764 1.505,-1.979 0.731,-0.216 2.453,1.462 2.194,0.515 z m -6.647,-4.7990007 c 0.717,-1.058 1.775,-1.195 2.014,-1.604 0,0 3.824,-1.912 5.735,-2.082 -3.106,1.365 -5.632,3.311 -6.383,3.892001 -0.751,0.5799997 -2.799,1.7409997 -3.55,2.2529997 -0.751,0.512 -1.673,0.341 -1.673,0.341 0,0 0.512,-0.41 1.195,-1.126 0.682,-0.719 1.945,-0.616 2.662,-1.6740007 z M 8.7530979,12.282817 c 0.288,-0.376 1.5840001,-1.536 2.7110001,-1.912 0,0 -2.2130001,1.263 -2.7110001,2.833 -0.435,0.477 -0.287,-0.546 0,-0.921 z m -0.69,1.353 c 0.686,-0.105 1.318,1.74 1.318,2.232 0,0.493 1.3180001,1.301 1.4770001,1.723 -1.7400001,-1.161 -2.1100001,-0.316 -2.1050001,-1.002 0.005,-0.686 -0.374,-1.108 -1.623,-1.477 -1.249,-0.369 0.247,-1.371 0.933,-1.476 z m 2.1630001,5.014 c -0.8030001,0.446 -2.6570001,2.061 -2.5200001,4.224 -0.413,-1.546 -0.318,-4.052 2.5200001,-4.224 z m -5.0100001,-1.271 c 1.047,-0.756 1.803,-0.996 2.49,-1.511 -0.069,0.515 -1.202,1.167 -1.958,1.786 -0.755,0.618 -2.335,1.82 -3.022,3.503 -0.103,-1.545 1.443,-3.022 2.49,-3.778 z m -2.817,4.945 c 0.189,0.619 1.186,0.79 1.46,0.756 0.275,-0.034 0.481,1.271 0.241,2.061 -0.103,-1.133 -0.358,-1.717 -0.797,-1.717 -0.439,0 -1.025,-0.447 -0.904,-1.1 z m -1.115,5.885 c 0,0.847 -0.72099996,2.632 0.893,4.521 -1.23699996,-0.275 -1.85499996,-2.071 -0.893,-4.521 z m 0.48,0.331 c 0.104,0.687 1.649,1.683 2.816,1.202 -0.24,-0.962 -0.023,-2.129 1.122,-2.919 1.145,-0.79 0.939,-2.026 0.767,-3.125 -0.172,-1.099 -1.612,-2.192 -1.992,-2.266 -0.439,-0.086 -0.55,-0.035 -0.687,0.446 -0.137,0.48 -0.377,0.343 -0.377,0.343 0,0 0.171,-1.751 1.064,-2.782 0.309,0.755 2.129,3.538 3.229,4.327 -0.516,-0.034 -0.567,0.859 -0.576,1.442 -0.008,0.584 0.541,0.824 1.09,0.618 0.55,-0.206 1.305,-0.137 1.408,0.481 0.103,0.618 -0.5,1.236 -1.074,0.79 -0.574,-0.447 -1.456,-0.859 -2.028,-0.241 -0.573,0.618 -2.02,1.648 -1.313,3.365 0.707,1.717 2.717,1.734 2.313,4.813 0.111,0.82 1.062,1.609 2.115,2.604 -1.523,-0.961 -2.347,-1.922 -3.309,-1.716 0,-0.378 0.772,-0.245 0.996,-1.188 0.224,-0.943 -1.306,-3.242 -3.263,-4.032 -0.802,0.802 -0.835,2.259 0.128,3.396 0.205,0.206 0.434,0.418 0.696,0.636 -0.274,-0.193 -0.503,-0.409 -0.696,-0.636 -1.512,-1.523 -1.539,-2.7 -1.296,-3.396 0.275,-0.788 -1.133,-0.616 -1.133,-2.162 z m 6.32,13.325 c -0.344,-0.206 -0.034,-1.203 0.275,-1.82 0.309,-0.618 -0.378,-0.756 -0.928,-0.962 -0.549,-0.206 -0.893,0.653 -2.232,0 1.133,0.068 1.717,-1.339 0.343,-2.232 -0.481,-0.275 -3.812,0.681 -3.022,-2.115 0.412,1.669 0.893,1.325 1.923,1.428 1.03,0.103 1.889,0.241 2.335,1.271 0.447,1.03 0.48,0.79 1.064,1.305 0.584,0.516 1.134,0.996 1.752,0.824 0.6180001,-0.171 1.9580001,0.206 2.2670001,1.168 -1.133,-0.757 -3.0220001,-1.855 -3.7770001,1.133 z m 4.9450001,-8.963 c -0.961,-0.584 -1.958,0.755 -2.301,2.301 -0.343,1.546 1.339,3.09 2.645,4.086 -4.2590001,-1.58 -3.7440001,-4.979 -2.576,-6.301 1.167,-1.323 0.412,-1.288 -1.1680001,-1.563 -1.58,-0.274 -2.851,-1.271 -2.885,-2.095 0.824,0.721 1.408,1.03 2.61,1.477 1.2020001,0.446 1.8550001,-0.172 1.4770001,-0.859 -0.377,-0.687 -0.309,-3.263 1.03,-3.263 -1.511,2.37 -0.309,4.156 0.893,4.842 1.202,0.688 1.236,1.959 0.275,1.375 z m -0.069,-7.178 c -0.447,-0.79 -2.438,-2.61 -3.1940001,-2.61 -0.756,0 -1.545,-0.31 -1.064,-1.133 0.481,-0.824 1.064,0.274 1.5240001,0.652 0,0 1.12,0.755 2.219,1.58 1.099,0.825 1.683,2.438 1.923,3.331 0.241,0.893 1.545,1.889 2.644,2.439 1.1,0.549 3.915,1.442 4.465,3.004 -0.858,-0.945 -3.949,-3.004 -4.361,-2.318 -0.412,0.686 1.271,2.61 3.571,4.066 -3.983,-1.704 -4.293,-2.933 -4.224,-3.723 0.069,-0.79 -0.618,-1.133 -1.751,-2.129 -1.133,-0.996 -1.306,-2.369 -1.752,-3.159 z m 3.204,14.495 c 0,0 1.048,2.149 2.832,2.884 -2.517,0.261 -6.292,-2.57 -2.832,-2.884 z m 45.58,4.204 c 0.177,0.354 0.438,0.779 0.698,1.146 l 0.633,-0.103 c 0.474,-0.083 0.992,-0.188 1.254,-0.286 1.266,-0.463 2.283,-0.56 3.286,-0.746 0.012,-0.002 0.022,-0.004 0.034,-0.006 -0.186,-0.252 -0.612,-0.807 -0.811,-0.906 -0.258,-0.129 -1.033,-0.774 -1.291,-0.903 -0.258,-0.129 -1.247,-0.258 -1.462,-0.603 -0.216,-0.344 -0.947,-0.301 -1.076,-0.646 -0.129,-0.344 -0.431,0 -0.817,0.259 -0.387,0.258 -2.28,0.688 -2.711,0.646 -0.43,-0.044 -2.624,0.473 -2.624,0.473 0,0 -0.043,-0.774 -0.043,-1.291 0,-0.517 -0.474,-0.989 -0.946,-1.506 -0.473,-0.516 -0.86,-1.419 -1.076,-1.936 -0.215,-0.516 -1.29,-1.549 -2.021,-2.151 -0.731,-0.602 -1.764,0.388 -2.323,0.817 -0.56,0.429 -0.688,1.807 -0.474,2.796 0.216,0.99 1.506,1.635 1.765,2.021 0.258,0.387 0.773,1.463 1.376,2.065 0.603,0.602 1.979,0.946 2.581,1.635 0.394,0.449 1.019,1.007 1.326,1.473 0.476,-0.14 0.942,-0.254 1.409,-0.372 1.065,-0.236 2.11,-0.414 3.136,-0.589 l 0.237,-0.038 c -0.158,-0.232 -0.311,-0.48 -0.468,-0.732 -0.371,-0.594 -1.707,0.074 -1.707,0.074 0.519,-0.815 1.781,-1.259 2.115,-0.591 z m 14.421,-31.712 c 0.036,-0.282 0.057,-0.572 0.057,-0.869 -0.286,-0.287 -0.542,-0.542 -0.713,-0.713 0.166,0.362 0.327,0.727 0.483,1.095 0.067,0.155 0.115,0.324 0.173,0.487 z m -33.426,39.02 c 0.026,-0.013 0.059,-0.022 0.084,-0.035 0.088,-0.045 0.168,-0.094 0.244,-0.146 -0.109,0.051 -0.219,0.113 -0.328,0.181 z m 10.023,7.129 c 0.166,-0.236 0.321,-0.4 0.473,-0.558 0.174,-0.176 0.343,-0.329 0.511,-0.474 0.023,-0.051 0.045,-0.067 0.063,-0.054 0.077,-0.066 0.154,-0.134 0.231,-0.197 -0.324,0.023 -0.662,0.004 -1.001,-0.039 -0.156,0.425 -0.238,0.965 -0.277,1.322 z m 28.772,-13.265 c -0.468,-0.242 -1.007,-0.53 -1.554,-0.766 -0.106,-0.03 -0.212,-0.07 -0.318,-0.09 -0.428,-0.084 -0.84,-0.093 -1.235,-0.012 -0.054,0.01 -0.115,0.015 -0.17,0.024 0.184,0.029 0.361,0.096 0.628,0.263 0.594,0.371 0.854,-0.111 1.373,0.074 0.414,0.147 0.987,0.482 1.224,0.744 0.148,0.032 0.396,0.078 0.695,0.12 -0.198,-0.133 -0.396,-0.264 -0.597,-0.387 -0.016,0.01 -0.03,0.024 -0.046,0.03 z m -6.551,-3.551 c 0,0 -0.142,0.272 -0.406,0.608 0.305,0.036 0.6,0.075 0.882,0.117 -0.069,-0.527 -0.476,-0.725 -0.476,-0.725 z"
     id="path2"
     style="fill:#ffffff;fill-opacity:1;fill-rule:nonzero;stroke:none"
     inkscape:connector-curvature="0" /></svg>