<?xml version="1.0" encoding="UTF-8" standalone="no"?>
<svg
   xmlns:dc="http://purl.org/dc/elements/1.1/"
   xmlns:cc="http://creativecommons.org/ns#"
   xmlns:rdf="http://www.w3.org/1999/02/22-rdf-syntax-ns#"
   xmlns:svg="http://www.w3.org/2000/svg"
   xmlns="http://www.w3.org/2000/svg"
   xmlns:sodipodi="http://sodipodi.sourceforge.net/DTD/sodipodi-0.dtd"
   xmlns:inkscape="http://www.inkscape.org/namespaces/inkscape"
   version="1.1"
   x="0px"
   y="0px"
   viewBox="0 0 100 100"
   enable-background="new 0 0 100 100"
   xml:space="preserve"
   id="svg6"
   sodipodi:docname="deplie.svg"
   inkscape:version="0.92.3 (2405546, 2018-03-11)"><metadata
     id="metadata12"><rdf:RDF><cc:Work
         rdf:about=""><dc:format>image/svg+xml</dc:format><dc:type
           rdf:resource="http://purl.org/dc/dcmitype/StillImage" /><dc:title /></cc:Work></rdf:RDF></metadata><defs
     id="defs10" /><sodipodi:namedview
     pagecolor="#ffffff"
     bordercolor="#666666"
     borderopacity="1"
     objecttolerance="10"
     gridtolerance="10"
     guidetolerance="10"
     inkscape:pageopacity="0"
     inkscape:pageshadow="2"
     inkscape:window-width="1600"
     inkscape:window-height="836"
     id="namedview8"
     showgrid="false"
     inkscape:zoom="2.36"
     inkscape:cx="29.872881"
     inkscape:cy="50"
     inkscape:window-x="0"
     inkscape:window-y="27"
     inkscape:window-maximized="1"
     inkscape:current-layer="svg6" /><rect
     x="5"
     y="5.03"
     fill="none"
     width="90"
     height="90"
     id="rect2" /><path
     d="m 5.0135,26.8545 v 46.351 c 0,12.027 9.783,21.811 21.811,21.811 h 46.352 c 12.027,0 21.811,-9.783 21.811,-21.811 v -46.351 c 0,-12.026 -9.784,-21.811 -21.811,-21.811 h -46.352 c -12.027,0 -21.811,9.784 -21.811,21.811 z m 47.718,14.842 c -0.982,0 -1.902,-0.386 -2.591,-1.088 -1.397,-1.428 -1.374,-3.727 0.055,-5.124 l 11.8,-11.56 c 0.011,-0.011 0.022,-0.021 0.034,-0.032 l 0.027,-0.026 c 0.018,-0.017 0.037,-0.034 0.055,-0.051 0.021,-0.019 0.042,-0.037 0.07,-0.061 l 0.011,-0.009 c 0.018,-0.015 0.035,-0.03 0.052,-0.044 0.024,-0.02 0.048,-0.038 0.072,-0.057 0,0 0.012,-0.009 0.012,-0.009 0.018,-0.014 0.036,-0.028 0.054,-0.041 0.029,-0.021 0.058,-0.042 0.086,-0.062 0.02,-0.014 0.039,-0.027 0.058,-0.039 0.03,-0.02 0.06,-0.039 0.09,-0.058 l 0.06,-0.037 c 0.03,-0.018 0.06,-0.035 0.089,-0.051 0.022,-0.013 0.043,-0.024 0.066,-0.037 0.029,-0.015 0.058,-0.03 0.087,-0.044 0.024,-0.012 0.048,-0.024 0.074,-0.036 0.026,-0.012 0.053,-0.024 0.08,-0.036 0.028,-0.012 0.056,-0.024 0.084,-0.036 0.022,-0.009 0.044,-0.018 0.073,-0.029 0.031,-0.012 0.062,-0.023 0.095,-0.036 l 0.064,-0.021 c 0.035,-0.011 0.07,-0.023 0.106,-0.034 l 0.057,-0.016 c 0.038,-0.011 0.075,-0.021 0.113,-0.03 l 0.055,-0.013 c 0.038,-0.009 0.077,-0.017 0.116,-0.025 l 0.057,-0.01 c 0.038,-0.007 0.076,-0.014 0.116,-0.02 l 0.078,-0.01 c 0.031,-0.004 0.063,-0.008 0.094,-0.011 0.022,-0.002 0.044,-0.003 0.066,-0.005 l 0.041,-0.003 c 0.023,-0.002 0.046,-0.003 0.068,-0.004 0.048,-0.002 0.096,-0.003 0.15,-0.004 h 0.027 0.033 c 0.048,0 0.096,0.001 0.143,0.004 0.023,10e-4 0.046,0.002 0.069,0.004 l 0.041,0.003 c 0.022,0.001 0.044,0.003 0.065,0.005 0.032,0.003 0.063,0.007 0.095,0.011 l 0.079,0.01 c 0.039,0.006 0.077,0.012 0.124,0.021 l 0.048,0.009 c 0.039,0.008 0.077,0.016 0.116,0.025 l 0.055,0.013 c 0.038,0.009 0.075,0.019 0.112,0.029 l 0.059,0.017 c 0.035,0.01 0.07,0.022 0.109,0.035 l 0.061,0.021 c 0.031,0.012 0.063,0.023 0.094,0.035 0.025,0.01 0.049,0.019 0.073,0.029 0.028,0.011 0.056,0.023 0.083,0.036 0.027,0.012 0.054,0.024 0.082,0.037 0.024,0.011 0.048,0.023 0.072,0.035 0.029,0.014 0.058,0.029 0.088,0.045 0.022,0.012 0.043,0.023 0.064,0.035 0.03,0.017 0.061,0.034 0.091,0.053 l 0.059,0.036 c 0.03,0.019 0.061,0.038 0.089,0.057 0.02,0.013 0.039,0.026 0.058,0.04 0.029,0.02 0.058,0.04 0.086,0.061 0.019,0.014 0.037,0.027 0.055,0.042 0,0 0.012,0.009 0.012,0.009 0.024,0.019 0.048,0.037 0.071,0.056 0.018,0.015 0.036,0.029 0.053,0.044 l 0.017,0.015 c 0.021,0.018 0.043,0.037 0.063,0.055 0.019,0.017 0.037,0.034 0.055,0.051 l 0.027,0.026 c 0.012,0.01 0.023,0.021 0.034,0.031 l 11.801,11.56 c 1.427,1.397 1.451,3.696 0.053,5.124 -0.687,0.702 -1.606,1.088 -2.589,1.088 -0.954,0 -1.854,-0.367 -2.536,-1.035 l -5.642,-5.525 v 14.728 l 0.121,23.664 c 0.01,1.998 -1.607,3.633 -3.606,3.643 h -0.018 c -1.988,0 -3.613,-1.617 -3.624,-3.605 l -0.121,-23.674 v -14.755 l -5.642,5.525 c -0.68,0.668 -1.58,1.036 -2.533,1.036 z m -32.686,19.978 c 0,-0.967 0.377,-1.877 1.061,-2.563 0.684,-0.684 1.594,-1.061 2.563,-1.061 0.969,0 1.877,0.377 2.563,1.061 l 5.615,5.615 v -38.214 c 0,-1.998 1.625,-3.624 3.623,-3.624 1.998,0 3.623,1.625 3.623,3.624 v 38.278 l 5.629,-5.57 c 0.684,-0.676 1.588,-1.049 2.549,-1.049 0.975,0 1.89,0.381 2.575,1.074 0.684,0.688 1.054,1.6 1.05,2.568 -0.006,0.967 -0.386,1.875 -1.076,2.557 l -11.802,11.682 c -0.012,0.01 -0.021,0.02 -0.033,0.029 l -0.023,0.023 c -0.023,0.021 -0.045,0.041 -0.066,0.063 -0.018,0.016 -0.035,0.031 -0.053,0.047 l -0.031,0.025 c -0.016,0.014 -0.031,0.027 -0.049,0.041 -0.023,0.02 -0.047,0.039 -0.072,0.057 l -0.066,0.051 c -0.029,0.023 -0.061,0.045 -0.09,0.064 l -0.053,0.037 c -0.031,0.021 -0.064,0.041 -0.098,0.063 l -0.051,0.031 c -0.033,0.02 -0.066,0.039 -0.098,0.057 -0.02,0.01 -0.037,0.021 -0.057,0.031 -0.033,0.018 -0.064,0.033 -0.102,0.051 -0.02,0.01 -0.039,0.02 -0.059,0.029 -0.029,0.014 -0.061,0.027 -0.09,0.041 -0.025,0.012 -0.051,0.021 -0.076,0.033 -0.027,0.01 -0.055,0.021 -0.08,0.031 -0.029,0.012 -0.059,0.021 -0.088,0.033 -0.021,0.008 -0.045,0.016 -0.072,0.023 -0.033,0.012 -0.064,0.021 -0.098,0.031 l -0.066,0.02 c -0.035,0.01 -0.07,0.02 -0.104,0.027 l -0.063,0.016 c -0.037,0.008 -0.074,0.016 -0.111,0.023 l -0.072,0.012 c -0.033,0.008 -0.066,0.014 -0.1,0.018 -0.018,0.002 -0.035,0.004 -0.053,0.008 l -0.039,0.004 c -0.027,0.004 -0.055,0.008 -0.084,0.01 -0.023,0.002 -0.049,0.004 -0.074,0.006 l -0.045,0.004 c -0.018,0 -0.037,0.002 -0.057,0.004 -0.059,0.002 -0.117,0.004 -0.178,0.004 -0.059,0 -0.119,-0.002 -0.18,-0.004 -0.02,-0.002 -0.039,-0.004 -0.059,-0.004 l -0.049,-0.004 c -0.023,-0.002 -0.045,-0.004 -0.068,-0.006 -0.029,-0.002 -0.059,-0.006 -0.086,-0.01 l -0.088,-0.012 c -0.035,-0.006 -0.07,-0.012 -0.105,-0.018 -0.002,0 -0.012,-0.002 -0.012,-0.002 l -0.057,-0.01 c -0.039,-0.008 -0.078,-0.018 -0.115,-0.025 l -0.057,-0.014 c -0.039,-0.01 -0.076,-0.02 -0.111,-0.029 l -0.01,-0.002 c -0.018,-0.004 -0.035,-0.01 -0.049,-0.014 -0.035,-0.01 -0.068,-0.021 -0.104,-0.033 l -0.016,-0.006 c -0.018,-0.006 -0.035,-0.012 -0.053,-0.018 -0.029,-0.01 -0.057,-0.021 -0.086,-0.033 l 0.102,-0.26 -0.113,0.256 c -0.023,-0.01 -0.047,-0.018 -0.07,-0.027 -0.023,-0.009 -0.047,-0.02 -0.068,-0.029 l -0.016,-0.008 c -0.027,-0.012 -0.053,-0.023 -0.08,-0.035 -0.018,-0.01 -0.037,-0.02 -0.055,-0.027 l -0.012,-0.006 c -0.031,-0.016 -0.063,-0.031 -0.094,-0.049 -0.016,-0.008 -0.031,-0.018 -0.047,-0.025 l -0.01,-0.006 c -0.033,-0.018 -0.066,-0.037 -0.1,-0.057 -0.016,-0.01 -0.031,-0.02 -0.051,-0.033 -0.033,-0.02 -0.066,-0.041 -0.098,-0.063 l -0.051,-0.035 c -0.031,-0.021 -0.063,-0.043 -0.092,-0.064 -0.016,-0.012 -0.029,-0.021 -0.043,-0.033 l -0.029,-0.023 c -0.023,-0.018 -0.045,-0.035 -0.068,-0.053 -0.02,-0.016 -0.037,-0.033 -0.057,-0.049 l -0.037,-0.031 c -0.012,-0.012 -0.025,-0.023 -0.039,-0.035 -0.045,-0.041 -0.09,-0.082 -0.131,-0.125 l -11.798,-11.802 c -0.683,-0.684 -1.06,-1.594 -1.06,-2.562 z"
     id="path4"
     inkscape:connector-curvature="0"
     style="fill:#125e6b;fill-opacity:1" /></svg>