<?xml version="1.0" encoding="UTF-8" standalone="no"?>
<svg
   xmlns:dc="http://purl.org/dc/elements/1.1/"
   xmlns:cc="http://creativecommons.org/ns#"
   xmlns:rdf="http://www.w3.org/1999/02/22-rdf-syntax-ns#"
   xmlns:svg="http://www.w3.org/2000/svg"
   xmlns="http://www.w3.org/2000/svg"
   xmlns:sodipodi="http://sodipodi.sourceforge.net/DTD/sodipodi-0.dtd"
   xmlns:inkscape="http://www.inkscape.org/namespaces/inkscape"
   version="1.1"
   x="0px"
   y="0px"
   viewBox="0 0 100 100"
   enable-background="new 0 0 100 100"
   xml:space="preserve"
   id="svg8"
   sodipodi:docname="jeunes.svg"
   inkscape:version="0.92.3 (2405546, 2018-03-11)"><metadata
     id="metadata14"><rdf:RDF><cc:Work
         rdf:about=""><dc:format>image/svg+xml</dc:format><dc:type
           rdf:resource="http://purl.org/dc/dcmitype/StillImage" /><dc:title /></cc:Work></rdf:RDF></metadata><defs
     id="defs12" /><sodipodi:namedview
     pagecolor="#ffffff"
     bordercolor="#666666"
     borderopacity="1"
     objecttolerance="10"
     gridtolerance="10"
     guidetolerance="10"
     inkscape:pageopacity="0"
     inkscape:pageshadow="2"
     inkscape:window-width="1600"
     inkscape:window-height="836"
     id="namedview10"
     showgrid="false"
     inkscape:zoom="4.72"
     inkscape:cx="4.8815243"
     inkscape:cy="44.285646"
     inkscape:window-x="0"
     inkscape:window-y="27"
     inkscape:window-maximized="1"
     inkscape:current-layer="svg8" /><path
     d="m 58.491046,38.827891 -18.02858,0.03137 c -2.250393,0.0042 -4.070039,1.833213 -4.067496,4.08615 l 8.48e-4,0.08734 v 0.08903 l 0.06868,38.584824 0.03561,-0.0017 c -0.02205,0.165345 -0.03477,0.333234 -0.03307,0.506211 v 0.178064 c 0.0025,2.251241 1.831518,4.073431 4.084454,4.069192 l 18.026036,-0.03137 c 2.252089,-0.0051 4.070888,-1.833214 4.067496,-4.082759 v -0.178064 c 0,-0.172129 -0.01526,-0.33917 -0.03646,-0.507059 l 0.03477,-0.0017 -0.06953,-38.583975 v -0.08734 -0.08988 c -0.0042,-2.250392 -1.834061,-4.071735 -4.082758,-4.068344"
     id="path2"
     style="fill:none;stroke:#ffb1f2;stroke-width:0.84792489;stroke-opacity:1"
     inkscape:connector-curvature="0" /><path
     d="M 39.349141,30.760734 58.985386,30.566559 C 58.876004,25.125425 56.740081,23.242184 56.740081,23.242184 54.903475,21.510721 53.015147,20.6204 53.015147,20.6204 l -0.0093,-5.355494 c -0.0017,-1.970578 -1.603426,-3.566372 -3.574004,-3.561285 -1.973121,0.0025 -3.56722,1.604274 -3.563828,3.5757 l 0.0093,5.353798 c 0,0 -2.477637,0.8988 -4.309155,2.63535 0,8.48e-4 -2.144402,1.662781 -2.219019,7.492265 z"
     id="path4"
     style="fill:none;stroke:#ffb1f2;stroke-width:0.84792489;stroke-opacity:1"
     inkscape:connector-curvature="0" /><path
     d="m 61.370599,34.003199 c 0.0034,2.054522 -1.657693,3.723238 -3.711368,3.725782 l -16.363255,0.02883 c -2.052826,0.0051 -3.721542,-1.657693 -3.724086,-3.709671 l -0.0017,-0.299318 c -0.0034,-2.054522 1.659389,-3.72239 3.711368,-3.724934 l 16.362407,-0.02968 c 2.053674,-0.0042 3.721542,1.655997 3.724934,3.710519 z"
     id="path6"
     style="fill:none;stroke:#ffb1f2;stroke-width:0.84792489;stroke-opacity:1"
     inkscape:connector-curvature="0" /></svg>