<?xml version="1.0" encoding="UTF-8" standalone="no"?>
<svg
   xmlns:dc="http://purl.org/dc/elements/1.1/"
   xmlns:cc="http://creativecommons.org/ns#"
   xmlns:rdf="http://www.w3.org/1999/02/22-rdf-syntax-ns#"
   xmlns:svg="http://www.w3.org/2000/svg"
   xmlns="http://www.w3.org/2000/svg"
   xmlns:sodipodi="http://sodipodi.sourceforge.net/DTD/sodipodi-0.dtd"
   xmlns:inkscape="http://www.inkscape.org/namespaces/inkscape"
   version="1.1"
   x="0px"
   y="0px"
   viewBox="0 0 512 512"
   style="enable-background:new 0 0 512 512;"
   xml:space="preserve"
   id="svg66"
   sodipodi:docname="paralertes.svg"
   inkscape:version="0.92.3 (2405546, 2018-03-11)"><metadata
     id="metadata72"><rdf:RDF><cc:Work
         rdf:about=""><dc:format>image/svg+xml</dc:format><dc:type
           rdf:resource="http://purl.org/dc/dcmitype/StillImage" /><dc:title></dc:title></cc:Work></rdf:RDF></metadata><defs
     id="defs70" /><sodipodi:namedview
     pagecolor="#ffffff"
     bordercolor="#666666"
     borderopacity="1"
     objecttolerance="10"
     gridtolerance="10"
     guidetolerance="10"
     inkscape:pageopacity="0"
     inkscape:pageshadow="2"
     inkscape:window-width="1600"
     inkscape:window-height="836"
     id="namedview68"
     showgrid="false"
     inkscape:zoom="0.4609375"
     inkscape:cx="15.186441"
     inkscape:cy="256"
     inkscape:window-x="0"
     inkscape:window-y="27"
     inkscape:window-maximized="1"
     inkscape:current-layer="svg66" /><g
     id="g64"
     style="fill:#125e6b;fill-opacity:1"><g
       id="g62"
       style="fill:#125e6b;fill-opacity:1"><g
         id="g4"
         style="fill:#125e6b;fill-opacity:1"><path
           d="M 411,486 H 101 c -5.523,0 -10,-4.478 -10,-10 V 36 c 0,-5.523 4.477,-10 10,-10 h 240 c 2.652,0 5.195,1.054 7.071,2.929 14.023,14.023 24.749,25.132 35.122,35.875 10.313,10.681 20.979,21.726 34.878,35.625 1.875,1.875 2.929,4.419 2.929,7.071 V 476 c 0,5.522 -4.478,10 -10,10 z M 111,466 H 401 V 111.637 C 388.39,98.978 378.445,88.679 368.807,78.697 359.229,68.777 349.346,58.543 336.853,46.001 H 111 Z"
           id="path2"
           inkscape:connector-curvature="0"
           style="fill:#125e6b;fill-opacity:1" /></g><g
         id="g8"
         style="fill:#125e6b;fill-opacity:1"><path
           d="m 411,126 h -70 c -5.522,0 -10,-4.477 -10,-10 V 36 c 0,-5.523 4.478,-10 10,-10 5.522,0 10,4.477 10,10 v 70 h 60 c 5.522,0 10,4.477 10,10 0,5.523 -4.478,10 -10,10 z"
           id="path6"
           inkscape:connector-curvature="0"
           style="fill:#125e6b;fill-opacity:1" /></g><g
         id="g12"
         style="fill:#125e6b;fill-opacity:1"><path
           d="m 151.008,186.002 c -3.669,0 -7.2,-2.025 -8.952,-5.53 l -10,-20 c -2.47,-4.94 -0.468,-10.947 4.472,-13.417 4.941,-2.469 10.947,-0.468 13.417,4.472 l 5.527,11.056 31.056,-15.528 c 4.941,-2.469 10.947,-0.468 13.417,4.472 2.47,4.94 0.468,10.947 -4.473,13.417 l -40,20 c -1.436,0.718 -2.962,1.058 -4.464,1.058 z"
           id="path10"
           inkscape:connector-curvature="0"
           style="fill:#125e6b;fill-opacity:1" /></g><g
         id="g16"
         style="fill:#125e6b;fill-opacity:1"><path
           d="m 321,186 h -90 c -5.523,0 -10,-4.477 -10,-10 0,-5.523 4.477,-10 10,-10 h 90 c 5.522,0 10,4.477 10,10 0,5.523 -4.478,10 -10,10 z"
           id="path14"
           inkscape:connector-curvature="0"
           style="fill:#125e6b;fill-opacity:1" /></g><g
         id="g20"
         style="fill:#125e6b;fill-opacity:1"><path
           d="m 361,186 h -10 c -5.522,0 -10,-4.477 -10,-10 0,-5.523 4.478,-10 10,-10 h 10 c 5.522,0 10,4.477 10,10 0,5.523 -4.478,10 -10,10 z"
           id="path18"
           inkscape:connector-curvature="0"
           style="fill:#125e6b;fill-opacity:1" /></g><g
         id="g24"
         style="fill:#125e6b;fill-opacity:1"><path
           d="m 321,256 h -90 c -5.523,0 -10,-4.477 -10,-10 0,-5.523 4.477,-10 10,-10 h 90 c 5.522,0 10,4.477 10,10 0,5.523 -4.478,10 -10,10 z"
           id="path22"
           inkscape:connector-curvature="0"
           style="fill:#125e6b;fill-opacity:1" /></g><g
         id="g28"
         style="fill:#125e6b;fill-opacity:1"><path
           d="m 361,256 h -10 c -5.522,0 -10,-4.477 -10,-10 0,-5.523 4.478,-10 10,-10 h 10 c 5.522,0 10,4.477 10,10 0,5.523 -4.478,10 -10,10 z"
           id="path26"
           inkscape:connector-curvature="0"
           style="fill:#125e6b;fill-opacity:1" /></g><g
         id="g32"
         style="fill:#125e6b;fill-opacity:1"><path
           d="m 151.008,326.002 c -3.669,0 -7.2,-2.025 -8.952,-5.53 l -10,-20 c -2.47,-4.939 -0.468,-10.946 4.472,-13.416 4.941,-2.47 10.947,-0.467 13.417,4.473 l 5.527,11.056 31.056,-15.528 c 4.941,-2.47 10.947,-0.467 13.417,4.473 2.47,4.94 0.468,10.946 -4.473,13.416 l -40,20 c -1.436,0.716 -2.962,1.056 -4.464,1.056 z"
           id="path30"
           inkscape:connector-curvature="0"
           style="fill:#125e6b;fill-opacity:1" /></g><g
         id="g36"
         style="fill:#125e6b;fill-opacity:1"><path
           d="m 321,326 h -90 c -5.523,0 -10,-4.478 -10,-10 0,-5.522 4.477,-10 10,-10 h 90 c 5.522,0 10,4.478 10,10 0,5.522 -4.478,10 -10,10 z"
           id="path34"
           inkscape:connector-curvature="0"
           style="fill:#125e6b;fill-opacity:1" /></g><g
         id="g40"
         style="fill:#125e6b;fill-opacity:1"><path
           d="m 361,326 h -10 c -5.522,0 -10,-4.478 -10,-10 0,-5.522 4.478,-10 10,-10 h 10 c 5.522,0 10,4.478 10,10 0,5.522 -4.478,10 -10,10 z"
           id="path38"
           inkscape:connector-curvature="0"
           style="fill:#125e6b;fill-opacity:1" /></g><g
         id="g44"
         style="fill:#125e6b;fill-opacity:1"><path
           d="m 151.008,396.002 c -3.669,0 -7.2,-2.025 -8.952,-5.53 l -10,-20 c -2.47,-4.939 -0.468,-10.946 4.472,-13.416 4.941,-2.471 10.947,-0.467 13.417,4.473 l 5.527,11.056 31.056,-15.528 c 4.941,-2.471 10.947,-0.467 13.417,4.473 2.47,4.94 0.468,10.946 -4.473,13.416 l -40,20 c -1.436,0.716 -2.962,1.056 -4.464,1.056 z"
           id="path42"
           inkscape:connector-curvature="0"
           style="fill:#125e6b;fill-opacity:1" /></g><g
         id="g48"
         style="fill:#125e6b;fill-opacity:1"><path
           d="m 321,396 h -90 c -5.523,0 -10,-4.478 -10,-10 0,-5.522 4.477,-10 10,-10 h 90 c 5.522,0 10,4.478 10,10 0,5.522 -4.478,10 -10,10 z"
           id="path46"
           inkscape:connector-curvature="0"
           style="fill:#125e6b;fill-opacity:1" /></g><g
         id="g52"
         style="fill:#125e6b;fill-opacity:1"><path
           d="m 361,396 h -10 c -5.522,0 -10,-4.478 -10,-10 0,-5.522 4.478,-10 10,-10 h 10 c 5.522,0 10,4.478 10,10 0,5.522 -4.478,10 -10,10 z"
           id="path50"
           inkscape:connector-curvature="0"
           style="fill:#125e6b;fill-opacity:1" /></g><g
         id="g56"
         style="fill:#125e6b;fill-opacity:1"><path
           d="m 141,256 c -2.56,0 -5.119,-0.977 -7.071,-2.929 -3.905,-3.905 -3.905,-10.237 0,-14.143 l 30,-30 c 3.905,-3.904 10.237,-3.904 14.143,0 3.904,3.905 3.904,10.237 0,14.143 l -30,30 C 146.118,255.023 143.559,256 141,256 Z"
           id="path54"
           inkscape:connector-curvature="0"
           style="fill:#125e6b;fill-opacity:1" /></g><g
         id="g60"
         style="fill:#125e6b;fill-opacity:1"><path
           d="m 171,256 c -2.56,0 -5.119,-0.977 -7.071,-2.929 l -30,-30 c -3.905,-3.905 -3.905,-10.237 0,-14.143 3.905,-3.904 10.237,-3.904 14.143,0 l 30,30 c 3.904,3.905 3.904,10.237 0,14.143 C 176.118,255.023 173.559,256 171,256 Z"
           id="path58"
           inkscape:connector-curvature="0"
           style="fill:#125e6b;fill-opacity:1" /></g></g></g></svg>