<?xml version="1.0" encoding="UTF-8" standalone="no"?>
<svg
   xmlns:dc="http://purl.org/dc/elements/1.1/"
   xmlns:cc="http://creativecommons.org/ns#"
   xmlns:rdf="http://www.w3.org/1999/02/22-rdf-syntax-ns#"
   xmlns:svg="http://www.w3.org/2000/svg"
   xmlns="http://www.w3.org/2000/svg"
   xmlns:sodipodi="http://sodipodi.sourceforge.net/DTD/sodipodi-0.dtd"
   xmlns:inkscape="http://www.inkscape.org/namespaces/inkscape"
   version="1.0"
   x="0px"
   y="0px"
   viewBox="0 0 708.663 708.66195"
   enable-background="new 0 0 1133.858 1133.857"
   xml:space="preserve"
   id="svg52"
   sodipodi:docname="parpole.svg"
   width="708.66302"
   height="708.66199"
   inkscape:version="0.92.3 (2405546, 2018-03-11)"><metadata
     id="metadata58"><rdf:RDF><cc:Work
         rdf:about=""><dc:format>image/svg+xml</dc:format><dc:type
           rdf:resource="http://purl.org/dc/dcmitype/StillImage" /><dc:title></dc:title></cc:Work></rdf:RDF></metadata><defs
     id="defs56" /><sodipodi:namedview
     pagecolor="#ffffff"
     bordercolor="#666666"
     borderopacity="1"
     objecttolerance="10"
     gridtolerance="10"
     guidetolerance="10"
     inkscape:pageopacity="0"
     inkscape:pageshadow="2"
     inkscape:window-width="1600"
     inkscape:window-height="836"
     id="namedview54"
     showgrid="false"
     fit-margin-top="0"
     fit-margin-left="0"
     fit-margin-right="0"
     fit-margin-bottom="0"
     inkscape:zoom="0.20813911"
     inkscape:cx="-178.98616"
     inkscape:cy="354.32047"
     inkscape:window-x="0"
     inkscape:window-y="27"
     inkscape:window-maximized="1"
     inkscape:current-layer="svg52" /><g
     id="g50"
     style="fill:#125e6b;fill-opacity:1"
     transform="translate(-212.618,-212.587)"><path
       d="M 276.844,770.397 759.38,269.323 c -0.424,-0.275 -0.846,-0.553 -1.272,-0.826 l -496.56,478.189 c 4.789,8.117 9.895,16.025 15.296,23.711 z"
       id="path2"
       inkscape:connector-curvature="0"
       style="fill:#125e6b;fill-opacity:1" /><path
       d="m 361.531,855.656 486.22,-504.9 c -0.264,-0.343 -0.531,-0.685 -0.797,-1.027 L 339.388,838.516 c 7.148,5.995 14.532,11.715 22.143,17.14 z"
       id="path4"
       inkscape:connector-curvature="0"
       style="fill:#125e6b;fill-opacity:1" /><path
       d="M 414.76,886.982 881.063,402.764 c -0.288,-0.551 -0.577,-1.101 -0.868,-1.65 L 389.489,873.665 c 8.22,4.766 16.65,9.21 25.271,13.317 z"
       id="path6"
       inkscape:connector-curvature="0"
       style="fill:#125e6b;fill-opacity:1" /><path
       d="M 387.182,872.32 865.371,375.76 c -0.273,-0.426 -0.551,-0.848 -0.826,-1.272 L 363.47,857.023 c 7.686,5.401 15.594,10.508 23.712,15.297 z"
       id="path8"
       inkscape:connector-curvature="0"
       style="fill:#125e6b;fill-opacity:1" /><path
       d="M 260.203,744.378 732.754,253.672 c -0.549,-0.291 -1.099,-0.58 -1.65,-0.868 L 246.885,719.107 c 4.107,8.622 8.552,17.051 13.318,25.271 z"
       id="path10"
       inkscape:connector-curvature="0"
       style="fill:#125e6b;fill-opacity:1" /><path
       d="M 216.127,616.948 603.728,214.456 c -1.816,-0.187 -3.637,-0.361 -5.461,-0.521 L 213.068,584.882 c 0.541,10.824 1.568,21.519 3.059,32.066 z"
       id="path12"
       inkscape:connector-curvature="0"
       style="fill:#125e6b;fill-opacity:1" /><path
       d="M 214.298,532.247 519.051,215.786 c -3.697,0.5 -7.376,1.053 -11.036,1.666 L 219.952,494.857 c -2.529,12.244 -4.423,24.72 -5.654,37.39 z"
       id="path14"
       inkscape:connector-curvature="0"
       style="fill:#125e6b;fill-opacity:1" /><path
       d="M 245.554,716.29 704.127,240.099 c -0.727,-0.306 -1.456,-0.608 -2.186,-0.909 L 234.383,689.449 c 3.365,9.129 7.094,18.083 11.171,26.841 z"
       id="path16"
       inkscape:connector-curvature="0"
       style="fill:#125e6b;fill-opacity:1" /><path
       d="m 566.959,921.249 c 8.091,0 16.116,-0.277 24.072,-0.811 L 921.134,577.653 c 0.075,-2.532 0.125,-5.07 0.147,-7.615 L 556.732,921.099 c 3.397,0.096 6.806,0.15 10.227,0.15 z"
       id="path18"
       inkscape:connector-curvature="0"
       style="fill:#125e6b;fill-opacity:1" /><path
       d="M 223.518,479.373 466.556,226.998 c -5.97,1.76 -11.874,3.672 -17.708,5.734 L 237.476,436.283 c -5.535,13.95 -10.209,28.336 -13.958,43.09 z"
       id="path20"
       inkscape:connector-curvature="0"
       style="fill:#125e6b;fill-opacity:1" /><path
       d="M 223.146,652.959 639.983,220.107 c -1.325,-0.278 -2.654,-0.548 -3.985,-0.81 L 217.006,622.788 c 1.618,10.208 3.67,20.272 6.14,30.171 z"
       id="path22"
       inkscape:connector-curvature="0"
       style="fill:#125e6b;fill-opacity:1" /><path
       d="m 233.105,685.917 440.198,-457.11 c -0.977,-0.307 -1.957,-0.608 -2.938,-0.907 L 224.302,657.46 c 2.543,9.654 5.483,19.145 8.803,28.457 z"
       id="path24"
       inkscape:connector-curvature="0"
       style="fill:#125e6b;fill-opacity:1" /><path
       d="M 639.01,913.915 916.416,625.852 c 0.613,-3.66 1.166,-7.339 1.666,-11.036 L 601.621,919.569 c 12.67,-1.23 25.145,-3.125 37.389,-5.654 z"
       id="path26"
       inkscape:connector-curvature="0"
       style="fill:#125e6b;fill-opacity:1" /><path
       d="M 315.648,816.702 807.106,306.363 c -0.293,-0.27 -0.586,-0.54 -0.879,-0.809 L 296.77,796.162 c 6.023,7.093 12.322,13.944 18.878,20.54 z"
       id="path28"
       inkscape:connector-curvature="0"
       style="fill:#125e6b;fill-opacity:1" /><path
       d="M 295.351,794.479 784.138,286.913 c -0.342,-0.266 -0.684,-0.533 -1.027,-0.797 l -504.9,486.22 c 5.425,7.611 11.145,14.996 17.14,22.143 z"
       id="path30"
       inkscape:connector-curvature="0"
       style="fill:#125e6b;fill-opacity:1" /><path
       d="M 697.584,896.391 901.136,685.019 c 2.062,-5.834 3.974,-11.739 5.734,-17.708 L 654.494,910.349 c 14.755,-3.749 29.14,-8.423 43.09,-13.958 z"
       id="path32"
       inkscape:connector-curvature="0"
       style="fill:#125e6b;fill-opacity:1" /><path
       d="m 317.165,818.219 c 6.596,6.556 13.447,12.855 20.54,18.879 L 828.313,327.641 c -0.269,-0.294 -0.539,-0.587 -0.809,-0.879 z"
       id="path34"
       inkscape:connector-curvature="0"
       style="fill:#125e6b;fill-opacity:1" /><path
       d="m 212.618,566.908 c 0,3.421 0.054,6.83 0.15,10.227 L 563.829,212.587 c -2.545,0.022 -5.083,0.071 -7.615,0.146 L 213.429,542.837 c -0.534,7.955 -0.811,15.981 -0.811,24.071 z"
       id="path36"
       inkscape:connector-curvature="0"
       style="fill:#125e6b;fill-opacity:1" /><path
       d="m 297.589,336.697 c -18.733,21.898 -34.844,46.106 -47.842,72.14 L 397.017,255.91 c -17.591,9.633 -34.275,20.715 -49.893,33.086 z"
       id="path38"
       inkscape:connector-curvature="0"
       style="fill:#125e6b;fill-opacity:1" /><path
       d="M 444.418,899.484 894.677,431.926 c -0.301,-0.73 -0.603,-1.459 -0.909,-2.186 l -476.19,458.573 c 8.758,4.078 17.711,7.806 26.84,11.171 z"
       id="path40"
       inkscape:connector-curvature="0"
       style="fill:#125e6b;fill-opacity:1" /><path
       d="m 797.171,836.278 47.701,-49.534 c 12.371,-15.618 23.453,-32.302 33.086,-49.893 L 725.031,884.12 c 26.034,-12.998 50.241,-29.109 72.14,-47.842 z"
       id="path42"
       inkscape:connector-curvature="0"
       style="fill:#125e6b;fill-opacity:1" /><path
       d="M 548.985,920.8 919.933,535.6 c -0.16,-1.824 -0.334,-3.645 -0.521,-5.461 L 516.92,917.74 c 10.546,1.491 21.241,2.519 32.065,3.06 z"
       id="path44"
       inkscape:connector-curvature="0"
       style="fill:#125e6b;fill-opacity:1" /><path
       d="m 476.407,909.566 429.56,-446.063 c -0.299,-0.981 -0.6,-1.961 -0.907,-2.938 L 447.95,900.763 c 9.312,3.319 18.804,6.259 28.457,8.803 z"
       id="path46"
       inkscape:connector-curvature="0"
       style="fill:#125e6b;fill-opacity:1" /><path
       d="m 480.908,910.721 c 9.899,2.47 19.963,4.523 30.171,6.14 L 914.57,497.869 c -0.263,-1.331 -0.533,-2.659 -0.81,-3.985 z"
       id="path48"
       inkscape:connector-curvature="0"
       style="fill:#125e6b;fill-opacity:1" /></g></svg>