<?xml version="1.0" encoding="UTF-8" standalone="no"?>
<svg
   xmlns:dc="http://purl.org/dc/elements/1.1/"
   xmlns:cc="http://creativecommons.org/ns#"
   xmlns:rdf="http://www.w3.org/1999/02/22-rdf-syntax-ns#"
   xmlns:svg="http://www.w3.org/2000/svg"
   xmlns="http://www.w3.org/2000/svg"
   xmlns:sodipodi="http://sodipodi.sourceforge.net/DTD/sodipodi-0.dtd"
   xmlns:inkscape="http://www.inkscape.org/namespaces/inkscape"
   version="1.1"
   x="0px"
   y="0px"
   viewBox="0 0 80.433792 130"
   enable-background="new 0 0 100 100"
   xml:space="preserve"
   id="svg16"
   sodipodi:docname="pdf.svg"
   inkscape:version="0.92.1 r15371"
   width="80.433792"
   height="130"><metadata
     id="metadata22"><rdf:RDF><cc:Work
         rdf:about=""><dc:format>image/svg+xml</dc:format><dc:type
           rdf:resource="http://purl.org/dc/dcmitype/StillImage" /><dc:title></dc:title></cc:Work></rdf:RDF></metadata><defs
     id="defs20" /><sodipodi:namedview
     pagecolor="#ffffff"
     bordercolor="#666666"
     borderopacity="1"
     objecttolerance="10"
     gridtolerance="10"
     guidetolerance="10"
     inkscape:pageopacity="0"
     inkscape:pageshadow="2"
     inkscape:window-width="1920"
     inkscape:window-height="986"
     id="namedview18"
     showgrid="false"
     inkscape:zoom="2.36"
     inkscape:cx="-115.29147"
     inkscape:cy="65"
     inkscape:window-x="-11"
     inkscape:window-y="-11"
     inkscape:window-maximized="1"
     inkscape:current-layer="svg16"
     fit-margin-top="20"
     fit-margin-bottom="20"
     fit-margin-left="5"
     fit-margin-right="5" /><g
     id="g14"
     style="fill:#d40000"
     transform="translate(-9.783,15)"><path
       d="m 79.515,14.575 c 0.124,0.142 0.304,0.223 0.492,0.223 0.19,0 0.368,-0.081 0.494,-0.223 l 4.55,-4.588 C 85.223,9.792 85.265,9.516 85.159,9.279 85.051,9.044 84.815,8.892 84.556,8.892 H 82.925 V 5.658 C 82.926,5.294 82.633,5 82.269,5 h -4.523 c -0.364,0 -0.658,0.294 -0.658,0.658 v 3.234 h -1.63 c -0.259,0 -0.495,0.152 -0.601,0.387 -0.107,0.237 -0.063,0.513 0.108,0.708 z"
       id="path2"
       inkscape:connector-curvature="0"
       style="fill:#d40000" /><path
       d="m 57.676,45.883 c -1.881,-2.097 -3.739,-4.44 -5.412,-6.548 -0.789,-0.996 -1.544,-1.946 -2.25,-2.809 l -0.052,-0.063 c 1.034,-2.945 1.625,-5.355 1.757,-7.165 0.335,-4.611 -0.18,-7.581 -1.573,-9.078 -0.941,-1.013 -2.354,-1.366 -3.683,-0.919 -0.952,0.319 -2.241,1.174 -2.978,3.432 -1.098,3.366 -0.566,9.327 2.556,14.257 -1.393,3.648 -3.335,7.84 -5.48,11.831 -4.085,1.432 -7.341,3.315 -9.678,5.599 -3.053,2.98 -4.294,5.938 -3.406,8.114 0.547,1.348 1.812,2.152 3.383,2.152 1.094,0 2.277,-0.395 3.422,-1.141 2.891,-1.89 6.666,-8.187 8.691,-11.836 4.189,-1.308 8.325,-1.843 10.427,-2.046 0.951,-0.092 1.895,-0.165 2.804,-0.216 3.679,3.885 6.688,5.934 9.46,6.445 0.558,0.104 1.116,0.156 1.661,0.156 2.259,0 4.126,-0.901 4.997,-2.41 0.657,-1.14 0.644,-2.47 -0.037,-3.65 -1.538,-2.663 -6.18,-4.129 -13.071,-4.129 -0.496,10e-4 -1.008,0.008 -1.538,0.024 z M 32.364,60.615 c -0.547,0.357 -1.109,0.57 -1.505,0.57 -0.075,0 -0.126,-0.008 -0.155,-0.015 -0.069,-0.349 0.179,-1.858 2.624,-4.247 1.148,-1.122 2.6,-2.146 4.319,-3.052 -2.169,3.49 -4.121,5.985 -5.283,6.744 z M 46.811,23.82 c 0.255,-0.781 0.571,-1.134 0.768,-1.2 0.005,-0.001 0.009,-0.003 0.013,-0.004 0.19,0.214 0.998,1.437 0.636,6.431 -0.063,0.871 -0.275,1.972 -0.632,3.28 -1.168,-3.008 -1.489,-6.35 -0.785,-8.507 z m 6.251,22.361 c -1.862,0.179 -4.698,0.548 -7.862,1.297 1.227,-2.45 2.363,-4.933 3.312,-7.234 0.329,0.412 0.666,0.835 1.008,1.268 1.145,1.443 2.431,3.065 3.764,4.649 z m 16.189,5.558 c 0.052,0.09 0.051,0.126 0.038,0.15 -0.147,0.255 -0.812,0.66 -1.969,0.66 -0.323,0 -0.667,-0.033 -1.022,-0.099 -1.444,-0.267 -3.128,-1.265 -5.135,-3.045 5.446,0.26 7.647,1.573 8.088,2.334 z"
       id="path4"
       inkscape:connector-curvature="0"
       style="fill:#d40000" /><path
       d="m 65.093,5 h -45.28 c -2.775,0 -5.03,2.249 -5.03,5.031 v 79.938 c 0,2.779 2.255,5.031 5.03,5.031 h 60.373 c 2.781,0 5.03,-2.252 5.03,-5.031 V 25.124 Z m 0,7.113 13.011,13.011 H 65.093 Z M 80.187,89.969 H 19.813 V 10.031 h 40.249 v 15.093 c 0,2.779 2.25,5.031 5.03,5.031 h 15.094 v 59.814 z"
       id="path6"
       inkscape:connector-curvature="0"
       style="fill:#d40000" /><path
       d="M 41.688,69.355 C 41.277,68.992 40.784,68.728 40.224,68.573 39.671,68.415 38.879,68.335 37.87,68.335 h -3.349 c -0.637,0 -1.117,0.146 -1.428,0.437 -0.314,0.294 -0.475,0.77 -0.475,1.413 v 9.932 c 0,0.578 0.143,1.028 0.425,1.34 0.287,0.32 0.669,0.483 1.135,0.483 0.446,0 0.822,-0.163 1.116,-0.485 0.288,-0.316 0.435,-0.772 0.435,-1.355 v -3.397 h 2.141 c 1.653,0 2.923,-0.361 3.772,-1.074 0.864,-0.722 1.303,-1.79 1.303,-3.175 0,-0.645 -0.106,-1.235 -0.317,-1.755 -0.212,-0.527 -0.528,-0.978 -0.94,-1.344 z m -2.164,4.153 c -0.187,0.252 -0.454,0.429 -0.818,0.543 -0.387,0.12 -0.88,0.182 -1.468,0.182 H 35.73 v -3.438 h 1.508 c 1.359,0 1.91,0.271 2.129,0.492 0.292,0.312 0.434,0.711 0.434,1.218 0,0.418 -0.093,0.755 -0.277,1.003 z"
       id="path8"
       inkscape:connector-curvature="0"
       style="fill:#d40000" /><path
       d="M 54.059,69.565 C 53.516,69.09 52.902,68.761 52.234,68.588 51.584,68.42 50.796,68.334 49.895,68.334 h -3.401 c -0.629,0 -1.099,0.151 -1.398,0.451 -0.299,0.3 -0.451,0.77 -0.451,1.398 v 9.448 c 0,0.443 0.039,0.798 0.119,1.083 0.091,0.324 0.287,0.577 0.582,0.752 0.281,0.17 0.675,0.252 1.201,0.252 h 3.401 c 0.602,0 1.152,-0.039 1.635,-0.117 0.492,-0.08 0.959,-0.22 1.387,-0.415 0.432,-0.197 0.834,-0.463 1.199,-0.791 0.457,-0.42 0.838,-0.903 1.132,-1.438 0.291,-0.533 0.51,-1.138 0.648,-1.796 0.138,-0.652 0.208,-1.383 0.208,-2.17 -10e-4,-2.408 -0.708,-4.234 -2.098,-5.426 z m -2.273,9.037 c -0.169,0.147 -0.372,0.265 -0.604,0.348 -0.243,0.086 -0.479,0.141 -0.704,0.162 -0.237,0.022 -0.572,0.034 -0.996,0.034 H 47.754 V 70.9 h 1.473 c 0.771,0 1.432,0.084 1.966,0.249 0.499,0.152 0.929,0.521 1.278,1.099 0.358,0.591 0.54,1.508 0.54,2.727 0,1.719 -0.411,2.938 -1.225,3.627 z"
       id="path10"
       inkscape:connector-curvature="0"
       style="fill:#d40000" /><path
       d="m 65.899,68.335 h -6.152 c -0.41,0 -0.742,0.061 -1.014,0.186 -0.291,0.132 -0.508,0.347 -0.646,0.64 -0.128,0.274 -0.19,0.609 -0.19,1.024 v 9.914 c 0,0.597 0.146,1.056 0.431,1.364 0.291,0.316 0.671,0.477 1.129,0.477 0.449,0 0.826,-0.158 1.12,-0.471 0.286,-0.309 0.431,-0.77 0.431,-1.37 v -3.995 h 4.048 c 0.453,0 0.808,-0.109 1.053,-0.326 0.255,-0.225 0.384,-0.527 0.384,-0.899 0,-0.371 -0.126,-0.674 -0.376,-0.9 -0.243,-0.222 -0.6,-0.334 -1.061,-0.334 H 61.008 V 70.849 H 65.9 c 0.479,0 0.848,-0.115 1.097,-0.343 0.255,-0.232 0.384,-0.541 0.384,-0.918 0,-0.369 -0.129,-0.675 -0.385,-0.911 -0.252,-0.228 -0.62,-0.342 -1.097,-0.342 z"
       id="path12"
       inkscape:connector-curvature="0"
       style="fill:#d40000" /></g></svg>