<?xml version="1.0" encoding="UTF-8" standalone="no"?>
<svg
   xmlns:dc="http://purl.org/dc/elements/1.1/"
   xmlns:cc="http://creativecommons.org/ns#"
   xmlns:rdf="http://www.w3.org/1999/02/22-rdf-syntax-ns#"
   xmlns:svg="http://www.w3.org/2000/svg"
   xmlns="http://www.w3.org/2000/svg"
   xmlns:sodipodi="http://sodipodi.sourceforge.net/DTD/sodipodi-0.dtd"
   xmlns:inkscape="http://www.inkscape.org/namespaces/inkscape"
   version="1.1"
   x="0px"
   y="0px"
   viewBox="0 0 100 100"
   style="enable-background:new 0 0 100 100;"
   xml:space="preserve"
   id="svg8"
   sodipodi:docname="credit.svg"
   inkscape:version="0.92.4 (5da689c313, 2019-01-14)"><metadata
     id="metadata14"><rdf:RDF><cc:Work
         rdf:about=""><dc:format>image/svg+xml</dc:format><dc:type
           rdf:resource="http://purl.org/dc/dcmitype/StillImage" /><dc:title></dc:title></cc:Work></rdf:RDF></metadata><defs
     id="defs12" /><sodipodi:namedview
     pagecolor="#ffffff"
     bordercolor="#666666"
     borderopacity="1"
     objecttolerance="10"
     gridtolerance="10"
     guidetolerance="10"
     inkscape:pageopacity="0"
     inkscape:pageshadow="2"
     inkscape:window-width="919"
     inkscape:window-height="480"
     id="namedview10"
     showgrid="false"
     inkscape:zoom="2.36"
     inkscape:cx="2.7542373"
     inkscape:cy="50"
     inkscape:window-x="0"
     inkscape:window-y="27"
     inkscape:window-maximized="0"
     inkscape:current-layer="svg8" /><g
     id="g6"
     style="fill:#ffffff"><circle
       cx="50"
       cy="53.02"
       r="13"
       id="circle2"
       style="fill:#ffffff" /><path
       d="M 82.69,31 H 71.18 C 69.92,31 68.8,30.26 68.34,29.12 L 66.82,25.39 C 65.74,22.72 63.17,21 60.27,21 H 38.71 c -2.9,0 -5.47,1.72 -6.55,4.38 l -1.52,3.73 C 30.19,30.26 29.07,31 27.81,31 H 17.31 C 14.93,31 13,32.95 13,35.34 v 38.31 c 0,2.4 1.93,4.34 4.31,4.34 h 65.38 c 2.38,0 4.31,-1.95 4.31,-4.34 V 35.34 C 87,32.95 85.07,31 82.69,31 Z M 30,43 h -7 c -1.1,0 -2,-0.9 -2,-2 0,-1.1 0.9,-2 2,-2 h 7 c 1.1,0 2,0.9 2,2 0,1.1 -0.9,2 -2,2 z m 20,27.02 c -9.37,0 -17,-7.63 -17,-17 0,-9.37 7.63,-17 17,-17 9.37,0 17,7.63 17,17 0,9.37 -7.63,17 -17,17 z"
       id="path4"
       inkscape:connector-curvature="0"
       style="fill:#ffffff" /></g></svg>