<?xml version="1.0" encoding="UTF-8" standalone="no"?>
<svg
   xmlns:dc="http://purl.org/dc/elements/1.1/"
   xmlns:cc="http://creativecommons.org/ns#"
   xmlns:rdf="http://www.w3.org/1999/02/22-rdf-syntax-ns#"
   xmlns:svg="http://www.w3.org/2000/svg"
   xmlns="http://www.w3.org/2000/svg"
   xmlns:sodipodi="http://sodipodi.sourceforge.net/DTD/sodipodi-0.dtd"
   xmlns:inkscape="http://www.inkscape.org/namespaces/inkscape"
   version="1.1"
   x="0px"
   y="0px"
   viewBox="0 0 100 100"
   style="enable-background:new 0 0 100 100;"
   xml:space="preserve"
   id="svg4"
   sodipodi:docname="troupeau.svg"
   inkscape:version="0.92.3 (2405546, 2018-03-11)"><metadata
     id="metadata10"><rdf:RDF><cc:Work
         rdf:about=""><dc:format>image/svg+xml</dc:format><dc:type
           rdf:resource="http://purl.org/dc/dcmitype/StillImage" /><dc:title></dc:title></cc:Work></rdf:RDF></metadata><defs
     id="defs8" /><sodipodi:namedview
     pagecolor="#ffffff"
     bordercolor="#666666"
     borderopacity="1"
     objecttolerance="10"
     gridtolerance="10"
     guidetolerance="10"
     inkscape:pageopacity="0"
     inkscape:pageshadow="2"
     inkscape:window-width="1600"
     inkscape:window-height="836"
     id="namedview6"
     showgrid="false"
     inkscape:zoom="2.36"
     inkscape:cx="2.5423729"
     inkscape:cy="50"
     inkscape:window-x="0"
     inkscape:window-y="27"
     inkscape:window-maximized="1"
     inkscape:current-layer="svg4" /><path
     d="M13,16H9V9c0-1.1,0.9-2,2-2s2,0.9,2,2V16z M71,30H57v18c0,4.41,3.59,8,8,8h14v-6H65c-1.1,0-2-0.9-2-2c0-1.1,0.9-2,2-2h14v-8  C79,33.59,75.41,30,71,30z M35,50H21v6h14c4.41,0,8-3.59,8-8V30H29c-4.41,0-8,3.59-8,8v8h14c1.1,0,2,0.9,2,2C37,49.1,36.1,50,35,50z   M53,48V28c0-1.1,0.9-2,2-2h11v-6H34v6h11c1.1,0,2,0.9,2,2v20c0,6.62-5.38,12-12,12H21v2c0,4.41,3.59,8,8,8c1.1,0,2,0.9,2,2v13  c0,3.72,2.56,6.85,6,7.74V76c0-3.31,2.69-6,6-6h14c3.31,0,6,2.69,6,6v16.74c3.44-0.89,6-4.02,6-7.74V72c0-1.1,0.9-2,2-2  c4.41,0,8-3.59,8-8v-2H65C58.38,60,53,54.62,53,48z M89,7c-1.1,0-2,0.9-2,2v7h4V9C91,7.9,90.1,7,89,7z M90.75,20H70v6h13  C86.72,26,89.86,23.45,90.75,20z M30,20H9.25c0.89,3.45,4.03,6,7.75,6h13V20z M57,74H43c-1.1,0-2,0.9-2,2v5h4c1.1,0,2,0.9,2,2  c0,1.1-0.9,2-2,2h-4v8h18v-8h-4c-1.1,0-2-0.9-2-2c0-1.1,0.9-2,2-2h4v-5C59,74.9,58.1,74,57,74z M9,53v21.8c4.56-0.93,8-4.97,8-9.8  V43.2C12.44,44.13,9,48.17,9,53z M83,43.2V65c0,4.83,3.44,8.87,8,9.8V53C91,48.17,87.56,44.13,83,43.2z"
     id="path2"
     style="fill:#125e6b;fill-opacity:1" /></svg>