<?xml version="1.0" encoding="UTF-8" standalone="no"?>
<svg
   xmlns:dc="http://purl.org/dc/elements/1.1/"
   xmlns:cc="http://creativecommons.org/ns#"
   xmlns:rdf="http://www.w3.org/1999/02/22-rdf-syntax-ns#"
   xmlns:svg="http://www.w3.org/2000/svg"
   xmlns="http://www.w3.org/2000/svg"
   xmlns:sodipodi="http://sodipodi.sourceforge.net/DTD/sodipodi-0.dtd"
   xmlns:inkscape="http://www.inkscape.org/namespaces/inkscape"
   data-name="Layer 1"
   viewBox="0 0 100 100"
   x="0px"
   y="0px"
   version="1.1"
   id="svg6"
   sodipodi:docname="aide.svg"
   inkscape:version="0.92.3 (2405546, 2018-03-11)">
  <metadata
     id="metadata12">
    <rdf:RDF>
      <cc:Work
         rdf:about="">
        <dc:format>image/svg+xml</dc:format>
        <dc:type
           rdf:resource="http://purl.org/dc/dcmitype/StillImage" />
        <dc:title>help icon</dc:title>
      </cc:Work>
    </rdf:RDF>
  </metadata>
  <defs
     id="defs10" />
  <sodipodi:namedview
     pagecolor="#ffffff"
     bordercolor="#666666"
     borderopacity="1"
     objecttolerance="10"
     gridtolerance="10"
     guidetolerance="10"
     inkscape:pageopacity="0"
     inkscape:pageshadow="2"
     inkscape:window-width="1600"
     inkscape:window-height="836"
     id="namedview8"
     showgrid="false"
     inkscape:zoom="2.36"
     inkscape:cx="-18.644068"
     inkscape:cy="50"
     inkscape:window-x="0"
     inkscape:window-y="27"
     inkscape:window-maximized="1"
     inkscape:current-layer="svg6" />
  <title
     id="title2">help icon</title>
  <ellipse
     style="opacity:1;fill:#b3ff80;fill-opacity:1;fill-rule:nonzero;stroke:none;stroke-width:0.75590551;stroke-linecap:round;stroke-miterlimit:4;stroke-dasharray:none;stroke-dashoffset:0;stroke-opacity:1"
     id="path816"
     cx="50.635593"
     cy="51.271187"
     rx="28.177965"
     ry="38.559322" />
  <path
     d="M 50,3.5 A 46.5,46.5 0 1 0 96.5,50 46.5,46.5 0 0 0 50,3.5 Z m 5.38,75.81 a 7.21,7.21 0 0 1 -5.29,2.2 7.07,7.07 0 0 1 -5.25,-2.2 7.28,7.28 0 0 1 -2.16,-5.31 7.35,7.35 0 0 1 7.4,-7.4 7.29,7.29 0 0 1 5.29,2.15 7.08,7.08 0 0 1 2.2,5.25 7.21,7.21 0 0 1 -2.19,5.31 z m 12.52,-40 A 16.47,16.47 0 0 1 66.27,43 20,20 0 0 1 63.86,46.23 q -1.38,1.51 -2.93,3 -1.55,1.49 -2.45,2.5 a 11,11 0 0 0 -1.55,2.19 9,9 0 0 0 -0.82,2.28 13.21,13.21 0 0 0 -0.26,2.8 v 1.38 H 44.58 v -2.89 a 16.1,16.1 0 0 1 0.42,-3.83 13.75,13.75 0 0 1 1.33,-3.4 17,17 0 0 1 2.42,-3.26 41.89,41.89 0 0 1 3.74,-3.53 26.7,26.7 0 0 0 3.62,-3.79 6.83,6.83 0 0 0 1.29,-4.22 6.34,6.34 0 0 0 -1.94,-4.56 7.07,7.07 0 0 0 -5.29,-2 8.4,8.4 0 0 0 -5.85,2.24 9.53,9.53 0 0 0 -1.85,2.32 10.59,10.59 0 0 0 -1.08,2.67 L 31.49,32 a 18.92,18.92 0 0 1 2.19,-4.82 18.51,18.51 0 0 1 9.17,-7.49 19.11,19.11 0 0 1 7,-1.21 22.1,22.1 0 0 1 7.57,1.25 17.87,17.87 0 0 1 5.9,3.44 15.63,15.63 0 0 1 3.83,5.21 16.23,16.23 0 0 1 0.78,10.93 z"
     id="path4"
     style="display:inline;fill:#666666"
     inkscape:connector-curvature="0" />
</svg>
