<?xml version="1.0" encoding="UTF-8" standalone="no"?>
<svg
   xmlns:i="http://ns.adobe.com/AdobeIllustrator/10.0/"
   xmlns:dc="http://purl.org/dc/elements/1.1/"
   xmlns:cc="http://creativecommons.org/ns#"
   xmlns:rdf="http://www.w3.org/1999/02/22-rdf-syntax-ns#"
   xmlns:svg="http://www.w3.org/2000/svg"
   xmlns="http://www.w3.org/2000/svg"
   xmlns:sodipodi="http://sodipodi.sourceforge.net/DTD/sodipodi-0.dtd"
   xmlns:inkscape="http://www.inkscape.org/namespaces/inkscape"
   version="1.1"
   x="0px"
   y="0px"
   viewBox="0 0 100 100"
   style="enable-background:new 0 0 100 100;"
   xml:space="preserve"
   id="svg8"
   sodipodi:docname="fleche-bas.svg"
   inkscape:version="0.92.3 (2405546, 2018-03-11)"><metadata
     id="metadata14"><rdf:RDF><cc:Work
         rdf:about=""><dc:format>image/svg+xml</dc:format><dc:type
           rdf:resource="http://purl.org/dc/dcmitype/StillImage" /><dc:title /></cc:Work></rdf:RDF></metadata><defs
     id="defs12" /><sodipodi:namedview
     pagecolor="#ffffff"
     bordercolor="#666666"
     borderopacity="1"
     objecttolerance="10"
     gridtolerance="10"
     guidetolerance="10"
     inkscape:pageopacity="0"
     inkscape:pageshadow="2"
     inkscape:window-width="1600"
     inkscape:window-height="836"
     id="namedview10"
     showgrid="false"
     inkscape:zoom="3.337544"
     inkscape:cx="15.812277"
     inkscape:cy="59.824496"
     inkscape:window-x="0"
     inkscape:window-y="27"
     inkscape:window-maximized="1"
     inkscape:current-layer="g4" /><g
     style="fill:none;stroke:#000000;stroke-opacity:1"
     id="g4"
     i:extraneous="self"
     transform="rotate(90,50,50)"><path
       style="fill:#4d4d4d;fill-opacity:1;stroke:none;stroke-width:0.6564067;stroke-opacity:1"
       inkscape:connector-curvature="0"
       id="path2"
       d="M 65.294277,51.408519 55.185613,61.517182 c -0.393844,0.393844 -0.853329,0.590766 -1.378454,0.590766 -0.459485,0 -0.98461,-0.196922 -1.378454,-0.590766 -0.722048,-0.722047 -0.722048,-1.96922 0,-2.691267 l 6.82663,-6.82663 H 36.018537 c -1.050251,0 -1.90358,-0.853329 -1.90358,-1.90358 0,-1.050251 0.853329,-1.903579 1.90358,-1.903579 h 23.302438 l -6.826629,-6.892271 c -0.722048,-0.722047 -0.722048,-1.96922 0,-2.691268 0.722047,-0.722047 1.96922,-0.722047 2.691267,0 l 10.108664,10.108664 c 0.787688,0.722047 0.787688,1.903579 0,2.691268 z"
       sodipodi:nodetypes="ssssscsssccsscs" /></g></svg>