<?xml version="1.0" encoding="UTF-8" standalone="no"?>
<svg
   xmlns:dc="http://purl.org/dc/elements/1.1/"
   xmlns:cc="http://creativecommons.org/ns#"
   xmlns:rdf="http://www.w3.org/1999/02/22-rdf-syntax-ns#"
   xmlns:svg="http://www.w3.org/2000/svg"
   xmlns="http://www.w3.org/2000/svg"
   xmlns:sodipodi="http://sodipodi.sourceforge.net/DTD/sodipodi-0.dtd"
   xmlns:inkscape="http://www.inkscape.org/namespaces/inkscape"
   version="1.1"
   x="0px"
   y="0px"
   viewBox="0 0 100 100"
   enable-background="new 0 0 100 100"
   xml:space="preserve"
   id="svg24"
   sodipodi:docname="insulte.svg"
   inkscape:version="0.92.4 (5da689c313, 2019-01-14)"><metadata
     id="metadata30"><rdf:RDF><cc:Work
         rdf:about=""><dc:format>image/svg+xml</dc:format><dc:type
           rdf:resource="http://purl.org/dc/dcmitype/StillImage" /><dc:title></dc:title></cc:Work></rdf:RDF></metadata><defs
     id="defs28" /><sodipodi:namedview
     pagecolor="#ffffff"
     bordercolor="#666666"
     borderopacity="1"
     objecttolerance="10"
     gridtolerance="10"
     guidetolerance="10"
     inkscape:pageopacity="0"
     inkscape:pageshadow="2"
     inkscape:window-width="919"
     inkscape:window-height="480"
     id="namedview26"
     showgrid="false"
     inkscape:zoom="2.36"
     inkscape:cx="3.6016949"
     inkscape:cy="48.09322"
     inkscape:window-x="0"
     inkscape:window-y="27"
     inkscape:window-maximized="0"
     inkscape:current-layer="svg24" /><g
     id="g6"><g
       id="g4"><path
         d="M17.135,68.403c-2.734-2.591-4.405-5.828-6.555-8.709c-0.063-0.085-0.124-0.174-0.168-0.269    C8.73,55.773,7.088,52.122,6.289,48.13c-0.467-2.331-0.447-4.603-0.093-6.915c0.176-1.15,0.25-2.318,0.478-3.456    c0.701-3.493,2.403-6.535,4.4-9.428c0.601-0.87,1.291-1.68,1.876-2.561c2.191-3.299,5.282-5.423,8.882-6.903    c2.343-0.963,4.748-1.775,7.04-2.864c0.282-0.134,0.593-0.254,0.9-0.283c3.792-0.359,7.583-0.732,11.38-1.035    c3.703-0.296,7.412-0.214,11.117,0.025c2.008,0.129,4.024,0.185,6.024,0.388c4.338,0.441,8.532,1.421,12.559,3.183    c2.813,1.231,5.649,2.382,8.346,3.871c3.099,1.711,5.728,3.983,8.217,6.451c1.139,1.13,2.011,2.454,2.79,3.846    c0.466,0.831,0.878,1.701,1.423,2.477c3.168,4.513,3.852,9.538,3.083,14.851c-0.181,1.253-0.583,2.475-0.478,3.765    c-0.625,2.574-1.233,5.158-2.766,7.387c-1.203,1.748-2.506,3.414-4.128,4.807c-0.562,0.483-1.128,0.969-1.636,1.507    c-1.101,1.167-2.444,2.003-3.717,2.95c-2.742,2.04-5.796,3.48-8.818,4.995c-0.375,0.188-0.773,0.338-1.175,0.46    c-1.618,0.493-3.242,0.969-4.865,1.448c-1.827,0.539-3.646,1.111-5.487,1.601c-2.882,0.768-5.871,0.779-8.807,1.169    c-0.414,0.055-0.853,0.025-1.267-0.046c-3.133-0.532-6.308-0.694-9.456-1.087c-0.523-0.065-1.037-0.201-1.554-0.309    c-3.525-0.734-7.071-1.386-10.491-2.553c-0.856-0.292-1.63-0.226-2.428,0.243c-0.911,0.535-1.879,0.973-2.831,1.436    c-2.014,0.978-3.765,2.354-5.579,3.637c-0.515,0.364-1.055,0.695-1.603,1.007c-0.424,0.241-1.15-0.121-1.261-0.624    c-0.137-0.617-0.272-1.228-0.09-1.877C17.292,76.074,17.256,72.371,17.135,68.403z M19.039,77.529    c0.308-0.038,0.693,0.031,0.912-0.129c2.238-1.629,4.874-2.558,7.16-4.098c0.552-0.372,1.164-0.482,1.817-0.286    c0.911,0.273,1.831,0.516,2.735,0.81c5.966,1.939,11.997,3.502,18.35,3.265c0.317-0.012,0.635,0.025,0.953,0.022    c3.496-0.037,6.981-0.098,10.433-0.818c2.289-0.478,4.494-1.203,6.7-1.93c5.172-1.704,9.911-4.306,14.263-7.52    c3.369-2.488,5.812-5.797,7.324-9.782c1.452-3.826,2.156-7.722,1.878-11.818c-0.167-2.458-0.719-4.828-1.514-7.123    c-0.833-2.404-1.952-4.708-3.837-6.513c-2.832-2.713-5.641-5.464-9.206-7.241c-2.555-1.274-5.128-2.51-7.693-3.763    c-3.566-1.001-7.02-2.381-10.649-3.163c-0.93-0.2-1.877-0.428-2.819-0.441c-1.384-0.018-2.744-0.182-4.113-0.334    c-1.262-0.14-2.536-0.225-3.805-0.229c-1.052-0.003-2.174-0.054-3.14,0.278c-1.244,0.428-2.488,0.496-3.746,0.538    c-3.403,0.114-6.737,0.7-10.051,1.407c-3.543,0.756-6.874,2.172-10.078,3.787c-2.754,1.388-5.168,3.346-6.85,6.026    c-2.676,4.265-4.772,8.726-4.601,13.94c0.028,0.845-0.095,1.694-0.102,2.541c-0.015,1.697,0.027,3.4,0.457,5.05    c0.479,1.844,0.992,3.682,1.587,5.491c0.462,1.403,0.966,2.813,1.646,4.118c0.731,1.403,1.625,2.735,2.566,4.01    c1.129,1.529,2.308,3.043,4.114,3.877c0.568,0.263,0.688,0.809,0.591,1.344c-0.417,2.29-0.484,4.637-1.144,6.889    C19,76.34,18.902,76.98,19.116,77.61C19.053,77.575,19.028,77.548,19.039,77.529z"
         id="path2" /></g></g><g
     id="g22"><path
       d="M31.458,48.917c0.271,0.025,0.585,0.013,0.942-0.037c0.05,0,0.092-0.006,0.129-0.018c0.111-0.468,0.222-0.918,0.333-1.35   c0.037-0.147,0.074-0.296,0.111-0.443c-0.456,0.086-0.899,0.184-1.33,0.296c-0.247,0.062-0.477,0.025-0.693-0.111   c-0.216-0.135-0.354-0.326-0.416-0.572c-0.062-0.247-0.028-0.477,0.102-0.693c0.129-0.216,0.317-0.354,0.564-0.416   c0.739-0.185,1.509-0.344,2.31-0.48c0.111-0.369,0.222-0.708,0.332-1.017c0.395-1.17,0.758-1.959,1.09-2.365   c0.16-0.197,0.367-0.308,0.62-0.333c0.252-0.024,0.477,0.044,0.674,0.204c0.197,0.16,0.308,0.366,0.332,0.619   c0.025,0.253-0.044,0.477-0.203,0.674c-0.185,0.234-0.438,0.826-0.758,1.774c-0.025,0.074-0.05,0.142-0.074,0.204   c0.566-0.05,1.152-0.086,1.756-0.111c0.086-0.308,0.172-0.591,0.259-0.85c0.456-1.331,0.862-2.181,1.22-2.551   c0.172-0.185,0.388-0.277,0.647-0.277c0.259,0,0.48,0.086,0.665,0.259c0.185,0.172,0.277,0.388,0.277,0.647   s-0.086,0.48-0.259,0.665c-0.062,0.062-0.16,0.241-0.296,0.536c-0.148,0.332-0.314,0.77-0.499,1.312   c-0.025,0.074-0.043,0.142-0.055,0.203c0.431,0,0.868,0.007,1.311,0.019c0.259,0,0.477,0.092,0.656,0.277   c0.178,0.184,0.265,0.403,0.259,0.656c-0.006,0.253-0.102,0.468-0.286,0.647c-0.185,0.179-0.407,0.268-0.665,0.268   c-0.641-0.013-1.256-0.019-1.848-0.019c-0.16,0.554-0.321,1.14-0.48,1.756c-0.013,0.062-0.025,0.123-0.037,0.184   c0.776,0.05,1.608,0.136,2.494,0.259c0.247,0.038,0.447,0.161,0.601,0.37c0.154,0.21,0.213,0.441,0.176,0.693   c-0.038,0.253-0.157,0.453-0.361,0.6c-0.203,0.148-0.434,0.204-0.693,0.167c-0.949-0.136-1.842-0.222-2.68-0.259   c-0.529,2.23-0.838,3.758-0.924,4.583c-0.037,0.247-0.154,0.45-0.351,0.61c-0.197,0.16-0.422,0.228-0.674,0.204   c-0.253-0.025-0.459-0.139-0.619-0.342c-0.16-0.203-0.228-0.428-0.203-0.674c0.099-0.826,0.388-2.291,0.868-4.398   c-0.259,0.012-0.511,0.031-0.758,0.056c-0.086,0.012-0.172,0.025-0.259,0.037c-0.185,0.025-0.419,0.062-0.702,0.111   c-0.332,1.503-0.535,2.587-0.61,3.253c-0.037,0.247-0.154,0.45-0.351,0.61c-0.197,0.16-0.422,0.225-0.674,0.194   s-0.459-0.145-0.619-0.342c-0.16-0.197-0.228-0.425-0.203-0.684c0.074-0.592,0.24-1.509,0.499-2.754   c-0.259,0.012-0.511,0.012-0.757,0c-0.259-0.012-0.471-0.114-0.638-0.305c-0.166-0.19-0.244-0.412-0.231-0.665   c0.012-0.253,0.114-0.465,0.305-0.638C30.975,48.985,31.199,48.905,31.458,48.917z M36.725,46.607   c-0.604,0.037-1.189,0.092-1.755,0.166c-0.111,0.382-0.216,0.777-0.314,1.183c-0.05,0.198-0.099,0.395-0.148,0.592   c0.012,0,0.025,0,0.037,0c0.099-0.012,0.204-0.025,0.314-0.037c0.456-0.05,0.917-0.074,1.386-0.074   c0.05-0.209,0.099-0.412,0.148-0.61C36.503,47.408,36.614,47.002,36.725,46.607z"
       id="path8" /><path
       d="M28.36,46.232c0,0.169-0.037,0.344-0.111,0.522c-0.073,0.179-0.206,0.353-0.395,0.521   c-0.126,0.106-0.279,0.206-0.458,0.301c-0.18,0.094-0.386,0.142-0.618,0.142h-0.094c-0.148,0.063-0.354,0.133-0.618,0.206   c-0.264,0.075-0.521,0.163-0.775,0.269h0.032c-0.063,0.042-0.133,0.073-0.206,0.095c-0.073,0.021-0.142,0.053-0.206,0.094   c0.211,0.106,0.438,0.228,0.681,0.364c0.242,0.138,0.479,0.274,0.712,0.41c0.232,0.138,0.443,0.281,0.632,0.427   c0.19,0.148,0.327,0.274,0.412,0.38c0.189,0.254,0.284,0.506,0.284,0.759c0,0.252-0.106,0.485-0.317,0.696   c-0.274,0.252-0.58,0.378-0.918,0.378h-0.221c-0.295-0.063-0.553-0.189-0.775-0.378c-0.221-0.19-0.385-0.4-0.49-0.633   c-0.126-0.106-0.279-0.232-0.458-0.38c-0.179-0.147-0.354-0.305-0.521-0.475v0.032h-0.032c0,0.169,0.01,0.296,0.032,0.38   c0.021,0.211,0.036,0.422,0.046,0.632c0.01,0.211,0.017,0.38,0.017,0.507c0.126,0.295,0.189,0.558,0.189,0.79v0.284   c-0.085,0.38-0.248,0.66-0.49,0.839c-0.242,0.179-0.521,0.268-0.838,0.268c-0.337-0.021-0.628-0.136-0.87-0.347   c-0.242-0.21-0.364-0.538-0.364-0.981c0-0.295,0.032-0.637,0.095-1.027c0.063-0.39,0.127-0.764,0.19-1.123   c0-0.106,0.01-0.179,0.031-0.221c-0.063,0.042-0.131,0.09-0.205,0.143c-0.075,0.053-0.133,0.1-0.175,0.142   c-0.126,0.106-0.247,0.206-0.363,0.301c-0.117,0.094-0.228,0.174-0.332,0.237c-0.042,0.274-0.18,0.506-0.412,0.696   c-0.232,0.189-0.495,0.305-0.79,0.347h-0.221c-0.528,0-0.928-0.221-1.202-0.664c-0.106-0.169-0.158-0.347-0.158-0.538   c0-0.189,0.048-0.38,0.143-0.569c0.094-0.19,0.247-0.359,0.458-0.506c0.126-0.085,0.317-0.185,0.569-0.301   c0.254-0.116,0.528-0.247,0.822-0.395c0.19-0.106,0.38-0.201,0.57-0.284c0.189-0.085,0.368-0.179,0.537-0.284   c-0.042,0-0.084-0.022-0.126-0.064c-0.189-0.063-0.369-0.131-0.538-0.205c-0.169-0.075-0.315-0.143-0.443-0.206h-0.347   c-0.233,0-0.448-0.048-0.649-0.143c-0.201-0.094-0.374-0.257-0.521-0.49v0.032c-0.064-0.126-0.117-0.247-0.158-0.364   c-0.042-0.116-0.063-0.237-0.063-0.363c0-0.274,0.063-0.495,0.189-0.664c0.19-0.38,0.526-0.57,1.011-0.57   c0.211,0,0.412,0.042,0.601,0.127c0.296,0.106,0.591,0.268,0.887,0.489c0.295,0.221,0.579,0.427,0.853,0.618   c0.106,0.106,0.221,0.201,0.347,0.284v-1.297c0-0.358,0.005-0.7,0.017-1.027c0.01-0.327,0.036-0.575,0.078-0.744v0.032   c0.063-0.359,0.211-0.606,0.443-0.744c0.232-0.136,0.485-0.206,0.759-0.206c0.295,0,0.558,0.095,0.79,0.284   c0.233,0.19,0.349,0.454,0.349,0.791v0.126c-0.022,0.085-0.037,0.17-0.048,0.254c-0.012,0.084-0.027,0.179-0.048,0.284   c-0.085,0.359-0.169,0.732-0.254,1.122c-0.084,0.391-0.147,0.754-0.189,1.091c0.4-0.252,0.843-0.531,1.328-0.838   c0.485-0.305,0.843-0.511,1.076-0.616c0.147-0.042,0.274-0.073,0.38-0.095c0.104-0.021,0.21-0.031,0.315-0.031   c0.422,0,0.749,0.179,0.981,0.537v-0.031C28.307,45.789,28.36,45.979,28.36,46.232z"
       id="path10" /><path
       d="M56.668,42.809c-0.219-0.481-0.234-0.989-0.041-1.524c0.151-0.398,0.405-0.782,0.762-1.153   c0.645-0.659,1.483-1.187,2.512-1.586c1.113-0.411,2.156-0.542,3.13-0.391c1.262,0.193,2.176,0.831,2.739,1.915   c0.576,1.112,0.603,2.279,0.082,3.5c-0.193,0.426-0.467,0.892-0.824,1.4c-0.206,0.288-0.522,0.7-0.947,1.236l-0.041,0.061   c-0.59,0.728-0.995,1.277-1.215,1.647c-0.288,0.509-0.432,0.954-0.432,1.339c0,0.288-0.1,0.532-0.298,0.731   c-0.199,0.199-0.443,0.299-0.731,0.299s-0.532-0.1-0.731-0.299c-0.199-0.199-0.298-0.442-0.298-0.731   c0-0.755,0.24-1.544,0.72-2.367c0.261-0.453,0.713-1.084,1.359-1.894c0.013-0.028,0.034-0.049,0.061-0.062   c0.412-0.508,0.7-0.892,0.865-1.153c0.274-0.385,0.48-0.728,0.617-1.03c0.261-0.617,0.254-1.201-0.021-1.75   c-0.247-0.453-0.652-0.727-1.215-0.824c-0.617-0.096-1.317,0.007-2.099,0.309c-0.741,0.274-1.325,0.631-1.75,1.07   c-0.165,0.165-0.268,0.309-0.309,0.433v0.02c0.096,0.261,0.093,0.519-0.01,0.772c-0.103,0.254-0.278,0.436-0.525,0.545   c-0.261,0.123-0.525,0.134-0.793,0.031C56.966,43.252,56.778,43.07,56.668,42.809z M61.774,51.716l0.02,0.021l0.021,0.021h0.021   l0.02,0.02l0.021,0.021h0.02l0.021,0.02l0.021,0.021h0.02l0.021,0.02L62,51.881l0.021,0.021l0.02,0.02l0.021,0.021l0.041,0.02   c0.234,0.165,0.37,0.388,0.412,0.669c0.041,0.281-0.021,0.539-0.186,0.772c-0.164,0.233-0.388,0.37-0.669,0.411   c-0.281,0.041-0.539-0.02-0.772-0.185l-0.02-0.021l-0.021-0.02l-0.021-0.021l-0.02-0.02h-0.041l-0.021-0.021l-0.02-0.02   l-0.021-0.021l-0.021-0.021h-0.02l-0.021-0.02l-0.02-0.021l-0.021-0.02l-0.041-0.021c-0.219-0.165-0.354-0.388-0.401-0.669   c-0.049-0.281,0.013-0.535,0.185-0.762s0.398-0.364,0.679-0.411C61.303,51.493,61.555,51.552,61.774,51.716z"
       id="path12" /><path
       d="M72.83,42.809c-0.219-0.481-0.234-0.989-0.041-1.524c0.151-0.398,0.405-0.782,0.762-1.153   c0.645-0.659,1.483-1.187,2.512-1.586c1.113-0.411,2.156-0.542,3.13-0.391c1.262,0.193,2.176,0.831,2.739,1.915   c0.576,1.112,0.603,2.279,0.082,3.5c-0.193,0.426-0.467,0.892-0.824,1.4c-0.206,0.288-0.522,0.7-0.947,1.236L80.2,46.267   c-0.59,0.728-0.995,1.277-1.215,1.647c-0.288,0.509-0.432,0.954-0.432,1.339c0,0.288-0.1,0.532-0.298,0.731   c-0.199,0.199-0.443,0.299-0.731,0.299s-0.532-0.1-0.731-0.299c-0.199-0.199-0.298-0.442-0.298-0.731   c0-0.755,0.24-1.544,0.72-2.367c0.261-0.453,0.713-1.084,1.359-1.894c0.013-0.028,0.034-0.049,0.061-0.062   c0.412-0.508,0.7-0.892,0.865-1.153c0.274-0.385,0.48-0.728,0.617-1.03c0.261-0.617,0.254-1.201-0.021-1.75   c-0.247-0.453-0.652-0.727-1.215-0.824c-0.617-0.096-1.317,0.007-2.099,0.309c-0.741,0.274-1.325,0.631-1.75,1.07   c-0.165,0.165-0.268,0.309-0.309,0.433v0.02c0.096,0.261,0.093,0.519-0.01,0.772s-0.278,0.436-0.525,0.545   c-0.261,0.123-0.525,0.134-0.793,0.031C73.128,43.252,72.939,43.07,72.83,42.809z M77.936,51.716l0.02,0.021l0.021,0.021h0.021   l0.02,0.02l0.021,0.021h0.02l0.021,0.02l0.021,0.021h0.02l0.021,0.02l0.02,0.021l0.021,0.021l0.02,0.02l0.021,0.021l0.041,0.02   c0.234,0.165,0.37,0.388,0.412,0.669c0.041,0.281-0.021,0.539-0.186,0.772c-0.164,0.233-0.388,0.37-0.669,0.411   c-0.281,0.041-0.539-0.02-0.772-0.185l-0.02-0.021l-0.021-0.02l-0.021-0.021l-0.02-0.02h-0.041l-0.021-0.021l-0.02-0.02   l-0.021-0.021l-0.021-0.021h-0.02l-0.021-0.02l-0.02-0.021l-0.021-0.02l-0.041-0.021c-0.219-0.165-0.354-0.388-0.401-0.669   c-0.049-0.281,0.013-0.535,0.185-0.762s0.398-0.364,0.679-0.411C77.465,51.493,77.716,51.552,77.936,51.716z"
       id="path14" /><path
       d="M70.874,39.5c-0.028,0.069-0.054,0.233-0.082,0.493c-0.041,0.302-0.082,0.679-0.123,1.133   c-0.083,0.947-0.152,1.99-0.206,3.13c-0.041,1.208-0.055,2.23-0.041,3.068c0.013,0.439,0.034,0.796,0.061,1.07   c0.014,0.111,0.028,0.199,0.042,0.268h-0.021c0.137,0.247,0.165,0.508,0.082,0.782c-0.082,0.275-0.247,0.477-0.494,0.607   c-0.246,0.131-0.508,0.154-0.782,0.072c-0.275-0.082-0.481-0.247-0.618-0.494c-0.11-0.219-0.192-0.556-0.247-1.009   c-0.041-0.329-0.069-0.741-0.082-1.236c-0.013-0.892,0.007-1.963,0.062-3.212c0.041-1.18,0.103-2.258,0.185-3.232   c0.096-1.071,0.199-1.771,0.309-2.1c0.095-0.261,0.271-0.456,0.524-0.586c0.254-0.131,0.515-0.151,0.782-0.062   c0.268,0.09,0.467,0.261,0.597,0.514C70.953,38.962,70.97,39.226,70.874,39.5z M70.607,51.784c0.137,0.082,0.247,0.185,0.329,0.309   c0.261,0.357,0.288,0.72,0.082,1.091c-0.082,0.137-0.178,0.254-0.288,0.35c-0.069,0.054-0.144,0.096-0.226,0.123   c-0.137,0.069-0.288,0.11-0.453,0.124c-0.219,0.013-0.439-0.008-0.658-0.062c-0.165-0.055-0.309-0.123-0.432-0.206   c-0.302-0.205-0.473-0.48-0.515-0.824c-0.028-0.329,0.069-0.631,0.288-0.906c0.11-0.124,0.261-0.24,0.453-0.35   c0.233-0.151,0.491-0.195,0.772-0.134c0.281,0.062,0.49,0.216,0.627,0.463L70.607,51.784z"
       id="path16" /><g
       id="g20"><path
         d="M48.777,54.33c-0.076,0-0.152-0.002-0.229-0.006c-2.691-0.151-4.516-1.539-5.005-3.805    c-0.539-2.496,0.758-5.61,2.775-6.665c1.406-0.736,2.917-0.399,4.147,0.92c1.265,1.356,1.496,3.86,0.494,5.357    c-0.708,1.057-1.89,1.404-3.161,0.926c-1.26-0.474-1.938-1.428-1.812-2.551s1.083-2.191,2.091-2.33    c0.75-0.104,1.404,0.299,1.71,1.051c0.177,0.435-0.033,0.931-0.468,1.107c-0.427,0.173-0.912-0.025-1.097-0.443    c-0.188,0.101-0.498,0.423-0.545,0.792c-0.016,0.121-0.063,0.489,0.719,0.783c0.681,0.255,0.973-0.015,1.15-0.281    c0.513-0.766,0.482-2.387-0.324-3.252c-0.709-0.759-1.402-0.947-2.117-0.573c-1.221,0.638-2.317,2.874-1.901,4.799    c0.325,1.505,1.514,2.358,3.439,2.466c1.868,0.109,3.491-2.075,4.053-4.182c0.568-2.128-0.189-4.109-1.976-5.17    c-0.404-0.24-0.537-0.761-0.297-1.165c0.24-0.404,0.76-0.537,1.165-0.297c2.431,1.444,3.51,4.219,2.75,7.07    C53.607,51.629,51.476,54.33,48.777,54.33z M48.181,47.806L48.181,47.806L48.181,47.806z"
         id="path18" /></g></g></svg>