<?xml version="1.0" encoding="UTF-8" standalone="no"?>
<svg
   xmlns:dc="http://purl.org/dc/elements/1.1/"
   xmlns:cc="http://creativecommons.org/ns#"
   xmlns:rdf="http://www.w3.org/1999/02/22-rdf-syntax-ns#"
   xmlns:svg="http://www.w3.org/2000/svg"
   xmlns="http://www.w3.org/2000/svg"
   xmlns:sodipodi="http://sodipodi.sourceforge.net/DTD/sodipodi-0.dtd"
   xmlns:inkscape="http://www.inkscape.org/namespaces/inkscape"
   viewBox="0 0 100 100"
   version="1.1"
   x="0px"
   y="0px"
   id="svg12"
   sodipodi:docname="plus.svg"
   inkscape:version="0.92.1 r15371">
  <metadata
     id="metadata18">
    <rdf:RDF>
      <cc:Work
         rdf:about="">
        <dc:format>image/svg+xml</dc:format>
        <dc:type
           rdf:resource="http://purl.org/dc/dcmitype/StillImage" />
        <dc:title>Extra Extra Bold Plus</dc:title>
      </cc:Work>
    </rdf:RDF>
  </metadata>
  <defs
     id="defs16" />
  <sodipodi:namedview
     pagecolor="#ffffff"
     bordercolor="#666666"
     borderopacity="1"
     objecttolerance="10"
     gridtolerance="10"
     guidetolerance="10"
     inkscape:pageopacity="0"
     inkscape:pageshadow="2"
     inkscape:window-width="1920"
     inkscape:window-height="986"
     id="namedview14"
     showgrid="false"
     inkscape:zoom="2.36"
     inkscape:cx="50"
     inkscape:cy="50"
     inkscape:window-x="-11"
     inkscape:window-y="-11"
     inkscape:window-maximized="1"
     inkscape:current-layer="svg12" />
  <title
     id="title2">Extra Extra Bold Plus</title>
  <desc
     id="desc4">Created with Sketch.</desc>
  <g
     id="g10"
     transform="matrix(0.74657872,0,0,0.74657872,12.671064,12.671064)"
     style="fill:#f9f9f9;fill-rule:evenodd;stroke:none;stroke-width:1">
    <g
       id="g8"
       style="fill:#f9f9f9">
      <path
         d="M 46,46 V 18.887302 c 0,-2.209139 1.790861,-4 4,-4 2.209139,0 4,1.790861 4,4 V 46 h 27.112698 c 2.209139,0 4,1.790861 4,4 0,2.209139 -1.790861,4 -4,4 H 54 v 27.112698 c 0,2.209139 -1.790861,4 -4,4 -2.209139,0 -4,-1.790861 -4,-4 V 54 H 18.887302 c -2.209139,0 -4,-1.790861 -4,-4 0,-2.209139 1.790861,-4 4,-4 H 46 Z"
         id="path6"
         inkscape:connector-curvature="0"
         style="fill:#f9f9f9" />
    </g>
  </g>
</svg>
