<?xml version="1.0" encoding="UTF-8" standalone="no"?>
<svg
   xmlns:dc="http://purl.org/dc/elements/1.1/"
   xmlns:cc="http://creativecommons.org/ns#"
   xmlns:rdf="http://www.w3.org/1999/02/22-rdf-syntax-ns#"
   xmlns:svg="http://www.w3.org/2000/svg"
   xmlns="http://www.w3.org/2000/svg"
   xmlns:sodipodi="http://sodipodi.sourceforge.net/DTD/sodipodi-0.dtd"
   xmlns:inkscape="http://www.inkscape.org/namespaces/inkscape"
   version="1.1"
   x="0px"
   y="0px"
   viewBox="0 0 41.972363 41.972363"
   xml:space="preserve"
   id="svg8"
   sodipodi:docname="plus_rond_bord_blanc.svg"
   inkscape:version="0.92.1 r15371"
   width="41.972363"
   height="41.972363"><metadata
     id="metadata14"><rdf:RDF><cc:Work
         rdf:about=""><dc:format>image/svg+xml</dc:format><dc:type
           rdf:resource="http://purl.org/dc/dcmitype/StillImage" /><dc:title>Png 48px Solid - 70 Basic Icons</dc:title></cc:Work></rdf:RDF></metadata><defs
     id="defs12" /><sodipodi:namedview
     pagecolor="#ffffff"
     bordercolor="#666666"
     borderopacity="1"
     objecttolerance="10"
     gridtolerance="10"
     guidetolerance="10"
     inkscape:pageopacity="1"
     inkscape:pageshadow="2"
     inkscape:window-width="1920"
     inkscape:window-height="986"
     id="namedview10"
     showgrid="false"
     inkscape:zoom="9.8171388"
     inkscape:cx="-14.615316"
     inkscape:cy="23.240855"
     inkscape:window-x="-11"
     inkscape:window-y="-11"
     inkscape:window-maximized="1"
     inkscape:current-layer="svg8"
     fit-margin-top="0"
     fit-margin-left="0"
     fit-margin-right="0"
     fit-margin-bottom="0"
     inkscape:snap-global="false" /><title
     id="title2">Png 48px Solid - 70 Basic Icons</title><rect
     style="opacity:1;fill:#ffffff;fill-opacity:1;stroke:#000000;stroke-width:0.16340664;stroke-linejoin:round;stroke-miterlimit:4;stroke-dasharray:none;stroke-dashoffset:0;stroke-opacity:1"
     id="rect4484"
     width="27.787437"
     height="25.501129"
     x="7.2243629"
     y="8.3675175" /><path
     inkscape:connector-curvature="0"
     style="fill:#125e6b;stroke-width:0.99031484;fill-opacity:1"
     id="path4"
     d="m 20.98618,0.18956941 c -11.4876515,0 -20.79661083,9.30895939 -20.79661083,20.79661059 0,11.487652 9.30895933,20.796612 20.79661083,20.796612 11.487652,0 20.796612,-9.30896 20.796612,-20.796612 0,-11.4876512 -9.30896,-20.79661059 -20.796612,-20.79661059 z M 28.908699,22.96681 H 22.96681 v 6.04092 c 0,1.089347 -0.891283,1.98063 -1.98063,1.98063 -1.089346,0 -1.980629,-0.891283 -1.980629,-1.98063 v -6.04092 h -5.941889 c -1.089347,0 -1.98063,-0.891283 -1.98063,-1.98063 0,-1.089346 0.891283,-1.980629 1.98063,-1.980629 h 5.941889 V 12.96463 c 0,-1.089346 0.891283,-1.980629 1.980629,-1.980629 1.089347,0 1.98063,0.891283 1.98063,1.980629 v 6.040921 h 5.941889 c 1.089346,0 1.980629,0.891283 1.980629,1.980629 0,1.089347 -0.891283,1.98063 -1.980629,1.98063 z" /></svg>