<?xml version="1.0" encoding="UTF-8" standalone="no"?>
<svg
   xmlns:dc="http://purl.org/dc/elements/1.1/"
   xmlns:cc="http://creativecommons.org/ns#"
   xmlns:rdf="http://www.w3.org/1999/02/22-rdf-syntax-ns#"
   xmlns:svg="http://www.w3.org/2000/svg"
   xmlns="http://www.w3.org/2000/svg"
   xmlns:sodipodi="http://sodipodi.sourceforge.net/DTD/sodipodi-0.dtd"
   xmlns:inkscape="http://www.inkscape.org/namespaces/inkscape"
   version="1.1"
   x="0px"
   y="0px"
   viewBox="0 0 100 100"
   style="enable-background:new 0 0 100 100;"
   xml:space="preserve"
   id="svg6"
   sodipodi:docname="scroll.svg"
   inkscape:version="0.92.3 (2405546, 2018-03-11)"><metadata
     id="metadata12"><rdf:RDF><cc:Work
         rdf:about=""><dc:format>image/svg+xml</dc:format><dc:type
           rdf:resource="http://purl.org/dc/dcmitype/StillImage" /><dc:title></dc:title></cc:Work></rdf:RDF></metadata><defs
     id="defs10" /><sodipodi:namedview
     pagecolor="#ffffff"
     bordercolor="#666666"
     borderopacity="1"
     objecttolerance="10"
     gridtolerance="10"
     guidetolerance="10"
     inkscape:pageopacity="0"
     inkscape:pageshadow="2"
     inkscape:window-width="1600"
     inkscape:window-height="836"
     id="namedview8"
     showgrid="false"
     inkscape:zoom="2.36"
     inkscape:cx="3.3898305"
     inkscape:cy="50"
     inkscape:window-x="0"
     inkscape:window-y="27"
     inkscape:window-maximized="1"
     inkscape:current-layer="svg6" /><g
     id="g4"
     style="fill:#f58021;fill-opacity:1;stroke:#f58021;stroke-opacity:1"><path
       d="M 50,0 23.919,26.081 h 52.162 z m 0,5.524 16.65,16.65 H 33.349 Z M 50,100 76.081,73.919 H 23.919 Z M 50,94.476 33.349,77.826 H 66.65 Z M 32.602,50 c 0,9.609 7.79,17.398 17.398,17.398 9.609,0 17.398,-7.789 17.398,-17.398 0,-9.609 -7.789,-17.398 -17.398,-17.398 -9.609,0 -17.398,7.789 -17.398,17.398 z m 30.89,0 c 0,7.439 -6.053,13.492 -13.492,13.492 -7.439,0 -13.492,-6.053 -13.492,-13.492 0,-7.439 6.053,-13.492 13.492,-13.492 7.439,0 13.492,6.053 13.492,13.492 z"
       id="path2"
       inkscape:connector-curvature="0"
       style="fill:#f58021;fill-opacity:1;stroke:#f58021;stroke-opacity:1" /></g></svg>