<?xml version="1.0" encoding="UTF-8" standalone="no"?>
<svg
   xmlns:dc="http://purl.org/dc/elements/1.1/"
   xmlns:cc="http://creativecommons.org/ns#"
   xmlns:rdf="http://www.w3.org/1999/02/22-rdf-syntax-ns#"
   xmlns:svg="http://www.w3.org/2000/svg"
   xmlns="http://www.w3.org/2000/svg"
   xmlns:sodipodi="http://sodipodi.sourceforge.net/DTD/sodipodi-0.dtd"
   xmlns:inkscape="http://www.inkscape.org/namespaces/inkscape"
   version="1.1"
   x="0px"
   y="0px"
   viewBox="0 0 90 90"
   enable-background="new 0 0 90 90"
   xml:space="preserve"
   id="svg34"
   sodipodi:docname="destroy.svg"
   inkscape:version="0.92.3 (2405546, 2018-03-11)"><metadata
     id="metadata40"><rdf:RDF><cc:Work
         rdf:about=""><dc:format>image/svg+xml</dc:format><dc:type
           rdf:resource="http://purl.org/dc/dcmitype/StillImage" /><dc:title></dc:title></cc:Work></rdf:RDF></metadata><defs
     id="defs38" /><sodipodi:namedview
     pagecolor="#ffffff"
     bordercolor="#666666"
     borderopacity="1"
     objecttolerance="10"
     gridtolerance="10"
     guidetolerance="10"
     inkscape:pageopacity="0"
     inkscape:pageshadow="2"
     inkscape:window-width="1600"
     inkscape:window-height="836"
     id="namedview36"
     showgrid="false"
     inkscape:zoom="2.6222222"
     inkscape:cx="2.6694915"
     inkscape:cy="45"
     inkscape:window-x="0"
     inkscape:window-y="27"
     inkscape:window-maximized="1"
     inkscape:current-layer="svg34" /><path
     d="M51.9,27.4c0.3-0.6,0.4-1.2,0.4-1.9c0-2.7-2.2-4.8-4.8-4.8H34.9c-2.7,0-4.8,2.2-4.8,4.8c0,0.7,0.2,1.3,0.4,1.9  c-11.5,4.3-19.6,15.4-19.6,28.3C10.9,72.4,24.5,86,41.2,86s30.3-13.5,30.3-30.3C71.5,42.8,63.3,31.7,51.9,27.4z"
     id="path2"
     style="fill:#d40000" /><circle
     cx="69.8"
     cy="12"
     r="1.7"
     id="circle4"
     style="fill:#d40000" /><circle
     cx="69.8"
     cy="7.1"
     r="1.1"
     id="circle6"
     style="fill:#d40000" /><circle
     cx="69.8"
     cy="24.8"
     r="1.7"
     id="circle8"
     style="fill:#d40000" /><circle
     cx="69.8"
     cy="29.8"
     r="1.1"
     id="circle10"
     style="fill:#d40000" /><circle
     cx="74.3"
     cy="13.9"
     r="1.7"
     id="circle12"
     style="fill:#d40000" /><circle
     cx="77.8"
     cy="10.4"
     r="1.1"
     id="circle14"
     style="fill:#d40000" /><circle
     cx="65.3"
     cy="23"
     r="1.7"
     id="circle16"
     style="fill:#d40000" /><circle
     cx="61.8"
     cy="26.5"
     r="1.1"
     id="circle18"
     style="fill:#d40000" /><circle
     cx="76.2"
     cy="18.4"
     r="1.7"
     id="circle20"
     style="fill:#d40000" /><circle
     cx="81.1"
     cy="18.4"
     r="1.1"
     id="circle22"
     style="fill:#d40000" /><circle
     cx="74.3"
     cy="23"
     r="1.7"
     id="circle24"
     style="fill:#d40000" /><circle
     cx="77.8"
     cy="26.5"
     r="1.1"
     id="circle26"
     style="fill:#d40000" /><circle
     cx="65.3"
     cy="13.9"
     r="1.7"
     id="circle28"
     style="fill:#d40000" /><circle
     cx="61.8"
     cy="10.4"
     r="1.1"
     id="circle30"
     style="fill:#d40000" /><path
     d="M69.8,16.5C69.7,16.5,69.7,16.5,69.8,16.5c-5.9,0-12.1,0.8-12.1-4c0-5.4-3.1-8.3-9.1-8.3c-5.1,0-8.5,3.2-8.5,8v6.9h3.4v-6.9  c0-2.9,1.9-4.6,5.2-4.6c4.7,0,5.7,2,5.7,4.9c0,7.4,9,7.4,15.5,7.4c0.9,0,1.7-0.8,1.7-1.7C71.5,17.3,70.7,16.5,69.8,16.5z"
     id="path32"
     style="fill:#d40000" /></svg>