<?xml version="1.0" encoding="UTF-8" standalone="no"?>
<svg
   xmlns:dc="http://purl.org/dc/elements/1.1/"
   xmlns:cc="http://creativecommons.org/ns#"
   xmlns:rdf="http://www.w3.org/1999/02/22-rdf-syntax-ns#"
   xmlns:svg="http://www.w3.org/2000/svg"
   xmlns="http://www.w3.org/2000/svg"
   xmlns:sodipodi="http://sodipodi.sourceforge.net/DTD/sodipodi-0.dtd"
   xmlns:inkscape="http://www.inkscape.org/namespaces/inkscape"
   version="1.1"
   x="0px"
   y="0px"
   viewBox="0 0 100 100"
   style="enable-background:new 0 0 100 100;"
   xml:space="preserve"
   id="svg12"
   sodipodi:docname="plus.svg"
   inkscape:version="0.92.3 (2405546, 2018-03-11)"><metadata
     id="metadata18"><rdf:RDF><cc:Work
         rdf:about=""><dc:format>image/svg+xml</dc:format><dc:type
           rdf:resource="http://purl.org/dc/dcmitype/StillImage" /><dc:title></dc:title></cc:Work></rdf:RDF></metadata><defs
     id="defs16" /><sodipodi:namedview
     pagecolor="#ffffff"
     bordercolor="#666666"
     borderopacity="1"
     objecttolerance="10"
     gridtolerance="10"
     guidetolerance="10"
     inkscape:pageopacity="0"
     inkscape:pageshadow="2"
     inkscape:window-width="1600"
     inkscape:window-height="836"
     id="namedview14"
     showgrid="false"
     inkscape:zoom="2.36"
     inkscape:cx="2.4536978"
     inkscape:cy="73.288483"
     inkscape:window-x="0"
     inkscape:window-y="27"
     inkscape:window-maximized="1"
     inkscape:current-layer="g4" /><g
     id="g6"><path
       d="M 83.3,2.5 H 16.7 C 8.9,2.5 2.5,8.9 2.5,16.7 v 66.5 c 0,7.8 6.4,14.2 14.2,14.2 H 83.2 C 91,97.4 97.4,91 97.4,83.2 V 16.7 C 97.5,8.9 91.1,2.5 83.3,2.5 Z M 86,83.3 C 86,84.8 84.8,86 83.3,86 H 16.7 C 15.2,86 14,84.8 14,83.3 V 16.7 C 14,15.2 15.2,14 16.7,14 h 66.5 c 1.5,0 2.7,1.2 2.7,2.7 v 66.6 z"
       id="path4"
       inkscape:connector-curvature="0"
       style="fill:#008000" /><g
       transform="matrix(1.3178573,0,0,1.3178573,-15.942286,-1271.0204)"
       id="g4"
       style="fill:#008000;stroke-width:0.1517615;stroke-miterlimit:4;stroke-dasharray:none"><path
         inkscape:connector-curvature="0"
         d="m 50.121876,1022.0193 c -1.063308,-0.01 -2.103372,-0.3686 -2.952387,-1.0575 -0.423947,-0.2931 -14.160449,-13.9562 -14.160449,-13.9562 -3.814145,-3.4336 1.730909,-9.37159 5.437551,-6.0343 l 6.726264,5.5559 v -19.3779 c -0.04486,-2.58261 2.474307,-3.86327 4.928122,-3.80718 2.475836,-0.0573 4.994245,1.22342 4.94899,3.80718 v 19.3779 l 6.726295,-5.5559 c 3.707004,-3.33729 9.252038,2.6007 5.437892,6.0343 0,0 -13.736894,13.6631 -14.160433,13.9562 -0.849372,0.6882 -1.889844,1.0494 -2.931845,1.0575 z"
         id="path2"
         style="stroke-width:0.05869999" /></g></g></svg>