<?xml version="1.0" encoding="UTF-8" standalone="no"?>
<svg
   xmlns:dc="http://purl.org/dc/elements/1.1/"
   xmlns:cc="http://creativecommons.org/ns#"
   xmlns:rdf="http://www.w3.org/1999/02/22-rdf-syntax-ns#"
   xmlns:svg="http://www.w3.org/2000/svg"
   xmlns="http://www.w3.org/2000/svg"
   xmlns:sodipodi="http://sodipodi.sourceforge.net/DTD/sodipodi-0.dtd"
   xmlns:inkscape="http://www.inkscape.org/namespaces/inkscape"
   version="1.1"
   x="0px"
   y="0px"
   viewBox="0 0 32 32"
   style="enable-background:new 0 0 32 32;"
   xml:space="preserve"
   id="svg6"
   sodipodi:docname="question.svg"
   inkscape:version="0.92.3 (2405546, 2018-03-11)"><metadata
     id="metadata12"><rdf:RDF><cc:Work
         rdf:about=""><dc:format>image/svg+xml</dc:format><dc:type
           rdf:resource="http://purl.org/dc/dcmitype/StillImage" /><dc:title /></cc:Work></rdf:RDF></metadata><defs
     id="defs10" /><sodipodi:namedview
     pagecolor="#ffffff"
     bordercolor="#666666"
     borderopacity="1"
     objecttolerance="10"
     gridtolerance="10"
     guidetolerance="10"
     inkscape:pageopacity="0"
     inkscape:pageshadow="2"
     inkscape:window-width="1600"
     inkscape:window-height="836"
     id="namedview8"
     showgrid="false"
     inkscape:zoom="7.375"
     inkscape:cx="-17.966102"
     inkscape:cy="5.1525424"
     inkscape:window-x="0"
     inkscape:window-y="27"
     inkscape:window-maximized="1"
     inkscape:current-layer="svg6" /><style
     type="text/css"
     id="style2">
	.st0{fill-rule:evenodd;clip-rule:evenodd;}
</style><path
     class="st0"
     d="M 28,0 H 4 C 1.8,0 0,1.8 0,4 v 24 c 0,2.2 1.8,4 4,4 h 24 c 2.2,0 4,-1.8 4,-4 V 4 C 32,1.8 30.2,0 28,0 Z m 0,26 c 0,1.1 -0.9,2 -2,2 H 6 C 4.9,28 4,27.1 4,26 V 6 C 4,4.9 4.9,4 6,4 h 20 c 1.1,0 2,0.9 2,2 z"
     id="path4"
     style="clip-rule:evenodd;fill:#ffcc00;fill-rule:evenodd"
     inkscape:connector-curvature="0"
     sodipodi:nodetypes="ssssssssssssssssss" /><g
     transform="matrix(0.24254822,0,0,0.24254822,9.101695,5.1847117)"
     style="image-rendering:optimizeQuality;shape-rendering:geometricPrecision;text-rendering:geometricPrecision;fill:#ffcc00"
     id="g8"><path
       class="fil0"
       d="M 0,24 C 0,-7 58,-9 58,23 58,42 39,41 35,59 33,68 21,67 21,57 21,40 35,39 41,28 45,20 38,12 30,12 13,12 19,31 8,31 4,31 0,28 0,24 Z m 28,64 c -12,0 -11,-18 0,-18 12,0 12,18 0,18 z"
       id="path6"
       inkscape:connector-curvature="0"
       style="fill:#ffcc00" /></g></svg>