<?xml version="1.0" encoding="UTF-8" standalone="no"?>
<svg
   xmlns:dc="http://purl.org/dc/elements/1.1/"
   xmlns:cc="http://creativecommons.org/ns#"
   xmlns:rdf="http://www.w3.org/1999/02/22-rdf-syntax-ns#"
   xmlns:svg="http://www.w3.org/2000/svg"
   xmlns="http://www.w3.org/2000/svg"
   xmlns:sodipodi="http://sodipodi.sourceforge.net/DTD/sodipodi-0.dtd"
   xmlns:inkscape="http://www.inkscape.org/namespaces/inkscape"
   version="1.1"
   x="0px"
   y="0px"
   viewBox="0 0 100 100"
   enable-background="new 0 0 100 100"
   xml:space="preserve"
   id="svg4"
   sodipodi:docname="alimentation.svg"
   inkscape:version="0.92.4 (5da689c313, 2019-01-14)"><metadata
     id="metadata10"><rdf:RDF><cc:Work
         rdf:about=""><dc:format>image/svg+xml</dc:format><dc:type
           rdf:resource="http://purl.org/dc/dcmitype/StillImage" /><dc:title></dc:title></cc:Work></rdf:RDF></metadata><defs
     id="defs8" /><sodipodi:namedview
     pagecolor="#ffffff"
     bordercolor="#666666"
     borderopacity="1"
     objecttolerance="10"
     gridtolerance="10"
     guidetolerance="10"
     inkscape:pageopacity="0"
     inkscape:pageshadow="2"
     inkscape:window-width="1600"
     inkscape:window-height="836"
     id="namedview6"
     showgrid="false"
     inkscape:zoom="2.36"
     inkscape:cx="2.7542373"
     inkscape:cy="50"
     inkscape:window-x="0"
     inkscape:window-y="27"
     inkscape:window-maximized="1"
     inkscape:current-layer="svg4" /><path
     d="M97.612,43.684c-0.05-0.316-0.097-0.635-0.129-0.858c-0.064-0.438-0.119-0.803-0.149-0.932  c-0.373-1.574-0.818-3.147-1.323-4.675c-1.182-3.572-2.726-7.018-4.591-10.243c-3.779-6.533-8.95-12.209-14.953-16.416  c-5.35-3.749-11.681-6.316-18.256-7.609c2.57,0.294,5.129,0.78,7.65,1.495l0.273-0.962C59.489,1.6,52.596,1.19,45.889,2.057  c-4.493,0.224-8.891,1.054-12.956,2.554c-7.063,2.606-13.334,7.062-18.35,12.868c-3.321,3.377-6.154,7.231-8.366,11.481  c0.175-0.541,0.345-1.082,0.534-1.623l-0.943-0.331c-1.081,3.081-1.927,6.172-2.555,9.251c-2.605,8.672-2.441,18.228,0.387,27.298  c2.473,9.817,7.558,18.518,15.031,24.994c0.205,0.177,0.511,0.16,0.694-0.038c0.032-0.035,0.059-0.073,0.079-0.113  c0.754,0.47,1.758,1.079,3.093,1.878l0.481,0.289c2.212,1.352,4.572,2.537,7.014,3.522c2.706,1.092,5.503,1.938,8.367,2.543  c-5.687-0.923-11.219-2.582-16.93-4.296c-1.282-0.385-2.573-0.771-3.875-1.153l-0.281,0.959c1.3,0.382,2.588,0.768,3.869,1.152  c8.679,2.604,16.95,5.085,26.014,5.085c1.63,0,3.287-0.08,4.976-0.255c11.024-1.139,21.741-5.507,30.527-12.392  c-0.035,0.047-0.07,0.094-0.105,0.141c-0.149,0.199-0.129,0.479,0.048,0.654s0.455,0.195,0.654,0.044  c0.848-0.642,1.478-1.437,1.879-2.371c0.274-0.34,0.549-0.677,0.82-1.011c2.062-2.533,4.194-5.153,5.706-8.161  c0.479-0.953,0.885-1.949,1.25-2.965l0.757,0.286C96.677,64.51,98,55.82,98,44.171C98,43.934,97.835,43.735,97.612,43.684z   M4.281,36.26c0.486-1.578,1.069-3.124,1.745-4.631c-0.126,0.316-0.264,0.625-0.385,0.945c-0.663,1.752-1.225,3.523-1.688,5.303  C4.052,37.338,4.169,36.799,4.281,36.26z M6.577,32.927c2.097-5.544,5.086-10.539,8.762-14.794  C23.443,9.91,34.441,4.541,46.005,3.046c10.441-0.51,21.416,2.397,29.888,8.333c0.915,0.641,1.803,1.329,2.676,2.037  C72.6,8.931,65.538,5.694,57.91,4.181C44.758,1.57,30.848,5.926,19.742,16.125c-8,7.347-13.512,16.854-15.795,26.666  C4.474,39.479,5.35,36.172,6.577,32.927z M93.597,44.509c-1.087-8.087-4.06-15.337-8.556-21.225  c2.925,3.725,5.236,8.024,6.834,12.812c2.939,8.805,3.143,18.428,0.947,27.084c-1.037,3.4-2.206,6.588-3.619,9.546  c-1.27,2.401-2.764,4.64-4.479,6.653c-1.967,2.308-4.179,4.388-6.575,6.252c0.695-0.574,1.384-1.165,2.061-1.783  C90.623,74.333,95.627,59.627,93.597,44.509z M84.743,77.297c2.714-4.184,4.611-8.554,6.009-12.167  c0.306-0.79,0.571-1.593,0.818-2.4C90.202,68.037,87.903,72.988,84.743,77.297z M92.399,43.373  c-2.157-10.932-8.526-21.103-17.903-26.871c-4.011-2.468-8.498-4.188-13.191-5.186c-0.417-0.12-0.826-0.255-1.248-0.365  c-5.338-1.387-10.654-1.777-15.718-1.245c0.679-0.308,1.332-0.668,1.936-1.119c8.499-0.953,17.354,0.547,25.077,4.501  C82.611,18.855,90.22,29.852,92.399,43.373z M54.462,92.979c-0.077-0.187-0.26-0.309-0.462-0.309c-0.469,0-0.932-0.029-1.398-0.04  c2.535-0.346,5.093-0.919,7.654-1.753C69.095,88,76.937,82.382,82.521,75.255c-6.964,9.154-17.124,15.753-28.063,18.119  C54.512,93.251,54.516,93.108,54.462,92.979z M59.946,89.927c-2.505,0.816-5.006,1.376-7.484,1.713  c0.212-0.078,0.409-0.149,0.573-0.209c0.562-0.204,1.033-0.376,1.262-0.478c2.376-1.058,4.526-2.077,6.572-3.119  c1.852-0.942,3.587-1.892,5.232-2.852c6.251-3.045,11.312-7.075,15.04-11.927c3.299-3.8,6.217-8.521,7.578-14.159  c0.116-0.199,0.24-0.4,0.366-0.603c0.203-0.328,0.415-0.675,0.606-1.034c-0.364,2.047-0.894,4.08-1.618,6.082  C83.663,75.526,72.885,85.713,59.946,89.927z M43.014,13.48c0.673-0.045,1.347-0.06,2.021-0.066  c-6.541,0.638-12.797,2.943-18.13,6.849C32.028,15.971,37.083,13.879,43.014,13.48z M33.882,13.699  c0.33-0.284,0.688-0.527,1.057-0.75c1.207-0.458,2.444-0.848,3.704-1.18C37.02,12.297,35.428,12.936,33.882,13.699z M86.666,50.729  c0.24,1.743,0.418,3.48,0.571,5.208c-0.89,6.159-3.206,11.695-6.83,16.437c-0.795,0.918-1.61,1.785-2.435,2.594  c1.503-1.777,2.861-3.707,4.023-5.806c2.206-3.988,3.381-8.259,3.717-12.58C86.178,54.634,86.504,52.679,86.666,50.729z   M86.009,40.256c1.05,3.278,1.604,6.724,1.618,10.26c-0.245-1.73-0.541-3.476-0.908-5.225  C86.607,43.594,86.361,41.915,86.009,40.256z M44.006,88.039c-0.744-0.184-1.582-0.375-2.482-0.58  c-5.666-1.292-14.228-3.245-17.108-7.565c-0.877-1.316-1.813-2.518-2.763-3.666c1.436,1.428,2.994,2.736,4.65,3.927  c2.703,2.148,5.64,3.922,8.717,5.196c3.449,1.429,7.007,2.239,10.574,2.409c0.022-0.01,1.043-0.033,2.418-0.11  c4.124,0.193,8.124-0.252,11.897-1.266C54.842,88.541,49.391,89.366,44.006,88.039z M46.98,89.555  c-1.598,0.137-3.194,0.168-4.753,0.049c-4.025-0.312-8.086-1.807-12.278-4.517c3.669,1.59,8.001,2.583,11.353,3.347  c0.895,0.204,1.727,0.395,2.466,0.576C44.837,89.274,45.91,89.447,46.98,89.555z M53.354,84.856  c0.194,0.472,0.638,0.649,0.961,0.778c0.085,0.034,0.175,0.07,0.249,0.107c-0.86,0.424-3.889,0.747-6.222,0.909  c-0.696-0.029-1.392-0.06-2.097-0.125c-7.051-0.648-13.578-3.105-19.011-6.917c-0.756-0.588-1.492-1.204-2.208-1.853  c0.404,0.211,0.803,0.427,1.239,0.611c3.123,1.319,6.745,2.722,10.562,3.771c5.308,2.14,11.021,2.899,16.658,2.055  c-0.04,0.041-0.07,0.081-0.092,0.119C53.295,84.488,53.281,84.682,53.354,84.856z M48.116,82.754  c-0.934,0.019-1.874-0.009-2.814-0.078c-2.089-0.197-4.091-0.584-5.928-1.15c-12.04-3.715-20.355-14.179-20.798-26.097  c0.124,0.596,0.251,1.189,0.399,1.775c0.122,0.581,0.259,1.163,0.412,1.744c1.01,3.85,2.586,7.24,4.586,10.135  c3.138,5.307,7.702,9.407,13.611,10.976c7.733,3.283,16.65,3.163,25.073-0.768c6.146-2.868,11.116-8.069,14.189-14.072  c-0.873,2.405-2.006,4.672-3.467,6.679c-2.711,3.726-6.585,6.454-10.928,8.254C57.76,81.862,52.731,82.66,48.116,82.754z   M27.667,23.544c0.102,0.091,0.23,0.134,0.358,0.127c-0.09,0.162-0.18,0.331-0.27,0.494c-4.522,3.357-8.057,8.179-9.395,15.305  c-0.646,3.441-0.808,6.996-0.545,10.504c-0.207,1.708-0.304,3.432-0.26,5.172c0.117,4.59,1.366,8.975,3.518,12.881  c-4.194-6.151-7.155-14.414-6.233-23.08c0.228-0.909,0.467-1.823,0.711-2.745c0.193-0.729,0.387-1.462,0.576-2.201  c0.348-1.36,0.753-2.805,1.245-4.282c0.598-1.31,1.302-2.615,2.126-3.91c2.182-3.431,4.987-6.47,8.179-9.026  c-0.021,0.026-0.046,0.049-0.067,0.075C27.444,23.066,27.469,23.367,27.667,23.544z M21.801,41.223  c1.325-3.244,3.292-6.226,5.73-8.842c-0.145,0.198-0.285,0.402-0.421,0.613c-2.004,3.115-3.415,6.503-4.297,10.278  c-1.721,3.311-2.871,6.95-1.878,11.556c1.371,6.354,5.25,12.327,10.486,16.679c-0.314-0.202-0.626-0.406-0.934-0.624  C21.44,64.472,17.625,51.443,21.801,41.223z M18.828,43.448c0.109-1.275,0.28-2.542,0.515-3.793c1.083-5.769,3.686-9.971,7.1-13.089  c-0.197,0.364-0.397,0.717-0.593,1.083c-2.273,2.743-3.987,5.94-5.15,9.544C19.876,39.186,19.246,41.281,18.828,43.448z   M48.347,23.38c2.212,0.236,4.432,0.67,6.603,1.286c-2.794-0.622-5.712-0.72-8.705-0.272c-1.537,0.23-3.032,0.594-4.472,1.08  c-0.484,0.087-0.967,0.183-1.449,0.289c-0.685,0.149-1.382,0.311-2.082,0.487C41.439,24.005,44.901,23.011,48.347,23.38z   M45.705,22.099c1.884-0.418,3.805-0.678,5.741-0.77c0.718,0.127,1.438,0.271,2.157,0.449  C50.982,21.598,48.329,21.712,45.705,22.099z M66.938,65.784c-1.941,2.007-4.248,3.717-6.724,5.049  c2.972-2.144,5.118-5.082,6.376-8.725c0.485-0.727,0.931-1.473,1.3-2.248c0.396-0.541,0.767-1.098,1.112-1.668  c2.577-4.256,3.225-9.205,1.936-14.05c0.832,2.003,1.433,4.06,1.716,6.098C73.407,55.673,71.378,61.193,66.938,65.784z   M70.289,63.253c-0.008,0.016-0.016,0.031-0.023,0.047c-0.034,0.043-0.07,0.083-0.104,0.126  C70.202,63.367,70.249,63.312,70.289,63.253z M52.361,75.704c-6.1,0.577-12.588-1.033-18.105-4.446  c1.07,0.28,2.16,0.494,3.261,0.649c2.598,1.597,5.553,2.676,8.817,3.019c6.962,0.729,14.96-2.309,20.633-7.773  c-0.163,0.179-0.321,0.365-0.485,0.542c-1.765,1.896-3.63,3.698-5.586,5.397C58.308,74.52,55.429,75.414,52.361,75.704z   M52.985,77.044c-2.614,0.449-5.315,0.43-8.036-0.074C47.723,77.244,50.445,77.227,52.985,77.044z M33.513,70.783  c-0.312-0.206-0.622-0.418-0.927-0.636c-7.82-5.574-10.962-13.62-9.341-23.914c0.142-0.9,0.32-1.77,0.518-2.626  c0.646-1.224,1.377-2.424,2.124-3.641c0.377-0.615,0.754-1.237,1.125-1.865c-0.744,1.397-1.383,2.872-1.889,4.42  c-2.808,8.592,1.462,22.092,8.537,27.785c-0.082,0.076-0.139,0.18-0.155,0.298C33.496,70.665,33.5,70.726,33.513,70.783z   M25.463,47.643c-0.077,0.424-0.124,0.851-0.172,1.277c-0.045-2.187,0.187-4.27,0.781-6.088c0.333-1.018,0.724-2.002,1.165-2.954  C26.291,42.459,25.665,45.105,25.463,47.643z M26.562,47.286c-0.067,0.474-0.114,0.95-0.148,1.427  c0.005-0.157,0.001-0.315,0.01-0.472c0.009-0.161,0.02-0.323,0.033-0.484C26.486,47.598,26.529,47.442,26.562,47.286z   M30.637,46.083c-0.729,3.693-0.271,7.503,1.297,10.99c1.113,3.257,3.151,6.117,6.047,8.442c3.975,3.192,9.045,4.536,13.983,4.009  c-1.686,0.538-3.414,0.959-5.16,1.236c-0.987-0.027-1.976-0.12-2.954-0.278c-5.238-0.851-9.84-3.935-12.958-8.686  c-3.254-4.958-4.328-10.925-2.946-16.372c0.603-2.378,1.5-4.576,2.646-6.556c0.346-0.426,0.709-0.841,1.095-1.244  c-0.056,0.158-0.126,0.306-0.168,0.472C30.784,40.671,30.497,43.378,30.637,46.083z M69.457,50.268  c-0.227-2.013-0.813-4.013-1.696-5.915c-0.314-2.636-0.956-5.167-2.174-7.271c1.166,0.971,2.178,2.145,2.966,3.563  c2.433,4.864,2.68,10.102,0.764,14.721C69.603,53.716,69.652,52.007,69.457,50.268z M68.014,47.983  c0.206,0.792,0.359,1.593,0.449,2.396c0.298,2.653-0.017,5.229-0.889,7.622c0.141-0.938,0.247-1.9,0.292-2.907l0.016-0.33  C67.975,52.698,68.077,50.36,68.014,47.983z M51.475,73.013c-0.06-0.18-0.217-0.31-0.404-0.337c-1.487-0.213-2.927-0.499-4.323-0.84  c0.165-0.024,0.33-0.042,0.494-0.068c6.137,0.087,12.269-2.253,16.607-6.385c0.067-0.064,0.125-0.134,0.191-0.198  c-2.578,4.262-6.846,7.089-12.606,8.235C51.504,73.298,51.521,73.15,51.475,73.013z M32.031,65.658  c2.542,2.243,5.698,4.094,9.288,5.503c-1.181-0.013-2.353-0.093-3.509-0.244C35.591,69.518,33.649,67.721,32.031,65.658z   M35.53,70.533c-0.018-0.004-0.035-0.006-0.053-0.01c-0.008-0.026-0.037-0.041-0.049-0.065  C35.462,70.484,35.497,70.508,35.53,70.533z M44.078,72.129c1.867,0.576,3.823,1.051,5.871,1.387l-0.302,0.302  c-0.052,0.052-0.09,0.112-0.115,0.178c-1.051,0.062-2.088,0.04-3.093-0.063c-2.297-0.241-4.435-0.864-6.395-1.785  C41.383,72.223,42.731,72.221,44.078,72.129z M55.832,69.226c2.196-0.968,4.271-2.154,6.155-3.534  C60.16,67.184,58.068,68.374,55.832,69.226z M60.286,65.446c-2.765,1.887-5.931,2.934-9.128,3.154c1.122-0.172,2.206-0.52,3.245-1  c3.582-0.831,6.759-2.899,9.072-5.962c0.737-0.976,1.367-2.035,1.896-3.149C64.431,61.408,62.707,63.795,60.286,65.446z   M41.488,64.231c-0.257-0.165-0.522-0.312-0.772-0.491c0.53,0.314,1.1,0.553,1.705,0.722C42.102,64.404,41.792,64.327,41.488,64.231  z M42.349,65.923c-0.481-0.232-0.946-0.513-1.404-0.812c0.016,0.006,0.032,0.01,0.048,0.015  C41.438,65.408,41.887,65.679,42.349,65.923z M39.838,61.879c-1.008-1.076-1.704-2.532-2.179-4.023  c0.198,0.244,0.415,0.437,0.638,0.651c0.854,1.537,1.968,2.991,3.313,3.993c0.931,0.693,1.908,0.5,2.892,1.5c0,0-0.001,0-0.001,0  C42.625,64,41.055,63.178,39.838,61.879z M32.884,52.651c-0.212-0.642-0.4-1.291-0.561-1.945c-0.16-1.149-0.167-2.284-0.044-3.395  c0.222-1.275,0.554-2.546,0.993-3.802c0.352-0.832,0.793-1.638,1.309-2.417C33.024,44.266,32.389,48.464,32.884,52.651z   M36.018,61.741c-0.378-0.426-0.744-0.864-1.085-1.322c-0.823-1.102-1.51-2.488-2.057-3.693c-0.176-0.517-0.319-1.048-0.446-1.585  C33.269,57.462,34.499,59.75,36.018,61.741z M35.564,58.283c-0.172-0.268-0.319-0.549-0.48-0.822  c-0.341-0.873-0.637-1.796-0.854-2.792c-1.325-6.074,0.041-12.811,3.249-16.019c2.667-2.667,6.31-4.093,10.382-4.093  c0.521,0,1.051,0.023,1.585,0.071c3.038,0.268,5.993,1.297,8.501,2.885c-0.935-0.356-1.926-0.609-2.956-0.767  c-3.533-2.034-6.913-2.468-10.112-1.261c-4.904,1.848-8.823,7.562-9.146,13.317c-0.267,1.722-0.234,3.512,0.137,5.151  c0.328,2.953,1.185,6.295,3.239,8.486c0.031,0.033,0.062,0.065,0.093,0.099C37.835,61.334,36.606,59.907,35.564,58.283z   M39.352,33.652c0.723-0.162,1.468-0.292,2.216-0.401c-1.261,0.535-2.467,1.165-3.581,1.915  C38.417,34.643,38.883,34.146,39.352,33.652z M36.943,33.273c1.107-0.743,2.305-1.47,3.614-2.19  c-0.603,0.527-1.177,1.081-1.73,1.653C38.18,32.889,37.547,33.065,36.943,33.273z M39.113,44.206  c2.57-3.644,7.105-6.114,11.92-6.558c0.668,0.001,1.339,0.048,2.011,0.139c-0.962,0.25-2.018,0.689-3.175,1.39  c-0.54,0.327-1.117,0.749-1.706,1.234c-0.797,0.301-1.569,0.684-2.292,1.167c-1.212,0.81-2.266,1.795-3.202,2.888  c-2.748,1.322-4.26,5.867-5.093,8.371l-0.059,0.178C37.011,49.822,37.473,46.53,39.113,44.206z M38.964,41.991  c1.479-2.46,3.627-4.576,6.267-5.571c1.068-0.402,2.161-0.603,3.279-0.603c1.247,0,2.527,0.264,3.834,0.762  c-0.294,0.003-0.583-0.007-0.882,0.012c-0.147,0.009-0.292,0.039-0.439,0.052C46.427,36.637,42.02,38.581,38.964,41.991z   M45.553,50.395c0.009,0.019,0.019,0.038,0.028,0.056c0.011,0.458,0.051,0.914,0.114,1.368c-0.18-0.037-0.359-0.072-0.558-0.129  c-0.22-0.062-0.453,0.03-0.568,0.228c-0.115,0.196-0.083,0.445,0.078,0.606c0.458,0.458,0.973,0.834,1.493,1.181  c0.156,0.46,0.345,0.915,0.58,1.365c-1.177-0.097-2.244-0.756-3.312-2.021c-0.392-0.465-0.769-0.862-1.108-1.219  c-0.126-0.133-0.233-0.248-0.343-0.367c0.443-1.918,1.384-3.827,2.556-5.55c0.408-0.216,0.812-0.39,1.208-0.471  c0.138,0.065,0.278,0.142,0.419,0.225c-0.306,1.407-0.537,2.828-0.558,4.235c-0.001,0.002-0.003,0.004-0.004,0.007  C45.483,50.056,45.475,50.24,45.553,50.395z M48.115,49.81c-0.552-0.079-1.104-0.114-1.54-0.129c0.021-0.626,0.084-1.26,0.179-1.898  C47.149,48.512,47.603,49.187,48.115,49.81z M46.945,46.674c0.024-0.123,0.056-0.249,0.082-0.372  c0.116,0.099,0.229,0.203,0.338,0.311C47.223,46.633,47.078,46.652,46.945,46.674z M48.149,47.526  c0.444,0.615,0.815,1.312,1.123,2.054c-0.556-0.615-1.071-1.271-1.495-2.016C47.895,47.55,48.025,47.54,48.149,47.526z   M47.954,45.779c0.055,0.03,0.109,0.063,0.164,0.097c0.25,0.158,0.487,0.356,0.708,0.585c-0.077,0.005-0.151,0.012-0.227,0.018  C48.395,46.233,48.184,45.995,47.954,45.779z M52.979,51.152l0.055,0.11c0.016,0.031,0.021,0.062,0.035,0.093  c-0.013,0.327-0.038,0.659-0.084,0.997c-0.521-0.249-1.003-0.534-1.466-0.836c0.012-0.382,0.009-0.761-0.023-1.133  c0.152-0.118,0.31-0.236,0.474-0.354c0.096-0.068,0.139-0.057,0.156-0.053C52.439,50.057,52.846,50.881,52.979,51.152z   M52.717,49.162l0.1-0.1c0.02,0.062,0.028,0.132,0.045,0.196C52.815,49.222,52.766,49.192,52.717,49.162z M52.803,53.359  c-0.021,0.095-0.051,0.188-0.074,0.283c-0.316,0.439-0.75,0.89-1.263,1.384c-0.031-0.556-0.086-1.124-0.166-1.696  c0.051-0.232,0.092-0.465,0.125-0.698C51.863,52.894,52.322,53.138,52.803,53.359z M51.305,49.159  c-0.14-0.625-0.344-1.22-0.61-1.764c0.166-0.001,0.33-0.004,0.498-0.002c0.354,0.28,0.691,0.567,1.017,0.862L51.305,49.159z   M50.807,56.633c0.188,0.077,0.401,0.035,0.545-0.108c0.176-0.176,0.362-0.354,0.55-0.531c-0.616,1.32-1.443,2.5-2.419,3.293  c-0.932,0.757-2.311,1.395-3.947,0.687c2.086-0.752,3.928-2.387,4.955-4.366c0.006,0.191,0.009,0.38,0.009,0.564  C50.498,56.373,50.62,56.556,50.807,56.633z M50.033,52.064c0.092,0.416,0.184,0.833,0.247,1.247  c-0.102,0.414-0.236,0.83-0.405,1.243c-0.832,2.033-2.636,3.753-4.708,4.489c-0.237,0.084-0.504,0.158-0.787,0.223  c-1.942-1.541-2.847-3.592-2.689-6.097c0.01-0.156,0.037-0.313,0.054-0.47c0.283,0.299,0.583,0.619,0.897,0.993  c1.432,1.698,2.978,2.482,4.684,2.378c0.09,0.133,0.175,0.268,0.274,0.399c0.104,0.139,0.269,0.207,0.445,0.198  c0.172-0.016,0.325-0.119,0.402-0.274c0.099-0.197,0.162-0.394,0.215-0.59c0.174-0.055,0.346-0.099,0.523-0.17  c0.156-0.062,0.271-0.198,0.304-0.363s-0.017-0.335-0.136-0.454c-0.209-0.209-0.433-0.397-0.66-0.577  c-0.111-0.528-0.327-1.042-0.586-1.535c0.18-0.061,0.362-0.12,0.529-0.2c0.154,0.168,0.403,0.216,0.608,0.103  C49.43,52.503,49.757,52.316,50.033,52.064z M49.299,47.435c0.083-0.005,0.169-0.008,0.254-0.012  c0.368,0.624,0.651,1.359,0.815,2.169C50.077,48.826,49.721,48.099,49.299,47.435z M41.188,50.479  c-0.385-0.725-0.164-1.387,1.026-2.707c0.037-0.041,0.073-0.07,0.109-0.109C41.855,48.581,41.472,49.525,41.188,50.479z   M47.602,51.825c-0.126-0.202-0.254-0.399-0.378-0.59c-0.119-0.183-0.235-0.361-0.344-0.535c0.894,0.056,1.723,0.192,2.213,0.35  C48.617,51.409,48.146,51.681,47.602,51.825z M47.78,54.934c-0.037-0.063-0.066-0.128-0.101-0.192  c0.027,0.02,0.056,0.037,0.083,0.057C47.765,54.843,47.779,54.889,47.78,54.934z M47.265,53.247c-0.1-0.063-0.196-0.127-0.294-0.19  c-0.013-0.044-0.022-0.087-0.034-0.131c0.052-0.002,0.097-0.013,0.147-0.017C47.148,53.021,47.207,53.135,47.265,53.247z   M42.885,45.767c0.126-0.161,0.254-0.319,0.385-0.476c0.064-0.026,0.128-0.049,0.194-0.07c0.117-0.038,0.234-0.067,0.354-0.089  C43.516,45.306,43.204,45.516,42.885,45.767z M44.596,44.12c-0.075-0.006-0.151-0.025-0.225-0.027  c0.295-0.291,0.604-0.568,0.924-0.833C45.058,43.538,44.825,43.825,44.596,44.12z M37.801,53.633  c0.242,0.103,0.521-0.004,0.639-0.238l0.097-0.194c0.493-0.986,0.99-1.979,1.513-2.956c0.1,0.515,0.409,0.992,0.829,1.495  c-0.087,0.457-0.157,0.914-0.186,1.368c-0.159,2.525,0.637,4.646,2.359,6.317c-0.848,0.006-1.786-0.171-2.741-0.693  c-0.447-0.245-0.829-0.536-1.175-0.849c-0.732-1.357-1.255-2.874-1.546-4.43C37.643,53.529,37.71,53.595,37.801,53.633z   M44.16,60.325c1.964,1.348,4.061,1.271,5.953-0.264c1.657-1.346,2.907-3.627,3.525-5.971c0.067-0.101,0.131-0.203,0.189-0.307  c0.953,0.362,1.976,0.657,3.075,0.877c0.178,0.037,0.364-0.029,0.482-0.171c0.117-0.141,0.147-0.335,0.079-0.505  c-0.865-2.164-2.18-4.12-3.93-5.853c-0.027-0.062-0.057-0.124-0.087-0.185c-0.072-0.144-0.209-0.244-0.367-0.27  c-0.008-0.001-0.016-0.002-0.023-0.003c-0.073-0.068-0.148-0.137-0.224-0.205c3.388,0.27,6.835,1.277,7.672,3.772  c0.227,1.587-0.267,3.149-1.164,4.582c-0.013,0.019-0.027,0.036-0.04,0.054c-0.878,1.194-2.052,2.412-3.407,3.547  c-1.121,0.891-2.352,1.684-3.641,2.336c-2.411,1.102-6.621,2.348-10.044-0.203c-0.622-0.463-1.189-1.014-1.701-1.629  C41.651,60.396,42.902,60.528,44.16,60.325z M54.053,51.108c0.004-0.321,0.008-0.644-0.021-0.95  c0.853,1.034,1.559,2.137,2.115,3.309c-0.688-0.171-1.332-0.377-1.949-0.608C54.326,52.32,54.303,51.739,54.053,51.108z   M51.548,46.402c-1.275-0.981-2.718-1.875-4.324-2.678c-0.135-0.068-0.295-0.071-0.433-0.007c-0.138,0.063-0.239,0.186-0.276,0.333  c-0.029,0.118-0.055,0.237-0.084,0.354c-0.188-0.002-0.369-0.015-0.572,0.01c-0.065-0.026-0.129-0.037-0.193-0.06  c0.958-1.184,1.991-2.226,2.99-3.06c1.78-0.645,3.702-0.8,5.53-0.39c2.403,0.537,4.427,1.996,5.699,4.108  c1.215,2.016,1.554,3.918,1.425,5.603C59.954,47.544,55.484,46.521,51.548,46.402z M60.741,44.497  c-1.416-2.349-3.666-3.971-6.338-4.568c-1.146-0.256-2.325-0.308-3.489-0.182c1.473-0.808,2.855-1.235,4.113-1.235  c0.358,0,0.706,0.038,1.044,0.103c1.441,1.019,2.913,2.317,4.415,3.891c0.488,1.041,0.816,2.218,0.999,3.451  C61.273,45.466,61.031,44.979,60.741,44.497z M55.095,61.332c1.591-1.046,3.161-2.428,4.365-4.004  c0.037-0.047,0.071-0.095,0.107-0.141c0.121-0.163,0.259-0.315,0.371-0.482c0.074-0.098,0.135-0.191,0.205-0.287  c0.02-0.027,0.039-0.054,0.058-0.081c0.129-0.177,0.265-0.354,0.38-0.531c2.072-3.181,2.574-7.648,1.636-11.382  c0.621,0.727,1.245,1.491,1.876,2.31c0.117,0.34,0.224,0.688,0.317,1.042c1.132,4.27-2.934,8.584-5.901,11.735l-0.812,0.867  c-3.49,3.764-6.717,5.884-9.776,6.406c-1.34-0.23-2.648-0.634-3.906-1.182C47.688,65.602,51.764,63.77,55.095,61.332z M47.927,67.8  c1.052,0.17,2.123,0.149,3.199,0.124C50.588,68.023,50.051,68,49.52,68c-0.021,0-0.044,0-0.065,0c-0.956,0-1.906-0.01-2.843-0.182  C47.048,67.811,47.486,67.868,47.927,67.8z M50.621,67.022c2.5-1.052,5.09-3.033,7.808-5.965l0.808-0.861  c1.638-1.737,3.589-3.812,4.896-6.084c-0.27,0.927-0.606,1.865-1.027,2.809c-1.81,4.059-4.662,7.432-7.792,9.396  c-0.906,0.289-1.844,0.496-2.807,0.604C51.877,66.992,51.249,67.02,50.621,67.022z M65.861,49.709  c0.143,0.792,0.22,1.59,0.268,2.387c-0.343,3.24-1.523,6.388-3.451,8.938c-1.193,1.581-2.637,2.869-4.246,3.85  c2.395-2.157,4.334-4.969,5.588-7.78C65.156,54.555,65.768,52.047,65.861,49.709z M66.58,57.977  c-0.144,0.918-0.344,1.795-0.583,2.641c-0.277,0.323-0.562,0.642-0.858,0.952C65.753,60.469,66.237,59.269,66.58,57.977z   M66.459,46.673c-0.116,0.01-0.217,0.062-0.296,0.137c-0.614-1.929-1.491-3.763-2.617-5.376c-3.012-4.315-8.382-7.305-14.013-7.802  c-2.669-0.234-5.196,0.108-7.47,0.952c0.157-0.084,0.307-0.173,0.467-0.254c1.654-0.839,3.395-1.355,5.177-1.548  c0.829-0.02,1.568-0.025,2.171-0.03c0.259-0.002,0.52-0.001,0.785,0.001c2.289,0.2,4.607,0.91,6.864,2.128  c4.084,2.203,7.388,5.763,9.282,9.789c0.087,0.795,0.146,1.602,0.181,2.414C66.944,46.83,66.71,46.648,66.459,46.673z   M56.474,33.252c2.262,0.392,4.504,1.057,6.509,2.11c1.736,1.634,2.762,3.875,3.343,6.393c-2.038-3.174-4.919-5.919-8.323-7.756  C57.495,33.727,56.985,33.477,56.474,33.252z M63.587,34.549c-1.188-1.1-2.678-1.948-4.551-2.44  c-2.277-0.599-4.679-0.901-7.086-0.901c-1.981,0-3.962,0.213-5.881,0.625c-1.689,0.074-3.56,0.223-5.394,0.529  c0.331-0.306,0.647-0.625,0.994-0.915c2.465-2.062,5.142-3.25,7.935-3.549c1.996-0.017,3.952,0.203,5.833,0.628  c0.33,0.104,0.661,0.22,0.992,0.348c3.562,1.374,6.968,4.062,9.75,7.418C65.373,35.626,64.508,35.043,63.587,34.549z M34.895,33.494  c2.075-1.903,4.487-3.367,7.144-4.314C39.267,30.583,36.91,32,34.895,33.494z M37.543,34.145c-0.97,1.14-1.849,2.344-2.623,3.599  c-1.32,1.388-2.41,3.003-3.204,4.843c0.13-1.434,0.375-2.853,0.768-4.232C33.007,36.266,35.016,34.963,37.543,34.145z   M29.403,61.284c-0.154-0.214-0.315-0.426-0.459-0.645c-0.265-0.561-0.504-1.132-0.729-1.708  C28.564,59.732,28.957,60.519,29.403,61.284z M30.261,64.914c1.147,1.67,2.48,3.209,3.985,4.556  C32.782,68.277,31.438,66.721,30.261,64.914z M40.273,75.193c-0.89-0.21-1.775-0.46-2.653-0.75  c-1.178-0.604-2.315-1.295-3.407-2.053C36.144,73.538,38.179,74.482,40.273,75.193z M62.801,31.526  c2.691,1.68,4.998,3.896,6.712,6.577c1.583,2.478,2.655,5.229,3.233,8.097C70.995,40.594,67.291,35.186,62.801,31.526z   M66.465,32.489c-1.043-0.712-2.084-1.538-3.186-2.413c-1.115-0.885-2.248-1.779-3.416-2.582c1.743,0.878,3.416,1.985,4.99,3.341  c0.754,0.649,1.477,1.345,2.166,2.081C66.832,32.775,66.662,32.624,66.465,32.489z M60.44,29.14  c-1.549-0.696-3.183-1.236-4.878-1.613c-1.537-0.47-3.062-0.713-4.559-0.713c-0.496,0-0.988,0.035-1.478,0.086  c-0.2,0.002-0.402,0.015-0.603,0.021c1.097-0.438,2.209-0.782,3.295-0.932c1.285,0.107,2.563,0.277,3.833,0.507  C57.563,27.125,59.021,28.08,60.44,29.14z M42.025,26.445c2.283-0.406,4.592-0.597,6.898-0.596  c-1.014,0.385-2.006,0.848-2.959,1.325c-6.877,0.994-12.662,5.063-16.193,11.118c-0.711,0.882-1.352,1.803-1.901,2.763  c0.93-2.77,2.267-5.478,3.882-7.911C34.569,30.106,38.078,27.791,42.025,26.445z M35.293,28.749  c0.313-0.315,0.638-0.602,0.961-0.894c0.28-0.089,0.56-0.182,0.842-0.264C36.478,27.949,35.88,28.342,35.293,28.749z M36.1,26.638  c-0.123,0.104-0.242,0.221-0.364,0.329c-1.631,0.534-3.224,1.211-4.667,2.135c1.069-0.857,2.198-1.65,3.371-2.384  c1.192-0.592,2.416-1.129,3.668-1.595C37.427,25.574,36.756,26.08,36.1,26.638z M33.931,28.731c-1.079,1.167-2.083,2.465-3.002,3.85  c-1.281,1.397-2.417,2.939-3.391,4.609c1.07-1.891,2.019-3.886,2.584-6.116C31.258,30.095,32.553,29.336,33.931,28.731z   M25.034,39.443c-0.031,0.05-0.062,0.101-0.092,0.151c0.787-2.144,1.785-4.154,3.01-6.059c0.192-0.298,0.406-0.567,0.62-0.839  C27.671,35.126,26.341,37.311,25.034,39.443z M22.162,55.597c-0.084-0.326-0.178-0.651-0.249-0.979  c-0.533-2.472-0.413-4.628,0.093-6.621C21.726,50.688,21.781,53.222,22.162,55.597z M29.909,71.699  c2.288,1.621,4.748,2.795,7.27,3.64c1.153,0.592,2.343,1.108,3.56,1.541c3.114,1.106,6.243,1.597,9.3,1.488  c-0.405,0.084-0.811,0.16-1.215,0.229c-7.127,1.226-13.711-0.499-18.868-4.544c-1.192-1.061-2.321-2.232-3.378-3.515  c-1.253-1.52-2.361-3.207-3.332-5.011c-0.507-1.119-0.959-2.275-1.353-3.461C23.738,65.882,26.458,69.253,29.909,71.699z   M53.284,79.353c0.005,0.013,0.011,0.025,0.017,0.038c0.11,0.226,0.367,0.334,0.607,0.255l0.942-0.31  c2.084-0.679,4.394-1.431,6.275-2.776c3.431-1.459,6.754-3.127,9.932-4.729c-2.502,2.719-5.482,4.994-8.825,6.554  c-6.328,2.954-12.945,3.686-19.09,2.383C46.565,80.815,49.958,80.271,53.284,79.353z M70.771,70.856  c-2.686,1.353-5.479,2.76-8.35,4.045c-0.05-0.077-0.124-0.13-0.202-0.17c5.205-3.079,9.718-7.463,12.53-13.112  c-0.636,2.896-1.558,5.79-2.78,8.635L70.771,70.856z M68.718,68.389c1.506-1.929,2.737-4.037,3.696-6.253  c0.155-0.208,0.318-0.41,0.472-0.619c0.737-1.007,1.454-2.048,2.152-3.103C73.618,62.265,71.423,65.596,68.718,68.389z   M73.665,58.634c1.237-4.317,1.46-8.9,0.561-13.343c0.751,2.283,1.283,4.652,1.557,7.055c-0.001,1.081-0.045,2.169-0.131,3.261  c-0.025,0.04-0.051,0.082-0.078,0.126l-0.458,0.734C74.651,57.201,74.153,57.914,73.665,58.634z M74.984,44.397  c-1.95-5.61-5.233-10.663-9.479-14.319c-0.583-0.502-1.178-0.973-1.784-1.413c0.516,0.204,1.024,0.427,1.532,0.652  c2.924,1.92,5.477,4.263,7.435,6.983c-0.038,0.032-0.081,0.058-0.108,0.101c-0.093,0.143-0.105,0.323-0.035,0.478  C73.633,39.271,74.445,41.792,74.984,44.397z M74.746,39.759c1.498,3.14,2.252,6.672,1.997,10.55  c-0.002,0.03-0.006,0.059-0.008,0.088C76.565,46.722,75.897,43.146,74.746,39.759z M73.816,36c-1.051-1-2.277-2.863-3.65-4.162  c0.354,0.22,0.71,0.475,1.057,0.707c0.154,0.103,0.351,0.133,0.514,0.046c0.003-0.001,0.006,0.007,0.008,0.006  c0.352,0.554,0.729,1.004,1.099,1.524C73.312,34.781,73.764,36,74.157,36H73.816z M71,31.25c-1.695-1.076-3.466-2.013-5.285-2.823  c-4.414-2.881-9.622-4.832-14.896-5.716c1.826-0.031,3.635,0.092,5.404,0.358c5.973,0.897,10.871,3.6,14.776,8.173V31.25z   M56.101,21.444c4.966,0.502,9.319,2.24,12.85,5.047C65.041,24.363,60.551,22.799,56.101,21.444z M53.797,20.292  c-0.772-0.02-1.543-0.004-2.312,0.029c-6.812-1.177-13.49-0.181-18.794,2.898c-1.319,0.766-2.556,1.639-3.711,2.599  c2.488-2.316,5.479-4.207,8.949-5.656c1.523-0.514,3.063-0.951,4.591-1.33c7.011-1.19,14.192,0.852,20.447,3.126  c0.543,0.197,1.066,0.417,1.573,0.658C61.341,21.181,57.73,20.384,53.797,20.292z M33.192,24.085  c3.94-2.288,8.678-3.381,13.664-3.236c-4.519,0.814-8.847,2.498-12.696,4.866c-1.808,0.896-3.548,1.927-5.187,3.102  c-0.647,0.091-1.473,0.342-1.473,1.355c0,0.191,0.109,0.366,0.281,0.45c0.026,0.013,0.055,0.006,0.083,0.015  c-2.616,2.57-4.797,5.513-6.341,8.747c0.983-2.643,2.157-5.229,3.413-7.761C27.128,28.581,29.9,25.997,33.192,24.085z   M79.794,56.659c0.599-3.229,0.638-6.485,0.013-9.577c-0.111-1.109-0.256-2.204-0.441-3.27c1.251,4.832,1.929,10.354,1.03,15.849  c-0.885,3.304-2.206,6.336-3.95,9.05C78.263,65.041,79.342,60.892,79.794,56.659z M80.955,38.943  c-0.326-1.148-0.678-2.232-1.045-3.278c0.074,0.014,0.151,0.012,0.225-0.009c3.308,6.321,5.133,13.604,4.596,20.743  c-1.265,5.26-3.645,10.457-7.101,15.295c-0.28,0.394-0.569,0.785-0.866,1.174C82.695,62.456,84.243,50.494,80.955,38.943z   M81.568,50.207c-0.603-5.473-2.245-10.516-3.859-14.403C80.405,40.208,81.504,45.343,81.568,50.207z M77.609,33.795  c0.011,0.002,0.024,0.002,0.035,0.004c0.242,0.224,0.501,0.428,0.748,0.647c0.158,0.403,0.316,0.804,0.468,1.225  C78.48,35.03,78.057,34.407,77.609,33.795z M78.239,44.947c0.233,0.721,0.424,1.497,0.576,2.24c0.31,3.079,0.32,6.307-0.027,9.472  c-0.791,4.122-2.532,8.203-5.023,11.789c1.394-3.714,2.301-7.483,2.728-11.226c0.061-0.197,0.122-0.392,0.179-0.592  c0.174-0.064,0.307-0.216,0.326-0.411l0.036-0.341c0.033-0.312,0.057-0.559,0.021-0.749c0.343-1.519,0.579-3.188,0.688-4.842  C78.067,45.307,76.804,41,74.468,37h0.489C76.194,40,77.293,42.028,78.239,44.947z M68.533,27.38  c1.374,0.75,2.662,1.577,3.848,2.487c1.832,2.228,3.317,4.846,4.38,7.838c0.309,0.87,0.579,1.79,0.831,2.731  C75.242,34.8,72.244,30.447,68.533,27.38z M74.91,29.702c-3.35-3.412-6.812-6.939-11.603-8.682  c-4.145-1.508-8.692-2.915-13.354-3.381c0.125-0.002,0.25-0.008,0.375-0.008c6.286,0,12.936,2.34,17.732,4.276  c0.167,0.067,0.331,0.138,0.495,0.212c0.696,0.524,1.409,1.031,2.133,1.522c1.686,1.439,3.277,3.077,4.743,4.877  c0.722,1.123,1.403,2.357,2.035,3.728C76.596,31.406,75.742,30.55,74.91,29.702z M45.902,17.05c-1.188,0.24-2.397,0.508-3.616,0.809  c-1.158,0.2-2.314,0.477-3.462,0.859c-0.449,0.168-0.889,0.346-1.324,0.529c-2.745,0.931-5.432,2.113-7.898,3.657  c0.253-0.45,0.508-0.908,0.758-1.353v0c4.718-3.738,12.891-5.549,19.274-5.641c5.174-0.075,10.327,1.188,14.966,3.61  C58.989,17.535,52.045,15.811,45.902,17.05z M20.544,28.611c1.307-2.194,2.939-4.266,5.018-6.029  c3.291-2.79,7.019-4.89,10.996-6.288C30.36,18.973,24.698,23.236,20.544,28.611z M16.382,35.531  c-1.271,2.869-2.077,5.868-2.451,8.925c-0.559,2.21-1.043,4.391-1.281,6.583c-0.267-8.822,2.472-17.691,8.088-24.568  C18.741,29.349,17.378,32.509,16.382,35.531z M13.742,50.406c0.426,6.644,2.887,13.338,7.338,19.366  c2.885,3.906,6.353,7.097,10.166,9.509c-1.615-0.602-3.157-1.228-4.592-1.834c-7.413-3.132-9.945-10.73-12.18-17.434  C13.382,56.736,13.321,53.571,13.742,50.406z M22.938,79.536c-3.425-3.193-6.271-6.768-8.523-10.552  c1.29,1.87,2.76,3.575,4.278,5.316C20.122,75.94,21.585,77.642,22.938,79.536z M55.434,86.315c0.042-0.038,0.099-0.074,0.127-0.114  c0.152-0.217,0.184-0.478,0.086-0.716c-0.194-0.472-0.638-0.649-0.961-0.778c-0.056-0.022-0.114-0.046-0.169-0.07  c1.813-1.015,10.843-3.424,15.328-4.486c-1.343,1.139-2.756,2.199-4.223,3.161C62.46,84.798,59.041,85.812,55.434,86.315z   M65.028,80.338c0.496-0.26,0.971-0.542,1.447-0.82c3.634-1.791,6.927-4.211,9.511-7.357c-1.195,2.123-2.553,4.19-4.115,6.166  c-0.163,0.156-0.33,0.312-0.496,0.468C70.299,79.034,67.817,79.619,65.028,80.338z M78.444,72.276  c1.883-2.636,3.444-5.378,4.699-8.179c-0.539,1.558-1.199,3.091-2.022,4.579c-2.173,3.928-4.943,7.28-8.181,9.991  C74.996,76.662,76.854,74.502,78.444,72.276z M85.659,50.666c-0.759-8.339-4.339-16.47-9.416-22.731  c-0.43-0.666-0.87-1.304-1.331-1.887c0.045,0.02,0.091,0.04,0.137,0.06c1.814,0.789,3.453,1.982,4.868,3.521  c2.87,4.827,4.652,10.125,5.789,15.527C85.836,46.979,85.814,48.82,85.659,50.666z M75.447,25.19  c-0.859-0.374-1.691-0.81-2.501-1.289c-0.997-0.93-2.058-1.686-3.174-2.285c-0.754-0.571-1.529-1.108-2.323-1.61  c-0.091-0.071-0.185-0.142-0.275-0.212c-1.153-0.896-2.324-1.799-3.538-2.651c1.196,0.479,2.384,1.001,3.553,1.602  c3.955,2.03,7.398,4.596,10.296,7.546C76.83,25.875,76.154,25.498,75.447,25.19z M67.645,17.856  c-2.264-1.162-4.59-2.077-6.941-2.799c2.688,0.342,5.36,0.841,7.52,2.28c1.853,1.235,3.518,2.572,5.028,3.987  C71.506,20.053,69.645,18.883,67.645,17.856z M61.906,17.183c-3.915-1.547-8.092-2.333-12.287-2.272  c-3.483,0.05-7.488,0.612-11.219,1.707c3.294-1.275,6.708-2.095,10.094-2.384c0.105,0,0.209-0.006,0.314-0.006  c3.494,0,7.033,0.496,10.519,1.462C60.214,16.132,61.07,16.64,61.906,17.183z M31.571,14.914c-0.009,0.015-0.017,0.029-0.023,0.044  c-4.913,2.879-9.314,6.961-12.884,12.062C11.21,37.673,8.99,50.723,12.726,61.929c1.159,3.479,2.834,6.707,4.928,9.623  c-2.492-2.97-4.686-6.061-5.777-10.368c-3.662-14.447,0.368-29.814,10.516-40.105c2.83-2.869,6.101-5.174,9.677-6.899  C31.895,14.41,31.728,14.653,31.571,14.914z M10.907,61.43c0.115,0.452,0.257,0.872,0.394,1.3  c-3.146-7.91-3.743-16.321-1.375-23.943c1.664-5.357,4.693-10.417,8.636-14.826C10.507,34.299,7.563,48.236,10.907,61.43z   M22.395,80.404C29.27,86.767,35.732,90.102,42.15,90.6c5.148,0.403,10.663-0.746,15.352-2.223c-1.152,0.55-2.349,1.101-3.611,1.662  c-0.217,0.097-0.664,0.258-1.197,0.451c-1.988,0.723-2.97,1.123-3.42,1.463c-0.962,0.052-1.917,0.058-2.867,0.037  c-10.551-1-20.652-6.352-28.151-15.043C12.682,70.485,9.19,62.859,8.082,55.049C9.709,64.205,14.66,73.247,22.395,80.404z   M88.247,55.913c0.077-0.553,0.139-1.112,0.194-1.675c-0.047,0.594-0.104,1.183-0.186,1.759C88.253,55.97,88.25,55.94,88.247,55.913  z M89.354,53.067c-0.141-0.141-0.352-0.185-0.534-0.113c-0.156,0.062-0.254,0.201-0.29,0.361c0.755-10.188-2.848-19.828-9.788-27.18  c-2.577-3.591-5.826-6.872-9.964-9.63c-2.773-1.849-6.192-2.245-9.499-2.628c-1.023-0.119-1.99-0.231-2.939-0.384  c-4.036-0.653-8.732-1.324-13.392-1.01c-1.16,0.078-2.267,0.229-3.334,0.429c4.69-1.271,9.564-1.799,14.365-1.562  c11.232,1.37,21.919,7.647,28.813,17.19c5.613,7.77,8.115,16.752,7.32,25.622C89.959,53.797,89.717,53.431,89.354,53.067z   M39.585,8.844c4.649-1.461,9.515-1.941,14.691-1.439C49.32,7.078,44.334,7.565,39.585,8.844z M83.602,27.954  c-2.798-3.872-6.215-7.205-10.026-9.922c8.108,5.347,14.081,13.099,16.561,22.052c1.86,6.72,1.766,13.748-0.177,20.544  C92.95,49.541,90.713,37.796,83.602,27.954z M26.709,14.545c-4.529,2.737-8.211,5.919-11.786,11.04  c-4.275,6.123-6.905,12.352-7.818,18.513c-0.033,0.225-0.051,0.452-0.08,0.677c-0.26,1.557-0.424,3.125-0.49,4.7  c-0.471,11.272,4.633,22.989,13.406,31.673C5.289,68.615,1.363,46.95,11.44,28.537C17.412,17.626,27.412,9.627,38.191,7.14  c8.948-2.065,18.269-1.458,26.588,1.437C50.179,4.072,38.003,5.984,26.709,14.545z M18.101,86.294  c-0.119-0.21-0.414-0.309-0.636-0.211c-2.266-2.202-4.274-4.631-6.025-7.244c2.314,3.104,4.929,5.86,7.784,8.233  C18.524,86.623,18.213,86.397,18.101,86.294z M38.836,94.584C26.22,91.769,14.871,83.006,8.478,71.144  c-1.617-3-2.842-6.185-3.697-9.481c5.691,18.071,20.394,30.991,39.122,33.741C42.219,95.223,40.529,94.962,38.836,94.584z   M52.557,94.402c0.05,0.097,0.129,0.17,0.222,0.216c-2.936,0.272-5.829,0.218-8.624-0.188C23.34,91.422,7.576,75.586,3.993,54.089  c-0.024-0.144-0.107-0.264-0.222-0.338c-0.138-5.812,1.001-11.766,3.243-17.456C0.771,55.699,8.196,76.611,26.012,86.601  c0.899,0.504,1.82,0.975,2.752,1.427c4.84,2.847,10.177,4.482,15.758,4.882c2.715,0.429,5.479,0.696,8.282,0.75l-0.158,0.158  C52.492,93.972,52.456,94.209,52.557,94.402z M85.783,72.324c3.051-4.845,5.064-9.998,6.029-15.229  c-0.383,2.62-1.036,5.197-1.994,7.674c-2.754,7.123-7.475,17.237-16.629,22.804c-6.245,3.796-12.852,6.14-19.279,6.92  C66.738,91.949,78.605,83.722,85.783,72.324z M76.597,88.13c-5.815,4.212-12.745,6.958-20.128,8.062  c8.397-1.52,16.092-4.906,22.434-9.879C78.165,86.935,77.405,87.544,76.597,88.13z M94.765,61.777  c-0.314,1.123-0.602,2.274-0.891,3.434c-0.797,3.192-1.621,6.492-3.065,9.366c-1.462,2.911-3.559,5.487-5.587,7.979  c-0.035,0.043-0.069,0.086-0.104,0.13c-0.154-0.038-0.324,0-0.45,0.11c-1.142,1.007-2.322,1.968-3.538,2.881  c3.862-3.627,6.722-7.794,8.974-12.512c1.577-2.993,2.789-6.244,3.656-9.633c0.617-2.018,1.19-4.104,1.733-6.274  c2.363-13.391-2.394-27.48-13.052-38.657C72.364,8.037,56.455,3.087,41.158,5.545c5.479-1.306,11.087-1.469,16.557-0.384  c17.283,3.428,31.62,15.845,36.526,31.634C96.863,45.23,97.039,53.635,94.765,61.777z"
     id="path2"
     style="fill:#125e6b;fill-opacity:1" /></svg>