<?xml version="1.0" encoding="UTF-8" standalone="no"?>
<svg
   xmlns:dc="http://purl.org/dc/elements/1.1/"
   xmlns:cc="http://creativecommons.org/ns#"
   xmlns:rdf="http://www.w3.org/1999/02/22-rdf-syntax-ns#"
   xmlns:svg="http://www.w3.org/2000/svg"
   xmlns="http://www.w3.org/2000/svg"
   xmlns:sodipodi="http://sodipodi.sourceforge.net/DTD/sodipodi-0.dtd"
   xmlns:inkscape="http://www.inkscape.org/namespaces/inkscape"
   version="1.1"
   x="0px"
   y="0px"
   viewBox="0 0 100 100"
   style="enable-background:new 0 0 100 100;"
   xml:space="preserve"
   id="svg6"
   sodipodi:docname="conduite.svg"
   inkscape:version="0.92.4 (5da689c313, 2019-01-14)"><metadata
     id="metadata12"><rdf:RDF><cc:Work
         rdf:about=""><dc:format>image/svg+xml</dc:format><dc:type
           rdf:resource="http://purl.org/dc/dcmitype/StillImage" /><dc:title></dc:title></cc:Work></rdf:RDF></metadata><defs
     id="defs10" /><sodipodi:namedview
     pagecolor="#ffffff"
     bordercolor="#666666"
     borderopacity="1"
     objecttolerance="10"
     gridtolerance="10"
     guidetolerance="10"
     inkscape:pageopacity="0"
     inkscape:pageshadow="2"
     inkscape:window-width="1600"
     inkscape:window-height="836"
     id="namedview8"
     showgrid="false"
     inkscape:zoom="2.36"
     inkscape:cx="2.7542373"
     inkscape:cy="50"
     inkscape:window-x="0"
     inkscape:window-y="27"
     inkscape:window-maximized="1"
     inkscape:current-layer="svg6" /><g
     id="g4"
     style="fill:#125e6b;fill-opacity:1"><path
       d="m 49.998,21.989 c -7.159,0 -12.983,5.824 -12.983,12.981 0,7.159 5.825,12.983 12.983,12.983 7.293,0 12.984,-5.902 12.982,-12.983 0,-7.157 -5.822,-12.981 -12.982,-12.981 z m 0,24.396 c -6.294,0 -11.415,-5.121 -11.415,-11.415 0,-6.293 5.121,-11.413 11.417,-11.413 6.293,0 11.412,5.12 11.412,11.413 10e-4,6.469 -5.393,11.415 -11.414,11.415 z m 43.635,7.151 0.008,-7.074 5.851,-2.526 0.508,-0.242 -0.066,-0.559 -3.223,-12.131 -0.21,-0.539 -0.577,0.042 -6.361,0.742 -3.552,-6.146 3.804,-5.124 0.324,-0.471 -0.35,-0.452 -8.848,-8.848 -0.453,-0.349 -0.471,0.324 -5.113,3.795 -6.155,-3.56 L 69.49,4.069 69.531,3.493 68.992,3.283 56.867,0.063 56.307,0 56.066,0.509 53.533,6.366 46.46,6.359 43.929,0.507 43.687,0 43.128,0.066 31.001,3.283 l -0.54,0.21 0.042,0.577 0.745,6.368 -6.144,3.55 -5.125,-3.803 -0.471,-0.324 -0.452,0.348 -8.851,8.848 -0.348,0.453 0.324,0.471 3.799,5.116 -3.559,6.152 -6.35,-0.741 -0.577,-0.042 -0.21,0.54 -3.218,12.13 -0.066,0.558 0.508,0.241 5.857,2.53 -0.007,7.073 -5.85,2.527 -0.508,0.243 0.065,0.559 3.218,12.13 0.209,0.54 0.578,-0.042 6.365,-0.747 3.552,6.147 -3.808,5.128 -0.323,0.471 0.348,0.452 8.85,8.848 0.453,0.35 0.471,-0.325 5.113,-3.799 6.154,3.56 -0.743,6.352 -0.042,0.578 0.54,0.21 12.126,3.216 0.561,0.064 0.242,-0.508 2.534,-5.858 7.072,0.008 2.53,5.85 0.242,0.508 0.559,-0.066 12.127,-3.216 0.539,-0.21 -0.041,-0.576 -0.744,-6.368 6.148,-3.552 5.123,3.806 0.471,0.325 0.453,-0.35 8.848,-8.849 0.349,-0.451 -0.323,-0.471 -3.796,-5.117 3.561,-6.154 6.345,0.743 0.577,0.042 0.21,-0.539 3.223,-12.13 0.066,-0.56 -0.508,-0.241 z m 1.826,14.35 -6.214,-0.776 -0.592,-0.098 -0.249,0.546 -4.006,6.925 -0.346,0.486 0.376,0.463 3.767,5.006 -7.759,7.762 -5.013,-3.777 -0.463,-0.377 -0.486,0.346 -6.922,4 -0.543,0.248 0.096,0.59 0.776,6.235 -10.641,2.841 -2.448,-5.772 -0.211,-0.562 -0.597,0.057 -7.969,-0.009 -0.598,-0.058 -0.211,0.563 -2.452,5.781 -10.643,-2.842 0.776,-6.223 0.096,-0.591 -0.544,-0.248 -6.924,-4.004 -0.486,-0.346 -0.463,0.376 -5.004,3.771 -7.762,-7.761 3.777,-5.016 0.376,-0.463 -0.346,-0.486 -3.998,-6.92 L 11.36,67.01 10.771,67.106 4.536,67.886 1.694,57.24 7.465,54.797 8.028,54.587 7.972,53.988 7.98,46.017 8.037,45.418 7.473,45.208 1.694,42.762 4.537,32.118 l 6.222,0.772 0.589,0.095 0.248,-0.543 4.003,-6.922 0.346,-0.485 -0.376,-0.463 -3.769,-5.009 7.761,-7.759 5.017,3.775 0.463,0.375 0.486,-0.346 6.915,-3.996 0.542,-0.249 -0.095,-0.589 -0.777,-6.238 10.643,-2.841 2.448,5.772 0.21,0.562 0.598,-0.057 7.969,0.008 0.598,0.058 0.211,-0.563 2.451,-5.78 10.642,2.845 -0.773,6.218 -0.096,0.59 0.544,0.248 6.925,4.004 0.486,0.347 0.463,-0.376 5.006,-3.766 7.759,7.759 -3.773,5.015 -0.375,0.462 0.345,0.486 3.997,6.917 0.248,0.543 0.589,-0.095 6.233,-0.774 2.846,10.644 -5.771,2.444 -0.563,0.211 0.057,0.597 -0.008,7.972 -0.058,0.598 0.563,0.211 5.78,2.447 z M 50,16.828 C 31.709,16.828 16.828,31.709 16.828,50 16.828,68.291 31.708,83.172 50,83.172 68.292,83.172 83.172,68.291 83.172,50 83.172,31.709 68.291,16.828 50,16.828 Z m 19.873,57.727 c -2.379,1.928 -5.041,3.519 -7.913,4.698 V 61.92 h -1.568 v 17.926 c -3.256,1.138 -6.753,1.759 -10.392,1.759 -3.654,0 -7.165,-0.626 -10.432,-1.772 V 61.92 H 38 V 79.236 C 35.143,78.058 32.494,76.473 30.127,74.553 V 63.332 c 0,-7.154 6.751,-13.438 14.536,-13.63 l 10.671,0.003 c 9.359,0.243 14.539,8.137 14.539,13.627 z m 1.568,-1.36 v -9.863 c 0,-7.489 -7.154,-15.205 -16.47,-15.205 -10e-4,0 -9.945,-0.003 -9.945,-0.003 -7.191,0 -16.469,5.725 -16.469,15.208 v 9.863 C 22.313,67.418 18.396,59.158 18.396,50 18.396,32.573 32.573,18.396 50,18.396 c 17.427,0 31.604,14.177 31.604,31.604 0,9.158 -3.917,17.418 -10.163,23.195 z"
       id="path2"
       inkscape:connector-curvature="0"
       style="fill:#125e6b;fill-opacity:1" /></g></svg>