<?xml version="1.0" encoding="UTF-8" standalone="no"?>
<svg
   xmlns:dc="http://purl.org/dc/elements/1.1/"
   xmlns:cc="http://creativecommons.org/ns#"
   xmlns:rdf="http://www.w3.org/1999/02/22-rdf-syntax-ns#"
   xmlns:svg="http://www.w3.org/2000/svg"
   xmlns="http://www.w3.org/2000/svg"
   xmlns:sodipodi="http://sodipodi.sourceforge.net/DTD/sodipodi-0.dtd"
   xmlns:inkscape="http://www.inkscape.org/namespaces/inkscape"
   version="1.1"
   x="0px"
   y="0px"
   viewBox="0 0 100 100"
   id="svg6"
   sodipodi:docname="conduite.svg"
   inkscape:version="0.92.4 (5da689c313, 2019-01-14)">
  <metadata
     id="metadata12">
    <rdf:RDF>
      <cc:Work
         rdf:about="">
        <dc:format>image/svg+xml</dc:format>
        <dc:type
           rdf:resource="http://purl.org/dc/dcmitype/StillImage" />
        <dc:title></dc:title>
      </cc:Work>
    </rdf:RDF>
  </metadata>
  <defs
     id="defs10" />
  <sodipodi:namedview
     pagecolor="#ffffff"
     bordercolor="#666666"
     borderopacity="1"
     objecttolerance="10"
     gridtolerance="10"
     guidetolerance="10"
     inkscape:pageopacity="0"
     inkscape:pageshadow="2"
     inkscape:window-width="1600"
     inkscape:window-height="836"
     id="namedview8"
     showgrid="false"
     inkscape:zoom="2.36"
     inkscape:cx="2.7542373"
     inkscape:cy="50"
     inkscape:window-x="0"
     inkscape:window-y="27"
     inkscape:window-maximized="1"
     inkscape:current-layer="svg6" />
  <g
     transform="matrix(-1,0,0,1,100,-952.36218)"
     id="g4"
     style="fill:#125e6b;fill-opacity:1">
    <path
       d="m 69.910907,953.36205 3.46345,0.9551 0.0618,3.204 c 0.69494,0.4347 1.37074,0.9328 1.94819,1.5096 l 3.12329,-0.8009 1.79358,3.1115 -2.22651,2.3107 c 0.19595,0.8114 0.30552,1.593 0.30924,2.4337 l 2.78313,1.6944 -0.92771,3.4505 -3.24699,0.031 c -0.41001,0.7074 -0.93637,1.3966 -1.51526,1.9717 l 0.80402,3.1116 -3.09237,1.7868 -2.35019,-2.2182 c -0.78824,0.2107 -1.5992,0.3044 -2.44297,0.3082 l -1.66988,2.7726 -3.49437,-0.9241 -0.0309,-3.2349 c -0.73634,-0.4237 -1.37075,-0.9327 -1.94819,-1.5097 l -3.15421,0.8011 -1.79357,-3.0807 2.25742,-2.3414 c -0.21116,-0.7853 -0.30548,-1.6242 -0.30923,-2.4647 l -2.81406,-1.6328 0.95864,-3.4814 3.21606,-0.031 c 0.45149,-0.7188 0.93632,-1.3655 1.51526,-1.941 l -0.77309,-3.1423 3.09236,-1.787 2.31928,2.2491 c 0.8145,-0.1955 1.63013,-0.3353 2.47389,-0.3389 0.55648,-0.9241 1.11362,-1.8491 1.66989,-2.7726 z m -1.60803,5.9151 c -3.7905,0 -6.9269,3.1248 -6.9269,6.901 0,3.7765 3.1364,6.901 6.9269,6.901 3.79049,0 6.9269,-3.1245 6.9269,-6.901 0,-3.7762 -3.13641,-6.901 -6.9269,-6.901 z m -20.7807,1.3864 c 1.99398,0 3.92511,0.1859 5.78272,0.493 l -0.74216,2.6802 c -0.36159,1.504 0.45973,2.7667 1.66987,3.5122 -2.10872,-0.4911 -4.34015,-0.7702 -6.71043,-0.7702 -10.938921,0 -19.353311,2.4739 -24.522461,7.209 -5.16915,4.7352 -7.64824,11.8709 -6.18473,22.9518 0.10224,0.7543 -0.10191,1.5451 -0.55663,2.1567 -2.33542,3.16385 -4.669879,6.98935 -6.122879,10.04335 2.31302,0 3.752029,1.5805 3.741759,3.1118 -0.0983,2.6755 -0.0784,3.8681 0,5.9151 1.10451,0.6129 1.95719,1.7938 1.97911,2.8344 -0.12686,3.1284 0.56036,6.3986 1.2988,9.0267 4.86347,0.3945 9.58649,-1.1276 14.22488,-1.0167 1.24748,0.044 2.41484,0.9593 2.75221,2.1566 1.39956,5.0655 1.30278,9.6531 0.74216,14.4797 h 30.150571 c -2.78083,-7.5818 -4.35589,-14.9281 -4.51486,-24.4615 -0.0181,-0.781 0.2896,-1.5645 0.83494,-2.1257 4.08625,-4.2193 7.89362,-7.9769 10.29758,-13.2782 1.55756,1.3272 2.6923,1.064 4.45301,0.6161 -0.10772,0.9805 0.0621,1.9768 0.34016,2.8036 -2.65993,5.3044 -6.38043,9.3227 -9.9265,13.0008 0.28872,9.9411 2.04168,16.9225 5.53534,25.2625 0.37569,0.8965 0.26395,1.9655 -0.27831,2.7728 -0.54228,0.8072 -1.49883,1.3287 -2.4739,1.3247 H 31.627416 c -1.71141,0 -3.20493,-1.7355 -2.93775,-3.4196 0.8173,-4.9791 1.02742,-8.7664 0.21647,-13.0011 -4.85745,0.3332 -10.06376,1.4426 -14.62689,0.5858 -1.01926,-0.207 -1.900659,-0.9875 -2.226509,-1.9717 -0.99045,-3.7618 -2.0978904,-7.5031 -2.1337304,-10.9066 -1.40533,-0.6196 -1.89629,-1.6585 -1.97911,-2.6494 -0.16379,-2.6111 -0.0507,-3.822 0,-5.299 -1.20434,-0.1416 -2.58646,-0.1737 -4.08192,-1.6636 -0.71653,-0.7189 -1.0204,-1.8209 -0.7731,-2.8035 1.18564,-4.7248 4.75048,-9.8085 7.7927704,-13.95605 -1.2520904,-11.6968 1.63966,-20.9165 8.132919,-26.8645 6.73646,-6.1709 16.69072,-8.7495 28.511611,-8.7495 z m 4.76224,17.4066 4.76225,1.2938 0.0927,4.4363 c 0.9622,0.6019 1.92173,1.2963 2.72128,2.095 l 4.32931,-1.0783 2.47389,4.2823 -3.09236,3.204 c 0.27132,1.1238 0.42777,2.2248 0.43293,3.389 l 3.86546,2.3105 -1.26787,4.77525 -4.51486,0.092 c -0.56769,0.9796 -1.30129,1.8837 -2.10281,2.6803 l 1.11325,4.3439 -4.26746,2.4646 -3.27791,-3.0808 c -1.09139,0.2916 -2.23331,0.3954 -3.4016,0.4005 l -2.28835,3.8819 -4.824091,-1.2941 -0.0309,-4.4671 c -1.01958,-0.5866 -1.92174,-1.2963 -2.72129,-2.0949 l -4.39116,1.1091 -2.47389,-4.2824 3.15421,-3.23475 c -0.29237,-1.0872 -0.45866,-2.225 -0.46385,-3.3889 l -3.86546,-2.2798 1.2988,-4.806 4.453,-0.062 c 0.62516,-0.9951 1.3012,-1.9143 2.10281,-2.711 l -1.0514,-4.344 4.26746,-2.4646 3.21606,3.1116 c 1.127791,-0.2705 2.264271,-0.457 3.432531,-0.4621 0.77267,-1.2726 1.54741,-2.5492 2.31932,-3.8193 z m 33.4594,4.8675 3.46345,0.9551 0.0618,3.204 c 0.69493,0.4347 1.37073,0.9327 1.94819,1.5096 l 3.12329,-0.8009 1.79357,3.1115 -2.22651,2.3106 c 0.19596,0.8115 0.30552,1.5931 0.30924,2.4338 l 2.78313,1.6944 -0.92771,3.45055 -3.24698,0.031 c -0.41002,0.7075 -0.93638,1.3967 -1.51526,1.9718 l 0.80401,3.1116 -3.09236,1.7868 -2.3502,-2.2182 c -0.78823,0.2107 -1.59919,0.3044 -2.44297,0.3082 l -1.66988,2.7726 -3.49437,-0.9242 -0.0309,-3.2348 c -0.73633,-0.4238 -1.37075,-0.9328 -1.94819,-1.5097 l -3.15421,0.8011 -1.79357,-3.0808 2.25743,-2.34145 c -0.21117,-0.7852 -0.30549,-1.6242 -0.30924,-2.4646 l -2.8141,-1.6331 0.95863,-3.4813 3.21606,-0.031 c 0.4515,-0.7187 0.93632,-1.3654 1.51526,-1.9409 l -0.77309,-3.1423 3.09236,-1.787 2.31928,2.2491 c 0.8145,-0.1955 1.63014,-0.3353 2.47389,-0.3389 0.55647,-0.9241 1.11361,-1.8491 1.66995,-2.7726 z m -35.71682,2.0026 c -5.976581,0 -10.885131,4.8902 -10.885131,10.8444 0,5.95415 4.90855,10.84435 10.885131,10.84435 5.97656,0 10.88512,-4.8902 10.88512,-10.84435 0,-5.9542 -4.90856,-10.8444 -10.88512,-10.8444 z m 34.10879,3.9125 c -3.7905,0 -6.9269,3.1248 -6.9269,6.901 0,3.7765 3.1364,6.90105 6.9269,6.90105 3.7905,0 6.9269,-3.12455 6.9269,-6.90105 0,-3.7762 -3.1364,-6.901 -6.9269,-6.901 z"
       style="color:#000000;text-indent:0;text-transform:none;direction:ltr;baseline-shift:baseline;display:inline;overflow:visible;visibility:visible;fill:#125e6b;fill-opacity:1;stroke:none;enable-background:accumulate"
       marker="none"
       visibility="visible"
       display="inline"
       overflow="visible"
       id="path2"
       inkscape:connector-curvature="0" />
  </g>
</svg>
