<?xml version="1.0" encoding="UTF-8" standalone="no"?>
<svg
   xmlns:dc="http://purl.org/dc/elements/1.1/"
   xmlns:cc="http://creativecommons.org/ns#"
   xmlns:rdf="http://www.w3.org/1999/02/22-rdf-syntax-ns#"
   xmlns:svg="http://www.w3.org/2000/svg"
   xmlns="http://www.w3.org/2000/svg"
   xmlns:sodipodi="http://sodipodi.sourceforge.net/DTD/sodipodi-0.dtd"
   xmlns:inkscape="http://www.inkscape.org/namespaces/inkscape"
   data-name="Layer 1"
   viewBox="0 0 128 128"
   x="0px"
   y="0px"
   version="1.1"
   id="svg48"
   sodipodi:docname="divers.svg"
   inkscape:version="0.92.4 (5da689c313, 2019-01-14)">
  <metadata
     id="metadata54">
    <rdf:RDF>
      <cc:Work
         rdf:about="">
        <dc:format>image/svg+xml</dc:format>
        <dc:type
           rdf:resource="http://purl.org/dc/dcmitype/StillImage" />
        <dc:title>98 Miscellaneous 23</dc:title>
      </cc:Work>
    </rdf:RDF>
  </metadata>
  <defs
     id="defs52" />
  <sodipodi:namedview
     pagecolor="#ffffff"
     bordercolor="#666666"
     borderopacity="1"
     objecttolerance="10"
     gridtolerance="10"
     guidetolerance="10"
     inkscape:pageopacity="0"
     inkscape:pageshadow="2"
     inkscape:window-width="1600"
     inkscape:window-height="836"
     id="namedview50"
     showgrid="false"
     inkscape:zoom="1.84375"
     inkscape:cx="3.5254237"
     inkscape:cy="64"
     inkscape:window-x="0"
     inkscape:window-y="27"
     inkscape:window-maximized="1"
     inkscape:current-layer="svg48" />
  <title
     id="title2">98 Miscellaneous 23</title>
  <path
     d="M.48,86.42A2,2,0,0,0,.7,89.27,2,2,0,0,0,3.52,89C5,87.25,8,87.44,9.78,88.74a2,2,0,0,0,2.39,0c1.73-1.3,4.76-1.48,6.34.33a2,2,0,0,0,2.82.18,2,2,0,0,0,.18-2.85A8.71,8.71,0,0,0,11,84.75C7.71,83.08,3.13,83.29.48,86.42Z"
     id="path4"
     style="fill:#125e6b;fill-opacity:1" />
  <path
     d="M38,84.75c-3.25-1.66-7.83-1.46-10.48,1.68a2,2,0,0,0,.22,2.85A2,2,0,0,0,30.52,89c1.53-1.8,4.52-1.61,6.26-.31a2,2,0,0,0,2.39,0c1.73-1.3,4.76-1.48,6.34.33a2,2,0,0,0,2.82.18,2,2,0,0,0,.18-2.85A8.71,8.71,0,0,0,38,84.75Z"
     id="path6"
     style="fill:#125e6b;fill-opacity:1" />
  <path
     d="M56.52,89c1.53-1.8,4.52-1.61,6.26-.31a2,2,0,0,0,2.39,0c1.73-1.3,4.76-1.48,6.34.33a2,2,0,0,0,2.82.18,2,2,0,0,0,.18-2.85A8.71,8.71,0,0,0,64,84.75c-3.25-1.66-7.83-1.46-10.48,1.68a2,2,0,0,0,.22,2.85A2,2,0,0,0,56.52,89Z"
     id="path8"
     style="fill:#125e6b;fill-opacity:1" />
  <path
     d="M106.48,86.42a2,2,0,0,0,.22,2.85,2,2,0,0,0,2.82-.22c1.53-1.8,4.52-1.61,6.26-.31a2,2,0,0,0,2.39,0c1.73-1.3,4.76-1.48,6.34.33a2,2,0,0,0,2.82.18,2,2,0,0,0,.18-2.85A8.71,8.71,0,0,0,117,84.75C113.71,83.08,109.13,83.29,106.48,86.42Z"
     id="path10"
     style="fill:#125e6b;fill-opacity:1" />
  <path
     d="M83.52,89c1.53-1.8,4.52-1.61,6.26-.31a2,2,0,0,0,2.39,0c1.73-1.3,4.76-1.48,6.34.33a2,2,0,0,0,2.82.18,2,2,0,0,0,.18-2.85A8.71,8.71,0,0,0,91,84.75c-3.25-1.66-7.82-1.46-10.48,1.68a2,2,0,0,0,.22,2.85A2,2,0,0,0,83.52,89Z"
     id="path12"
     style="fill:#125e6b;fill-opacity:1" />
  <path
     d="M93.48,75.31a2,2,0,0,0,.22,2.85,2,2,0,0,0,2.82-.22c1.53-1.8,4.52-1.61,6.26-.31a2,2,0,0,0,2.39,0c1.73-1.3,4.76-1.48,6.34.33a2,2,0,0,0,2.82.18,2,2,0,0,0,.18-2.85A8.71,8.71,0,0,0,104,73.63C100.71,72,96.13,72.18,93.48,75.31Z"
     id="path14"
     style="fill:#125e6b;fill-opacity:1" />
  <path
     d="M14,75.31a2,2,0,0,0,.22,2.85A2,2,0,0,0,17,77.94c1.53-1.8,4.52-1.61,6.26-.31a2,2,0,0,0,2.39,0c1.73-1.3,4.76-1.48,6.34.33a2,2,0,0,0,2.82.18A2,2,0,0,0,35,75.29a8.71,8.71,0,0,0-10.55-1.66C21.21,72,16.63,72.18,14,75.31Z"
     id="path16"
     style="fill:#125e6b;fill-opacity:1" />
  <path
     d="M78.66,77.63c1.73-1.3,4.76-1.48,6.34.33a2,2,0,0,0,2.82.18A2,2,0,0,0,88,75.29a8.71,8.71,0,0,0-10.55-1.66C74.21,72,69.63,72.18,67,75.31a2,2,0,0,0,.22,2.85A2,2,0,0,0,70,77.94c1.53-1.8,4.52-1.61,6.26-.31A2,2,0,0,0,78.66,77.63Z"
     id="path18"
     style="fill:#125e6b;fill-opacity:1" />
  <path
     d="M52.16,77.63c1.73-1.3,4.76-1.48,6.34.33a2,2,0,0,0,2.82.18,2,2,0,0,0,.18-2.85A8.71,8.71,0,0,0,51,73.63c-3.25-1.66-7.83-1.46-10.48,1.68a2,2,0,0,0,.22,2.85,2,2,0,0,0,2.82-.22c1.53-1.8,4.52-1.61,6.26-.31A2,2,0,0,0,52.16,77.63Z"
     id="path20"
     style="fill:#125e6b;fill-opacity:1" />
  <path
     d="M40.48,53.09a2,2,0,0,0,.22,2.85,2,2,0,0,0,2.82-.22c1.53-1.8,4.52-1.61,6.26-.31a2,2,0,0,0,2.39,0c1.73-1.3,4.76-1.48,6.34.33a2,2,0,0,0,2.82.18,2,2,0,0,0,.18-2.85A8.71,8.71,0,0,0,51,51.41C47.71,49.75,43.13,50,40.48,53.09Z"
     id="path22"
     style="fill:#125e6b;fill-opacity:1" />
  <path
     d="M77.46,51.41C74.21,49.75,69.63,50,67,53.09a2,2,0,0,0,.22,2.85A2,2,0,0,0,70,55.71c1.53-1.8,4.52-1.61,6.26-.31a2,2,0,0,0,2.39,0c1.73-1.3,4.76-1.48,6.34.33a2,2,0,0,0,2.82.18A2,2,0,0,0,88,53.07,8.71,8.71,0,0,0,77.46,51.41Z"
     id="path24"
     style="fill:#125e6b;fill-opacity:1" />
  <path
     d="M64.21,40.3C61,38.64,56.38,38.84,53.73,42A2,2,0,0,0,54,44.83a2,2,0,0,0,2.82-.22C58.3,42.8,61.29,43,63,44.29a2,2,0,0,0,2.39,0c1.73-1.3,4.76-1.48,6.34.33a2,2,0,0,0,2.82.18A2,2,0,0,0,74.75,42,8.71,8.71,0,0,0,64.21,40.3Z"
     id="path26"
     style="fill:#125e6b;fill-opacity:1" />
  <path
     d="M27.23,64.2A2,2,0,0,0,27.45,67a2,2,0,0,0,2.82-.22c1.53-1.8,4.52-1.61,6.26-.31a2,2,0,0,0,2.39,0c1.73-1.3,4.76-1.48,6.34.33a2,2,0,0,0,2.82.18,2,2,0,0,0,.18-2.85,8.71,8.71,0,0,0-10.55-1.66C34.46,60.86,29.88,61.07,27.23,64.2Z"
     id="path28"
     style="fill:#125e6b;fill-opacity:1" />
  <path
     d="M90.71,62.52c-3.25-1.66-7.83-1.46-10.48,1.68A2,2,0,0,0,80.45,67a2,2,0,0,0,2.82-.22c1.53-1.8,4.52-1.61,6.26-.31a2,2,0,0,0,2.39,0c1.73-1.3,4.76-1.48,6.34.33a2,2,0,0,0,2.82.18,2,2,0,0,0,.18-2.85A8.71,8.71,0,0,0,90.71,62.52Z"
     id="path30"
     style="fill:#125e6b;fill-opacity:1" />
  <path
     d="M56.77,66.83c1.53-1.8,4.52-1.61,6.26-.31a2,2,0,0,0,2.39,0c1.73-1.3,4.76-1.48,6.34.33a2,2,0,0,0,2.82.18,2,2,0,0,0,.18-2.85,8.71,8.71,0,0,0-10.55-1.66C61,60.86,56.38,61.07,53.73,64.2A2,2,0,0,0,54,67,2,2,0,0,0,56.77,66.83Z"
     id="path32"
     style="fill:#125e6b;fill-opacity:1" />
  <path
     d="M22,50.36a2,2,0,0,0,2-2V16a2,2,0,1,0-4,0V48.34A2,2,0,0,0,22,50.36Z"
     id="path34"
     style="fill:#125e6b;fill-opacity:1" />
  <path
     d="M30,34.2a2,2,0,0,0,2-2V16a2,2,0,1,0-4,0V32.18A2,2,0,0,0,30,34.2Z"
     id="path36"
     style="fill:#125e6b;fill-opacity:1" />
  <path
     d="M40,24.1V16a2,2,0,1,0-4,0V24.1a2,2,0,1,0,4,0Z"
     id="path38"
     style="fill:#125e6b;fill-opacity:1" />
  <path
     d="M108,48.34V16a2,2,0,1,0-4,0V48.34a2,2,0,1,0,4,0Z"
     id="path40"
     style="fill:#125e6b;fill-opacity:1" />
  <path
     d="M98,34.2a2,2,0,0,0,2-2V16a2,2,0,1,0-4,0V32.18A2,2,0,0,0,98,34.2Z"
     id="path42"
     style="fill:#125e6b;fill-opacity:1" />
  <path
     d="M90,14a2,2,0,0,0-2,2V24.1a2,2,0,1,0,4,0V16A2,2,0,0,0,90,14Z"
     id="path44"
     style="fill:#125e6b;fill-opacity:1" />
  <path
     d="M128,96.83a2,2,0,0,0-2-2,9.39,9.39,0,0,0-6.39,2.44,5.67,5.67,0,0,1-7.89,0,9.59,9.59,0,0,0-12.78,0,5.66,5.66,0,0,1-7.89,0,9.58,9.58,0,0,0-12.78,0,5.66,5.66,0,0,1-7.88,0,9.58,9.58,0,0,0-12.78,0,5.66,5.66,0,0,1-7.88,0,9.58,9.58,0,0,0-12.78,0,5.66,5.66,0,0,1-7.88,0,9.58,9.58,0,0,0-12.78,0,5.66,5.66,0,0,1-7.88,0A9.37,9.37,0,0,0,2,94.81a2,2,0,0,0-2,2v11.11a2,2,0,0,0,2,2,5.54,5.54,0,0,1,3.94,1.6A9.37,9.37,0,0,0,12.33,114a9.37,9.37,0,0,0,6.39-2.44,5.66,5.66,0,0,1,7.88,0,9.58,9.58,0,0,0,12.78,0,5.66,5.66,0,0,1,7.88,0,9.58,9.58,0,0,0,12.78,0,5.66,5.66,0,0,1,7.88,0,9.58,9.58,0,0,0,12.78,0,5.66,5.66,0,0,1,7.89,0,9.58,9.58,0,0,0,12.78,0,5.67,5.67,0,0,1,7.89,0,9.59,9.59,0,0,0,12.79,0A5.55,5.55,0,0,1,126,110a2,2,0,0,0,2-2Z"
     id="path46"
     style="fill:#125e6b;fill-opacity:1" />
</svg>
