<?xml version="1.0" encoding="UTF-8" standalone="no"?>
<svg
   xmlns:dc="http://purl.org/dc/elements/1.1/"
   xmlns:cc="http://creativecommons.org/ns#"
   xmlns:rdf="http://www.w3.org/1999/02/22-rdf-syntax-ns#"
   xmlns:svg="http://www.w3.org/2000/svg"
   xmlns="http://www.w3.org/2000/svg"
   xmlns:sodipodi="http://sodipodi.sourceforge.net/DTD/sodipodi-0.dtd"
   xmlns:inkscape="http://www.inkscape.org/namespaces/inkscape"
   viewBox="0 0 89.91 89.92"
   x="0px"
   y="0px"
   version="1.1"
   id="svg550"
   sodipodi:docname="genetique.svg"
   inkscape:version="0.92.4 (5da689c313, 2019-01-14)">
  <metadata
     id="metadata556">
    <rdf:RDF>
      <cc:Work
         rdf:about="">
        <dc:format>image/svg+xml</dc:format>
        <dc:type
           rdf:resource="http://purl.org/dc/dcmitype/StillImage" />
        <dc:title>Gene Cell</dc:title>
      </cc:Work>
    </rdf:RDF>
  </metadata>
  <defs
     id="defs554" />
  <sodipodi:namedview
     pagecolor="#ffffff"
     bordercolor="#666666"
     borderopacity="1"
     objecttolerance="10"
     gridtolerance="10"
     guidetolerance="10"
     inkscape:pageopacity="0"
     inkscape:pageshadow="2"
     inkscape:window-width="1600"
     inkscape:window-height="836"
     id="namedview552"
     showgrid="false"
     inkscape:zoom="2.6245552"
     inkscape:cx="2.4716129"
     inkscape:cy="44.959999"
     inkscape:window-x="0"
     inkscape:window-y="27"
     inkscape:window-maximized="1"
     inkscape:current-layer="svg550" />
  <title
     id="title2">Gene Cell</title>
  <g
     data-name="Gene Cell"
     id="g548"
     style="fill:#125e6b;fill-opacity:1">
    <path
       d="M 91.58,50 A 43,43 0 0 1 63.58,90 42.59,42.59 0 0 1 12.46,28.1 43,43 0 0 1 57.35,8.19 43,43 0 0 1 91.58,50 1.21,1.21 0 0 0 94,50 45.5,45.5 0 0 0 64.27,7.62 45,45 0 0 0 10.37,73 45.45,45.45 0 0 0 58,94 C 78.83,89.8 93.85,71 94,49.91 A 1.2108365,1.2108365 0 0 0 91.58,50 Z"
       transform="translate(-4.09,-5)"
       id="path4"
       inkscape:connector-curvature="0"
       style="fill:#125e6b;fill-opacity:1" />
    <path
       d="M 84.77,45.41 A 28.42,28.42 0 0 1 34.54,63.65 28.43,28.43 0 0 1 62,17.55 a 28.75,28.75 0 0 1 22.77,27.86 1.21,1.21 0 0 0 2.42,0 A 30.84,30.84 0 0 0 32.42,26 30.84,30.84 0 0 0 62.32,75.67 C 76.72,72.89 87,59.94 87.19,45.41 a 1.21,1.21 0 0 0 -2.42,0 z"
       transform="translate(-4.09,-5)"
       id="path6"
       inkscape:connector-curvature="0"
       style="fill:#125e6b;fill-opacity:1" />
    <path
       d="m 51.36,30.07 a 2.38,2.38 0 0 1 0.08,-1.79 0.08077747,0.08077747 0 0 0 -0.15,-0.06 2.53,2.53 0 0 0 -0.07,1.91 0.08,0.08 0 0 0 0.14,-0.06 z"
       transform="translate(-4.09,-5)"
       id="path8"
       inkscape:connector-curvature="0"
       style="fill:#125e6b;fill-opacity:1" />
    <path
       d="m 51.4,29.9 0.92,0.36 a 0.08077747,0.08077747 0 0 0 0.06,-0.15 L 51.46,29.75 A 0.08077747,0.08077747 0 0 0 51.4,29.9 Z"
       transform="translate(-4.09,-5)"
       id="path10"
       inkscape:connector-curvature="0"
       style="fill:#125e6b;fill-opacity:1" />
    <path
       d="m 51.43,29.39 1.22,0.47 a 0.08077747,0.08077747 0 0 0 0.06,-0.15 l -1.22,-0.47 a 0.08077747,0.08077747 0 0 0 -0.06,0.15 z"
       transform="translate(-4.09,-5)"
       id="path12"
       inkscape:connector-curvature="0"
       style="fill:#125e6b;fill-opacity:1" />
    <path
       d="m 51.51,28.91 1.41,0.55 a 0.08077747,0.08077747 0 0 0 0.06,-0.15 l -1.41,-0.55 a 0.08077747,0.08077747 0 0 0 -0.06,0.15 z"
       transform="translate(-4.09,-5)"
       id="path14"
       inkscape:connector-curvature="0"
       style="fill:#125e6b;fill-opacity:1" />
    <path
       d="m 51.68,28.46 1.42,0.55 a 0.08077747,0.08077747 0 0 0 0.06,-0.15 l -1.42,-0.55 a 0.08077747,0.08077747 0 0 0 -0.06,0.15 z"
       transform="translate(-4.09,-5)"
       id="path16"
       inkscape:connector-curvature="0"
       style="fill:#125e6b;fill-opacity:1" />
    <path
       d="m 52,31.12 -0.92,-0.36 a 0.08077747,0.08077747 0 0 0 -0.06,0.15 l 0.92,0.36 A 0.08077747,0.08077747 0 0 0 52,31.12 Z"
       transform="translate(-4.09,-5)"
       id="path18"
       inkscape:connector-curvature="0"
       style="fill:#125e6b;fill-opacity:1" />
    <path
       d="m 52,31.62 -1.22,-0.47 a 0.08077747,0.08077747 0 0 0 -0.06,0.15 l 1.22,0.47 A 0.08077747,0.08077747 0 0 0 52,31.62 Z"
       transform="translate(-4.09,-5)"
       id="path20"
       inkscape:connector-curvature="0"
       style="fill:#125e6b;fill-opacity:1" />
    <path
       d="m 51.89,32.11 -1.41,-0.55 a 0.08077747,0.08077747 0 0 0 -0.06,0.15 l 1.41,0.55 a 0.08077747,0.08077747 0 0 0 0.06,-0.15 z"
       transform="translate(-4.09,-5)"
       id="path22"
       inkscape:connector-curvature="0"
       style="fill:#125e6b;fill-opacity:1" />
    <path
       d="M 51.72,32.56 50.3,32 a 0.08077747,0.08077747 0 0 0 -0.06,0.15 l 1.42,0.55 a 0.08077747,0.08077747 0 0 0 0.06,-0.15 z"
       transform="translate(-4.09,-5)"
       id="path24"
       inkscape:connector-curvature="0"
       style="fill:#125e6b;fill-opacity:1" />
    <path
       d="m 48.75,35.23 a 2.34,2.34 0 0 1 1.18,-1.39 c 0.09,0 0,-0.18 -0.06,-0.14 a 2.49,2.49 0 0 0 -1.27,1.47 0.08077747,0.08077747 0 0 0 0.15,0.06 z"
       transform="translate(-4.09,-5)"
       id="path26"
       inkscape:connector-curvature="0"
       style="fill:#125e6b;fill-opacity:1" />
    <path
       d="m 50.15,33.15 0.92,0.36 a 0.08077747,0.08077747 0 0 0 0.06,-0.15 L 50.2,33 a 0.08077747,0.08077747 0 0 0 -0.06,0.15 z"
       transform="translate(-4.09,-5)"
       id="path28"
       inkscape:connector-curvature="0"
       style="fill:#125e6b;fill-opacity:1" />
    <path
       d="m 50.17,32.64 1.22,0.47 a 0.08077747,0.08077747 0 0 0 0.06,-0.15 l -1.22,-0.47 a 0.08077747,0.08077747 0 0 0 -0.06,0.15 z"
       transform="translate(-4.09,-5)"
       id="path30"
       inkscape:connector-curvature="0"
       style="fill:#125e6b;fill-opacity:1" />
    <path
       d="m 49.75,34.16 0.92,0.36 a 0.08077747,0.08077747 0 0 0 0.06,-0.15 L 49.81,34 a 0.08077747,0.08077747 0 0 0 -0.06,0.15 z"
       transform="translate(-4.09,-5)"
       id="path32"
       inkscape:connector-curvature="0"
       style="fill:#125e6b;fill-opacity:1" />
    <path
       d="m 49.43,34.55 1.22,0.47 a 0.08077747,0.08077747 0 0 0 0.06,-0.15 L 49.49,34.4 a 0.08077747,0.08077747 0 0 0 -0.06,0.15 z"
       transform="translate(-4.09,-5)"
       id="path34"
       inkscape:connector-curvature="0"
       style="fill:#125e6b;fill-opacity:1" />
    <path
       d="m 49.17,35 1.41,0.55 A 0.08077747,0.08077747 0 0 0 50.64,35.4 L 49.23,34.85 A 0.08077747,0.08077747 0 0 0 49.17,35 Z"
       transform="translate(-4.09,-5)"
       id="path36"
       inkscape:connector-curvature="0"
       style="fill:#125e6b;fill-opacity:1" />
    <path
       d="m 49,35.41 1.42,0.55 a 0.08077747,0.08077747 0 0 0 0.06,-0.15 L 49,35.26 a 0.08077747,0.08077747 0 0 0 -0.06,0.15 z"
       transform="translate(-4.09,-5)"
       id="path38"
       inkscape:connector-curvature="0"
       style="fill:#125e6b;fill-opacity:1" />
    <path
       d="m 52,30.93 a 1.91,1.91 0 0 1 0,1.48 2.08,2.08 0 0 1 -1,1.24 c -0.09,0 0,0.19 0.06,0.14 a 2.23,2.23 0 0 0 1.08,-1.32 2.07,2.07 0 0 0 0,-1.6 c 0,-0.09 -0.19,0 -0.14,0.06 z"
       transform="translate(-4.09,-5)"
       id="path40"
       inkscape:connector-curvature="0"
       style="fill:#125e6b;fill-opacity:1" />
    <path
       d="M 50.84,36 A 2.47,2.47 0 0 0 50.9,34.05 0.93,0.93 0 0 0 50.43,33.62 0.93,0.93 0 0 1 50,33 a 2.38,2.38 0 0 1 0.67,-2.06 1.18,1.18 0 0 1 0.8,-0.38 1.4,1.4 0 0 1 0.33,0.07 0.8,0.8 0 0 0 0.35,0 c 0.71,-0.14 1.19,-0.9 1.43,-1.52 a 0.08077747,0.08077747 0 0 0 -0.15,-0.06 3,3 0 0 1 -0.63,1 1.29,1.29 0 0 1 -0.76,0.43 0.89,0.89 0 0 1 -0.34,-0.06 0.87,0.87 0 0 0 -0.37,0 1.39,1.39 0 0 0 -0.73,0.38 2.6,2.6 0 0 0 -0.8,1.89 1.57,1.57 0 0 0 0.21,0.81 0.94,0.94 0 0 0 0.24,0.26 c 0.09,0.07 0.2,0.1 0.29,0.15 a 1.05,1.05 0 0 1 0.4,0.83 2.9,2.9 0 0 1 -0.24,1.26 0.08077747,0.08077747 0 0 0 0.15,0.06 z"
       transform="translate(-4.09,-5)"
       id="path42"
       inkscape:connector-curvature="0"
       style="fill:#125e6b;fill-opacity:1" />
    <path
       d="M 43.88,30.2 A 2.38,2.38 0 0 0 43.8,28.41 0.08077747,0.08077747 0 0 1 43.95,28.35 2.53,2.53 0 0 1 44,30.26 0.08,0.08 0 0 1 43.86,30.2 Z"
       transform="translate(-4.09,-5)"
       id="path44"
       inkscape:connector-curvature="0"
       style="fill:#125e6b;fill-opacity:1" />
    <path
       d="m 43.84,30 -0.92,0.36 a 0.08077747,0.08077747 0 0 1 -0.06,-0.15 l 0.92,-0.36 A 0.08077747,0.08077747 0 0 1 43.84,30 Z"
       transform="translate(-4.09,-5)"
       id="path46"
       inkscape:connector-curvature="0"
       style="fill:#125e6b;fill-opacity:1" />
    <path
       d="M 43.81,29.52 42.59,30 a 0.08077747,0.08077747 0 0 1 -0.06,-0.15 l 1.22,-0.47 a 0.08077747,0.08077747 0 0 1 0.06,0.15 z"
       transform="translate(-4.09,-5)"
       id="path48"
       inkscape:connector-curvature="0"
       style="fill:#125e6b;fill-opacity:1" />
    <path
       d="m 43.73,29 -1.41,0.55 A 0.08077747,0.08077747 0 0 1 42.26,29.4 l 1.41,-0.55 A 0.08077747,0.08077747 0 0 1 43.73,29 Z"
       transform="translate(-4.09,-5)"
       id="path50"
       inkscape:connector-curvature="0"
       style="fill:#125e6b;fill-opacity:1" />
    <path
       d="m 43.57,28.58 -1.42,0.55 a 0.08077747,0.08077747 0 0 1 -0.06,-0.15 l 1.42,-0.55 a 0.08077747,0.08077747 0 0 1 0.06,0.15 z"
       transform="translate(-4.09,-5)"
       id="path52"
       inkscape:connector-curvature="0"
       style="fill:#125e6b;fill-opacity:1" />
    <path
       d="m 43.25,31.25 0.92,-0.36 a 0.08077747,0.08077747 0 0 1 0.06,0.15 l -0.92,0.36 a 0.08077747,0.08077747 0 0 1 -0.06,-0.15 z"
       transform="translate(-4.09,-5)"
       id="path54"
       inkscape:connector-curvature="0"
       style="fill:#125e6b;fill-opacity:1" />
    <path
       d="m 43.28,31.75 1.22,-0.47 a 0.08077747,0.08077747 0 0 1 0.06,0.15 l -1.22,0.47 a 0.08077747,0.08077747 0 0 1 -0.06,-0.15 z"
       transform="translate(-4.09,-5)"
       id="path56"
       inkscape:connector-curvature="0"
       style="fill:#125e6b;fill-opacity:1" />
    <path
       d="m 43.36,32.23 1.41,-0.55 a 0.08077747,0.08077747 0 0 1 0.06,0.15 l -1.41,0.55 a 0.08077747,0.08077747 0 0 1 -0.06,-0.15 z"
       transform="translate(-4.09,-5)"
       id="path58"
       inkscape:connector-curvature="0"
       style="fill:#125e6b;fill-opacity:1" />
    <path
       d="m 43.53,32.68 1.42,-0.55 a 0.08077747,0.08077747 0 0 1 0.06,0.15 l -1.42,0.55 a 0.08077747,0.08077747 0 0 1 -0.06,-0.15 z"
       transform="translate(-4.09,-5)"
       id="path60"
       inkscape:connector-curvature="0"
       style="fill:#125e6b;fill-opacity:1" />
    <path
       d="M 46.5,35.35 A 2.34,2.34 0 0 0 45.31,34 c -0.09,0 0,-0.18 0.06,-0.14 a 2.49,2.49 0 0 1 1.27,1.47 0.08077747,0.08077747 0 0 1 -0.15,0.06 z"
       transform="translate(-4.09,-5)"
       id="path62"
       inkscape:connector-curvature="0"
       style="fill:#125e6b;fill-opacity:1" />
    <path
       d="m 45.1,33.27 -0.92,0.36 a 0.08077747,0.08077747 0 0 1 -0.06,-0.15 l 0.92,-0.36 a 0.08077747,0.08077747 0 0 1 0.06,0.15 z"
       transform="translate(-4.09,-5)"
       id="path64"
       inkscape:connector-curvature="0"
       style="fill:#125e6b;fill-opacity:1" />
    <path
       d="m 45.07,32.77 -1.22,0.47 A 0.08077747,0.08077747 0 0 1 43.79,33.09 L 45,32.62 a 0.08077747,0.08077747 0 0 1 0.06,0.15 z"
       transform="translate(-4.09,-5)"
       id="path66"
       inkscape:connector-curvature="0"
       style="fill:#125e6b;fill-opacity:1" />
    <path
       d="m 45.49,34.28 -0.92,0.36 a 0.08077747,0.08077747 0 0 1 -0.06,-0.15 l 0.92,-0.36 a 0.08077747,0.08077747 0 0 1 0.06,0.15 z"
       transform="translate(-4.09,-5)"
       id="path68"
       inkscape:connector-curvature="0"
       style="fill:#125e6b;fill-opacity:1" />
    <path
       d="m 45.81,34.67 -1.22,0.47 a 0.08077747,0.08077747 0 0 1 -0.06,-0.15 l 1.22,-0.47 a 0.08077747,0.08077747 0 0 1 0.06,0.15 z"
       transform="translate(-4.09,-5)"
       id="path70"
       inkscape:connector-curvature="0"
       style="fill:#125e6b;fill-opacity:1" />
    <path
       d="m 46.08,35.09 -1.41,0.55 A 0.08077747,0.08077747 0 0 1 44.61,35.49 L 46,34.94 a 0.08077747,0.08077747 0 0 1 0.06,0.15 z"
       transform="translate(-4.09,-5)"
       id="path72"
       inkscape:connector-curvature="0"
       style="fill:#125e6b;fill-opacity:1" />
    <path
       d="m 46.26,35.53 -1.42,0.55 a 0.08077747,0.08077747 0 0 1 -0.06,-0.15 l 1.42,-0.55 a 0.08077747,0.08077747 0 0 1 0.06,0.15 z"
       transform="translate(-4.09,-5)"
       id="path74"
       inkscape:connector-curvature="0"
       style="fill:#125e6b;fill-opacity:1" />
    <path
       d="m 43.2,31.05 a 1.91,1.91 0 0 0 0,1.48 2.08,2.08 0 0 0 1,1.24 c 0.09,0 0,0.19 -0.06,0.14 A 2.23,2.23 0 0 1 43,32.59 a 2.07,2.07 0 0 1 0,-1.6 c 0,-0.09 0.19,0 0.14,0.06 z"
       transform="translate(-4.09,-5)"
       id="path76"
       inkscape:connector-curvature="0"
       style="fill:#125e6b;fill-opacity:1" />
    <path
       d="m 44.4,36.17 a 2.47,2.47 0 0 1 -0.06,-1.95 0.93,0.93 0 0 1 0.47,-0.43 0.93,0.93 0 0 0 0.47,-0.69 2.38,2.38 0 0 0 -0.67,-2.1 1.18,1.18 0 0 0 -0.8,-0.38 1.4,1.4 0 0 0 -0.33,0.07 0.8,0.8 0 0 1 -0.35,0 c -0.71,-0.14 -1.19,-0.9 -1.43,-1.52 a 0.08077747,0.08077747 0 0 1 0.15,-0.06 3,3 0 0 0 0.63,1 1.29,1.29 0 0 0 0.76,0.43 0.89,0.89 0 0 0 0.34,-0.06 0.87,0.87 0 0 1 0.37,0 1.39,1.39 0 0 1 0.73,0.38 2.6,2.6 0 0 1 0.8,1.89 1.57,1.57 0 0 1 -0.21,0.81 0.94,0.94 0 0 1 -0.24,0.26 c -0.09,0.07 -0.2,0.1 -0.29,0.15 a 1.05,1.05 0 0 0 -0.4,0.83 2.9,2.9 0 0 0 0.21,1.28 0.08077747,0.08077747 0 0 1 -0.15,0.06 z"
       transform="translate(-4.09,-5)"
       id="path78"
       inkscape:connector-curvature="0"
       style="fill:#125e6b;fill-opacity:1" />
    <path
       d="m 50.64,45.14 a 2.38,2.38 0 0 0 0.28,-1.77 0.08,0.08 0 0 1 0.15,0 2.53,2.53 0 0 1 -0.31,1.89 c -0.06,0.08 -0.19,0 -0.13,-0.09 z"
       transform="translate(-4.09,-5)"
       id="path80"
       inkscape:connector-curvature="0"
       style="fill:#125e6b;fill-opacity:1" />
    <path
       d="m 50.63,45 -1,0.17 a 0.08,0.08 0 0 1 0,-0.15 l 1,-0.17 a 0.08,0.08 0 0 1 0,0.15 z"
       transform="translate(-4.09,-5)"
       id="path82"
       inkscape:connector-curvature="0"
       style="fill:#125e6b;fill-opacity:1" />
    <path
       d="m 50.71,44.45 -1.29,0.22 a 0.08,0.08 0 0 1 0,-0.15 l 1.29,-0.22 a 0.08,0.08 0 0 1 0,0.15 z"
       transform="translate(-4.09,-5)"
       id="path84"
       inkscape:connector-curvature="0"
       style="fill:#125e6b;fill-opacity:1" />
    <path
       d="m 50.73,44 -1.49,0.25 a 0.08,0.08 0 0 1 0,-0.15 l 1.49,-0.25 a 0.08,0.08 0 0 1 0,0.15 z"
       transform="translate(-4.09,-5)"
       id="path86"
       inkscape:connector-curvature="0"
       style="fill:#125e6b;fill-opacity:1" />
    <path
       d="m 50.66,43.49 -1.5,0.26 a 0.08,0.08 0 0 1 0,-0.15 l 1.5,-0.26 a 0.08,0.08 0 0 1 0,0.15 z"
       transform="translate(-4.09,-5)"
       id="path88"
       inkscape:connector-curvature="0"
       style="fill:#125e6b;fill-opacity:1" />
    <path
       d="m 49.81,46 1,-0.17 a 0.08,0.08 0 0 1 0,0.15 l -1,0.17 a 0.08,0.08 0 0 1 0,-0.15 z"
       transform="translate(-4.09,-5)"
       id="path90"
       inkscape:connector-curvature="0"
       style="fill:#125e6b;fill-opacity:1" />
    <path
       d="M 49.74,46.53 51,46.31 a 0.08,0.08 0 0 1 0,0.15 l -1.29,0.22 a 0.08,0.08 0 0 1 0,-0.15 z"
       transform="translate(-4.09,-5)"
       id="path92"
       inkscape:connector-curvature="0"
       style="fill:#125e6b;fill-opacity:1" />
    <path
       d="m 49.72,47 1.49,-0.25 a 0.08,0.08 0 0 1 0,0.15 l -1.49,0.25 a 0.08,0.08 0 0 1 0,-0.15 z"
       transform="translate(-4.09,-5)"
       id="path94"
       inkscape:connector-curvature="0"
       style="fill:#125e6b;fill-opacity:1" />
    <path
       d="m 49.8,47.5 1.5,-0.26 a 0.08,0.08 0 0 1 0,0.15 l -1.5,0.26 a 0.08,0.08 0 0 1 0,-0.15 z"
       transform="translate(-4.09,-5)"
       id="path96"
       inkscape:connector-curvature="0"
       style="fill:#125e6b;fill-opacity:1" />
    <path
       d="m 52.17,50.71 a 2.34,2.34 0 0 0 -0.88,-1.6 c -0.08,-0.05 0,-0.18 0.09,-0.13 a 2.49,2.49 0 0 1 0.95,1.7 0.08,0.08 0 0 1 -0.15,0 z"
       transform="translate(-4.09,-5)"
       id="path98"
       inkscape:connector-curvature="0"
       style="fill:#125e6b;fill-opacity:1" />
    <path
       d="m 51.22,48.39 -1,0.17 a 0.08,0.08 0 0 1 0,-0.15 l 1,-0.17 a 0.08,0.08 0 0 1 0,0.15 z"
       transform="translate(-4.09,-5)"
       id="path100"
       inkscape:connector-curvature="0"
       style="fill:#125e6b;fill-opacity:1" />
    <path
       d="M 51.3,47.89 50,48.11 A 0.08,0.08 0 0 1 50,48 l 1.29,-0.22 a 0.08,0.08 0 0 1 0,0.15 z"
       transform="translate(-4.09,-5)"
       id="path102"
       inkscape:connector-curvature="0"
       style="fill:#125e6b;fill-opacity:1" />
    <path
       d="m 51.4,49.46 -1,0.17 a 0.08,0.08 0 0 1 0,-0.15 l 1,-0.17 a 0.08,0.08 0 0 1 0,0.15 z"
       transform="translate(-4.09,-5)"
       id="path104"
       inkscape:connector-curvature="0"
       style="fill:#125e6b;fill-opacity:1" />
    <path
       d="m 51.64,49.9 -1.29,0.22 a 0.08,0.08 0 0 1 0,-0.15 l 1.29,-0.22 a 0.08,0.08 0 0 1 0,0.15 z"
       transform="translate(-4.09,-5)"
       id="path106"
       inkscape:connector-curvature="0"
       style="fill:#125e6b;fill-opacity:1" />
    <path
       d="m 51.82,50.36 -1.49,0.25 a 0.08,0.08 0 0 1 0,-0.15 l 1.49,-0.25 a 0.08,0.08 0 0 1 0,0.15 z"
       transform="translate(-4.09,-5)"
       id="path108"
       inkscape:connector-curvature="0"
       style="fill:#125e6b;fill-opacity:1" />
    <path
       d="m 51.9,50.83 -1.5,0.26 a 0.08,0.08 0 0 1 0,-0.15 l 1.5,-0.26 a 0.08,0.08 0 0 1 0,0.15 z"
       transform="translate(-4.09,-5)"
       id="path110"
       inkscape:connector-curvature="0"
       style="fill:#125e6b;fill-opacity:1" />
    <path
       d="m 49.8,45.83 a 1.91,1.91 0 0 0 -0.32,1.45 2.08,2.08 0 0 0 0.73,1.41 c 0.08,0.06 0,0.19 -0.09,0.13 a 2.23,2.23 0 0 1 -0.8,-1.51 2.07,2.07 0 0 1 0.35,-1.56 c 0.06,-0.08 0.19,0 0.13,0.09 z"
       transform="translate(-4.09,-5)"
       id="path112"
       inkscape:connector-curvature="0"
       style="fill:#125e6b;fill-opacity:1" />
    <path
       d="m 50,51.09 a 2.47,2.47 0 0 1 0.33,-1.92 0.93,0.93 0 0 1 0.55,-0.32 0.93,0.93 0 0 0 0.6,-0.58 2.38,2.38 0 0 0 -0.25,-2.16 1.18,1.18 0 0 0 -0.71,-0.54 1.4,1.4 0 0 0 -0.34,0 0.8,0.8 0 0 1 -0.34,-0.06 2.3,2.3 0 0 1 -1.1,-1.78 0.08,0.08 0 0 1 0.15,0 3,3 0 0 0 0.41,1.11 1.29,1.29 0 0 0 0.66,0.57 0.89,0.89 0 0 0 0.35,0 0.87,0.87 0 0 1 0.36,0 1.39,1.39 0 0 1 0.64,0.52 2.6,2.6 0 0 1 0.4,2 1.57,1.57 0 0 1 -0.37,0.75 0.94,0.94 0 0 1 -0.28,0.21 c -0.1,0 -0.21,0.05 -0.31,0.09 a 1.05,1.05 0 0 0 -0.56,0.73 2.9,2.9 0 0 0 -0.05,1.3 0.08,0.08 0 0 1 -0.15,0 z"
       transform="translate(-4.09,-5)"
       id="path114"
       inkscape:connector-curvature="0"
       style="fill:#125e6b;fill-opacity:1" />
    <path
       d="m 51.88,52.48 a 2.38,2.38 0 0 0 0.28,-1.77 0.08,0.08 0 0 1 0.15,0 2.53,2.53 0 0 1 -0.31,1.86 c -0.06,0.08 -0.19,0 -0.13,-0.09 z"
       transform="translate(-4.09,-5)"
       id="path116"
       inkscape:connector-curvature="0"
       style="fill:#125e6b;fill-opacity:1" />
    <path
       d="m 51.88,52.3 -1,0.17 a 0.08,0.08 0 0 1 0,-0.15 l 1,-0.17 a 0.08,0.08 0 0 1 0,0.15 z"
       transform="translate(-4.09,-5)"
       id="path118"
       inkscape:connector-curvature="0"
       style="fill:#125e6b;fill-opacity:1" />
    <path
       d="M 52,51.8 50.66,52 a 0.08,0.08 0 0 1 0,-0.15 l 1.29,-0.22 a 0.08,0.08 0 0 1 0,0.15 z"
       transform="translate(-4.09,-5)"
       id="path120"
       inkscape:connector-curvature="0"
       style="fill:#125e6b;fill-opacity:1" />
    <path
       d="m 52,51.31 -1.49,0.25 a 0.08,0.08 0 0 1 0,-0.15 L 52,51.16 a 0.08,0.08 0 0 1 0,0.15 z"
       transform="translate(-4.09,-5)"
       id="path122"
       inkscape:connector-curvature="0"
       style="fill:#125e6b;fill-opacity:1" />
    <path
       d="m 51.9,50.83 -1.5,0.26 a 0.08,0.08 0 0 1 0,-0.15 l 1.5,-0.26 a 0.08,0.08 0 0 1 0,0.15 z"
       transform="translate(-4.09,-5)"
       id="path124"
       inkscape:connector-curvature="0"
       style="fill:#125e6b;fill-opacity:1" />
    <path
       d="m 51.06,53.38 1,-0.17 a 0.08,0.08 0 0 1 0,0.15 l -1,0.17 a 0.08,0.08 0 0 1 0,-0.15 z"
       transform="translate(-4.09,-5)"
       id="path126"
       inkscape:connector-curvature="0"
       style="fill:#125e6b;fill-opacity:1" />
    <path
       d="m 51,53.88 1.29,-0.22 a 0.08,0.08 0 0 1 0,0.15 L 51,54 a 0.08,0.08 0 0 1 0,-0.15 z"
       transform="translate(-4.09,-5)"
       id="path128"
       inkscape:connector-curvature="0"
       style="fill:#125e6b;fill-opacity:1" />
    <path
       d="m 51,54.37 1.49,-0.25 a 0.08,0.08 0 0 1 0,0.15 L 51,54.52 a 0.08,0.08 0 0 1 0,-0.15 z"
       transform="translate(-4.09,-5)"
       id="path130"
       inkscape:connector-curvature="0"
       style="fill:#125e6b;fill-opacity:1" />
    <path
       d="m 51,54.84 1.5,-0.26 a 0.08,0.08 0 0 1 0,0.15 L 51,54.99 a 0.08,0.08 0 0 1 0,-0.15 z"
       transform="translate(-4.09,-5)"
       id="path132"
       inkscape:connector-curvature="0"
       style="fill:#125e6b;fill-opacity:1" />
    <path
       d="m 53.39,58.06 a 2.34,2.34 0 0 0 -0.84,-1.62 c -0.08,-0.06 0,-0.18 0.09,-0.12 a 2.49,2.49 0 0 1 0.9,1.72 0.08,0.08 0 0 1 -0.15,0 z"
       transform="translate(-4.09,-5)"
       id="path134"
       inkscape:connector-curvature="0"
       style="fill:#125e6b;fill-opacity:1" />
    <path
       d="m 52.46,55.73 -1,0.17 a 0.08,0.08 0 0 1 0,-0.15 l 1,-0.17 a 0.08,0.08 0 0 1 0,0.15 z"
       transform="translate(-4.09,-5)"
       id="path136"
       inkscape:connector-curvature="0"
       style="fill:#125e6b;fill-opacity:1" />
    <path
       d="m 52.54,55.23 -1.29,0.22 a 0.08,0.08 0 0 1 0,-0.15 l 1.29,-0.22 a 0.08,0.08 0 0 1 0,0.15 z"
       transform="translate(-4.09,-5)"
       id="path138"
       inkscape:connector-curvature="0"
       style="fill:#125e6b;fill-opacity:1" />
    <path
       d="m 52.65,56.8 -1,0.17 a 0.08,0.08 0 0 1 0,-0.15 l 1,-0.17 a 0.08,0.08 0 0 1 0,0.15 z"
       transform="translate(-4.09,-5)"
       id="path140"
       inkscape:connector-curvature="0"
       style="fill:#125e6b;fill-opacity:1" />
    <path
       d="m 52.88,57.25 -1.29,0.22 a 0.08,0.08 0 0 1 0,-0.15 l 1.29,-0.22 a 0.08,0.08 0 0 1 0,0.15 z"
       transform="translate(-4.09,-5)"
       id="path142"
       inkscape:connector-curvature="0"
       style="fill:#125e6b;fill-opacity:1" />
    <path
       d="M 53.06,57.7 51.57,58 a 0.08,0.08 0 0 1 0,-0.15 L 53,57.55 a 0.08,0.08 0 0 1 0,0.15 z"
       transform="translate(-4.09,-5)"
       id="path144"
       inkscape:connector-curvature="0"
       style="fill:#125e6b;fill-opacity:1" />
    <path
       d="m 53.15,58.18 -1.5,0.26 a 0.08,0.08 0 0 1 0,-0.15 l 1.5,-0.26 a 0.08,0.08 0 0 1 0,0.15 z"
       transform="translate(-4.09,-5)"
       id="path146"
       inkscape:connector-curvature="0"
       style="fill:#125e6b;fill-opacity:1" />
    <path
       d="m 51,53.18 a 1.91,1.91 0 0 0 -0.32,1.45 2.08,2.08 0 0 0 0.77,1.37 c 0.08,0.06 0,0.19 -0.09,0.13 a 2.23,2.23 0 0 1 -0.8,-1.51 2.07,2.07 0 0 1 0.35,-1.56 c 0.06,-0.08 0.19,0 0.13,0.09 z"
       transform="translate(-4.09,-5)"
       id="path148"
       inkscape:connector-curvature="0"
       style="fill:#125e6b;fill-opacity:1" />
    <path
       d="m 51.2,58.43 a 2.47,2.47 0 0 1 0.33,-1.92 0.93,0.93 0 0 1 0.55,-0.32 0.93,0.93 0 0 0 0.6,-0.58 2.38,2.38 0 0 0 -0.25,-2.16 1.18,1.18 0 0 0 -0.71,-0.54 1.4,1.4 0 0 0 -0.34,0 0.8,0.8 0 0 1 -0.34,-0.06 2.3,2.3 0 0 1 -1.1,-1.78 0.08,0.08 0 0 1 0.15,0 3,3 0 0 0 0.41,1.11 1.29,1.29 0 0 0 0.66,0.57 0.89,0.89 0 0 0 0.35,0 0.87,0.87 0 0 1 0.36,0 1.39,1.39 0 0 1 0.64,0.52 2.6,2.6 0 0 1 0.4,2 1.57,1.57 0 0 1 -0.37,0.75 0.94,0.94 0 0 1 -0.28,0.21 c -0.1,0 -0.21,0.05 -0.31,0.09 a 1.05,1.05 0 0 0 -0.56,0.73 2.9,2.9 0 0 0 -0.05,1.3 0.08,0.08 0 0 1 -0.15,0 z"
       transform="translate(-4.09,-5)"
       id="path150"
       inkscape:connector-curvature="0"
       style="fill:#125e6b;fill-opacity:1" />
    <path
       d="M 51.52,57.81 53,57.55 a 0.08,0.08 0 0 1 0,0.15 L 51.55,58 a 0.08,0.08 0 0 1 0,-0.15 z"
       transform="translate(-4.09,-5)"
       id="path152"
       inkscape:connector-curvature="0"
       style="fill:#125e6b;fill-opacity:1" />
    <path
       d="M 51.6,58.28 53.1,58 a 0.08,0.08 0 0 1 0,0.15 l -1.5,0.26 a 0.08,0.08 0 0 1 0,-0.15 z"
       transform="translate(-4.09,-5)"
       id="path154"
       inkscape:connector-curvature="0"
       style="fill:#125e6b;fill-opacity:1" />
    <path
       d="m 54,61.49 a 2.34,2.34 0 0 0 -0.88,-1.6 c -0.08,-0.05 0,-0.18 0.09,-0.13 a 2.49,2.49 0 0 1 0.95,1.7 0.08,0.08 0 0 1 -0.15,0 z"
       transform="translate(-4.09,-5)"
       id="path156"
       inkscape:connector-curvature="0"
       style="fill:#125e6b;fill-opacity:1" />
    <path
       d="m 53,59.17 -1,0.17 a 0.08,0.08 0 0 1 0,-0.15 L 53,59 a 0.08,0.08 0 0 1 0,0.15 z"
       transform="translate(-4.09,-5)"
       id="path158"
       inkscape:connector-curvature="0"
       style="fill:#125e6b;fill-opacity:1" />
    <path
       d="m 53.1,58.67 -1.29,0.22 a 0.08,0.08 0 0 1 0,-0.15 l 1.29,-0.22 a 0.08,0.08 0 0 1 0,0.15 z"
       transform="translate(-4.09,-5)"
       id="path160"
       inkscape:connector-curvature="0"
       style="fill:#125e6b;fill-opacity:1" />
    <path
       d="m 53.2,60.24 -1,0.17 a 0.08,0.08 0 0 1 0,-0.15 l 1,-0.17 a 0.08,0.08 0 0 1 0,0.15 z"
       transform="translate(-4.09,-5)"
       id="path162"
       inkscape:connector-curvature="0"
       style="fill:#125e6b;fill-opacity:1" />
    <path
       d="m 53.44,60.68 -1.29,0.22 a 0.08,0.08 0 0 1 0,-0.15 l 1.29,-0.22 a 0.08,0.08 0 0 1 0,0.15 z"
       transform="translate(-4.09,-5)"
       id="path164"
       inkscape:connector-curvature="0"
       style="fill:#125e6b;fill-opacity:1" />
    <path
       d="m 53.62,61.14 -1.49,0.25 a 0.08,0.08 0 0 1 0,-0.15 L 53.59,61 a 0.08,0.08 0 0 1 0,0.15 z"
       transform="translate(-4.09,-5)"
       id="path166"
       inkscape:connector-curvature="0"
       style="fill:#125e6b;fill-opacity:1" />
    <path
       d="m 53.7,61.61 -1.5,0.26 a 0.08,0.08 0 0 1 0,-0.15 l 1.5,-0.26 a 0.08,0.08 0 0 1 0,0.15 z"
       transform="translate(-4.09,-5)"
       id="path168"
       inkscape:connector-curvature="0"
       style="fill:#125e6b;fill-opacity:1" />
    <path
       d="M 52,59.49 A 2.08,2.08 0 0 1 51.31,58 a 2.59,2.59 0 0 1 0,-0.42 l -0.16,0.09 a 2.84,2.84 0 0 0 0,0.35 2.23,2.23 0 0 0 0.72,1.55 C 51.95,59.68 52,59.56 52,59.49 Z"
       transform="translate(-4.09,-5)"
       id="path170"
       inkscape:connector-curvature="0"
       style="fill:#125e6b;fill-opacity:1" />
    <path
       d="m 53.15,57.16 a 2.36,2.36 0 0 1 0.09,1.84 0.93,0.93 0 0 1 -0.6,0.58 0.93,0.93 0 0 0 -0.55,0.32 2.47,2.47 0 0 0 -0.33,1.92 0.08,0.08 0 0 0 0.15,0 2.9,2.9 0 0 1 0.05,-1.3 1.05,1.05 0 0 1 0.56,-0.73 c 0.1,0 0.21,0 0.31,-0.09 a 0.94,0.94 0 0 0 0.28,-0.21 1.57,1.57 0 0 0 0.37,-0.75 2.62,2.62 0 0 0 -0.21,-1.67 z"
       transform="translate(-4.09,-5)"
       id="path172"
       inkscape:connector-curvature="0"
       style="fill:#125e6b;fill-opacity:1" />
    <path
       d="m 44.57,45.36 a 2.38,2.38 0 0 1 -0.28,-1.77 0.08,0.08 0 0 0 -0.15,0 2.53,2.53 0 0 0 0.31,1.89 c 0.06,0.08 0.19,0 0.13,-0.09 z"
       transform="translate(-4.09,-5)"
       id="path174"
       inkscape:connector-curvature="0"
       style="fill:#125e6b;fill-opacity:1" />
    <path
       d="m 44.57,45.18 1,0.17 a 0.08,0.08 0 0 0 0,-0.15 l -1,-0.17 a 0.08,0.08 0 0 0 0,0.15 z"
       transform="translate(-4.09,-5)"
       id="path176"
       inkscape:connector-curvature="0"
       style="fill:#125e6b;fill-opacity:1" />
    <path
       d="m 44.5,44.68 1.29,0.22 a 0.08,0.08 0 0 0 0,-0.15 L 44.5,44.53 a 0.08,0.08 0 0 0 0,0.15 z"
       transform="translate(-4.09,-5)"
       id="path178"
       inkscape:connector-curvature="0"
       style="fill:#125e6b;fill-opacity:1" />
    <path
       d="m 44.48,44.19 1.49,0.25 a 0.08,0.08 0 0 0 0,-0.15 L 44.51,44 a 0.08,0.08 0 0 0 0,0.15 z"
       transform="translate(-4.09,-5)"
       id="path180"
       inkscape:connector-curvature="0"
       style="fill:#125e6b;fill-opacity:1" />
    <path
       d="m 44.55,43.71 1.5,0.26 a 0.08,0.08 0 0 0 0,-0.15 l -1.5,-0.26 a 0.08,0.08 0 0 0 0,0.15 z"
       transform="translate(-4.09,-5)"
       id="path182"
       inkscape:connector-curvature="0"
       style="fill:#125e6b;fill-opacity:1" />
    <path
       d="m 45.39,46.26 -1,-0.17 a 0.08,0.08 0 0 0 0,0.15 l 1,0.17 a 0.08,0.08 0 0 0 0,-0.15 z"
       transform="translate(-4.09,-5)"
       id="path184"
       inkscape:connector-curvature="0"
       style="fill:#125e6b;fill-opacity:1" />
    <path
       d="m 45.47,46.76 -1.29,-0.22 a 0.08,0.08 0 0 0 0,0.15 l 1.29,0.22 a 0.08,0.08 0 0 0 0,-0.15 z"
       transform="translate(-4.09,-5)"
       id="path186"
       inkscape:connector-curvature="0"
       style="fill:#125e6b;fill-opacity:1" />
    <path
       d="M 45.48,47.25 44,47 a 0.08,0.08 0 0 0 0,0.15 l 1.49,0.25 a 0.08,0.08 0 0 0 0,-0.15 z"
       transform="translate(-4.09,-5)"
       id="path188"
       inkscape:connector-curvature="0"
       style="fill:#125e6b;fill-opacity:1" />
    <path
       d="m 45.41,47.72 -1.5,-0.26 a 0.08,0.08 0 0 0 0,0.15 l 1.5,0.26 a 0.08,0.08 0 0 0 0,-0.15 z"
       transform="translate(-4.09,-5)"
       id="path190"
       inkscape:connector-curvature="0"
       style="fill:#125e6b;fill-opacity:1" />
    <path
       d="m 43,50.93 a 2.34,2.34 0 0 1 0.88,-1.6 c 0.08,-0.05 0,-0.18 -0.09,-0.13 a 2.49,2.49 0 0 0 -0.95,1.7 0.08,0.08 0 0 0 0.15,0 z"
       transform="translate(-4.09,-5)"
       id="path192"
       inkscape:connector-curvature="0"
       style="fill:#125e6b;fill-opacity:1" />
    <path
       d="m 44,48.61 1,0.17 a 0.08,0.08 0 0 0 0,-0.15 l -1,-0.17 a 0.08,0.08 0 0 0 0,0.15 z"
       transform="translate(-4.09,-5)"
       id="path194"
       inkscape:connector-curvature="0"
       style="fill:#125e6b;fill-opacity:1" />
    <path
       d="m 43.91,48.11 1.29,0.22 a 0.08,0.08 0 0 0 0,-0.15 L 43.94,48 a 0.08,0.08 0 0 0 0,0.15 z"
       transform="translate(-4.09,-5)"
       id="path196"
       inkscape:connector-curvature="0"
       style="fill:#125e6b;fill-opacity:1" />
    <path
       d="m 43.8,49.68 1,0.17 a 0.08,0.08 0 0 0 0,-0.15 l -1,-0.17 a 0.08,0.08 0 0 0 0,0.15 z"
       transform="translate(-4.09,-5)"
       id="path198"
       inkscape:connector-curvature="0"
       style="fill:#125e6b;fill-opacity:1" />
    <path
       d="m 43.57,50.13 1.29,0.22 a 0.08,0.08 0 0 0 0,-0.15 L 43.59,50 a 0.08,0.08 0 0 0 0,0.15 z"
       transform="translate(-4.09,-5)"
       id="path200"
       inkscape:connector-curvature="0"
       style="fill:#125e6b;fill-opacity:1" />
    <path
       d="m 43.39,50.58 1.49,0.25 a 0.08,0.08 0 0 0 0,-0.15 l -1.49,-0.25 a 0.08,0.08 0 0 0 0,0.15 z"
       transform="translate(-4.09,-5)"
       id="path202"
       inkscape:connector-curvature="0"
       style="fill:#125e6b;fill-opacity:1" />
    <path
       d="m 43.3,51.06 1.5,0.26 a 0.08,0.08 0 0 0 0,-0.15 l -1.5,-0.26 a 0.08,0.08 0 0 0 0,0.15 z"
       transform="translate(-4.09,-5)"
       id="path204"
       inkscape:connector-curvature="0"
       style="fill:#125e6b;fill-opacity:1" />
    <path
       d="m 45.41,46.06 a 1.91,1.91 0 0 1 0.32,1.45 2.08,2.08 0 0 1 -0.73,1.41 c -0.08,0.06 0,0.19 0.09,0.13 A 2.23,2.23 0 0 0 45.89,47.54 2.07,2.07 0 0 0 45.53,46 c -0.06,-0.08 -0.19,0 -0.13,0.09 z"
       transform="translate(-4.09,-5)"
       id="path206"
       inkscape:connector-curvature="0"
       style="fill:#125e6b;fill-opacity:1" />
    <path
       d="m 45.25,51.31 a 2.47,2.47 0 0 0 -0.33,-1.92 0.93,0.93 0 0 0 -0.55,-0.32 0.93,0.93 0 0 1 -0.6,-0.58 2.38,2.38 0 0 1 0.23,-2.16 1.18,1.18 0 0 1 0.71,-0.54 1.4,1.4 0 0 1 0.34,0 0.8,0.8 0 0 0 0.34,-0.06 2.3,2.3 0 0 0 1.11,-1.73 0.08,0.08 0 0 0 -0.15,0 3,3 0 0 1 -0.41,1.11 1.29,1.29 0 0 1 -0.66,0.57 0.89,0.89 0 0 1 -0.35,0 0.87,0.87 0 0 0 -0.36,0 1.39,1.39 0 0 0 -0.64,0.52 2.6,2.6 0 0 0 -0.4,2 1.57,1.57 0 0 0 0.37,0.75 0.94,0.94 0 0 0 0.28,0.21 c 0.1,0 0.21,0.05 0.31,0.09 A 1.05,1.05 0 0 1 45,50 a 2.9,2.9 0 0 1 0.05,1.3 0.08,0.08 0 0 0 0.15,0 z"
       transform="translate(-4.09,-5)"
       id="path208"
       inkscape:connector-curvature="0"
       style="fill:#125e6b;fill-opacity:1" />
    <path
       d="M 43.32,52.7 A 2.38,2.38 0 0 1 43,50.93 a 0.08,0.08 0 0 0 -0.15,0 2.53,2.53 0 0 0 0.31,1.89 c 0.06,0.08 0.19,0 0.13,-0.09 z"
       transform="translate(-4.09,-5)"
       id="path210"
       inkscape:connector-curvature="0"
       style="fill:#125e6b;fill-opacity:1" />
    <path
       d="m 43.33,52.52 1,0.17 a 0.08,0.08 0 0 0 0,-0.15 l -1,-0.17 a 0.08,0.08 0 0 0 0,0.15 z"
       transform="translate(-4.09,-5)"
       id="path212"
       inkscape:connector-curvature="0"
       style="fill:#125e6b;fill-opacity:1" />
    <path
       d="m 43.25,52 1.29,0.22 a 0.08,0.08 0 0 0 0,-0.15 l -1.29,-0.22 a 0.08,0.08 0 0 0 0,0.15 z"
       transform="translate(-4.09,-5)"
       id="path214"
       inkscape:connector-curvature="0"
       style="fill:#125e6b;fill-opacity:1" />
    <path
       d="m 43.24,51.53 1.49,0.25 a 0.08,0.08 0 0 0 0,-0.15 l -1.49,-0.25 a 0.08,0.08 0 0 0 0,0.15 z"
       transform="translate(-4.09,-5)"
       id="path216"
       inkscape:connector-curvature="0"
       style="fill:#125e6b;fill-opacity:1" />
    <path
       d="m 43.31,51.05 1.5,0.26 a 0.08,0.08 0 0 0 0,-0.15 l -1.5,-0.26 a 0.08,0.08 0 0 0 0,0.15 z"
       transform="translate(-4.09,-5)"
       id="path218"
       inkscape:connector-curvature="0"
       style="fill:#125e6b;fill-opacity:1" />
    <path
       d="m 44.15,53.6 -1,-0.17 a 0.08,0.08 0 0 0 0,0.15 l 1,0.17 a 0.08,0.08 0 0 0 0,-0.15 z"
       transform="translate(-4.09,-5)"
       id="path220"
       inkscape:connector-curvature="0"
       style="fill:#125e6b;fill-opacity:1" />
    <path
       d="m 44.22,54.1 -1.29,-0.22 a 0.08,0.08 0 0 0 0,0.15 l 1.29,0.22 a 0.08,0.08 0 0 0 0,-0.15 z"
       transform="translate(-4.09,-5)"
       id="path222"
       inkscape:connector-curvature="0"
       style="fill:#125e6b;fill-opacity:1" />
    <path
       d="m 44.24,54.59 -1.49,-0.25 a 0.08,0.08 0 0 0 0,0.15 l 1.49,0.25 a 0.08,0.08 0 0 0 0,-0.15 z"
       transform="translate(-4.09,-5)"
       id="path224"
       inkscape:connector-curvature="0"
       style="fill:#125e6b;fill-opacity:1" />
    <path
       d="m 44.16,55.07 -1.5,-0.26 a 0.08,0.08 0 0 0 0,0.15 l 1.5,0.26 a 0.08,0.08 0 0 0 0,-0.15 z"
       transform="translate(-4.09,-5)"
       id="path226"
       inkscape:connector-curvature="0"
       style="fill:#125e6b;fill-opacity:1" />
    <path
       d="m 41.81,58.29 a 2.34,2.34 0 0 1 0.84,-1.62 c 0.08,-0.06 0,-0.18 -0.09,-0.12 a 2.49,2.49 0 0 0 -0.9,1.72 0.08,0.08 0 0 0 0.15,0 z"
       transform="translate(-4.09,-5)"
       id="path228"
       inkscape:connector-curvature="0"
       style="fill:#125e6b;fill-opacity:1" />
    <path
       d="m 42.74,56 1,0.17 a 0.08,0.08 0 0 0 0,-0.15 l -1,-0.17 a 0.08,0.08 0 0 0 0,0.15 z"
       transform="translate(-4.09,-5)"
       id="path230"
       inkscape:connector-curvature="0"
       style="fill:#125e6b;fill-opacity:1" />
    <path
       d="m 42.67,55.46 1.29,0.22 a 0.08,0.08 0 0 0 0,-0.15 l -1.29,-0.22 a 0.08,0.08 0 0 0 0,0.15 z"
       transform="translate(-4.09,-5)"
       id="path232"
       inkscape:connector-curvature="0"
       style="fill:#125e6b;fill-opacity:1" />
    <path
       d="m 42.56,57 1,0.17 a 0.08,0.08 0 0 0 0,-0.15 l -1,-0.17 a 0.08,0.08 0 0 0 0,0.15 z"
       transform="translate(-4.09,-5)"
       id="path234"
       inkscape:connector-curvature="0"
       style="fill:#125e6b;fill-opacity:1" />
    <path
       d="m 42.32,57.47 1.29,0.22 a 0.08,0.08 0 0 0 0,-0.15 l -1.29,-0.22 a 0.08,0.08 0 0 0 0,0.15 z"
       transform="translate(-4.09,-5)"
       id="path236"
       inkscape:connector-curvature="0"
       style="fill:#125e6b;fill-opacity:1" />
    <path
       d="m 42.14,57.93 1.49,0.25 a 0.08,0.08 0 0 0 0,-0.15 l -1.49,-0.25 a 0.08,0.08 0 0 0 0,0.15 z"
       transform="translate(-4.09,-5)"
       id="path238"
       inkscape:connector-curvature="0"
       style="fill:#125e6b;fill-opacity:1" />
    <path
       d="m 42.06,58.4 1.5,0.26 a 0.08,0.08 0 0 0 0,-0.15 l -1.5,-0.26 a 0.08,0.08 0 0 0 0,0.15 z"
       transform="translate(-4.09,-5)"
       id="path240"
       inkscape:connector-curvature="0"
       style="fill:#125e6b;fill-opacity:1" />
    <path
       d="m 44.16,53.4 a 1.91,1.91 0 0 1 0.32,1.45 2.08,2.08 0 0 1 -0.73,1.41 c -0.08,0.06 0,0.19 0.09,0.13 a 2.23,2.23 0 0 0 0.8,-1.51 2.07,2.07 0 0 0 -0.35,-1.56 c -0.06,-0.08 -0.19,0 -0.13,0.09 z"
       transform="translate(-4.09,-5)"
       id="path242"
       inkscape:connector-curvature="0"
       style="fill:#125e6b;fill-opacity:1" />
    <path
       d="m 44,58.65 a 2.47,2.47 0 0 0 -0.33,-1.92 0.93,0.93 0 0 0 -0.55,-0.32 0.93,0.93 0 0 1 -0.6,-0.58 2.38,2.38 0 0 1 0.25,-2.16 1.18,1.18 0 0 1 0.71,-0.54 1.4,1.4 0 0 1 0.34,0 0.8,0.8 0 0 0 0.34,-0.06 2.3,2.3 0 0 0 1.1,-1.78 0.08,0.08 0 0 0 -0.15,0 3,3 0 0 1 -0.41,1.11 1.29,1.29 0 0 1 -0.7,0.6 0.89,0.89 0 0 1 -0.35,0 0.87,0.87 0 0 0 -0.36,0 1.39,1.39 0 0 0 -0.64,0.52 2.6,2.6 0 0 0 -0.4,2 1.57,1.57 0 0 0 0.37,0.75 0.94,0.94 0 0 0 0.28,0.21 c 0.1,0 0.21,0.05 0.31,0.09 a 1.05,1.05 0 0 1 0.56,0.73 2.9,2.9 0 0 1 0.05,1.3 0.08,0.08 0 0 0 0.15,0 z"
       transform="translate(-4.09,-5)"
       id="path244"
       inkscape:connector-curvature="0"
       style="fill:#125e6b;fill-opacity:1" />
    <path
       d="m 43.68,58 -1.49,-0.25 a 0.08,0.08 0 0 0 0,0.15 l 1.49,0.25 a 0.08,0.08 0 0 0 0,-0.15 z"
       transform="translate(-4.09,-5)"
       id="path246"
       inkscape:connector-curvature="0"
       style="fill:#125e6b;fill-opacity:1" />
    <path
       d="m 43.61,58.5 -1.5,-0.26 a 0.08,0.08 0 0 0 0,0.15 l 1.5,0.26 a 0.08,0.08 0 0 0 0,-0.15 z"
       transform="translate(-4.09,-5)"
       id="path248"
       inkscape:connector-curvature="0"
       style="fill:#125e6b;fill-opacity:1" />
    <path
       d="m 41.23,61.71 a 2.34,2.34 0 0 1 0.88,-1.6 c 0.08,-0.05 0,-0.18 -0.09,-0.13 a 2.49,2.49 0 0 0 -0.95,1.7 0.08,0.08 0 0 0 0.15,0 z"
       transform="translate(-4.09,-5)"
       id="path250"
       inkscape:connector-curvature="0"
       style="fill:#125e6b;fill-opacity:1" />
    <path
       d="m 42.19,59.39 1,0.17 a 0.08,0.08 0 0 0 0,-0.15 l -1,-0.17 a 0.08,0.08 0 0 0 0,0.15 z"
       transform="translate(-4.09,-5)"
       id="path252"
       inkscape:connector-curvature="0"
       style="fill:#125e6b;fill-opacity:1" />
    <path
       d="m 42.11,58.89 1.29,0.22 a 0.08,0.08 0 0 0 0,-0.15 l -1.29,-0.22 a 0.08,0.08 0 0 0 0,0.15 z"
       transform="translate(-4.09,-5)"
       id="path254"
       inkscape:connector-curvature="0"
       style="fill:#125e6b;fill-opacity:1" />
    <path
       d="m 42,60.46 1,0.17 a 0.08,0.08 0 0 0 0,-0.15 l -1,-0.17 a 0.08,0.08 0 0 0 0,0.15 z"
       transform="translate(-4.09,-5)"
       id="path256"
       inkscape:connector-curvature="0"
       style="fill:#125e6b;fill-opacity:1" />
    <path
       d="m 41.77,60.91 1.29,0.22 a 0.08,0.08 0 0 0 0,-0.15 l -1.29,-0.22 a 0.08,0.08 0 0 0 0,0.15 z"
       transform="translate(-4.09,-5)"
       id="path258"
       inkscape:connector-curvature="0"
       style="fill:#125e6b;fill-opacity:1" />
    <path
       d="m 41.59,61.37 1.49,0.25 a 0.08,0.08 0 0 0 0,-0.15 l -1.49,-0.25 a 0.08,0.08 0 0 0 0,0.15 z"
       transform="translate(-4.09,-5)"
       id="path260"
       inkscape:connector-curvature="0"
       style="fill:#125e6b;fill-opacity:1" />
    <path
       d="M 41.5,61.84 43,62.1 a 0.08,0.08 0 0 0 0,-0.15 l -1.5,-0.26 a 0.08,0.08 0 0 0 0,0.15 z"
       transform="translate(-4.09,-5)"
       id="path262"
       inkscape:connector-curvature="0"
       style="fill:#125e6b;fill-opacity:1" />
    <path
       d="m 43.24,59.72 a 2.08,2.08 0 0 0 0.66,-1.45 2.59,2.59 0 0 0 0,-0.42 l 0.16,0.09 a 2.84,2.84 0 0 1 0,0.35 2.23,2.23 0 0 1 -0.72,1.55 c -0.08,0.06 -0.18,-0.06 -0.1,-0.12 z"
       transform="translate(-4.09,-5)"
       id="path264"
       inkscape:connector-curvature="0"
       style="fill:#125e6b;fill-opacity:1" />
    <path
       d="m 42.06,57.39 a 2.36,2.36 0 0 0 -0.06,1.88 0.93,0.93 0 0 0 0.6,0.58 0.93,0.93 0 0 1 0.55,0.32 2.47,2.47 0 0 1 0.33,1.92 0.08,0.08 0 0 1 -0.15,0 2.9,2.9 0 0 0 -0.05,-1.3 1.05,1.05 0 0 0 -0.56,-0.73 c -0.1,0 -0.21,0 -0.31,-0.09 a 0.94,0.94 0 0 1 -0.28,-0.21 1.57,1.57 0 0 1 -0.37,-0.75 2.62,2.62 0 0 1 0.21,-1.67 z"
       transform="translate(-4.09,-5)"
       id="path266"
       inkscape:connector-curvature="0"
       style="fill:#125e6b;fill-opacity:1" />
    <path
       d="m 53.09,63.48 c -1.77,0.29 -2,-1.5 -2.22,-2.74 L 50.12,56.19 48.39,45.65 c -0.16,-1 -0.6,-2.29 0.15,-3.15 a 1.82,1.82 0 0 1 3.13,1 c 0.06,0.27 0.09,0.54 0.13,0.81 l 1.63,9.93 0.91,5.53 c 0.24,1.44 0.77,3.3 -1.25,3.76 -0.59,0.13 -0.34,1 0.25,0.91 a 2.77,2.77 0 0 0 2.23,-2.92 c 0,-0.31 -0.09,-0.62 -0.14,-0.93 L 54.65,55.86 52.73,44.1 c -0.25,-1.49 -0.79,-3 -2.56,-3.14 -2.1,-0.22 -3.21,1.7 -2.91,3.55 0.59,3.62 1.19,7.25 1.79,10.87 l 1,5.89 c 0.05,0.31 0.09,0.62 0.15,0.92 a 2.78,2.78 0 0 0 3.18,2.2 c 0.56,-0.1 0.31,-1.01 -0.29,-0.91 z"
       transform="translate(-4.09,-5)"
       id="path268"
       inkscape:connector-curvature="0"
       style="fill:#125e6b;fill-opacity:1" />
    <path
       d="m 41.92,64.39 c 1.9,0.31 3,-1.13 3.28,-2.8 L 46,57 47.9,45.18 c 0.24,-1.43 0.37,-2.92 -1.08,-3.82 a 2.78,2.78 0 0 0 -4.18,2.12 C 42,47 41.46,50.64 40.87,54.22 l -1,6 c -0.06,0.34 -0.12,0.67 -0.17,1 a 2.79,2.79 0 0 0 2.19,3.18 c 0.59,0.13 0.84,-0.78 0.25,-0.91 -1.83,-0.41 -1.54,-2 -1.32,-3.32 l 0.76,-4.62 1.72,-10.48 c 0.17,-1 0.18,-2.39 1.18,-2.94 A 1.81,1.81 0 0 1 47.15,44 c 0,0.29 -0.1,0.59 -0.15,0.88 l -1.65,10 -0.9,5.46 c -0.21,1.3 -0.35,3.48 -2.29,3.16 -0.59,-0.12 -0.84,0.79 -0.24,0.89 z"
       transform="translate(-4.09,-5)"
       id="path270"
       inkscape:connector-curvature="0"
       style="fill:#125e6b;fill-opacity:1" />
    <path
       d="m 53.2,26.32 a 2.77,2.77 0 0 0 -3.34,1.3 14.64,14.64 0 0 0 -0.68,1.75 c -0.63,1.68 -1.34,3.35 -1.89,5.06 a 2.75,2.75 0 0 0 4.63,2.73 5.57,5.57 0 0 0 0.85,-1.79 l 1.16,-3.11 c 0.3,-0.8 0.64,-1.61 0.91,-2.42 a 2.78,2.78 0 0 0 -1.53,-3.47 c -0.55,-0.24 -1,0.57 -0.48,0.81 2,0.87 1,2.73 0.44,4.16 -0.56,1.43 -1.07,2.91 -1.63,4.36 a 1.91,1.91 0 0 1 -2,1.43 1.83,1.83 0 0 1 -1.41,-2.51 c 0.43,-1.33 1,-2.64 1.48,-3.95 0.48,-1.31 1.09,-4.25 3.25,-3.45 0.56,0.22 0.8,-0.69 0.24,-0.9 z"
       transform="translate(-4.09,-5)"
       id="path272"
       inkscape:connector-curvature="0"
       style="fill:#125e6b;fill-opacity:1" />
    <path
       d="m 42.25,27.23 c 2,-0.73 2.5,1.45 3,2.78 0.5,1.33 1.1,2.9 1.63,4.36 A 2,2 0 0 1 46.5,36.72 1.82,1.82 0 0 1 43.64,36 c -0.56,-1.28 -1,-2.64 -1.48,-3.95 -0.58,-1.54 -2,-3.88 0.19,-4.83 0.55,-0.24 0.07,-1.06 -0.48,-0.81 a 2.78,2.78 0 0 0 -1.54,3.44 c 0.18,0.58 0.43,1.14 0.64,1.71 0.6,1.6 1.13,3.25 1.81,4.82 1.21,2.81 5.59,1.9 5.27,-1.26 a 7.66,7.66 0 0 0 -0.58,-1.81 l -1.19,-3.18 c -0.26,-0.7 -0.51,-1.42 -0.79,-2.11 A 2.77,2.77 0 0 0 42,26.32 c -0.57,0.21 -0.32,1.12 0.25,0.91 z"
       transform="translate(-4.09,-5)"
       id="path274"
       inkscape:connector-curvature="0"
       style="fill:#125e6b;fill-opacity:1" />
    <path
       d="m 49.62,39.53 c -0.13,2.54 -4,2.59 -4,0 0,-2.59 3.86,-2.55 4,0 0,0.6 1,0.61 0.94,0 a 2.94,2.94 0 1 0 -2.94,2.94 3,3 0 0 0 2.94,-2.94 c 0.04,-0.61 -0.9,-0.61 -0.94,0 z"
       transform="translate(-4.09,-5)"
       id="path276"
       inkscape:connector-curvature="0"
       style="fill:#125e6b;fill-opacity:1" />
    <path
       d="M 69.89,30.5 A 2.38,2.38 0 0 1 70,28.7 0.08077747,0.08077747 0 0 0 69.85,28.64 2.53,2.53 0 0 0 69.78,30.55 0.08,0.08 0 0 0 69.92,30.49 Z"
       transform="translate(-4.09,-5)"
       id="path278"
       inkscape:connector-curvature="0"
       style="fill:#125e6b;fill-opacity:1" />
    <path
       d="m 69.93,30.32 0.92,0.36 a 0.08077747,0.08077747 0 0 0 0.06,-0.15 L 70,30.17 a 0.08077747,0.08077747 0 0 0 -0.06,0.15 z"
       transform="translate(-4.09,-5)"
       id="path280"
       inkscape:connector-curvature="0"
       style="fill:#125e6b;fill-opacity:1" />
    <path
       d="m 70,29.81 1.22,0.47 a 0.08077747,0.08077747 0 0 0 0.06,-0.15 L 70,29.67 a 0.08077747,0.08077747 0 0 0 -0.06,0.15 z"
       transform="translate(-4.09,-5)"
       id="path282"
       inkscape:connector-curvature="0"
       style="fill:#125e6b;fill-opacity:1" />
    <path
       d="m 70,29.33 1.41,0.55 a 0.08077747,0.08077747 0 0 0 0.06,-0.15 L 70.06,29.18 A 0.08077747,0.08077747 0 0 0 70,29.33 Z"
       transform="translate(-4.09,-5)"
       id="path284"
       inkscape:connector-curvature="0"
       style="fill:#125e6b;fill-opacity:1" />
    <path
       d="m 70.2,28.88 1.42,0.55 a 0.08077747,0.08077747 0 0 0 0.06,-0.15 l -1.42,-0.55 a 0.08077747,0.08077747 0 0 0 -0.06,0.15 z"
       transform="translate(-4.09,-5)"
       id="path286"
       inkscape:connector-curvature="0"
       style="fill:#125e6b;fill-opacity:1" />
    <path
       d="M 70.52,31.54 69.6,31.18 a 0.08077747,0.08077747 0 0 0 -0.06,0.15 l 0.92,0.36 a 0.08077747,0.08077747 0 0 0 0.06,-0.15 z"
       transform="translate(-4.09,-5)"
       id="path288"
       inkscape:connector-curvature="0"
       style="fill:#125e6b;fill-opacity:1" />
    <path
       d="m 70.5,32 -1.22,-0.47 a 0.08077747,0.08077747 0 0 0 -0.06,0.15 l 1.22,0.47 A 0.08077747,0.08077747 0 0 0 70.5,32 Z"
       transform="translate(-4.09,-5)"
       id="path290"
       inkscape:connector-curvature="0"
       style="fill:#125e6b;fill-opacity:1" />
    <path
       d="M 70.41,32.53 69,32 a 0.08077747,0.08077747 0 0 0 -0.06,0.15 l 1.41,0.55 a 0.08077747,0.08077747 0 0 0 0.06,-0.15 z"
       transform="translate(-4.09,-5)"
       id="path292"
       inkscape:connector-curvature="0"
       style="fill:#125e6b;fill-opacity:1" />
    <path
       d="m 70.24,33 -1.42,-0.55 a 0.08077747,0.08077747 0 0 0 -0.06,0.15 l 1.42,0.55 A 0.08077747,0.08077747 0 0 0 70.24,33 Z"
       transform="translate(-4.09,-5)"
       id="path294"
       inkscape:connector-curvature="0"
       style="fill:#125e6b;fill-opacity:1" />
    <path
       d="m 67.27,35.65 a 2.34,2.34 0 0 1 1.18,-1.39 c 0.09,0 0,-0.18 -0.06,-0.14 a 2.49,2.49 0 0 0 -1.27,1.47 0.08077747,0.08077747 0 0 0 0.15,0.06 z"
       transform="translate(-4.09,-5)"
       id="path296"
       inkscape:connector-curvature="0"
       style="fill:#125e6b;fill-opacity:1" />
    <path
       d="m 68.67,33.57 0.92,0.36 a 0.08077747,0.08077747 0 0 0 0.06,-0.15 l -0.92,-0.36 a 0.08077747,0.08077747 0 0 0 -0.06,0.15 z"
       transform="translate(-4.09,-5)"
       id="path298"
       inkscape:connector-curvature="0"
       style="fill:#125e6b;fill-opacity:1" />
    <path
       d="m 68.7,33.06 1.22,0.47 a 0.08077747,0.08077747 0 0 0 0.06,-0.15 l -1.22,-0.47 a 0.08077747,0.08077747 0 0 0 -0.06,0.15 z"
       transform="translate(-4.09,-5)"
       id="path300"
       inkscape:connector-curvature="0"
       style="fill:#125e6b;fill-opacity:1" />
    <path
       d="m 68.28,34.58 0.92,0.36 a 0.08077747,0.08077747 0 0 0 0.06,-0.15 l -0.92,-0.36 a 0.08077747,0.08077747 0 0 0 -0.06,0.15 z"
       transform="translate(-4.09,-5)"
       id="path302"
       inkscape:connector-curvature="0"
       style="fill:#125e6b;fill-opacity:1" />
    <path
       d="m 68,35 1.22,0.47 a 0.08077747,0.08077747 0 0 0 0.06,-0.15 L 68,34.82 A 0.09,0.09 0 0 0 68,35 Z"
       transform="translate(-4.09,-5)"
       id="path304"
       inkscape:connector-curvature="0"
       style="fill:#125e6b;fill-opacity:1" />
    <path
       d="m 67.69,35.38 1.41,0.55 a 0.08077747,0.08077747 0 0 0 0.06,-0.15 l -1.41,-0.55 a 0.08077747,0.08077747 0 0 0 -0.06,0.15 z"
       transform="translate(-4.09,-5)"
       id="path306"
       inkscape:connector-curvature="0"
       style="fill:#125e6b;fill-opacity:1" />
    <path
       d="m 67.52,35.83 1.42,0.55 A 0.08077747,0.08077747 0 0 0 69,36.23 l -1.42,-0.55 a 0.08077747,0.08077747 0 0 0 -0.06,0.15 z"
       transform="translate(-4.09,-5)"
       id="path308"
       inkscape:connector-curvature="0"
       style="fill:#125e6b;fill-opacity:1" />
    <path
       d="m 70.57,31.35 a 1.91,1.91 0 0 1 0,1.48 2.08,2.08 0 0 1 -1,1.24 c -0.09,0 0,0.19 0.06,0.14 a 2.23,2.23 0 0 0 1.08,-1.32 2.07,2.07 0 0 0 0,-1.6 c 0,-0.09 -0.19,0 -0.14,0.06 z"
       transform="translate(-4.09,-5)"
       id="path310"
       inkscape:connector-curvature="0"
       style="fill:#125e6b;fill-opacity:1" />
    <path
       d="M 69.37,36.46 A 2.47,2.47 0 0 0 69.43,34.51 0.93,0.93 0 0 0 68.96,34.08 0.93,0.93 0 0 1 68.49,33.39 2.38,2.38 0 0 1 69.16,31.33 1.18,1.18 0 0 1 70,31 a 1.4,1.4 0 0 1 0.33,0.07 0.8,0.8 0 0 0 0.35,0 c 0.71,-0.14 1.19,-0.9 1.43,-1.52 a 0.08077747,0.08077747 0 0 0 -0.15,-0.06 3,3 0 0 1 -0.63,1 1.29,1.29 0 0 1 -0.76,0.43 0.89,0.89 0 0 1 -0.34,-0.06 0.87,0.87 0 0 0 -0.37,0 1.39,1.39 0 0 0 -0.73,0.38 2.6,2.6 0 0 0 -0.8,1.89 1.57,1.57 0 0 0 0.21,0.81 0.94,0.94 0 0 0 0.24,0.26 c 0.09,0.07 0.2,0.1 0.29,0.15 a 1.05,1.05 0 0 1 0.4,0.83 2.9,2.9 0 0 1 -0.21,1.28 0.08077747,0.08077747 0 0 0 0.15,0.06 z"
       transform="translate(-4.09,-5)"
       id="path312"
       inkscape:connector-curvature="0"
       style="fill:#125e6b;fill-opacity:1" />
    <path
       d="m 62.41,30.62 a 2.38,2.38 0 0 0 -0.08,-1.79 0.08077747,0.08077747 0 0 1 0.15,-0.06 2.53,2.53 0 0 1 0.07,1.91 0.08,0.08 0 0 1 -0.14,-0.06 z"
       transform="translate(-4.09,-5)"
       id="path314"
       inkscape:connector-curvature="0"
       style="fill:#125e6b;fill-opacity:1" />
    <path
       d="m 62.37,30.44 -0.92,0.36 a 0.08077747,0.08077747 0 0 1 -0.06,-0.15 l 0.92,-0.36 a 0.08077747,0.08077747 0 0 1 0.06,0.15 z"
       transform="translate(-4.09,-5)"
       id="path316"
       inkscape:connector-curvature="0"
       style="fill:#125e6b;fill-opacity:1" />
    <path
       d="m 62.34,29.94 -1.22,0.47 a 0.08077747,0.08077747 0 0 1 -0.06,-0.15 l 1.22,-0.47 a 0.08077747,0.08077747 0 0 1 0.06,0.15 z"
       transform="translate(-4.09,-5)"
       id="path318"
       inkscape:connector-curvature="0"
       style="fill:#125e6b;fill-opacity:1" />
    <path
       d="M 62.26,29.45 60.85,30 A 0.08077747,0.08077747 0 0 1 60.79,29.85 L 62.2,29.3 a 0.08077747,0.08077747 0 0 1 0.06,0.15 z"
       transform="translate(-4.09,-5)"
       id="path320"
       inkscape:connector-curvature="0"
       style="fill:#125e6b;fill-opacity:1" />
    <path
       d="m 62.09,29 -1.42,0.55 A 0.08077747,0.08077747 0 0 1 60.61,29.4 L 62,28.86 a 0.08077747,0.08077747 0 0 1 0.06,0.15 z"
       transform="translate(-4.09,-5)"
       id="path322"
       inkscape:connector-curvature="0"
       style="fill:#125e6b;fill-opacity:1" />
    <path
       d="m 61.78,31.67 0.92,-0.36 a 0.08077747,0.08077747 0 0 1 0.06,0.15 l -0.92,0.36 a 0.08077747,0.08077747 0 0 1 -0.06,-0.15 z"
       transform="translate(-4.09,-5)"
       id="path324"
       inkscape:connector-curvature="0"
       style="fill:#125e6b;fill-opacity:1" />
    <path
       d="M 61.8,32.17 63,31.7 a 0.08077747,0.08077747 0 0 1 0.06,0.15 l -1.22,0.47 a 0.08077747,0.08077747 0 0 1 -0.06,-0.15 z"
       transform="translate(-4.09,-5)"
       id="path326"
       inkscape:connector-curvature="0"
       style="fill:#125e6b;fill-opacity:1" />
    <path
       d="m 61.88,32.66 1.41,-0.55 a 0.08077747,0.08077747 0 0 1 0.06,0.15 l -1.41,0.55 a 0.08077747,0.08077747 0 0 1 -0.06,-0.15 z"
       transform="translate(-4.09,-5)"
       id="path328"
       inkscape:connector-curvature="0"
       style="fill:#125e6b;fill-opacity:1" />
    <path
       d="m 62.05,33.11 1.42,-0.55 a 0.08077747,0.08077747 0 0 1 0.06,0.15 l -1.42,0.55 a 0.08077747,0.08077747 0 0 1 -0.06,-0.15 z"
       transform="translate(-4.09,-5)"
       id="path330"
       inkscape:connector-curvature="0"
       style="fill:#125e6b;fill-opacity:1" />
    <path
       d="m 65,35.78 a 2.34,2.34 0 0 0 -1.18,-1.39 c -0.09,0 0,-0.18 0.06,-0.14 a 2.49,2.49 0 0 1 1.27,1.47 0.08077747,0.08077747 0 0 1 -0.15,0.06 z"
       transform="translate(-4.09,-5)"
       id="path332"
       inkscape:connector-curvature="0"
       style="fill:#125e6b;fill-opacity:1" />
    <path
       d="m 63.63,33.69 -0.92,0.36 A 0.08077747,0.08077747 0 0 1 62.65,33.9 l 0.92,-0.36 a 0.08077747,0.08077747 0 0 1 0.06,0.15 z"
       transform="translate(-4.09,-5)"
       id="path334"
       inkscape:connector-curvature="0"
       style="fill:#125e6b;fill-opacity:1" />
    <path
       d="m 63.6,33.19 -1.22,0.47 A 0.08077747,0.08077747 0 0 1 62.32,33.51 L 63.54,33 a 0.08077747,0.08077747 0 0 1 0.06,0.15 z"
       transform="translate(-4.09,-5)"
       id="path336"
       inkscape:connector-curvature="0"
       style="fill:#125e6b;fill-opacity:1" />
    <path
       d="m 64,34.7 -0.92,0.36 a 0.08077747,0.08077747 0 0 1 -0.06,-0.15 l 0.92,-0.36 A 0.08077747,0.08077747 0 0 1 64,34.7 Z"
       transform="translate(-4.09,-5)"
       id="path338"
       inkscape:connector-curvature="0"
       style="fill:#125e6b;fill-opacity:1" />
    <path
       d="m 64.34,35.09 -1.22,0.47 a 0.08077747,0.08077747 0 0 1 -0.06,-0.15 l 1.22,-0.47 a 0.08077747,0.08077747 0 0 1 0.06,0.15 z"
       transform="translate(-4.09,-5)"
       id="path340"
       inkscape:connector-curvature="0"
       style="fill:#125e6b;fill-opacity:1" />
    <path
       d="m 64.6,35.51 -1.41,0.55 a 0.08077747,0.08077747 0 0 1 -0.06,-0.15 l 1.41,-0.55 a 0.08077747,0.08077747 0 0 1 0.06,0.15 z"
       transform="translate(-4.09,-5)"
       id="path342"
       inkscape:connector-curvature="0"
       style="fill:#125e6b;fill-opacity:1" />
    <path
       d="m 64.78,36 -1.42,0.55 A 0.08077747,0.08077747 0 0 1 63.3,36.4 l 1.42,-0.55 A 0.08077747,0.08077747 0 0 1 64.78,36 Z"
       transform="translate(-4.09,-5)"
       id="path344"
       inkscape:connector-curvature="0"
       style="fill:#125e6b;fill-opacity:1" />
    <path
       d="m 61.72,31.47 a 1.91,1.91 0 0 0 0,1.48 2.08,2.08 0 0 0 1,1.24 c 0.09,0 0,0.19 -0.06,0.14 A 2.23,2.23 0 0 1 61.55,33 a 2.07,2.07 0 0 1 0,-1.6 c 0,-0.09 0.19,0 0.14,0.06 z"
       transform="translate(-4.09,-5)"
       id="path346"
       inkscape:connector-curvature="0"
       style="fill:#125e6b;fill-opacity:1" />
    <path
       d="m 62.93,36.59 a 2.47,2.47 0 0 1 -0.06,-1.95 0.93,0.93 0 0 1 0.47,-0.43 0.93,0.93 0 0 0 0.47,-0.69 2.38,2.38 0 0 0 -0.67,-2.06 1.18,1.18 0 0 0 -0.8,-0.38 1.4,1.4 0 0 0 -0.33,0.07 0.8,0.8 0 0 1 -0.35,0 c -0.71,-0.14 -1.19,-0.9 -1.43,-1.52 a 0.08077747,0.08077747 0 0 1 0.15,-0.06 3,3 0 0 0 0.63,1 1.29,1.29 0 0 0 0.76,0.43 0.89,0.89 0 0 0 0.34,-0.06 0.87,0.87 0 0 1 0.37,0 1.39,1.39 0 0 1 0.73,0.38 2.6,2.6 0 0 1 0.79,1.88 1.57,1.57 0 0 1 -0.21,0.81 0.94,0.94 0 0 1 -0.24,0.26 c -0.09,0.07 -0.2,0.1 -0.29,0.15 a 1.05,1.05 0 0 0 -0.4,0.83 2.9,2.9 0 0 0 0.21,1.28 0.08077747,0.08077747 0 0 1 -0.15,0.06 z"
       transform="translate(-4.09,-5)"
       id="path348"
       inkscape:connector-curvature="0"
       style="fill:#125e6b;fill-opacity:1" />
    <path
       d="m 69.17,45.56 a 2.38,2.38 0 0 0 0.28,-1.77 0.08,0.08 0 0 1 0.15,0 2.53,2.53 0 0 1 -0.31,1.89 c -0.06,0.08 -0.19,0 -0.13,-0.09 z"
       transform="translate(-4.09,-5)"
       id="path350"
       inkscape:connector-curvature="0"
       style="fill:#125e6b;fill-opacity:1" />
    <path
       d="m 69.16,45.37 -1,0.17 a 0.08,0.08 0 0 1 0,-0.15 l 1,-0.17 a 0.08,0.08 0 0 1 0,0.15 z"
       transform="translate(-4.09,-5)"
       id="path352"
       inkscape:connector-curvature="0"
       style="fill:#125e6b;fill-opacity:1" />
    <path
       d="m 69.24,44.87 -1.29,0.22 a 0.08,0.08 0 0 1 0,-0.15 l 1.29,-0.22 a 0.08,0.08 0 0 1 0,0.15 z"
       transform="translate(-4.09,-5)"
       id="path354"
       inkscape:connector-curvature="0"
       style="fill:#125e6b;fill-opacity:1" />
    <path
       d="m 69.25,44.38 -1.49,0.25 a 0.08,0.08 0 0 1 0,-0.15 l 1.49,-0.25 a 0.08,0.08 0 0 1 0,0.15 z"
       transform="translate(-4.09,-5)"
       id="path356"
       inkscape:connector-curvature="0"
       style="fill:#125e6b;fill-opacity:1" />
    <path
       d="m 69.18,43.91 -1.5,0.26 a 0.08,0.08 0 0 1 0,-0.15 l 1.5,-0.26 a 0.08,0.08 0 0 1 0,0.15 z"
       transform="translate(-4.09,-5)"
       id="path358"
       inkscape:connector-curvature="0"
       style="fill:#125e6b;fill-opacity:1" />
    <path
       d="m 68.34,46.45 1,-0.17 a 0.08,0.08 0 0 1 0,0.15 l -1,0.17 a 0.08,0.08 0 0 1 0,-0.15 z"
       transform="translate(-4.09,-5)"
       id="path360"
       inkscape:connector-curvature="0"
       style="fill:#125e6b;fill-opacity:1" />
    <path
       d="m 68.26,47 1.29,-0.22 a 0.08,0.08 0 0 1 0,0.15 l -1.29,0.22 a 0.08,0.08 0 0 1 0,-0.15 z"
       transform="translate(-4.09,-5)"
       id="path362"
       inkscape:connector-curvature="0"
       style="fill:#125e6b;fill-opacity:1" />
    <path
       d="m 68.25,47.45 1.49,-0.25 a 0.08,0.08 0 0 1 0,0.15 l -1.49,0.25 a 0.08,0.08 0 0 1 0,-0.15 z"
       transform="translate(-4.09,-5)"
       id="path364"
       inkscape:connector-curvature="0"
       style="fill:#125e6b;fill-opacity:1" />
    <path
       d="m 68.32,47.92 1.5,-0.26 a 0.08,0.08 0 0 1 0,0.15 l -1.5,0.26 a 0.08,0.08 0 0 1 0,-0.15 z"
       transform="translate(-4.09,-5)"
       id="path366"
       inkscape:connector-curvature="0"
       style="fill:#125e6b;fill-opacity:1" />
    <path
       d="m 70.7,51.13 a 2.34,2.34 0 0 0 -0.88,-1.6 c -0.08,-0.05 0,-0.18 0.09,-0.13 a 2.49,2.49 0 0 1 0.95,1.7 0.08,0.08 0 0 1 -0.15,0 z"
       transform="translate(-4.09,-5)"
       id="path368"
       inkscape:connector-curvature="0"
       style="fill:#125e6b;fill-opacity:1" />
    <path
       d="m 69.75,48.81 -1,0.17 a 0.08,0.08 0 0 1 0,-0.15 l 1,-0.17 a 0.08,0.08 0 0 1 0,0.15 z"
       transform="translate(-4.09,-5)"
       id="path370"
       inkscape:connector-curvature="0"
       style="fill:#125e6b;fill-opacity:1" />
    <path
       d="m 69.82,48.31 -1.29,0.22 a 0.08,0.08 0 0 1 0,-0.15 l 1.29,-0.22 a 0.08,0.08 0 0 1 0,0.15 z"
       transform="translate(-4.09,-5)"
       id="path372"
       inkscape:connector-curvature="0"
       style="fill:#125e6b;fill-opacity:1" />
    <path
       d="M 69.93,49.88 69,50 a 0.08,0.08 0 0 1 0,-0.15 l 1,-0.17 a 0.08,0.08 0 0 1 0,0.15 z"
       transform="translate(-4.09,-5)"
       id="path374"
       inkscape:connector-curvature="0"
       style="fill:#125e6b;fill-opacity:1" />
    <path
       d="m 70.17,50.32 -1.29,0.22 a 0.08,0.08 0 0 1 0,-0.15 l 1.29,-0.22 a 0.08,0.08 0 0 1 0,0.15 z"
       transform="translate(-4.09,-5)"
       id="path376"
       inkscape:connector-curvature="0"
       style="fill:#125e6b;fill-opacity:1" />
    <path
       d="M 70.34,50.78 68.85,51 a 0.08,0.08 0 0 1 0,-0.15 l 1.49,-0.25 a 0.08,0.08 0 0 1 0,0.15 z"
       transform="translate(-4.09,-5)"
       id="path378"
       inkscape:connector-curvature="0"
       style="fill:#125e6b;fill-opacity:1" />
    <path
       d="m 70.43,51.25 -1.5,0.26 a 0.08,0.08 0 0 1 0,-0.15 l 1.5,-0.26 a 0.08,0.08 0 0 1 0,0.15 z"
       transform="translate(-4.09,-5)"
       id="path380"
       inkscape:connector-curvature="0"
       style="fill:#125e6b;fill-opacity:1" />
    <path
       d="M 68.33,46.26 A 1.91,1.91 0 0 0 68,47.7 a 2.08,2.08 0 0 0 0.73,1.41 c 0.08,0.06 0,0.19 -0.09,0.13 a 2.23,2.23 0 0 1 -0.8,-1.51 2.07,2.07 0 0 1 0.35,-1.56 c 0.06,-0.08 0.19,0 0.13,0.09 z"
       transform="translate(-4.09,-5)"
       id="path382"
       inkscape:connector-curvature="0"
       style="fill:#125e6b;fill-opacity:1" />
    <path
       d="m 68.48,51.51 a 2.47,2.47 0 0 1 0.33,-1.92 0.93,0.93 0 0 1 0.55,-0.32 0.93,0.93 0 0 0 0.6,-0.58 A 2.38,2.38 0 0 0 69.71,46.53 1.18,1.18 0 0 0 69,46 a 1.4,1.4 0 0 0 -0.34,0 0.8,0.8 0 0 1 -0.34,-0.06 2.3,2.3 0 0 1 -1.1,-1.78 0.08,0.08 0 0 1 0.15,0 3,3 0 0 0 0.41,1.11 1.29,1.29 0 0 0 0.66,0.57 0.89,0.89 0 0 0 0.35,0 0.87,0.87 0 0 1 0.36,0 1.39,1.39 0 0 1 0.64,0.52 2.6,2.6 0 0 1 0.4,2 1.57,1.57 0 0 1 -0.37,0.75 0.94,0.94 0 0 1 -0.28,0.21 c -0.1,0 -0.21,0.05 -0.31,0.09 a 1.05,1.05 0 0 0 -0.56,0.73 2.9,2.9 0 0 0 -0.05,1.3 0.08,0.08 0 0 1 -0.15,0 z"
       transform="translate(-4.09,-5)"
       id="path384"
       inkscape:connector-curvature="0"
       style="fill:#125e6b;fill-opacity:1" />
    <path
       d="m 70.41,52.9 a 2.38,2.38 0 0 0 0.28,-1.77 0.08,0.08 0 0 1 0.15,0 2.53,2.53 0 0 1 -0.3,1.87 c -0.06,0.08 -0.19,0 -0.13,-0.09 z"
       transform="translate(-4.09,-5)"
       id="path386"
       inkscape:connector-curvature="0"
       style="fill:#125e6b;fill-opacity:1" />
    <path
       d="m 70.41,52.72 -1,0.17 a 0.08,0.08 0 0 1 0,-0.15 l 1,-0.17 a 0.08,0.08 0 0 1 0,0.15 z"
       transform="translate(-4.09,-5)"
       id="path388"
       inkscape:connector-curvature="0"
       style="fill:#125e6b;fill-opacity:1" />
    <path
       d="m 70.48,52.22 -1.29,0.22 a 0.08,0.08 0 0 1 0,-0.15 l 1.29,-0.22 a 0.08,0.08 0 0 1 0,0.15 z"
       transform="translate(-4.09,-5)"
       id="path390"
       inkscape:connector-curvature="0"
       style="fill:#125e6b;fill-opacity:1" />
    <path
       d="M 70.5,51.73 69,52 a 0.08,0.08 0 0 1 0,-0.15 l 1.49,-0.25 a 0.08,0.08 0 0 1 0,0.15 z"
       transform="translate(-4.09,-5)"
       id="path392"
       inkscape:connector-curvature="0"
       style="fill:#125e6b;fill-opacity:1" />
    <path
       d="m 70.43,51.25 -1.5,0.26 a 0.08,0.08 0 0 1 0,-0.15 l 1.5,-0.26 a 0.08,0.08 0 0 1 0,0.15 z"
       transform="translate(-4.09,-5)"
       id="path394"
       inkscape:connector-curvature="0"
       style="fill:#125e6b;fill-opacity:1" />
    <path
       d="m 69.58,53.8 1,-0.17 a 0.08,0.08 0 0 1 0,0.15 l -1,0.17 a 0.08,0.08 0 0 1 0,-0.15 z"
       transform="translate(-4.09,-5)"
       id="path396"
       inkscape:connector-curvature="0"
       style="fill:#125e6b;fill-opacity:1" />
    <path
       d="m 69.51,54.3 1.29,-0.22 a 0.08,0.08 0 0 1 0,0.15 l -1.29,0.22 a 0.08,0.08 0 0 1 0,-0.15 z"
       transform="translate(-4.09,-5)"
       id="path398"
       inkscape:connector-curvature="0"
       style="fill:#125e6b;fill-opacity:1" />
    <path
       d="M 69.49,54.79 71,54.53 a 0.08,0.08 0 0 1 0,0.15 l -1.49,0.25 a 0.08,0.08 0 0 1 0,-0.15 z"
       transform="translate(-4.09,-5)"
       id="path400"
       inkscape:connector-curvature="0"
       style="fill:#125e6b;fill-opacity:1" />
    <path
       d="M 69.57,55.26 71.07,55 a 0.08,0.08 0 0 1 0,0.15 l -1.5,0.26 a 0.08,0.08 0 0 1 0,-0.15 z"
       transform="translate(-4.09,-5)"
       id="path402"
       inkscape:connector-curvature="0"
       style="fill:#125e6b;fill-opacity:1" />
    <path
       d="m 71.92,58.48 a 2.34,2.34 0 0 0 -0.84,-1.62 c -0.08,-0.06 0,-0.18 0.09,-0.12 a 2.49,2.49 0 0 1 0.9,1.72 0.08,0.08 0 0 1 -0.15,0 z"
       transform="translate(-4.09,-5)"
       id="path404"
       inkscape:connector-curvature="0"
       style="fill:#125e6b;fill-opacity:1" />
    <path
       d="m 71,56.15 -1,0.17 a 0.08,0.08 0 0 1 0,-0.15 L 71,56 a 0.08,0.08 0 0 1 0,0.15 z"
       transform="translate(-4.09,-5)"
       id="path406"
       inkscape:connector-curvature="0"
       style="fill:#125e6b;fill-opacity:1" />
    <path
       d="m 71.07,55.65 -1.29,0.22 a 0.08,0.08 0 0 1 0,-0.15 L 71,55.5 a 0.08,0.08 0 0 1 0,0.15 z"
       transform="translate(-4.09,-5)"
       id="path408"
       inkscape:connector-curvature="0"
       style="fill:#125e6b;fill-opacity:1" />
    <path
       d="m 71.17,57.22 -1,0.17 a 0.08,0.08 0 0 1 0,-0.15 l 1,-0.17 a 0.08,0.08 0 0 1 0,0.15 z"
       transform="translate(-4.09,-5)"
       id="path410"
       inkscape:connector-curvature="0"
       style="fill:#125e6b;fill-opacity:1" />
    <path
       d="m 71.41,57.67 -1.29,0.22 a 0.08,0.08 0 0 1 0,-0.15 l 1.29,-0.22 a 0.08,0.08 0 0 1 0,0.15 z"
       transform="translate(-4.09,-5)"
       id="path412"
       inkscape:connector-curvature="0"
       style="fill:#125e6b;fill-opacity:1" />
    <path
       d="m 71.59,58.12 -1.49,0.25 a 0.08,0.08 0 0 1 0,-0.15 L 71.56,58 a 0.08,0.08 0 0 1 0,0.15 z"
       transform="translate(-4.09,-5)"
       id="path414"
       inkscape:connector-curvature="0"
       style="fill:#125e6b;fill-opacity:1" />
    <path
       d="m 71.67,58.6 -1.5,0.26 a 0.08,0.08 0 0 1 0,-0.15 l 1.5,-0.26 a 0.08,0.08 0 0 1 0,0.15 z"
       transform="translate(-4.09,-5)"
       id="path416"
       inkscape:connector-curvature="0"
       style="fill:#125e6b;fill-opacity:1" />
    <path
       d="M 69.57,53.6 A 1.91,1.91 0 0 0 69.25,55 2.08,2.08 0 0 0 70,56.46 c 0.08,0.06 0,0.19 -0.09,0.13 a 2.23,2.23 0 0 1 -0.8,-1.51 2.07,2.07 0 0 1 0.35,-1.56 c 0.06,-0.08 0.19,0 0.13,0.09 z"
       transform="translate(-4.09,-5)"
       id="path418"
       inkscape:connector-curvature="0"
       style="fill:#125e6b;fill-opacity:1" />
    <path
       d="m 69.73,58.85 a 2.47,2.47 0 0 1 0.33,-1.92 0.93,0.93 0 0 1 0.55,-0.32 0.93,0.93 0 0 0 0.6,-0.58 2.38,2.38 0 0 0 -0.21,-2.16 1.18,1.18 0 0 0 -0.71,-0.54 1.4,1.4 0 0 0 -0.34,0 0.8,0.8 0 0 1 -0.34,-0.06 2.3,2.3 0 0 1 -1.1,-1.78 0.08,0.08 0 0 1 0.15,0 3,3 0 0 0 0.34,1.1 1.29,1.29 0 0 0 0.66,0.57 0.89,0.89 0 0 0 0.35,0 0.87,0.87 0 0 1 0.36,0 1.39,1.39 0 0 1 0.64,0.52 2.6,2.6 0 0 1 0.4,2 1.57,1.57 0 0 1 -0.37,0.75 0.94,0.94 0 0 1 -0.28,0.21 c -0.1,0 -0.21,0.05 -0.31,0.09 a 1.05,1.05 0 0 0 -0.56,0.73 2.9,2.9 0 0 0 -0.05,1.3 0.08,0.08 0 0 1 -0.15,0 z"
       transform="translate(-4.09,-5)"
       id="path420"
       inkscape:connector-curvature="0"
       style="fill:#125e6b;fill-opacity:1" />
    <path
       d="M 70,58.23 71.54,58 a 0.08,0.08 0 0 1 0,0.15 l -1.49,0.25 a 0.08,0.08 0 0 1 0,-0.15 z"
       transform="translate(-4.09,-5)"
       id="path422"
       inkscape:connector-curvature="0"
       style="fill:#125e6b;fill-opacity:1" />
    <path
       d="m 70.13,58.7 1.5,-0.26 a 0.08,0.08 0 0 1 0,0.15 l -1.5,0.26 a 0.08,0.08 0 0 1 0,-0.15 z"
       transform="translate(-4.09,-5)"
       id="path424"
       inkscape:connector-curvature="0"
       style="fill:#125e6b;fill-opacity:1" />
    <path
       d="m 72.5,61.91 a 2.34,2.34 0 0 0 -0.88,-1.6 c -0.08,-0.05 0,-0.18 0.09,-0.13 a 2.49,2.49 0 0 1 0.95,1.7 0.08,0.08 0 0 1 -0.15,0 z"
       transform="translate(-4.09,-5)"
       id="path426"
       inkscape:connector-curvature="0"
       style="fill:#125e6b;fill-opacity:1" />
    <path
       d="m 71.55,59.59 -1,0.17 a 0.08,0.08 0 0 1 0,-0.15 l 1,-0.17 a 0.08,0.08 0 0 1 0,0.15 z"
       transform="translate(-4.09,-5)"
       id="path428"
       inkscape:connector-curvature="0"
       style="fill:#125e6b;fill-opacity:1" />
    <path
       d="m 71.62,59.09 -1.29,0.22 a 0.08,0.08 0 0 1 0,-0.15 l 1.29,-0.22 a 0.08,0.08 0 0 1 0,0.15 z"
       transform="translate(-4.09,-5)"
       id="path430"
       inkscape:connector-curvature="0"
       style="fill:#125e6b;fill-opacity:1" />
    <path
       d="m 71.73,60.66 -1,0.17 a 0.08,0.08 0 0 1 0,-0.15 l 1,-0.17 a 0.08,0.08 0 0 1 0,0.15 z"
       transform="translate(-4.09,-5)"
       id="path432"
       inkscape:connector-curvature="0"
       style="fill:#125e6b;fill-opacity:1" />
    <path
       d="m 72,61.1 -1.29,0.22 a 0.08,0.08 0 0 1 0,-0.15 L 71.94,61 a 0.08,0.08 0 0 1 0,0.15 z"
       transform="translate(-4.09,-5)"
       id="path434"
       inkscape:connector-curvature="0"
       style="fill:#125e6b;fill-opacity:1" />
    <path
       d="m 72.14,61.56 -1.49,0.25 a 0.08,0.08 0 0 1 0,-0.15 l 1.49,-0.25 a 0.08,0.08 0 0 1 0,0.15 z"
       transform="translate(-4.09,-5)"
       id="path436"
       inkscape:connector-curvature="0"
       style="fill:#125e6b;fill-opacity:1" />
    <path
       d="m 72.23,62 -1.5,0.26 a 0.08,0.08 0 0 1 0,-0.15 l 1.5,-0.26 a 0.08,0.08 0 0 1 0,0.15 z"
       transform="translate(-4.09,-5)"
       id="path438"
       inkscape:connector-curvature="0"
       style="fill:#125e6b;fill-opacity:1" />
    <path
       d="m 70.49,59.91 a 2.08,2.08 0 0 1 -0.66,-1.45 2.59,2.59 0 0 1 0,-0.42 l -0.16,0.09 a 2.84,2.84 0 0 0 0,0.35 2.23,2.23 0 0 0 0.73,1.52 c 0.08,0.1 0.17,0 0.09,-0.09 z"
       transform="translate(-4.09,-5)"
       id="path440"
       inkscape:connector-curvature="0"
       style="fill:#125e6b;fill-opacity:1" />
    <path
       d="m 71.67,57.58 a 2.36,2.36 0 0 1 0.09,1.88 0.93,0.93 0 0 1 -0.6,0.58 0.93,0.93 0 0 0 -0.55,0.32 2.47,2.47 0 0 0 -0.33,1.92 0.08,0.08 0 0 0 0.15,0 2.9,2.9 0 0 1 0.05,-1.3 1.05,1.05 0 0 1 0.56,-0.73 c 0.1,0 0.21,0 0.31,-0.09 A 0.94,0.94 0 0 0 71.63,59.95 1.57,1.57 0 0 0 72,59.2 2.62,2.62 0 0 0 71.79,57.53 Z"
       transform="translate(-4.09,-5)"
       id="path442"
       inkscape:connector-curvature="0"
       style="fill:#125e6b;fill-opacity:1" />
    <path
       d="M 63.09,45.78 A 2.38,2.38 0 0 1 62.81,44 0.08,0.08 0 0 0 62.66,44 2.53,2.53 0 0 0 63,45.87 c 0.06,0.08 0.19,0 0.13,-0.09 z"
       transform="translate(-4.09,-5)"
       id="path444"
       inkscape:connector-curvature="0"
       style="fill:#125e6b;fill-opacity:1" />
    <path
       d="m 63.1,45.6 1,0.17 a 0.08,0.08 0 0 0 0,-0.15 l -1,-0.17 a 0.08,0.08 0 0 0 0,0.15 z"
       transform="translate(-4.09,-5)"
       id="path446"
       inkscape:connector-curvature="0"
       style="fill:#125e6b;fill-opacity:1" />
    <path
       d="m 63,45.1 1.29,0.22 a 0.08,0.08 0 0 0 0,-0.15 L 63,44.94 a 0.08,0.08 0 0 0 0,0.15 z"
       transform="translate(-4.09,-5)"
       id="path448"
       inkscape:connector-curvature="0"
       style="fill:#125e6b;fill-opacity:1" />
    <path
       d="m 63,44.61 1.49,0.25 a 0.08,0.08 0 0 0 0,-0.15 L 63,44.45 a 0.08,0.08 0 0 0 0,0.15 z"
       transform="translate(-4.09,-5)"
       id="path450"
       inkscape:connector-curvature="0"
       style="fill:#125e6b;fill-opacity:1" />
    <path
       d="m 63.08,44.13 1.5,0.26 a 0.08,0.08 0 0 0 0,-0.15 L 63.1,44 a 0.08,0.08 0 0 0 0,0.15 z"
       transform="translate(-4.09,-5)"
       id="path452"
       inkscape:connector-curvature="0"
       style="fill:#125e6b;fill-opacity:1" />
    <path
       d="m 63.92,46.68 -1,-0.17 a 0.08,0.08 0 0 0 0,0.15 l 1,0.17 a 0.08,0.08 0 0 0 0,-0.15 z"
       transform="translate(-4.09,-5)"
       id="path454"
       inkscape:connector-curvature="0"
       style="fill:#125e6b;fill-opacity:1" />
    <path
       d="M 64,47.18 62.7,47 a 0.08,0.08 0 0 0 0,0.15 l 1.29,0.22 a 0.08,0.08 0 0 0 0,-0.15 z"
       transform="translate(-4.09,-5)"
       id="path456"
       inkscape:connector-curvature="0"
       style="fill:#125e6b;fill-opacity:1" />
    <path
       d="m 64,47.67 -1.49,-0.25 a 0.08,0.08 0 0 0 0,0.15 L 64,47.82 a 0.08,0.08 0 0 0 0,-0.15 z"
       transform="translate(-4.09,-5)"
       id="path458"
       inkscape:connector-curvature="0"
       style="fill:#125e6b;fill-opacity:1" />
    <path
       d="m 63.94,48.14 -1.5,-0.26 a 0.08,0.08 0 0 0 0,0.15 l 1.5,0.26 a 0.08,0.08 0 0 0 0,-0.15 z"
       transform="translate(-4.09,-5)"
       id="path460"
       inkscape:connector-curvature="0"
       style="fill:#125e6b;fill-opacity:1" />
    <path
       d="m 61.56,51.35 a 2.34,2.34 0 0 1 0.88,-1.6 c 0.08,-0.05 0,-0.18 -0.09,-0.13 a 2.49,2.49 0 0 0 -0.95,1.7 0.08,0.08 0 0 0 0.15,0 z"
       transform="translate(-4.09,-5)"
       id="path462"
       inkscape:connector-curvature="0"
       style="fill:#125e6b;fill-opacity:1" />
    <path
       d="m 62.51,49 1,0.17 a 0.08,0.08 0 0 0 0,-0.15 l -1,-0.17 a 0.08,0.08 0 0 0 0,0.15 z"
       transform="translate(-4.09,-5)"
       id="path464"
       inkscape:connector-curvature="0"
       style="fill:#125e6b;fill-opacity:1" />
    <path
       d="m 62.44,48.53 1.29,0.22 a 0.08,0.08 0 0 0 0,-0.15 l -1.29,-0.22 a 0.08,0.08 0 0 0 0,0.15 z"
       transform="translate(-4.09,-5)"
       id="path466"
       inkscape:connector-curvature="0"
       style="fill:#125e6b;fill-opacity:1" />
    <path
       d="m 62.33,50.1 1,0.17 a 0.08,0.08 0 0 0 0,-0.15 l -1,-0.17 a 0.08,0.08 0 0 0 0,0.15 z"
       transform="translate(-4.09,-5)"
       id="path468"
       inkscape:connector-curvature="0"
       style="fill:#125e6b;fill-opacity:1" />
    <path
       d="m 62.09,50.55 1.29,0.22 a 0.08,0.08 0 0 0 0,-0.15 L 62.09,50.4 a 0.08,0.08 0 0 0 0,0.15 z"
       transform="translate(-4.09,-5)"
       id="path470"
       inkscape:connector-curvature="0"
       style="fill:#125e6b;fill-opacity:1" />
    <path
       d="m 61.92,51 1.49,0.25 a 0.08,0.08 0 0 0 0,-0.15 l -1.49,-0.25 a 0.08,0.08 0 0 0 0,0.15 z"
       transform="translate(-4.09,-5)"
       id="path472"
       inkscape:connector-curvature="0"
       style="fill:#125e6b;fill-opacity:1" />
    <path
       d="m 61.83,51.48 1.5,0.26 a 0.08,0.08 0 0 0 0,-0.15 l -1.5,-0.26 a 0.08,0.08 0 0 0 0,0.15 z"
       transform="translate(-4.09,-5)"
       id="path474"
       inkscape:connector-curvature="0"
       style="fill:#125e6b;fill-opacity:1" />
    <path
       d="m 63.93,46.48 a 1.91,1.91 0 0 1 0.32,1.45 2.08,2.08 0 0 1 -0.73,1.41 c -0.08,0.06 0,0.19 0.09,0.13 a 2.23,2.23 0 0 0 0.8,-1.51 2.07,2.07 0 0 0 -0.35,-1.56 c -0.06,-0.08 -0.19,0 -0.13,0.09 z"
       transform="translate(-4.09,-5)"
       id="path476"
       inkscape:connector-curvature="0"
       style="fill:#125e6b;fill-opacity:1" />
    <path
       d="m 63.78,51.73 a 2.47,2.47 0 0 0 -0.33,-1.92 0.93,0.93 0 0 0 -0.55,-0.32 0.93,0.93 0 0 1 -0.6,-0.58 2.38,2.38 0 0 1 0.25,-2.16 1.18,1.18 0 0 1 0.71,-0.54 1.4,1.4 0 0 1 0.34,0 0.8,0.8 0 0 0 0.34,-0.06 2.3,2.3 0 0 0 1.06,-1.76 0.08,0.08 0 0 0 -0.15,0 3,3 0 0 1 -0.41,1.11 1.29,1.29 0 0 1 -0.66,0.57 0.89,0.89 0 0 1 -0.35,0 0.87,0.87 0 0 0 -0.36,0 1.39,1.39 0 0 0 -0.64,0.52 2.6,2.6 0 0 0 -0.4,2 1.57,1.57 0 0 0 0.37,0.75 0.94,0.94 0 0 0 0.28,0.21 c 0.1,0 0.21,0.05 0.31,0.09 a 1.05,1.05 0 0 1 0.56,0.73 2.9,2.9 0 0 1 0.05,1.3 0.08,0.08 0 0 0 0.15,0 z"
       transform="translate(-4.09,-5)"
       id="path478"
       inkscape:connector-curvature="0"
       style="fill:#125e6b;fill-opacity:1" />
    <path
       d="m 61.85,53.12 a 2.38,2.38 0 0 1 -0.28,-1.77 0.08,0.08 0 0 0 -0.15,0 2.53,2.53 0 0 0 0.31,1.89 c 0.06,0.08 0.19,0 0.13,-0.09 z"
       transform="translate(-4.09,-5)"
       id="path480"
       inkscape:connector-curvature="0"
       style="fill:#125e6b;fill-opacity:1" />
    <path
       d="m 61.85,52.94 1,0.17 a 0.08,0.08 0 0 0 0,-0.15 l -1,-0.17 a 0.08,0.08 0 0 0 0,0.15 z"
       transform="translate(-4.09,-5)"
       id="path482"
       inkscape:connector-curvature="0"
       style="fill:#125e6b;fill-opacity:1" />
    <path
       d="m 61.78,52.44 1.29,0.22 a 0.08,0.08 0 0 0 0,-0.15 l -1.29,-0.22 a 0.08,0.08 0 0 0 0,0.15 z"
       transform="translate(-4.09,-5)"
       id="path484"
       inkscape:connector-curvature="0"
       style="fill:#125e6b;fill-opacity:1" />
    <path
       d="m 61.76,52 1.49,0.25 a 0.08,0.08 0 0 0 0,-0.15 l -1.49,-0.25 a 0.08,0.08 0 0 0 0,0.15 z"
       transform="translate(-4.09,-5)"
       id="path486"
       inkscape:connector-curvature="0"
       style="fill:#125e6b;fill-opacity:1" />
    <path
       d="m 61.83,51.47 1.5,0.26 a 0.08,0.08 0 0 0 0,-0.15 l -1.5,-0.26 a 0.08,0.08 0 0 0 0,0.15 z"
       transform="translate(-4.09,-5)"
       id="path488"
       inkscape:connector-curvature="0"
       style="fill:#125e6b;fill-opacity:1" />
    <path
       d="m 62.68,54 -1,-0.17 a 0.08,0.08 0 0 0 0,0.15 l 1,0.17 a 0.08,0.08 0 0 0 0,-0.15 z"
       transform="translate(-4.09,-5)"
       id="path490"
       inkscape:connector-curvature="0"
       style="fill:#125e6b;fill-opacity:1" />
    <path
       d="M 62.75,54.52 61.46,54.3 a 0.08,0.08 0 0 0 0,0.15 l 1.29,0.22 a 0.08,0.08 0 0 0 0,-0.15 z"
       transform="translate(-4.09,-5)"
       id="path492"
       inkscape:connector-curvature="0"
       style="fill:#125e6b;fill-opacity:1" />
    <path
       d="m 62.77,55 -1.49,-0.25 a 0.08,0.08 0 0 0 0,0.15 l 1.49,0.25 a 0.08,0.08 0 0 0 0,-0.15 z"
       transform="translate(-4.09,-5)"
       id="path494"
       inkscape:connector-curvature="0"
       style="fill:#125e6b;fill-opacity:1" />
    <path
       d="m 62.69,55.49 -1.5,-0.26 a 0.08,0.08 0 0 0 0,0.15 l 1.5,0.26 a 0.08,0.08 0 0 0 0,-0.15 z"
       transform="translate(-4.09,-5)"
       id="path496"
       inkscape:connector-curvature="0"
       style="fill:#125e6b;fill-opacity:1" />
    <path
       d="m 60.34,58.71 a 2.34,2.34 0 0 1 0.84,-1.62 c 0.08,-0.06 0,-0.18 -0.09,-0.12 a 2.49,2.49 0 0 0 -0.9,1.72 0.08,0.08 0 0 0 0.15,0 z"
       transform="translate(-4.09,-5)"
       id="path498"
       inkscape:connector-curvature="0"
       style="fill:#125e6b;fill-opacity:1" />
    <path
       d="m 61.27,56.38 1,0.17 a 0.08,0.08 0 0 0 0,-0.15 l -1,-0.17 a 0.08,0.08 0 0 0 0,0.15 z"
       transform="translate(-4.09,-5)"
       id="path500"
       inkscape:connector-curvature="0"
       style="fill:#125e6b;fill-opacity:1" />
    <path
       d="m 61.19,55.88 1.29,0.22 a 0.08,0.08 0 0 0 0,-0.15 l -1.29,-0.22 a 0.08,0.08 0 0 0 0,0.15 z"
       transform="translate(-4.09,-5)"
       id="path502"
       inkscape:connector-curvature="0"
       style="fill:#125e6b;fill-opacity:1" />
    <path
       d="m 61.09,57.44 1,0.17 a 0.08,0.08 0 0 0 0,-0.15 l -1,-0.17 a 0.08,0.08 0 0 0 0,0.15 z"
       transform="translate(-4.09,-5)"
       id="path504"
       inkscape:connector-curvature="0"
       style="fill:#125e6b;fill-opacity:1" />
    <path
       d="m 60.85,57.89 1.29,0.22 a 0.08,0.08 0 0 0 0,-0.15 l -1.29,-0.22 a 0.08,0.08 0 0 0 0,0.15 z"
       transform="translate(-4.09,-5)"
       id="path506"
       inkscape:connector-curvature="0"
       style="fill:#125e6b;fill-opacity:1" />
    <path
       d="m 60.67,58.35 1.49,0.25 a 0.08,0.08 0 0 0 0,-0.15 L 60.67,58.2 a 0.08,0.08 0 0 0 0,0.15 z"
       transform="translate(-4.09,-5)"
       id="path508"
       inkscape:connector-curvature="0"
       style="fill:#125e6b;fill-opacity:1" />
    <path
       d="m 60.59,58.82 1.5,0.26 a 0.08,0.08 0 0 0 0,-0.15 l -1.5,-0.26 a 0.08,0.08 0 0 0 0,0.15 z"
       transform="translate(-4.09,-5)"
       id="path510"
       inkscape:connector-curvature="0"
       style="fill:#125e6b;fill-opacity:1" />
    <path
       d="m 62.69,53.82 a 1.91,1.91 0 0 1 0.31,1.45 2.08,2.08 0 0 1 -0.73,1.41 c -0.08,0.06 0,0.19 0.09,0.13 a 2.23,2.23 0 0 0 0.8,-1.51 2.07,2.07 0 0 0 -0.35,-1.56 c -0.06,-0.08 -0.19,0 -0.13,0.09 z"
       transform="translate(-4.09,-5)"
       id="path512"
       inkscape:connector-curvature="0"
       style="fill:#125e6b;fill-opacity:1" />
    <path
       d="m 62.53,59.07 a 2.47,2.47 0 0 0 -0.33,-1.92 0.93,0.93 0 0 0 -0.55,-0.32 0.93,0.93 0 0 1 -0.6,-0.58 2.38,2.38 0 0 1 0.25,-2.16 1.18,1.18 0 0 1 0.71,-0.54 1.4,1.4 0 0 1 0.34,0 0.8,0.8 0 0 0 0.34,-0.06 2.3,2.3 0 0 0 1.1,-1.78 0.08,0.08 0 0 0 -0.15,0 3,3 0 0 1 -0.41,1.11 1.29,1.29 0 0 1 -0.66,0.57 0.89,0.89 0 0 1 -0.35,0 0.87,0.87 0 0 0 -0.36,0 1.39,1.39 0 0 0 -0.64,0.52 2.6,2.6 0 0 0 -0.4,2 1.57,1.57 0 0 0 0.37,0.75 0.94,0.94 0 0 0 0.28,0.21 c 0.1,0 0.21,0.05 0.31,0.09 a 1.05,1.05 0 0 1 0.56,0.73 2.9,2.9 0 0 1 0.05,1.3 0.08,0.08 0 0 0 0.15,0 z"
       transform="translate(-4.09,-5)"
       id="path514"
       inkscape:connector-curvature="0"
       style="fill:#125e6b;fill-opacity:1" />
    <path
       d="M 62.21,58.45 60.72,58.2 a 0.08,0.08 0 0 0 0,0.15 l 1.49,0.25 a 0.08,0.08 0 0 0 0,-0.15 z"
       transform="translate(-4.09,-5)"
       id="path516"
       inkscape:connector-curvature="0"
       style="fill:#125e6b;fill-opacity:1" />
    <path
       d="m 62.13,58.93 -1.5,-0.26 a 0.08,0.08 0 0 0 0,0.15 l 1.5,0.26 a 0.08,0.08 0 0 0 0,-0.15 z"
       transform="translate(-4.09,-5)"
       id="path518"
       inkscape:connector-curvature="0"
       style="fill:#125e6b;fill-opacity:1" />
    <path
       d="m 59.76,62.13 a 2.34,2.34 0 0 1 0.88,-1.6 c 0.08,-0.05 0,-0.18 -0.09,-0.13 a 2.49,2.49 0 0 0 -0.95,1.7 0.08,0.08 0 0 0 0.15,0 z"
       transform="translate(-4.09,-5)"
       id="path520"
       inkscape:connector-curvature="0"
       style="fill:#125e6b;fill-opacity:1" />
    <path
       d="m 60.71,59.82 1,0.17 a 0.08,0.08 0 0 0 0,-0.15 l -1,-0.17 a 0.08,0.08 0 0 0 0,0.15 z"
       transform="translate(-4.09,-5)"
       id="path522"
       inkscape:connector-curvature="0"
       style="fill:#125e6b;fill-opacity:1" />
    <path
       d="m 60.64,59.31 1.29,0.22 a 0.08,0.08 0 0 0 0,-0.15 l -1.29,-0.22 a 0.08,0.08 0 0 0 0,0.15 z"
       transform="translate(-4.09,-5)"
       id="path524"
       inkscape:connector-curvature="0"
       style="fill:#125e6b;fill-opacity:1" />
    <path
       d="m 60.53,60.88 1,0.17 a 0.08,0.08 0 0 0 0,-0.15 l -1,-0.17 a 0.08,0.08 0 0 0 0,0.15 z"
       transform="translate(-4.09,-5)"
       id="path526"
       inkscape:connector-curvature="0"
       style="fill:#125e6b;fill-opacity:1" />
    <path
       d="m 60.29,61.33 1.29,0.22 a 0.08,0.08 0 0 0 0,-0.15 l -1.29,-0.22 a 0.08,0.08 0 0 0 0,0.15 z"
       transform="translate(-4.09,-5)"
       id="path528"
       inkscape:connector-curvature="0"
       style="fill:#125e6b;fill-opacity:1" />
    <path
       d="M 60.12,61.79 61.6,62 a 0.08,0.08 0 0 0 0,-0.15 L 60.11,61.6 a 0.08,0.08 0 0 0 0,0.15 z"
       transform="translate(-4.09,-5)"
       id="path530"
       inkscape:connector-curvature="0"
       style="fill:#125e6b;fill-opacity:1" />
    <path
       d="m 60,62.26 1.5,0.26 a 0.08,0.08 0 0 0 0,-0.15 L 60,62.11 a 0.08,0.08 0 0 0 0,0.15 z"
       transform="translate(-4.09,-5)"
       id="path532"
       inkscape:connector-curvature="0"
       style="fill:#125e6b;fill-opacity:1" />
    <path
       d="m 61.77,60.14 a 2.08,2.08 0 0 0 0.66,-1.45 2.59,2.59 0 0 0 0,-0.42 l 0.16,0.09 a 2.84,2.84 0 0 1 0,0.35 2.23,2.23 0 0 1 -0.72,1.55 c -0.09,0.06 -0.18,-0.06 -0.1,-0.12 z"
       transform="translate(-4.09,-5)"
       id="path534"
       inkscape:connector-curvature="0"
       style="fill:#125e6b;fill-opacity:1" />
    <path
       d="m 60.59,57.81 a 2.36,2.36 0 0 0 -0.09,1.88 0.93,0.93 0 0 0 0.6,0.58 0.93,0.93 0 0 1 0.55,0.32 2.47,2.47 0 0 1 0.35,1.92 0.08,0.08 0 0 1 -0.15,0 2.9,2.9 0 0 0 -0.05,-1.3 1.05,1.05 0 0 0 -0.56,-0.73 c -0.1,0 -0.21,0 -0.31,-0.09 a 0.94,0.94 0 0 1 -0.28,-0.21 1.57,1.57 0 0 1 -0.37,-0.75 2.62,2.62 0 0 1 0.21,-1.67 z"
       transform="translate(-4.09,-5)"
       id="path536"
       inkscape:connector-curvature="0"
       style="fill:#125e6b;fill-opacity:1" />
    <path
       d="m 71.62,63.9 c -1.77,0.29 -2,-1.5 -2.22,-2.74 L 68.65,56.61 66.92,46.07 c -0.16,-1 -0.6,-2.29 0.15,-3.15 a 1.82,1.82 0 0 1 3.13,1 c 0.06,0.27 0.09,0.54 0.13,0.81 l 1.67,9.89 0.91,5.53 c 0.24,1.44 0.77,3.3 -1.25,3.76 -0.59,0.13 -0.34,1 0.25,0.91 a 2.77,2.77 0 0 0 2.23,-2.92 c 0,-0.31 -0.09,-0.62 -0.14,-0.93 L 73.22,56.24 71.3,44.54 c -0.25,-1.49 -0.79,-3 -2.56,-3.14 -2.1,-0.22 -3.21,1.7 -2.91,3.55 0.59,3.62 1.19,7.25 1.79,10.87 l 1,5.89 c 0.05,0.31 0.09,0.62 0.15,0.92 a 2.78,2.78 0 0 0 3.18,2.2 c 0.52,-0.12 0.27,-1.03 -0.33,-0.93 z"
       transform="translate(-4.09,-5)"
       id="path538"
       inkscape:connector-curvature="0"
       style="fill:#125e6b;fill-opacity:1" />
    <path
       d="m 60.44,64.81 c 1.9,0.31 3,-1.13 3.28,-2.8 l 0.76,-4.63 1.94,-11.78 c 0.24,-1.43 0.37,-2.92 -1.08,-3.82 a 2.78,2.78 0 0 0 -4.18,2.12 c -0.62,3.57 -1.18,7.16 -1.77,10.74 l -1,6 c -0.06,0.34 -0.12,0.67 -0.17,1 a 2.79,2.79 0 0 0 2.19,3.18 c 0.59,0.13 0.84,-0.78 0.25,-0.91 -1.83,-0.41 -1.54,-2 -1.32,-3.32 L 60.13,56 61.85,45.52 c 0.17,-1 0.18,-2.39 1.18,-2.94 a 1.81,1.81 0 0 1 2.64,1.85 c 0,0.29 -0.1,0.59 -0.15,0.88 l -1.65,10 -0.87,5.43 c -0.21,1.3 -0.35,3.48 -2.29,3.16 -0.61,-0.1 -0.87,0.81 -0.27,0.91 z"
       transform="translate(-4.09,-5)"
       id="path540"
       inkscape:connector-curvature="0"
       style="fill:#125e6b;fill-opacity:1" />
    <path
       d="M 71.73,26.74 A 2.77,2.77 0 0 0 68.39,28 14.64,14.64 0 0 0 67.71,29.75 c -0.63,1.68 -1.34,3.35 -1.89,5.06 a 2.75,2.75 0 0 0 4.63,2.73 5.57,5.57 0 0 0 0.85,-1.79 l 1.16,-3.11 c 0.3,-0.8 0.64,-1.61 0.91,-2.42 a 2.78,2.78 0 0 0 -1.53,-3.47 c -0.55,-0.24 -1,0.57 -0.48,0.81 2,0.87 1,2.73 0.44,4.16 -0.56,1.43 -1.07,2.91 -1.63,4.36 a 1.91,1.91 0 0 1 -2,1.43 A 1.83,1.83 0 0 1 66.75,35 c 0.43,-1.33 1,-2.64 1.48,-3.95 0.48,-1.31 1.09,-4.25 3.25,-3.45 0.52,0.26 0.81,-0.6 0.25,-0.86 z"
       transform="translate(-4.09,-5)"
       id="path542"
       inkscape:connector-curvature="0"
       style="fill:#125e6b;fill-opacity:1" />
    <path
       d="m 60.78,27.65 c 2,-0.73 2.5,1.45 3,2.78 0.5,1.33 1.1,2.9 1.63,4.36 A 2,2 0 0 1 65,37.14 1.82,1.82 0 0 1 62.14,36.38 c -0.56,-1.28 -1,-2.64 -1.48,-3.95 -0.58,-1.54 -2,-3.88 0.19,-4.83 0.55,-0.24 0.07,-1.06 -0.48,-0.81 a 2.78,2.78 0 0 0 -1.54,3.44 c 0.18,0.58 0.43,1.14 0.64,1.71 0.6,1.6 1.13,3.25 1.81,4.82 1.21,2.81 5.59,1.9 5.27,-1.26 A 7.66,7.66 0 0 0 66,33.69 L 64.81,30.51 C 64.55,29.81 64.3,29.09 64.02,28.4 A 2.77,2.77 0 0 0 60.53,26.74 C 60,27 60.21,27.86 60.78,27.65 Z"
       transform="translate(-4.09,-5)"
       id="path544"
       inkscape:connector-curvature="0"
       style="fill:#125e6b;fill-opacity:1" />
    <path
       d="m 68.15,39.95 c -0.13,2.54 -4,2.59 -4,0 0,-2.59 3.86,-2.55 4,0 0,0.6 1,0.61 0.94,0 a 2.94,2.94 0 1 0 -2.94,2.94 3,3 0 0 0 2.94,-2.94 c 0.04,-0.61 -0.91,-0.61 -0.94,0 z"
       transform="translate(-4.09,-5)"
       id="path546"
       inkscape:connector-curvature="0"
       style="fill:#125e6b;fill-opacity:1" />
  </g>
</svg>
