<?xml version="1.0" encoding="UTF-8" standalone="no"?>
<svg
   xmlns:dc="http://purl.org/dc/elements/1.1/"
   xmlns:cc="http://creativecommons.org/ns#"
   xmlns:rdf="http://www.w3.org/1999/02/22-rdf-syntax-ns#"
   xmlns:svg="http://www.w3.org/2000/svg"
   xmlns="http://www.w3.org/2000/svg"
   xmlns:sodipodi="http://sodipodi.sourceforge.net/DTD/sodipodi-0.dtd"
   xmlns:inkscape="http://www.inkscape.org/namespaces/inkscape"
   version="1.1"
   x="0px"
   y="0px"
   viewBox="0 0 64 64"
   style="enable-background:new 0 0 64 64;"
   xml:space="preserve"
   id="svg16"
   sodipodi:docname="hygiene.svg"
   inkscape:version="0.92.4 (5da689c313, 2019-01-14)"><metadata
     id="metadata22"><rdf:RDF><cc:Work
         rdf:about=""><dc:format>image/svg+xml</dc:format><dc:type
           rdf:resource="http://purl.org/dc/dcmitype/StillImage" /><dc:title></dc:title></cc:Work></rdf:RDF></metadata><defs
     id="defs20" /><sodipodi:namedview
     pagecolor="#ffffff"
     bordercolor="#666666"
     borderopacity="1"
     objecttolerance="10"
     gridtolerance="10"
     guidetolerance="10"
     inkscape:pageopacity="0"
     inkscape:pageshadow="2"
     inkscape:window-width="1600"
     inkscape:window-height="836"
     id="namedview18"
     showgrid="false"
     inkscape:zoom="3.6875"
     inkscape:cx="1.7627119"
     inkscape:cy="32"
     inkscape:window-x="0"
     inkscape:window-y="27"
     inkscape:window-maximized="1"
     inkscape:current-layer="svg16" /><g
     id="g14"
     style="fill:#125e6b;fill-opacity:1"><path
       d="m 27.512,34.982 c -0.055,0.111 -0.1,0.226 -0.146,0.341 0.535,-0.193 1.104,-0.316 1.704,-0.316 1.004,0 1.977,0.295 2.812,0.852 l 4.738,3.159 C 36.861,38.443 37,37.815 37,37.153 37,36.399 36.825,35.656 36.488,34.982 L 32,26.007 Z"
       id="path2"
       inkscape:connector-curvature="0"
       style="fill:#125e6b;fill-opacity:1" /><polygon
       points="34,12.007 30,12.007 30,16.007 26,16.007 26,20.007 30,20.007 30,24.007 34,24.007 34,20.007 38,20.007 38,16.007 34,16.007 "
       id="polygon4"
       style="fill:#125e6b;fill-opacity:1" /><path
       d="m 21.307,39.751 2.239,-3.349 C 19.066,33.546 16.1,28.618 16.1,23.007 c 0,-8.837 7.343,-16 16.4,-16 9.057,0 16.4,7.163 16.4,16 0,5.611 -2.966,10.539 -7.446,13.395 l 2.239,3.349 c 5.6,-3.57 9.307,-9.73 9.307,-16.744 0,-11.046 -9.178,-20 -20.5,-20 -11.322,0 -20.5,8.954 -20.5,20 0,7.014 3.708,13.174 9.307,16.744 z"
       id="path6"
       inkscape:connector-curvature="0"
       style="fill:#125e6b;fill-opacity:1" /><path
       d="M 43.993,46.335 30.774,37.522 c -0.504,-0.336 -1.097,-0.516 -1.703,-0.516 -1.696,0 -3.07,1.375 -3.07,3.07 v 0.286 c 0,1.027 0.513,1.985 1.367,2.555 l 7.632,5.09 -1.828,1.828 c -0.75,0.75 -1.768,1.172 -2.828,1.172 H 16.657 c -1.061,0 -2.078,-0.422 -2.828,-1.172 L 6.82,42.824 C 6.297,42.301 5.587,42.007 4.847,42.007 H 4.797 C 3.252,42.007 1.999,43.26 2,44.805 v 0.049 c 0,0.738 0.29,1.442 0.812,1.963 1.734,1.734 5.814,5.815 7.905,7.905 0.838,0.838 1.904,1.408 3.065,1.64 l 12.636,2.527 c 0.387,0.077 0.782,0.117 1.177,0.117 H 51 v -12 h -4.789 c -0.789,10e-4 -1.561,-0.232 -2.218,-0.671 z"
       id="path8"
       inkscape:connector-curvature="0"
       style="fill:#125e6b;fill-opacity:1" /><polygon
       points="59,45.007 59,55.007 57,55.007 57,45.007 53,45.007 53,61.007 57,61.007 57,57.007 59,57.007 59,61.007 61.002,61.007 61,45.007 "
       id="polygon10"
       style="fill:#125e6b;fill-opacity:1" /><path
       d="m 11.868,45.046 3.375,3.375 c 0.373,0.372 0.888,0.586 1.414,0.586 h 3.009 L 19.137,48.213 C 17.728,46.099 16.783,43.711 16.366,41.205 16.155,39.936 15.057,39.006 13.77,39.006 h -0.139 c -1.453,0 -2.631,1.178 -2.631,2.631 0,0.245 0.034,0.488 0.101,0.723 z"
       id="path12"
       inkscape:connector-curvature="0"
       style="fill:#125e6b;fill-opacity:1" /></g></svg>