<?xml version="1.0" encoding="UTF-8" standalone="no"?>
<svg
   xmlns:dc="http://purl.org/dc/elements/1.1/"
   xmlns:cc="http://creativecommons.org/ns#"
   xmlns:rdf="http://www.w3.org/1999/02/22-rdf-syntax-ns#"
   xmlns:svg="http://www.w3.org/2000/svg"
   xmlns="http://www.w3.org/2000/svg"
   xmlns:sodipodi="http://sodipodi.sourceforge.net/DTD/sodipodi-0.dtd"
   xmlns:inkscape="http://www.inkscape.org/namespaces/inkscape"
   version="1.1"
   x="0px"
   y="0px"
   viewBox="0 0 100 100"
   enable-background="new 0 0 100 100"
   xml:space="preserve"
   id="svg8"
   sodipodi:docname="logement.svg"
   inkscape:version="0.92.4 (5da689c313, 2019-01-14)"><metadata
     id="metadata14"><rdf:RDF><cc:Work
         rdf:about=""><dc:format>image/svg+xml</dc:format><dc:type
           rdf:resource="http://purl.org/dc/dcmitype/StillImage" /><dc:title></dc:title></cc:Work></rdf:RDF></metadata><defs
     id="defs12" /><sodipodi:namedview
     pagecolor="#ffffff"
     bordercolor="#666666"
     borderopacity="1"
     objecttolerance="10"
     gridtolerance="10"
     guidetolerance="10"
     inkscape:pageopacity="0"
     inkscape:pageshadow="2"
     inkscape:window-width="1600"
     inkscape:window-height="836"
     id="namedview10"
     showgrid="false"
     inkscape:zoom="2.36"
     inkscape:cx="2.7542373"
     inkscape:cy="50"
     inkscape:window-x="0"
     inkscape:window-y="27"
     inkscape:window-maximized="1"
     inkscape:current-layer="svg8" /><g
     id="g843"
     style="fill:#125e6b;fill-opacity:1"><path
       id="path2"
       d="m 50.618,27.728 -39.785,20.27 v 30.058 c 0,0.776 1.051,1.399 2.351,1.399 h 8.825 v -24.46 c 0,-0.776 0.423,-1.385 1.226,-1.404 h 54.546 c 1.256,0 1.424,0.627 1.424,1.404 v 24.46 h 8.833 c 1.3,0 2.343,-0.623 2.343,-1.399 V 47.989 Z"
       inkscape:connector-curvature="0"
       style="fill:#125e6b;fill-opacity:1" /><path
       id="path4"
       d="m 50.786,21.567 44.9,23.533 v 4.238 L 50.603,25.925 5.528,49.339 V 45.1 l 44.9,-23.533 0.184,-0.138 z"
       inkscape:connector-curvature="0"
       style="fill:#125e6b;fill-opacity:1" /><path
       id="path6"
       d="m 22.462,57.262 v -1.393 c 0,-0.776 0.417,-1.385 1.207,-1.404 h 53.683 c 1.236,0 1.401,0.627 1.401,1.404 v 1.393"
       inkscape:connector-curvature="0"
       style="fill:#125e6b;fill-opacity:1" /></g></svg>